/* XPM */
static char *Health_Potion_00005[] = {
/* columns rows colors chars-per-pixel */
"42 50 171 2 ",
"   c None",
".  c #020101",
"X  c #0D0A09",
"o  c #110C0C",
"O  c #1D1514",
"+  c #271B17",
"@  c #251A1A",
"#  c #291E1C",
"$  c #221612",
"%  c #2C211E",
"&  c #37241C",
"*  c #2E2220",
"=  c #352626",
"-  c #372827",
";  c #382827",
":  c #3B2A2A",
">  c #402E2E",
",  c #453231",
"<  c #4A3534",
"1  c #4D3837",
"2  c #4F3938",
"3  c #523B3B",
"4  c #583F3E",
"5  c #58433B",
"6  c #734A3B",
"7  c #5B4241",
"8  c #644847",
"9  c #664948",
"0  c #6A4E4C",
"q  c #614645",
"w  c #6E504F",
"e  c #795857",
"r  c #8E5C49",
"t  c #825E5C",
"y  c #82625F",
"u  c #886663",
"i  c #8F6B68",
"p  c #8B6865",
"a  c #916967",
"s  c #956D6B",
"d  c #986F6D",
"f  c #94706D",
"g  c #9A726F",
"h  c #9C7471",
"j  c #AB7865",
"k  c #AB7764",
"l  c #B27761",
"z  c #B47862",
"x  c #B97F6A",
"c  c #A37674",
"v  c #A67B78",
"b  c #A57C78",
"n  c #D95C6A",
"m  c #D7636E",
"M  c #DB606E",
"N  c #DD6371",
"B  c #DE6F7D",
"V  c #DD6B76",
"C  c #D17C7D",
"Z  c #D37378",
"A  c #E0616F",
"S  c #E66574",
"D  c #E86776",
"F  c #E66877",
"G  c #E96877",
"H  c #E56C7A",
"J  c #EE6E7D",
"K  c #E5707D",
"L  c #ED717E",
"P  c #B9826E",
"I  c #AE827E",
"U  c #AE8D70",
"Y  c #B28574",
"T  c #B1807E",
"R  c #B38878",
"E  c #AC9476",
"W  c #AD9C7D",
"Q  c #B29277",
"!  c #B5957B",
"~  c #B6997F",
"^  c #C38F7C",
"/  c #C4907D",
"(  c #DF7583",
")  c #E77483",
"_  c #EC7482",
"`  c #E57A86",
"'  c #EB7886",
"]  c #E77C88",
"[  c #EB7D8C",
"{  c #AC8580",
"}  c #B18782",
"|  c #B48B86",
" . c #B88885",
".. c #BC8E8A",
"X. c #B79A81",
"o. c #B7908A",
"O. c #BE948E",
"+. c #BE9891",
"@. c #AEA383",
"#. c #B5A78A",
"$. c #B6A98C",
"%. c #BEA88E",
"&. c #BDB295",
"*. c #C58C84",
"=. c #DF8F8F",
"-. c #D38A8A",
";. c #C29483",
":. c #D09F8D",
">. c #C09790",
",. c #C19891",
"<. c #CC9C96",
"1. c #E48287",
"2. c #E3858A",
"3. c #E9808E",
"4. c #E3888B",
"5. c #EC8492",
"6. c #E38F91",
"7. c #EA8A93",
"8. c #F18895",
"9. c #E19090",
"0. c #E89297",
"q. c #E49698",
"w. c #E5999B",
"e. c #F1949E",
"r. c #C0A48B",
"t. c #D1A08E",
"y. c #C6A198",
"u. c #CBA69C",
"i. c #DDA296",
"p. c #DDA39D",
"a. c #D4A290",
"s. c #C7B59B",
"d. c #CAB29A",
"f. c #CCB89E",
"g. c #E3A69C",
"h. c #E99CA4",
"j. c #F39AA5",
"k. c #DBA6A1",
"l. c #DCA8A2",
"z. c #C6BDA1",
"x. c #C8BEA2",
"c. c #DEB1A8",
"v. c #D5BAA0",
"b. c #E1ADA6",
"n. c #E9ACA3",
"m. c #E4AFA8",
"M. c #F4A3AD",
"N. c #E6B5AD",
"B. c #E9B6AE",
"V. c #E8B8AF",
"C. c #E7BAB0",
"Z. c #ECBCB3",
"A. c #DEC6A9",
"S. c #DACAAC",
"D. c #D5CDAE",
"F. c #EDC5B8",
"G. c #EEC8BB",
"H. c #EBC3B6",
"J. c #F0C9BC",
"K. c #EFCACA",
"L. c #F7C1C7",
"P. c #F8C9CE",
"I. c #F7C4CA",
"U. c #F7CFD4",
"Y. c #F9CDD2",
"T. c #FAD5D9",
"R. c #FADCE0",
"E. c #FCE7EA",
"W. c #FAE5E6",
"Q. c #ECFEF3",
"!. c #F5FEF8",
/* pixels */
"                                $ + + + # # & % &                                   ",
"                              & r k k k Y X.X.*.;.5                                 ",
"                            & r z P P P ^ t.t.t.a.;.5                               ",
"                          . 6 z P P P P ^ t.t.t.:.a.R o                             ",
"                        . . 6 P P P P P ^ t.t.t.t.i.Y X .                           ",
"                      3 s d *.p.g.p.q.g.g.n.n.n.n.n.p.g s 7                         ",
"                    , ..                                  ,.3                       ",
"                    2 l.    W X.X.X.@.X.%.s.s.s.s.s.S.    c.8                       ",
"                      0 p.  E Q ~ ~ ~ ~ +.d.d.d.d.f.A.  n.e                         ",
"                      * c H.E Q ~ ~ ~ ~ r.d.d.d.d.v.A.  v ;                         ",
"                    * y B.  E Q ~ X.~ ~ r.d.d.d.d.d.A.  B.s ;                       ",
"                    3 N.    @.U ! ~ ~ ! r.d.d.d.d.v.S.    Z.9                       ",
"                    3 B.      @.! %.$.$.&.z.z.z.x.D.      H.9                       ",
"                    3 B.                                  Z.0                       ",
"                  ; I                                   Q.  } ,                     ",
"                  > N.                                  !.  Z.3                     ",
"                  , n.                                  !.  B.3                     ",
"                  ; m.                                  !.  B.3                     ",
"                  > m.                                  !.  N.3                     ",
"                  > n.                  6.6.6.' 2.    K.W.  V.3                     ",
"                  > m.6.J J J J L L J J J J J J J J J 8.j.1.V.3                     ",
"                  > c.9.J J _ J J L J J J J J J _ J J J J 2.V.3                     ",
"                  > c.6.J J J _ J J J J J _ J J J J J J J 2.V.3                     ",
"                  , c.6.J J J J J J J J J J J J J J J J J 2.C.5                     ",
"                ,  .  4.L L J J J J J J J J J J J J _ _ _ 7.  >.3                   ",
"              ,  .  9.L J J J J J _ J J J J J J J J _ 8.M.L.0.  O.2                 ",
"            o I   6._ J J J J J J J J J J J J J J _ J J j.E.L.w.  ..O               ",
"            3 >.  J J J J J J J J J J J J _ J J J J J J _ M.E.j.  u.7               ",
"          . v   2._ [ J J J J G J G G G J G ' ' G J J J J J L.Y.0.   .o             ",
"          9 ,.  J _ [ J J G G S G G S G S S ' H S S G G J J j.W.j.  y.w             ",
"        . g   2.J J G G G G S S S S S S S S S S S S S S S J J Y.Y.0.  v X           ",
"        w ,.  ' J G G S S S S S S S G S S S S S S S S S S ' ' 7.R.j.  d.e           ",
"        t J.` G S S S S S S S S S G S S S S S S S S S S S H H F Y.T.6.  s .         ",
"        y H.K S S S S S S S S S S S S S S S S G S S S S S S S S ' P.'   s .         ",
"        e J.K S S S K S S S S S S S S S S S S S S G S S S S S S S H K   s .         ",
"        t H.K S S L 2.G S S S G S S S S S S S S S S S S S S S S H 5.)   s .         ",
"        t F.V S S S S S S S S S G S S S S S S S S S S S S S S S ' Y.`   s .         ",
"        t J.  N S S S S S S S S S S S S S S S S S S G S S S S S S h.-.  s .         ",
"        , I   m n S S S S S S S S S S S S ` ) S S S S S S ' ) S M m   o.3           ",
"          s     M n S S S S H ' H S S S S ) J S S S S S S H S n M     c .           ",
"          ; }   m n n M N S S ' S S S S S S S S S S S S S n n n M   >.;             ",
"          . g     n n n n n A A S S S S S S S S S S M n n n n n     v o             ",
"            # ..  m n n n n n n n S N S S S S n n n n n n n n m   <.=               ",
"            X s     m n n n n n n n n n n n n n n n n n n n M     h O               ",
"              @ p     m n n n B M n n n n n n n n n n n n m     h *                 ",
"                # p     Z M n ( N n n n n n n n n n n n Z     f =                   ",
"                  # u V.    C C C C C C C C C C C C C     Z.s ;                     ",
"                    * 5 s N.                          N.c 7 ;                       ",
"                        ; < b l.l.l.l.k.k.l.l.l.l.l.} , ;                           ",
"                            * ; ; ; ; ; = = = = = = =                               "
};
