/* XPM */
static char *Health_Potion_00001[] = {
/* columns rows colors chars-per-pixel */
"42 50 170 2 ",
"   c None",
".  c #020101",
"X  c #0D0A09",
"o  c #110C0C",
"O  c #1D1514",
"+  c #271B17",
"@  c #251A1A",
"#  c #291E1C",
"$  c #221612",
"%  c #2C211E",
"&  c #37241C",
"*  c #2E2220",
"=  c #352626",
"-  c #372827",
";  c #382827",
":  c #3B2A2A",
">  c #402E2E",
",  c #453231",
"<  c #4A3534",
"1  c #4D3837",
"2  c #4F3938",
"3  c #523B3B",
"4  c #583F3E",
"5  c #57423A",
"6  c #5A443C",
"7  c #734A3B",
"8  c #5B4241",
"9  c #644847",
"0  c #664948",
"q  c #6A4E4C",
"w  c #614645",
"e  c #6E504F",
"r  c #795857",
"t  c #8E5C49",
"y  c #825E5C",
"u  c #82625F",
"i  c #886663",
"p  c #8F6B68",
"a  c #8B6865",
"s  c #916967",
"d  c #956D6B",
"f  c #986F6D",
"g  c #94706D",
"h  c #9A726F",
"j  c #9C7471",
"k  c #AB7865",
"l  c #AB7764",
"z  c #B27761",
"x  c #B47862",
"c  c #B97F6A",
"v  c #A37674",
"b  c #A67B78",
"n  c #A57C78",
"m  c #D95C6A",
"M  c #D7636E",
"N  c #DC606E",
"B  c #DD6472",
"V  c #DD6A76",
"C  c #D37277",
"Z  c #D17C7D",
"A  c #D37378",
"S  c #E0616F",
"D  c #E66574",
"F  c #E66877",
"G  c #E96877",
"H  c #E66D7B",
"J  c #EE6D7C",
"K  c #E5707E",
"L  c #ED717F",
"P  c #B9826E",
"I  c #AE8D70",
"U  c #AE827E",
"Y  c #B28574",
"T  c #B1807E",
"R  c #B38878",
"E  c #AC9476",
"W  c #AD9C7D",
"Q  c #B29277",
"!  c #B5957B",
"~  c #B6997F",
"^  c #C38F7C",
"/  c #C4907D",
"(  c #E77482",
")  c #ED7381",
"_  c #E37D85",
"`  c #ED7886",
"'  c #E47D89",
"]  c #E97F8D",
"[  c #AC8580",
"{  c #B18782",
"}  c #B48B86",
"|  c #B88885",
" . c #BC8E8A",
".. c #B79A81",
"X. c #B7908A",
"o. c #BE948E",
"O. c #BE9891",
"+. c #AEA383",
"@. c #B5A78A",
"#. c #B6A98C",
"$. c #BEA88E",
"%. c #BDB295",
"&. c #C58C84",
"*. c #DF8F8F",
"=. c #D7868B",
"-. c #C29483",
";. c #D09F8D",
":. c #C09790",
">. c #C19891",
",. c #CC9C96",
"<. c #E48287",
"1. c #E3868A",
"2. c #E8808E",
"3. c #E3888B",
"4. c #EC8694",
"5. c #E38F91",
"6. c #EA8A93",
"7. c #F18895",
"8. c #E19090",
"9. c #E89297",
"0. c #E49698",
"q. c #E5999B",
"w. c #F1949E",
"e. c #C0A48B",
"r. c #D1A08E",
"t. c #C6A198",
"y. c #CBA69C",
"u. c #D4A290",
"i. c #DDA296",
"p. c #DDA39D",
"a. c #C7B59B",
"s. c #CAB29A",
"d. c #CCB89E",
"f. c #E3A69C",
"g. c #E99CA4",
"h. c #F39AA5",
"j. c #DBA6A1",
"k. c #DCA8A2",
"l. c #C6BDA1",
"z. c #C8BEA2",
"x. c #DEB1A8",
"c. c #D5BAA0",
"v. c #E1ADA6",
"b. c #E9ACA3",
"n. c #E4AFA8",
"m. c #F4A3AD",
"M. c #E6B5AD",
"N. c #E9B6AE",
"B. c #E8B8AF",
"V. c #E7BAB0",
"C. c #ECBCB3",
"Z. c #DEC6A9",
"A. c #DACAAC",
"S. c #D5CDAE",
"D. c #EDC5B8",
"F. c #EEC8BB",
"G. c #EBC3B6",
"H. c #F0C9BC",
"J. c #EFCACA",
"K. c #F7C1C7",
"L. c #F8C9CE",
"P. c #F7C4CA",
"I. c #F7CFD4",
"U. c #F9CDD2",
"Y. c #FAD5D9",
"T. c #FADCE0",
"R. c #FCE7EA",
"E. c #FAE5E6",
"W. c #ECFEF3",
"Q. c #F5FEF8",
/* pixels */
"                                $ + + + # # & % &                                   ",
"                              & t l l l Y ....&.-.5                                 ",
"                            & t x P P P ^ r.r.r.u.-.6                               ",
"                          . 7 x P P P P ^ r.r.r.;.u.R o                             ",
"                        . . 7 P P P P P ^ r.r.r.r.u.Y X .                           ",
"                      3 d f &.p.f.p.0.f.f.b.b.b.b.b.p.h d 8                         ",
"                    ,  .                                  >.3                       ",
"                    2 k.    W ......+...$.a.a.a.a.c.A.    x.9                       ",
"                      q p.  E Q ..~ ..~ -.s.s.s.a.s.Z.  b.r                         ",
"                      * v G.E Q ....~ ~ e.s.s.s.s.s.Z.  { ;                         ",
"                    * u N.  E Q ~ -.~ ~ e.a.s.s.a.s.Z.  N.d =                       ",
"                    3 M.    +.I Q ~ ~ ~ e.a.s.a.s.c.Z.    C.0                       ",
"                    3 N.      +.~ @.@.@.%.l.l.l.z.S.      G.0                       ",
"                    3 N.                                  C.q                       ",
"                  ; U                                   W.  { ,                     ",
"                  > M.                                  Q.  C.3                     ",
"                  , b.        1.                        Q.  N.4                     ",
"                  ; x.                                  Q.  N.3                     ",
"                  , n.                                  Q.  N.3                     ",
"                  ; n.                                L.E.  N.3                     ",
"                  , k.8.J J J J L J J J J J J J J J J 7.h.1.B.3                     ",
"                  , x.5.) J J J J J J J ) J ) J J J J J J <.M.3                     ",
"                  ; n.5.J J J J J J J J J J J J J J L J J 1.B.3                     ",
"                  < x.*.J J ) J J J J ) J J J J ) 7.L J J 1.B.8                     ",
"                , {   3.J J 7.` J J J J J L J J ) ) J J ) 6.  :.3                   ",
"              ,  .  8.L J J ) ) J J J J J J J J J J J J m.P.q.  o.2                 ",
"            o {   8.J J J J J J ) J J J J J J J ) J J J h.R.K.q.   .O               ",
"            3 >.  ) J J J J J J J J ) J J J J J J J J J J m.R.h.  y.8               ",
"          . b   3.J J ) J J J J J J G J J G J G G J J J J J P.L.9.   .X             ",
"          0 >.  J J J J J J D D D D D D D D D D D D ) ] J J h.E.h.  ,.e             ",
"        . f   1.J J J D D D D D D D D D D D D D D D H ) D G J U.U.9.  b X           ",
"        q t.  ) J D J D D D D D D D D D D D F D D D D D D D G 7.T.h.  s.r           ",
"        y H._ G D L 2.F D D D D D D D D D D ' ( D D D D D D D G U.Y.6.  d .         ",
"        u G.K D D F F D D D H F D D D D D D J J D D D D D D D D ] P.'   d .         ",
"        u F.H D D D D D D D 2.K D D D D D D D D D D D D D D D D D H H   d .         ",
"        r G.K D D D D D D D F D D D D D D D D D D D D D D ( H D F 4.K   d .         ",
"        y D.V D D D D K ) D D D D D D D D ( H D D D D D D ' ) D ) I._   d .         ",
"        y F.  B D D D ) ( D D D D D D D D ( ( D D D D D D D D D H g.=.  d .         ",
"        < U   M N D D D D D D D D D D D D D D D D D D D D D D D N M   X.3           ",
"          d     N m N D D D D D D D D D D D D D D J ] F D D S m N     v .           ",
"          ; {   N m m m D D D D D D D D D D D D D D H D B m m m N   >.;             ",
"          . h     M m m m m N D D D D D D D D D D D D m m m m m     b o             ",
"            @  .  M m m m m m V N D S D D D N D m m m m m m m M   ,.=               ",
"            X d     M m m m m ' B m m m m m m m m m m m m m B     h O               ",
"              @ p     M m m m m m m m m m m m m m m m m m M     h *                 ",
"                @ a     C M m m m m m m m m m m m m m M C     g =                   ",
"                  % i C.    Z Z Z Z Z Z Z Z Z Z Z Z Z     C.d =                     ",
"                    * 5 d M.                          M.j 8 ;                       ",
"                        = < n k.j.j.j.j.j.j.j.j.j.k.{ 2 ;                           ",
"                            = = = = ; = ; = = ; = ; =                               "
};
