/* XPM */
static char *Health_Potion_00003[] = {
/* columns rows colors chars-per-pixel */
"42 50 169 2 ",
"   c None",
".  c #020101",
"X  c #0D0A09",
"o  c #110C0C",
"O  c #1D1514",
"+  c #271B17",
"@  c #251A1A",
"#  c #291E1C",
"$  c #221612",
"%  c #2C211E",
"&  c #37241C",
"*  c #2E2220",
"=  c #352626",
"-  c #372827",
";  c #382827",
":  c #3B2A2A",
">  c #402E2E",
",  c #453231",
"<  c #4A3534",
"1  c #4D3837",
"2  c #4F3938",
"3  c #523B3B",
"4  c #583F3E",
"5  c #57423A",
"6  c #5A443C",
"7  c #734A3B",
"8  c #5B4241",
"9  c #644847",
"0  c #664948",
"q  c #6A4E4C",
"w  c #614645",
"e  c #6E504F",
"r  c #795857",
"t  c #8E5C49",
"y  c #825E5C",
"u  c #82625F",
"i  c #886663",
"p  c #8F6B68",
"a  c #8B6865",
"s  c #916967",
"d  c #956D6B",
"f  c #986F6D",
"g  c #94706D",
"h  c #9A726F",
"j  c #9C7471",
"k  c #AB7865",
"l  c #AB7764",
"z  c #B27761",
"x  c #B47862",
"c  c #B97F6A",
"v  c #A37674",
"b  c #A67B78",
"n  c #A57C78",
"m  c #D95C6A",
"M  c #D7636E",
"N  c #DB606D",
"B  c #DC6370",
"V  c #DD6B76",
"C  c #D37277",
"Z  c #D17C7D",
"A  c #D37378",
"S  c #E0616F",
"D  c #E66574",
"F  c #E96877",
"G  c #E66C7A",
"H  c #EE6D7C",
"J  c #E5717D",
"K  c #ED717F",
"L  c #B9826E",
"P  c #AE8D70",
"I  c #AE827E",
"U  c #B28574",
"Y  c #B1807E",
"T  c #B38878",
"R  c #AC9476",
"E  c #AD9C7D",
"W  c #B29277",
"Q  c #B5957B",
"!  c #B6997F",
"~  c #C38F7C",
"^  c #C4907D",
"/  c #E77483",
"(  c #ED7482",
")  c #E37D85",
"_  c #E77B89",
"`  c #ED7B8A",
"'  c #AC8580",
"]  c #B18782",
"[  c #B48B86",
"{  c #B88885",
"}  c #BC8E8A",
"|  c #B79A81",
" . c #B7908A",
".. c #BE948E",
"X. c #BE9891",
"o. c #AEA383",
"O. c #B5A78A",
"+. c #B6A98C",
"@. c #BEA88E",
"#. c #BDB295",
"$. c #C58C84",
"%. c #DF8F8F",
"&. c #D7858B",
"*. c #C29483",
"=. c #D09F8D",
"-. c #C09790",
";. c #C19891",
":. c #CC9C96",
">. c #E48287",
",. c #E3868A",
"<. c #EB818E",
"1. c #E3888B",
"2. c #E68190",
"3. c #EC8391",
"4. c #E38F91",
"5. c #EA8A93",
"6. c #F18895",
"7. c #E19090",
"8. c #E89297",
"9. c #E49698",
"0. c #E5999B",
"q. c #F1949E",
"w. c #C0A48B",
"e. c #D1A08E",
"r. c #C6A198",
"t. c #CBA69C",
"y. c #D4A290",
"u. c #DDA296",
"i. c #DDA39D",
"p. c #C7B59B",
"a. c #CAB29A",
"s. c #CCB89E",
"d. c #E3A69C",
"f. c #E99CA4",
"g. c #F39AA5",
"h. c #DBA6A1",
"j. c #DCA8A2",
"k. c #C6BDA1",
"l. c #C8BEA2",
"z. c #DEB1A8",
"x. c #D5BAA0",
"c. c #E1ADA6",
"v. c #E9ACA3",
"b. c #E4AFA8",
"n. c #F4A3AD",
"m. c #E6B5AD",
"M. c #E9B6AE",
"N. c #E8B8AF",
"B. c #E7BAB0",
"V. c #ECBCB3",
"C. c #DEC6A9",
"Z. c #DACAAC",
"A. c #D5CDAE",
"S. c #EDC5B8",
"D. c #EEC8BB",
"F. c #EBC3B6",
"G. c #F0C9BC",
"H. c #EFCACA",
"J. c #F7C1C7",
"K. c #F8C9CE",
"L. c #F7C4CA",
"P. c #F7CFD4",
"I. c #F9CDD2",
"U. c #FAD5D9",
"Y. c #FADCE0",
"T. c #FCE7EA",
"R. c #FAE5E6",
"E. c #ECFEF3",
"W. c #F5FEF8",
/* pixels */
"                                $ + + + + + = % &                                   ",
"                              & t l l l U | *.*.*.5                                 ",
"                            & t x L L L ^ e.e.e.y.*.6                               ",
"                          . 7 x L L L L ^ e.e.e.=.y.T X                             ",
"                        . . 7 L L L L L ^ e.e.e.e.y.T X .                           ",
"                      3 d f $.i.d.i.9.d.d.v.v.v.v.v.i.h d 8                         ",
"                    , }                                   ;.6                       ",
"                    2 j.    E | | | o.| @.p.p.p.s.s.Z.    z.w                       ",
"                      q i.  R W | ! | ! | a.a.a.s.a.C.  v.r                         ",
"                      * v F.R W | ! | ! w.a.a.a.a.a.C.  b >                         ",
"                    * u M.  R W ! | | ! w.a.a.a.a.a.C.  M.d =                       ",
"                    3 m.    o.P T ! ! ! w.a.a.s.a.x.Z.    V.0                       ",
"                    3 M.      o.! +.@.O.#.k.k.k.l.A.      F.0                       ",
"                    3 M.                                  V.q                       ",
"                  ; I                                   E.  ] ,                     ",
"                  > m.                                  W.  V.3                     ",
"                  > b.                                  W.  M.3                     ",
"                  > j.                          ,.      W.  M.3                     ",
"                  > v.                                  W.  m.3                     ",
"                  > b.      4.( ,.                    K.R.  V.3                     ",
"                  > b.7.H K H H H H H H H H H H H H H 6.g.,.N.3                     ",
"                  > b.7.H H H H H H H ( H H H H ( 3.K H H >.m.3                     ",
"                  > z.4.H H H H H K H H H H H H H ` K H H ,.N.3                     ",
"                  < z.%.H K H H H H H H H ( H H H H K H H ,.N.8                     ",
"                < ]   4.H H K H ( H H H H H H H H H H H ( 5.  -.2                   ",
"              , ]   7.K H H H H H H H H H H H H H H H H n.L.9.  -.2                 ",
"            o I   4.( H H H H H H H H H H H H H K H H H g.T.J.0.  -.$               ",
"            3 ;.  K H H H H K H H H H ( H H H H H H ( ` K n.T.g.  r.8               ",
"          . b   &.H H K H H H H H H D H H D H H H H ( ` K H L.K.9.  { o             ",
"          0 X.  ( H H H H F F D D D D D D D D D D D H H H H g.R.g.  r.e             ",
"        . f   ,.H ( ` H D D D D D D D D D D _ J D D D D D F H I.I.8.  b X           ",
"        q r.  ( H H ( D D D D D D D D D D D / D D D D D D D D 6.Y.g.  a.r           ",
"        y G.) F D D D D D D D F D D D D D D D D D D D D D D D G I.U.4.  d .         ",
"        u F.J D D D D D D D D D D D D D D D D D D D D D D G G D ` L._   d .         ",
"        r G.J D D D D D D D D D D D D D D ( G D D D D D D _ ( D D G G   d .         ",
"        y F.J D D D D D D D D D D D D D D ` / D D D D D D D F D G 3./   d .         ",
"        y S.V D D D D D D D ( G D D D D D D D D D D D D D D D D ( P.)   d .         ",
"        y G.  B D D D D D D ) K D D D D D D D D D D D D D D D D G f.&.  d .         ",
"        < I   M S D D D D D D D D D D D D D D D D D D D D D D D M M    .3           ",
"          s     m m S D D D D D D D D D D D D D D D D D D D D m m     v .           ",
"          ; ]   M m m M S D D H D D D D D D D D D D D D B m m m M   ;.;             ",
"          . h     m m m m m D _ G D D D D D D D D D D m m m m m     b o             ",
"            @ }   M m m m m m M m D S D D D D B m m m m m m m M   :.=               ",
"            X d     M m m m m m m m m m m m m m m m m m m m B     h O               ",
"              @ p     M m m m m m m m m m m m m m m m m m M     h *                 ",
"                @ a     C M m m m m m m m m m m m m m m C     g =                   ",
"                  % i V.    Z Z Z Z Z Z Z Z Z Z Z Z Z     V.d =                     ",
"                    * 5 d m.                          m.j 8 -                       ",
"                        = < n j.h.h.h.h.h.h.h.h.h.j.{ 1 ;                           ",
"                            = = = = ; = ; = = ; = ; =                               "
};
