/* XPM */
static char *Health_Potion_00002[] = {
/* columns rows colors chars-per-pixel */
"42 50 172 2 ",
"   c None",
".  c #020101",
"X  c #0D0A09",
"o  c #110C0C",
"O  c #1D1514",
"+  c #271B17",
"@  c #251A1A",
"#  c #291E1C",
"$  c #221612",
"%  c #2C211E",
"&  c #37241C",
"*  c #2E2220",
"=  c #352626",
"-  c #372827",
";  c #382827",
":  c #3B2A2A",
">  c #402E2E",
",  c #453231",
"<  c #4A3534",
"1  c #4D3837",
"2  c #4F3938",
"3  c #523B3B",
"4  c #583F3E",
"5  c #57423A",
"6  c #5A443C",
"7  c #734A3B",
"8  c #5B4241",
"9  c #644847",
"0  c #664948",
"q  c #6A4E4C",
"w  c #614645",
"e  c #6E504F",
"r  c #795857",
"t  c #8E5C49",
"y  c #825E5C",
"u  c #82625F",
"i  c #886663",
"p  c #8F6B68",
"a  c #8B6865",
"s  c #916967",
"d  c #956D6B",
"f  c #986F6D",
"g  c #94706D",
"h  c #9A726F",
"j  c #9C7471",
"k  c #AB7865",
"l  c #AB7764",
"z  c #B27761",
"x  c #B47862",
"c  c #B97F6A",
"v  c #A37674",
"b  c #A67B78",
"n  c #A57C78",
"m  c #D95C6A",
"M  c #D7636E",
"N  c #DB606D",
"B  c #DE6573",
"V  c #DD6B76",
"C  c #D37277",
"Z  c #D17C7D",
"A  c #D37378",
"S  c #E0616F",
"D  c #E66574",
"F  c #E66877",
"G  c #E96877",
"H  c #E66C7A",
"J  c #EE6E7D",
"K  c #E5717D",
"L  c #ED717F",
"P  c #B9826E",
"I  c #AE827E",
"U  c #AE8D70",
"Y  c #B28574",
"T  c #B1807E",
"R  c #B38878",
"E  c #AC9476",
"W  c #AD9C7D",
"Q  c #B29277",
"!  c #B5957B",
"~  c #B6997F",
"^  c #C38F7C",
"/  c #C4907D",
"(  c #E77382",
")  c #EC7381",
"_  c #E47B86",
"`  c #ED7887",
"'  c #E57C89",
"]  c #EA7C8B",
"[  c #AC8580",
"{  c #B18782",
"}  c #B48B86",
"|  c #B88885",
" . c #BC8E8A",
".. c #B79A81",
"X. c #B7908A",
"o. c #BE948E",
"O. c #BE9891",
"+. c #AEA383",
"@. c #B5A78A",
"#. c #B6A98C",
"$. c #BEA88E",
"%. c #BDB295",
"&. c #C58C84",
"*. c #DA838D",
"=. c #DF8F8F",
"-. c #D38A8A",
";. c #C29483",
":. c #D09F8D",
">. c #C09790",
",. c #C19891",
"<. c #CC9C96",
"1. c #DF9090",
"2. c #E48287",
"3. c #E3868A",
"4. c #E9818E",
"5. c #E3888B",
"6. c #EB8492",
"7. c #E38F91",
"8. c #EA8A93",
"9. c #F18895",
"0. c #E19090",
"q. c #E89297",
"w. c #E49698",
"e. c #E5999B",
"r. c #F1949E",
"t. c #C0A48B",
"y. c #D1A08E",
"u. c #C6A198",
"i. c #CBA69C",
"p. c #DDA296",
"a. c #DDA39D",
"s. c #D4A290",
"d. c #C7B59B",
"f. c #CAB29A",
"g. c #CCB89E",
"h. c #E3A69C",
"j. c #E99CA4",
"k. c #F39AA5",
"l. c #DBA6A1",
"z. c #DCA8A2",
"x. c #C6BDA1",
"c. c #C8BEA2",
"v. c #DEB1A8",
"b. c #D5BAA0",
"n. c #E1ADA6",
"m. c #E9ACA3",
"M. c #E4AFA8",
"N. c #F4A3AD",
"B. c #E6B5AD",
"V. c #E9B6AE",
"C. c #E8B8AF",
"Z. c #E7BAB0",
"A. c #ECBCB3",
"S. c #DEC6A9",
"D. c #DACAAC",
"F. c #D5CDAE",
"G. c #EDC5B8",
"H. c #EEC8BB",
"J. c #EBC3B6",
"K. c #F0C9BC",
"L. c #EFCACA",
"P. c #F7C1C7",
"I. c #F8C9CE",
"U. c #F7C4CA",
"Y. c #F7CFD4",
"T. c #F9CDD2",
"R. c #FAD5D9",
"E. c #FADCE0",
"W. c #FCE7EA",
"Q. c #FAE5E6",
"!. c #ECFEF3",
"~. c #F5FEF8",
/* pixels */
"                                $ + + + # % % % =                                   ",
"                              & t l k k P ..;.;.;.5                                 ",
"                            & t x P P P ^ y.y.y.y.;.6                               ",
"                          . 7 x P P P P ^ :.:.y.:.p.Y X                             ",
"                        . . 7 P P P P P ^ y.y.y.y.p.R X .                           ",
"                      3 f f &.a.h.p.e.h.h.m.m.m.m.m.a.h g 8                         ",
"                    , X.                                  ,.5                       ",
"                    2 z.    W ......+...$.d.d.d.d.g.D.    v.w                       ",
"                      q a.  E Q ........;.f.f.f.d.f.S.  m.r                         ",
"                      * v J.E Q ....! ..$.f.f.f.d.f.S.  { ;                         ",
"                    * u V.  E Q ....! ..t.d.f.f.f.f.S.  V.s =                       ",
"                    3 B.    +.U ! ! ..! t.f.f.d.f.b.S.    A.0                       ",
"                    3 V.      +.~ $.@.@.%.x.x.x.c.F.      A.q                       ",
"                    3 V.                                  J.q                       ",
"                  ; I                                   !.  { ,                     ",
"                  > B.        *.                        ~.  A.3                     ",
"                  , M.                                  ~.  V.3                     ",
"                  : m.                                  ~.  V.3                     ",
"                  > M.                          *.      ~.  V.3                     ",
"                  > m.                        q.7.0.  L.Q.  B.3                     ",
"                  > M.7.J J J J J J J J J J J J J J J 9.k.2.C.3                     ",
"                  > v.1.J J J J J J J J J L J J J J J J J 3.C.3                     ",
"                  > M.7.J L J J J J J L J J ) J ) 9.) J J 3.C.3                     ",
"                  < v.1.J J J J L J J J J J J J ) ` J J J 3.Z.6                     ",
"                < {   7.J J J L J ) J J J J ) J J J J J ) 8.  >.3                   ",
"              , {   0.) J J J J J J J J J J J J J J J J N.U.w.  o.1                 ",
"            o I   0.L J J J J J J J J J J J J J J J J J k.W.P.e.  >.$               ",
"            3 ,.  L J J J J J J J J J J ) J J J J J J J J N.W.k.  u.8               ",
"          . b   4.J J J J J J J J J G J J G J G J J ) ] L J U.I.w.  | o             ",
"          0 O.  ) J J J J J D D D D D D D D D D D D ) ) J J k.Q.k.  u.e             ",
"        . f   3.) J J D D D D D D D D D D D D D D D D D D J J T.T.q.  b X           ",
"        q u.  ) J ) ] D D D D D D D D D D F ' H D D D D D D D 9.E.k.  f.r           ",
"        y K._ G D D K G D D H G D D D D D D H F D D D D D D D F T.E.8.  h .         ",
"        y G.K D D D D D D D 4.K D D D D D D D D D D D D D D D D ] U.'   s .         ",
"        y J.H D D D D D D D D D D D D D D D D D D D F D D H H D D H H   s .         ",
"        u H.V D D D D D D D D D D D D D D ) J D D D D D D ' ) D D 8.K   h .         ",
"        y G.V D D D D D D G D D D D D D D _ ) D D D G D D D D D ) Y._   s .         ",
"        y K.  B D D D D D D D D D D D D D D D D D D D D D D D D H j.-.  s .         ",
"        < I   M N D D D D D D D D D D D D D D D D D D D D D D D B N   X.3           ",
"          s     N m D D D D D D D D D D D D D D D D D D D D S S m     v .           ",
"          ; {   M m m N N D D D D D D D D D D D D D D D D m m m N   ,.;             ",
"          . h     m m m m m D J D D D D D D D D D D N m m m m m     b o             ",
"            #  .  M m m m m m ' B D S D D D B S m m m m m m m M   <.=               ",
"            o s     M m m m m M m m m m m m m m m m m m m m N     j O               ",
"              @ p     M m m m m m m m m m m m m m m m m m M     j *                 ",
"                @ a     C M m m m m m m m m m m m m m M A     g =                   ",
"                  # i A.    Z Z Z Z Z Z Z Z Z Z Z Z Z     A.s =                     ",
"                    * 8 s B.                          B.n 8 ;                       ",
"                        = < n l.l.l.l.l.l.l.l.l.l.z.{ < ;                           ",
"                            = - - = - = - = - - - = =                               "
};
