/* XPM */
static char *SlimeBasic_00023[] = {
/* columns rows colors chars-per-pixel */
"113 77 106 2 ",
"   c None",
".  c #060C04",
"X  c #080F06",
"o  c #091307",
"O  c #0C1609",
"+  c #0E1A0A",
"@  c #101E0C",
"#  c #13230E",
"$  c #15290F",
"%  c #172A10",
"&  c #182D12",
"*  c #1B3314",
"=  c #1E3C16",
"-  c #203F17",
";  c #213D19",
":  c #204117",
">  c #24451A",
",  c #264B1B",
"<  c #294C1E",
"1  c #2A521E",
"2  c #2B4C20",
"3  c #2D5321",
"4  c #2E5922",
"5  c #325D25",
"6  c #336325",
"7  c #366E27",
"8  c #376428",
"9  c #376A28",
"0  c #3C6E2C",
"q  c #377027",
"w  c #3B722A",
"e  c #3E7D2A",
"r  c #40762F",
"t  c #407F2C",
"y  c #417530",
"u  c #447C32",
"i  c #3F802B",
"p  c #42822D",
"a  c #448A2F",
"s  c #458432",
"d  c #498636",
"f  c #468B31",
"g  c #498C35",
"h  c #4B8738",
"j  c #4D8C39",
"k  c #479031",
"l  c #4B9334",
"z  c #4D9B36",
"x  c #4E923A",
"c  c #4F9B38",
"v  c #509F37",
"b  c #51943C",
"n  c #529C3A",
"m  c #4FA037",
"M  c #4FA038",
"N  c #50A137",
"B  c #53A43A",
"V  c #55AB3C",
"C  c #58AD3E",
"Z  c #57B13D",
"A  c #59B43E",
"S  c #5BBB3F",
"D  c #5CC13F",
"F  c #569F40",
"G  c #57A340",
"H  c #59A442",
"J  c #5AAC42",
"K  c #5DB443",
"L  c #5DBC41",
"P  c #60B646",
"I  c #61BC45",
"U  c #63BD48",
"Y  c #5EC341",
"T  c #5FC941",
"R  c #62C345",
"E  c #63CB45",
"W  c #65C449",
"Q  c #68C74B",
"!  c #66CC49",
"~  c #69CD4B",
"^  c #65D446",
"/  c #65DA46",
"(  c #67D448",
")  c #6BD44C",
"_  c #66DA48",
"`  c #6CDB4C",
"'  c #70DF4F",
"]  c #6FD550",
"[  c #6FDA50",
"{  c #71DD51",
"}  c #67E647",
"|  c #67E048",
" . c #6DE34C",
".. c #6CEC4B",
"X. c #70E34F",
"o. c #71EB4F",
"O. c #6DF34C",
"+. c #70F34E",
"@. c #72FA4E",
"#. c #72E551",
"$. c #75EC53",
"%. c #78EF55",
"&. c #75F353",
"*. c #79F556",
"=. c #76FD52",
"-. c #7AFD55",
/* pixels */
"                                                                                                                                                                                                                                  ",
"                                                                                                                                                                                                                                  ",
"                                                                                                                                                                                                                                  ",
"                                                                                                                                                                                                                                  ",
"                                                                                                                                                                                                                                  ",
"                                                                                                                                                                                                                                  ",
"                                                                                                                                                                                                                                  ",
"                                                                                                                                                                                                                                  ",
"                                                                                                                                                                                                                                  ",
"                                                                                                    * > 7 s l n M z s 7 > $                                                                                                       ",
"                                                                                              > q z R ` #.=.-.-.*.*.*.#.` L l 6 -                                                                                                 ",
"                                                                                        = q V _ #.*.*.*.*.*.#.&.&.*.*.*.*.*.*.#.! B w > +                                                                                         ",
"                                                                                  + 1 l ( #.*.%.&.&.#.#...X.X.o.#.&.=.=.*.*.=.=.-.*.$.] B q ; +                                                                                   ",
"                                                                              & 6 B [ %.%.&.#.#.#.#... .` ` ` `  .o.&.+.@.*.=.=.-.-.-.-.&.$.! n 8 %                                                                               ",
"                                                                          & e Y #.*.%.&.#.o.X.X.` ` ` ) ( ) ^ ^ ` `  ...+.@.=.=.=.-.-.-.-.-.&.*.X.W s > O                                                                         ",
"                                                                      & w W #.#.#.#.#.#.o.X.[ _ ( ( ( E E E R E E ^ / ` ..O.@.*.=.=.-.-.-.-.-.-.&.$.$.] F 2 @                                                                     ",
"                                                                  # 0 I #.$.#.#.#.#. . . ._ / ^ E Y Y Y D D D D D D D D D } } O.+.@.@.@.@.=.-.-.-.-.o.%.$.' z , .                                                                 ",
"                                                              . > V ' #.#.#.#.X. . .` ` ^ T T D Y S S S D D Z S S S D D D D D D /  ...+.@.@.@.@.-.-.-.*.$.$.$.! t $                                                               ",
"                                                            # e ! #.#.#.#.#. . . .` ^ E Y Y D A A A A A Z Z Z Z Z D Z D S S D D D D T ^  .o.@.@.@.@.*.-.=.$.$.X.{ J > .                                                           ",
"                                                          = B { #.#.#.X.'  .` / ^ E T D S S A A A A A A Z Z Z S Z Z Z Z Z S S D S S S D D T ^  .o.o.o.@.&.&.&.$.#.{ W 8 +                                                         ",
"                                                      . 5 I { ' #.' ' ` / / ^ E D D D S A A A A A A V A A A V S Z D Z D S Z Z S A S S S S S T T T '  ...o.@.&.&.#.#.#.! u @                                                       ",
"                                                    O 0 ! { { ' { ) ) ) ^ E Y D D S A A V A V V V V A A A A S S Z Z Z Z Z Z S Z A A A A S A A S S T ^ ) ) ..o.o.&.&.#.#.] g @                                                     ",
"                                                  O w ] { { ' ) ( ^ E T D D S A A A A V A V V V V A A A A S V S Z Z Z Z Z Z Z Z A S S A A S A A S S S R T T  . .o.o.#.#.' ] s +                                                   ",
"                                                . q ) { ] ] ( ! E E Y D D S A A V V V V N V V V A V V V V V V V Z Z Z Z Z Z Z D A A A A A A A A A S S S S T ^ ^ / o.+.#.#.' ) r o                                                 ",
"                                                4 ! { ] ] ! E R R Y S S A A V V V B B B V V V V V V V V V N Z N N Z Z Z N Z Z Z Z Z Z A A A A A A A A A S I I R E / / X.X.X.' W 3                                                 ",
"                                              - I { ] ) ! E R R L S A A A C V B V B B V M V V V N N Z N N N N N m m m Z N Z Z N Z Z Z Z A A A Z A A A A A A S L Y R ( /  .X.' ' L =                                               ",
"                                            # n { { ) ! R R I S S A C V V B B v M M M M V V B B N N N N N m m m m m m N N N N Z Z Z Z Z Z Z Z Z A A A Z A A S S L L Y ! ( ' ' ' ] j @                                             ",
"                                            0 ) ] ] ! W R S S A A C V B v v v v M M V V M M M M m m N i m m m N m m m m N N N N B N B B B Z Z Z Z A Z Z A A A S S L Y Y ! ( / ] ~ Q r                                             ",
"                                          > R [ ) ! R L S S A A V B B B v v v v m M M M m V m z m m z i N N m N N i N N N m m m N B N Z B Z Z Z Z Z Z Z Z Z Z J A A L L L W ( ) ] ~ J =                                           ",
"                                        # l ] ] ! Q I I S A C B B n z n v z l v z m M M z M i z i m m m i m i N m m m i m m m m N N N B B B B B B Z Z B Z Z B Z Z Z A A L Y R ) ] ] ~ f @                                         ",
"                                        6 ~ ) ) ! I L A A C V B B z v l l v v v z z z z z i i m z m i m i m i m i m m m z m i N N N N N B B B Z B Z B Z Z B Z B Z Z Z L A L R W ~ ~ ] U 2                                         ",
"                                      & B ] ) ) W K A A C B v v z l l n l l v l z z z l z z z m i i m i m i m i m i i m i m i m k N l N N N B B B B B B B Z B Z Z B Z A A L L R Q ~ ~ Q b #                                       ",
"                                      6 ~ ] ( ~ L S L V M G M M l z l l v v l z l l l k k k k k k k a f a a a a a a a i a k k k k z k z z z m m B m B B B B C C B A C A C A A P ! ! Q ~ I 3                                       ",
"                                    $ F ~ ] ( L K K V V M M l l l l l l l l l l l l k k f k a k a a a a a a a a a a a a a a k k k k k z z k z z m m B B B B B B C B A B B A A A I ! Q ~ Q b #                                     ",
"                                    3 Y ~ [ ~ K V V V M M l i G l l l l l l l l k k f g f a a a a a a a i a a i i a a a a a a a a k k k k k z z z z m m B B B B B B B C B B C A K I I Q Q K ;                                     ",
"                                    s ( [ _ Y K V V G M l l G i l g l l k l l g k f a a k f a a p a p p a i i i a a i a a a a a a a k k k k k k g z z z z B B B B B B B B B B B K I I ! Q Q r                                     ",
"                                  * J ~ [ _ L A V V M m i G i G l g g l l a l a g l l v V L B a p p a i i i i i i i i i i a i a a a Z L Z B v k z g z z z z B m n N n n B B z B C K P ! Q Q B %                                   ",
"                                  3 L ~ | ~ K K V M z z F i M i g l z z z z v V A I ( ' #.` V a a i i i p i i i i i i i i i i i p a B ' #.' ( L Z Z B B z B B B B n N B B z z B n C P I Q Q K ;                                   ",
"                                  w W ] X.T K V V M z l i F i i B A I R ! ) ` X.#.$.&.#.) V k a i i i i i i i i i i i i i i i i p a k Z ) %.%.%.X.#.' ] W Q W I A N n B b z z z B C P I I Q Q 8                                   ",
"                                  g W ` | Y V V M l l l F i F F C ' $.$.$.$.$.#.#.` E A z a i i i i i i i i i i i i i i i i i i p p p f k Z E / #.#.$.$.$.$.o.' P n n b z z z z B n A P ! I Q d                                   ",
"                                * B Q X.| L J M l l l l i F i l v B L I R I L C B l g a a e e i e e e e e e e e i i i i i q i i i i p p p a k z B A L R R U L L B n z b l n l l n N C P ! R Q z %                                 ",
"                                > J Y .._ L K M F l l l F i F i g g g g g g a a a a a e e a e i e e e e e e e e i i q e i i i i e i i i i p p a s f g k g z k k z z b z n l l n l n C L R R I K ;                                 ",
"                                2 J W o._ K V M l l l l i i F F a g f a a t t a a t e t t e e e e e e e e e t e e e e e i i i i i e e p p i p p p a s f g g g k l l z b b l l l b n H K ! ! I K 2                                 ",
"                                3 K ~ O._ K V c l F l g i F i i g g s a s a s t t e a i e e e e e e e e e e t t i i i i q i i q e e e e i p p p p p f p a g g g l l b l l l b b b n n K ! ` I P 5                                 ",
"                                5 K Y +._ K M M l l l g g g l s f s s s a a a t t a a e e e e e e e e i g B A I R I K B a i i i e e e e t t t p p p f s f s f g a b l b l b l l l n H J ! ) ! P 5                                 ",
"                                5 K W +._ K B c l l l g g l s l g s s s s t s t t e t e e e e e e i a N ~ $.$.%.%.%.$.X./ N a i e e e e t t t p p s f p s f g f a d l l l d d l l n n C ) ) I P 8                                 ",
"                                4 J Y +._ L B c l l l g s g s s a s g t s s t t t t t t e e e e p k D  .$.$.$.$.o.$.$.$.o.X.D k p e e e t t t p p p p s s f s g d l l b l l l b b n b C ^ ^ I P 5                                 ",
"                                2 J Y ....L J c l l g g g g g s s s a a a t a t t t t e e e e t k A o.o.$.$.$.$.$.$.o.%.%.o...S a p e e t e t p p p p s s s f s d l l l l b d l d z n K ^ ^ I K 3                                 ",
"                                ; B U ....Y B c c l g g g g s l a s s p p p p s t t t e t e e t l ) %.$.$.$.$.$.$.%.$.$.$.$.%.) z p t e t t t t p p p p s f s f g g l l l x j g x x n J ( R I J >                                 ",
"                                % b P ` O.T J c x l l g g s s s f a s s s s p t t t t t e e e t z ` %.$.$.' ! T I T ) ' $.$.%.) k p t e e t t p p p p p s s f s s g g l g g l l x b F J E I U G *                                 ",
"                                  s P ) O./ V F c l g g g g g s f s s p p s t p t t t e e e e t k A ! ! S v a e t a a z S ! ) A a t e t e t t t p u a s s f s f g g s x j s x l x n n K ~ L P j #                                 ",
"                                  6 J I ..} L n c x g g g s g s f s s s s p s t s t t t e t e e e e k p e e e e e e e e t a a t t e e e t t p t p t t a s s s s s g x s l x s x x n G K I K P 0                                   ",
"                                  ; H P  .} R B F l l s g g g s f s s s p p t p t t t t e e e e e e e e e w e e e e e w e e e e w t t t t t t t p s p s s s f s g g g g s x l x x b F K P P J 2                                   ",
"                                  @ s P E } / Z F x x g g s g s u h s s s s s t t t t t t e e e e e e e e e e w e e e e e e e e t t t t t t t t p t s p s s s s s g g g x s s x F F G K P P b $                                   ",
"                                    3 H L ( / L F c x j g g s s s s s s p p s t s t t t t t t t e e e e e e e e e w e e e e e e t t t t t t t a u s p s p s f s s g s g s x j x n F G J J J 8                                     ",
"                                    % j K Y / E J x x x x g s g s s s s s s p s e e s t t t t t e e e e e e e e e e e e e e e e t t t t t t t u p p s s s s s f s g s g j j j j F F G J J b *                                     ",
"                                      3 H P R E S F b b d l h h a f s s s s t t t t t t t t t t t e e e e e e t e e e e e e e e t t t t t t t t u t s s s s s s g g g g j g b b b F F H H 5 X                                     ",
"                                      % y H P W L C n l b h h h f f s s s s s s s t s t t t t t e t e t t e e t e e e e e e e e t t t t t t a t a a s s s s g s g s s j j b b b F b F H u %                                       ",
"                                        * j H P L A F b b d j d u h f s s s p t t t t t t t t t t t t e e t t t e e e e e t e e t t t a t t s s u a s g s g s h s s g s h b b b b F F h ;                                         ",
"                                          ; j J C C F n b b j d j h u h s s s s d t d t t t t t t t e t t e t t e e e e e e t e t t t u s t s t a u s s s s s h g j b h h b b b F F h 2 X                                         ",
"                                            ; j H H H n b j j j j h h h s f t h d t t t d t t t t t t t t t t t t t t t t t t t t t u t t u s s u a s s u u h h h h h h b h F b b s ; X                                           ",
"                                              ; t H H n b b j j h h h h f u h u t d h t t t t d t t t t t t t t t t t t t t t t t t a t a t a s s s s s h h F u h u F h b b F h 0 *                                               ",
"                                                % 0 b n b b j j j h h h h h h h d t h t h t t u u d t u t u t d t t t t t t t t a t a u u t u s s s s s h h h h F h h F h F u 5 $                                                 ",
"                                                  @ 3 d n n b b j j h h h h u f h h u h h u h u h u u u d u t u u t d t u t t t u t u s s s s s h s h b h u F h h h h F h y ; O                                                   ",
"                                                      * 0 F F F h F y h h h y u F F y u d u s u s u u s s u u s s u s u s s u s u s u s s u h h s h h h h h h h F F u y 2 @                                                       ",
"                                                        O ; 8 y F F F u y F F u y u h h d s d d s h s h s h s s s s s s u s s s s h h s h h s h h h b h h b b b u y 2 @                                                           ",
"                                                            O ; 8 u u F F F u F h h h h h h d h d u u u y y y y y y u u h h s h h s s h h h h h h h b b b u y 5 2 @                                                               ",
"                                                                  @ ; 4 5 8 y y u u u 0 0 8 4 3 > ; * % % @ $ $ $ % % * ; > 2 5 8 y y u u h u s u y y 5 > ; @                                                                     ",
"                                                                          O @ % & & & @ O                                         + % % % * * % % % +                                                                             ",
"                                                                                                                                                                                                                                  ",
"                                                                                                                                                                                                                                  ",
"                                                                                                                                                                                                                                  ",
"                                                                                                                                                                                                                                  ",
"                                                                                                                                                                                                                                  ",
"                                                                                                                                                                                                                                  ",
"                                                                                                                                                                                                                                  ",
"                                                                                                                                                                                                                                  "
};
