/* XPM */
static char *SlimeBasic_00009[] = {
/* columns rows colors chars-per-pixel */
"113 77 105 2 ",
"   c None",
".  c #060B05",
"X  c #080E06",
"o  c #0A1207",
"O  c #0C1609",
"+  c #0E1A0A",
"@  c #101D0B",
"#  c #13240E",
"$  c #15280F",
"%  c #162A10",
"&  c #192E12",
"*  c #1B3414",
"=  c #1E3B16",
"-  c #203E17",
";  c #213E19",
":  c #24441A",
">  c #26491C",
",  c #294C1E",
"<  c #2A521E",
"1  c #2C4F21",
"2  c #2D5321",
"3  c #2F5F22",
"4  c #305624",
"5  c #315B24",
"6  c #2F6022",
"7  c #346326",
"8  c #356A26",
"9  c #366428",
"0  c #39662A",
"q  c #376A28",
"w  c #3A6D2B",
"e  c #377028",
"r  c #3C722C",
"t  c #3E7D2A",
"y  c #41772F",
"u  c #407F2C",
"i  c #417630",
"p  c #447C32",
"a  c #3F802B",
"s  c #42822D",
"d  c #448A2F",
"f  c #458432",
"g  c #498636",
"h  c #468B31",
"j  c #498C34",
"k  c #4B8738",
"l  c #4D8B39",
"z  c #479031",
"x  c #4B9434",
"c  c #4E9B36",
"v  c #4E913A",
"b  c #4F9A38",
"n  c #509E37",
"m  c #51943C",
"M  c #529C3B",
"N  c #4FA036",
"B  c #50A137",
"V  c #53A43A",
"C  c #55AB3C",
"Z  c #58AD3E",
"A  c #57B13D",
"S  c #59B43E",
"D  c #5ABB3F",
"F  c #5CC23F",
"G  c #569D40",
"H  c #57A440",
"J  c #58A441",
"K  c #5AAC42",
"L  c #5DB343",
"P  c #5DBB42",
"I  c #61B746",
"U  c #61BC46",
"Y  c #5DC241",
"T  c #5FCA42",
"R  c #62C445",
"E  c #63CB45",
"W  c #65C549",
"Q  c #68C74B",
"!  c #66CB49",
"~  c #69CD4B",
"^  c #65D246",
"/  c #65DA46",
"(  c #68DB47",
")  c #67D348",
"_  c #6BD44C",
"`  c #67D849",
"'  c #6CDB4C",
"]  c #70DE4F",
"[  c #6FD950",
"{  c #71DC51",
"}  c #67E847",
"|  c #6DE34C",
" . c #6DEB4C",
".. c #70E44F",
"X. c #71EA4F",
"o. c #6EF34C",
"O. c #71F54E",
"+. c #72FB4F",
"@. c #6FE250",
"#. c #72E451",
"$. c #75EC53",
"%. c #76F253",
"&. c #78F456",
"*. c #76FD51",
"=. c #79FD55",
/* pixels */
"                                                                                                                                                                                                                                  ",
"                                                                                                                                                                                                                                  ",
"                                                                                                                                                                                                                                  ",
"                                                                                                                                                                                                                                  ",
"                                                                                                                                                                                                                                  ",
"                                                                                                                                                                                                                                  ",
"                                                                                                                                                                                                                                  ",
"                                                                                                                                                                                                                                  ",
"                                                                                                                                                                                                                                  ",
"                                                                                                                                                                                                                                  ",
"                                                                                          + $ * : > < 6 8 r t h h h d a t 8 8 3 < : - #                                                                                           ",
"                                                                                  o = 7 h C P ! ' | @.$.$.%.&.&.&.&.%.%.%.$.$.$.] ] E I n w ; o                                                                                   ",
"                                                                              $ 6 B ) #.&.&.%.&.%.%.%.&.&.&.&.&.&.&.%.=.&.=.&.=.=.=.&.=.&.$.~ C 5 #                                                                               ",
"                                                                          $ 8 L #.$.$.$.$.$.$.$.$.#.$.#.@.X.@.X.X.O.=.=.=.=.=.=.=.=.=.=.&.&.&.$.$.L e @                                                                           ",
"                                                                        < K #.$.$.$.$.$.#.$.| | | ' ' ' @.' ` ' @.X.O.%.+.+.=.=.*.*.=.=.=.=.=.=.&.$.] C :                                                                         ",
"                                                                    $ t _ $.#.$.#.#.| | | ' ' ' ' ' ` ) ) ) ) ) ` | |  .o.o.+.+.+.*.*.*.=.=.=.=.=.$.$.$.Q i @                                                                     ",
"                                                                  * M #.#.#.$.| @.| | | ` / / T E E E E T T E T E ^ / / | }  . . .O.O.O.O.+.+.+.=.=.=.%.$.{ j #                                                                   ",
"                                                                = K #.#.#.#.| | ` ) / T T T Y Y Y Y Y Y D F Y Y Y Y F T T T T T E ( ( ( (  .O.+.+.+.=.=.$.X.X.G *                                                                 ",
"                                                              : P #.#.#.#.' ' ` ) T T Y Y Y F F D D D D D D D D D D D D D D F D F P F F E E ( ( X.X.X.=.X.&.$.$.C *                                                               ",
"                                                            > P { #.' ' ' ' ^ T T T Y D D L P A A A A A A D A A A D D D D D D D S S F S D F F F ~ ( X.X.=.$.%.X.#.K ;                                                             ",
"                                                          , I { { { ' _ ^ T T Y Y P D A A A A A A A A A A D A D D A A D A A D A S F A F S F F P F F E (  .=.X.X.#.#.K ;                                                           ",
"                                                        > I #.{ { _ ) E T Y D D A A A A A A A V A A A A D A A D A D A A A D A D A A S S S S A S D D F E ( (  .=.$.#.{ L ;                                                         ",
"                                                      ; L #.] _ ) E E F Y D A A C C C C A V A V C A A A A D A D A S A D D A D A S F A A A S S S A D D P F E (  .X.$.#.{ K *                                                       ",
"                                                    % C { ' _ ~ E E Y F P A A C C C C B B A B A A A A A A A A A A A A A A A D A S S S F S S A A D A D D P F E ( | X.X.#.{ M #                                                     ",
"                                                  + z { ] _ ~ E R Y D Z Z Z C B B B H V V A A A A A A A A A A A A A C C C C A A A A A A A S A A S S S S D U F T / | X.X...[ g +                                                   ",
"                                                  r _ { [ ~ R R P P D D Z B B B B B V V V V V A B C B A B B C C C C C C C C C C B A A A A A A A Z S S S S S D R E ^ | ....] ~ e                                                   ",
"                                                , Q { _ _ R R P P D V V V M B n B B B B V V V B N B B B B B B B N C N C B C C C A C B A A C A A A A A A S S S D D R ) ( ..] ] I >                                                 ",
"                                              % K { [ _ R R D D D C V B n n n n B H B B V V B N N N N B B B B B N N N N B B B N B B A A C C C C A A A Z Z S S S D Y Y ) ' ] ] ] C &                                               ",
"                                            o f ' { _ ! R P D Z Z V M M n c c n c B B c B B c c c N N c c c N B N N B B B N N N N B C B B C C C B Z Z A A C S S S D D R E ] [ _ ~ u O                                             ",
"                                            < Q [ _ ~ I P D D C V n n M c c c c c c c c c B a c a N a c N N a B a N N B N N N N N N N B B G B C A B B A C Z C S S D D P W ) ) [ [ I ,                                             ",
"                                          $ V [ _ ~ R P D Z Z V B n n z n z c c c c z c c a a N c B N c B N N B B N a B N z N N c c c B B B B B G C A C C C C C S S L D P W E [ ~ ~ M %                                           ",
"                                          r ~ ' _ Q I D D C V n M z m z c n m z c c z c z c c N a a N a a N a a N a N N a N N a x c x c m B B B B B B C V C C C Z Z S S P W W E [ ~ Q y                                           ",
"                                        = L [ _ T Y Y K K H G c b z z c c n z z z z z z z z z z z z z z z z z z z z z z z z c z z z z x x c x n n n n V V C C C C C Z Z L U U W ~ ~ ~ L ;                                         ",
"                                        r _ _ _ T Y A A H B c x m z m z l z c z z z z z z f d d d d d d d d d d d d d d z d d d z z z z z z x c x n n V V V C C C C C C S S P W ~ ~ ~ Q p o                                       ",
"                                      = L _ _ ~ P L K C B c c x z z m c z z z l z z f z f d z d d d d d d d a d d d d d d d d d d z d z z z z z x x n n n V V V G C C C Z Z S U R ~ ~ Q K *                                       ",
"                                      w Q _ ` ~ L L K C B c x j z c z z z z l z f d z f d d d d d u d d d a d d d a a d d d d d d d d z z z z z x x x x n V V V n C n C C Z Z S U W Q Q Q i                                       ",
"                                    % G ~ [ ` Y K K C B c x x x l z z l z l z d z z z c c C c d u s d a d a a d d a a d a d d a d d c C n c z z x x x x c n n V B C B B B C C C L R Q Q Q M %                                     ",
"                                    1 L ~ ' ~ L K A B c x x x j z c z c n c z n V L P E ( | B d s s a s a a a d a d a a a a a d s d C ( ] ) R D C N n n n n n V B B G B B B B C L U R Q Q I ,                                     ",
"                                    9 Y ` ' T L A A B c x x j x n L I R E ~ ] ] #.$.$.$.) C d d a s a a a a a a a a a a d a a a s s z Z E $.$.$.#.#.[ _ E Q W U K B B B B B M B K L I W Q Q i                                     ",
"                                    g Q ` } Y P B B c c x j x x Z [ ] $.$.$...] ] E P V z z s a a a a a a a a a a a a a a a a a s u u z j C P E ( ] #.#.#.$.#._ I B m M M m M B V L W W I Q l                                     ",
"                                  & G Q | ` P L B B c G a c j x z c M Z C C B n z z d d s a a a a a a a t t t t a a t a t a t a a a s s s s d z z n V C Z D C V B B M M M j M M n K R W W W C *                                   ",
"                                  1 K Q | ` P V H B c a G a j j z z z g f f f d d u u u t s a a a t t t t t t t t t a a t a t t t t t a a s s s f d z f z l j c M l M x c c c c n J I W W U K :                                   ",
"                                  2 L ! o.` L V B B c G a c x x g z f f f d f u s s u u a a t t t t t t t t t t t t t a t t t t t t t t a s s s d d f z f z l z c j x x j M j M M K Z E ~ W L 4                                   ",
"                                  5 L ! o.T P V H H a a G a a c z f z f f u d u s s u u t t t t t t t t t a d d d d a a a t t t t t t t s a a s u u f z f f f z x M c l M j c c M n K E ^ U U 3                                   ",
"                                  7 P T o.T L B G c a G a l a l f f f f f d f d s u s t t t t t t t t a c Z R ~ _ _ W Z d a a a t t t u u u u u d d d p z g z z x l G j c j c j M B Z W _ Q U 0                                   ",
"                                  0 I Q O./ L H B G B a G x x l g z z f u d u d s u u t u t t t t a z S { $.$.$.$.$.$.$.( A d a t t t u u u u u u p d f f f f l j j j M j c j c M G Z E ( R U 0                                   ",
"                                  0 L Q o.T L B G a a G a l l a f f f f f p d p u u u u t t t t u x F ..$.$.$.$.$.$.$.$.X.X.F z u u u u u u u d f u u f f f d l x j M j G c j j l B K E ( I I 0                                   ",
"                                  5 L T o./ L B H a G a G a x a z f f f d u u u s u u u u t t u d S X.X.$.$.$.$.$.$.$.$.$.X. .D d u t u u u u u u u d f d z f f j j j c j j j G M M J Q ^ R I 3                                   ",
"                                  2 K Q o.` L B b x x l a l a l d d d f f s f u f u u t u t t u c _ $.$.$.$.$.$.$.$.$.$.$.$.$._ z f d t t u u u u u f d p g f f h h l x x x x x x M H ! ^ I L ,                                   ",
"                                  ; H P o.} P H b x z l G a G a h f f s f f s s t u u u t t t u c _ $.$.$.X.] ^ _ _ ] X.$.$.$.{ z d t t u u u u p d d p d d z g h l x x l l l l G b K E E I K ;                                   ",
"                                  % m I | o.P B G x x l x l a l k f f f s f u s f t u t u t t u d P ..] E C c d d d x C E ] ] R h t t t u u u d d p u f p g g d l h l x x l l x x G K E R I m &                                   ",
"                                    f I ` o.T C b x x h a l l x h f f f f s f u f t u u u t t t u d c c d a t t t t t u d x x d d t u t t u u u u u d f d f d g h l h l x h g G x G K R I I f                                     ",
"                                    7 K R o.^ D G b z l h h l a h k u k f s s f t u u t u t t t u u t t t t t t t t r t u t t t t t t u t d t t u p p f f f g f h h l l z l x x G G K P L I 5                                     ",
"                                    : V I } } D H x l l a l a l h u f f f s f t f t t f u u t t t t t t t t e t t t t t t t t t t u u u t t p d u d u d f f d g h l l h l h l x G G K L I M ;                                     ",
"                                    @ l L ^ } E H x G g x l a l k h h u s f f t t f u s u u u u t t t t t t t e r t t t t t t t t u t p p t t f p f f f f d f d f h h h h l l l G H L L I g @                                     ",
"                                      5 K I ( ) L G x G x l l a u f f k f f f f f t f t u u u u t t t t t r t t t t t t t t t t t t t t t d t f d u f f f l f g l l f l l l l G G H K K J 4                                       ",
"                                      * m I E ( R J m m j m g g k f f f f f f u g u u u u u u u u t y t t t t t t t t t t t t t t a f f t f t f f a f f f f f g f h f l l x x G G J J K l %                                       ",
"                                        0 J L E R Z n m m k m k k h f k f f f f u g u u u u u u t t t t t t t t t t t t t t t t t a t t f t f t f f f f l f f g f l l h h l l G G G J J 4                                         ",
"                                        % k K I R D V m m l m k k k h u f f f u u u u u f u u u u u u t t t t t t t t t t t t t t p t f t t f f f a f h f f i g h f l l l l G G l G G p %                                         ",
"                                          , G K D D Z G n k k k k k k k k f f f g u g u u u u u u u t u t u u u t t t t t t t t t f t a f f f f f g f f f h G p g l h l l l G l G G G 1                                           ",
"                                          O 5 G Z I Z n m m k k m k k k k k f g k u u u u u u u u u u u u u u u u u u u t t u u f t f p f f f f f f f h k p G k p k k p l G l G G l 1 X                                           ",
"                                            O 5 G J J n n m k m k k k k k k k k k u k k k k u g u u u u u u u u u u u u t t u u t t t f t a f f f g g g p G p k G k G G G l l G l 4 O                                             ",
"                                              @ 1 l J Z G m m k m k k k k k g g k k k u u p u p p p u u u u u u u u u u u u u u t f f f g g g g g g g l k k G k k k p G k G l k 1 O                                               ",
"                                                O ; p G G m m m m k x k k k k k k k p k k k k p k p p u p p u u u u u u u u u u f p f p f g g g g g g l k k p k p G G p G G i = X                                                 ",
"                                                    % 4 g G G k G k l l l k p k k k g g f k p p g p f f p f p f f u p u p f d p g p g p g g g g g l l l l l l l m l m l p 5 %                                                     ",
"                                                        % 1 0 i k l G k x l G l l k k k k f g f f g p g f p p f p f f f p f p g g g g g g l g l l l l l l l l l l l i 1 % X                                                       ",
"                                                            X % = 1 1 4 5 0 0 r r p p p p k g g k g f p g p g f p f f f g g g g g g g p p p p i i i i 0 0 5 5 1 : * O                                                             ",
"                                                                              @ % % % % = ; > 2 5 9 w i y p p p p p p y r w 9 5 < > ; - & % % # @ O O                                                                             ",
"                                                                                                    O $ $ & & & & & & % $ +                                                                                                       ",
"                                                                                                                                                                                                                                  ",
"                                                                                                                                                                                                                                  ",
"                                                                                                                                                                                                                                  ",
"                                                                                                                                                                                                                                  ",
"                                                                                                                                                                                                                                  ",
"                                                                                                                                                                                                                                  ",
"                                                                                                                                                                                                                                  ",
"                                                                                                                                                                                                                                  "
};
