/* XPM */
static char *SlimeBasic_00012[] = {
/* columns rows colors chars-per-pixel */
"113 77 102 2 ",
"   c None",
".  c #070D05",
"X  c #080F06",
"o  c #0A1207",
"O  c #0B1508",
"+  c #0E1A0A",
"@  c #111E0C",
"#  c #13240E",
"$  c #15290F",
"%  c #152510",
"&  c #162B10",
"*  c #182D12",
"=  c #1C3414",
"-  c #1E3A15",
";  c #203F17",
":  c #213D19",
">  c #214217",
",  c #24431B",
"<  c #264A1C",
"1  c #294B1E",
"2  c #2A531E",
"3  c #2C4E20",
"4  c #2D5421",
"5  c #2E5A21",
"6  c #335D25",
"7  c #346325",
"8  c #366A27",
"9  c #366328",
"0  c #3B6C2C",
"q  c #3C742C",
"w  c #3F7D2A",
"e  c #40752F",
"r  c #407F2C",
"t  c #417730",
"y  c #437B31",
"u  c #3F802B",
"i  c #42822D",
"p  c #448A2F",
"a  c #458432",
"s  c #498636",
"d  c #468B31",
"f  c #498B34",
"g  c #4B8738",
"h  c #4D8B39",
"j  c #508F3C",
"k  c #479031",
"l  c #4B9334",
"z  c #4E9B36",
"x  c #4E923A",
"c  c #4F9B38",
"v  c #509E37",
"b  c #51943C",
"n  c #529C3B",
"m  c #4FA036",
"M  c #50A137",
"N  c #53A43A",
"B  c #55AB3C",
"V  c #58AC3E",
"C  c #57B13D",
"Z  c #59B43E",
"A  c #5BBB3F",
"S  c #5CC13F",
"D  c #57A340",
"F  c #59A441",
"G  c #5AAC42",
"H  c #5CB442",
"J  c #5DBB41",
"K  c #60B746",
"L  c #61BC46",
"P  c #5EC341",
"I  c #5FC941",
"U  c #62C445",
"Y  c #63CB45",
"T  c #65C449",
"R  c #68C64B",
"E  c #66CB49",
"W  c #69CD4B",
"Q  c #64D346",
"!  c #65D946",
"~  c #68DB47",
"^  c #66D448",
"/  c #6BD44C",
"(  c #66D948",
")  c #6CDB4C",
"_  c #70DE4F",
"`  c #6FD950",
"'  c #71DD51",
"]  c #66E347",
"[  c #67E048",
"{  c #6DE34C",
"}  c #6CEB4B",
"|  c #70E44F",
" . c #70EB4E",
".. c #6DF24C",
"X. c #71F34E",
"o. c #72FA4E",
"O. c #72E451",
"+. c #75EC54",
"@. c #76F353",
"#. c #79F556",
"$. c #76FD51",
"%. c #7AFD55",
/* pixels */
"                                                                                                                                                                                                                                  ",
"                                                                                                                                                                                                                                  ",
"                                                                                                                                                                                                                                  ",
"                                                                                                                                                                                                                                  ",
"                                                                                                                                                                                                                                  ",
"                                                                                                                                                                                                                                  ",
"                                                                                                                                                                                                                                  ",
"                                                                                                                                                                                                                                  ",
"                                                                                                                                                                                                                                  ",
"                                                                                                                                                                                                                                  ",
"                                                                                          & < 5 q a d l z m m z l d w 8 4 > - & @                                                                                                 ",
"                                                                                    $ 5 l I ) +.#.#.#.#.#.%.#.#.%.#.#.+.O.) ^ P Z B l e 5 = +                                                                                     ",
"                                                                                = w J O.#.#.+.+.+.#.+.+.+.#.+.#.#.#.#.#.#.%.#.%.%.#.#.#.O.W B q :                                                                                 ",
"                                                                            # q T +.+.+.+.+.+.+.| | | | | { |  . .#.$.$.$.%.%.%.%.%.%.%.#.#.+.+.W l >                                                                             ",
"                                                                          < B O.+.+.O.+.| | { { { ` ( ( / ) ) ) {  .#...$.$.$.%.%.%.%.%.%.%.%.#.#.+.W r *                                                                         ",
"                                                                      + 8 W +.+.+.{ | { { ) ) / ^ ^ ^ ^ ^ ^ ^ ^ ( ) { } ..$.$.$.o.$.%.%.%.%.%.%.#.+.+.O.K 3                                                                       ",
"                                                                    % f ` +.O.| | | ] ! ! Q Q I Y I I I S I I I I ^ ! ] ] ] ....o.o.o.$.$.$.$.$.$.%.@.+.+.R 9 X                                                                   ",
"                                                                  & z O.+.O.| | | ( ( Q I I I S P J P J A S S P P P S I Q Q ! ] ~ ~ ] ] } o.o.$.o.$.%.@. .+.` e O                                                                 ",
"                                                                - F O.O.O.| { ( ^ Q I I P J A A Z Z Z Z A C A S Z P Z S S P P P I I P I I ^ ]  . . .o.@.#. .+./ r O                                                               ",
"                                                              - F O.| | ` ` ^ Q I P S S A H A H Z Z Z Z C C A Z Z Z A A Z Z Z Z A A A A P P P E ~ |  . .#. .+.+./ q O                                                             ",
"                                                            : G | O.| ` ( ^ I I P Z Z Z H C C C C C C C Z C Z Z C C A C Z Z Z Z Z A Z A A A A A P Y ~ {  .X. . .O./ q O                                                           ",
"                                                          - V ' ` ` / ^ I I P P J H A C B B M C B C C C Z Z Z Z C A C C Z Z Z S Z A Z A Z A A Z A J P I ~ |  .o.+.O.W 0                                                           ",
"                                                        - H ' ' ) / ^ Y I P J C C B B B B B B B B C C Z Z Z Z Z C C C A C A Z Z Z Z Z Z Z Z Z Z Z A A J P ^ {  . .+.' R 4                                                         ",
"                                                      $ B ' _ / W Y Y P P Z C C B B B m m B B B C C C C C C Z C C C C A C A Z Z Z Z A Z Z Z Z Z Z A A A P P Q ~ {  .O.' L >                                                       ",
"                                                    + l _ ` / W Y T T A Z Z B N B m m m B B B B B B C C B C B C C C C C C C C C Z Z Z Z Z Z Z Z Z Z Z Z A A I Y ~  .| | _ n #                                                     ",
"                                                  . q / _ ` W T T P A Z Z B N N m m D B B m B G M B M M M B M C M C C C M C C C C B B Z B Z Z Z Z Z Z Z Z A A U Y ~ { | _ / e                                                     ",
"                                                  2 R ' / W Y T A A Z B B N m l m D m D m B m m m m m m m m M M M M C M M C M C B B B B B B Z Z C C Z V Z Z Z J T Y ~ { ) _ T 1                                                   ",
"                                                = G ' / / T S L A Z V B l N m N m m m m m m m z m m z m m m m m M M m M M M M M B M B B B B B B C C V Z V Z Z A A S Y / ) ` / B #                                                 ",
"                                              O a ) ) / R L J A B B B B N B l m z m m m z z z m z m z z M M m C m m m C M M M M M M B B B V C V M V V B C C C H J J J E / ) ) W e                                                 ",
"                                              4 R ` / R T J A Z B B z n l l m l z z z z k z z m u m m u u m m u u m m M m m M M M M M M M M M V C N B B C C N V Z J J P W / ` / L ,                                               ",
"                                            & B ) ` W T A A Z V B n z z z z l m z z z z z u z u u z z u m m m M m m m u k m m m z z v v M M N N M V M V C N C C C Z H J T E / W W h @                                             ",
"                                            q / / / T J Z Z V B n z n l l z z l z z k k k z m u m m u m u m u u m u m u m m M u z z z z v v M M M N M B N C N N C C Z J P T W W W R 4                                             ",
"                                          : K / ( Y P P H C H D z l l l l l l l v k k k k d k d k k d k k k k k k k k k k k k z k z z z k z z z m M N N N V N V V V Z Z H J E W W W v %                                           ",
"                                          q W / / I H C C C z z z l l l l l l l k k d d k d d p p p p p k k u k k p p k k k k k k k k k z k l z z z M N N N V N B B V Z H J T E W W L 6                                           ",
"                                        = G / ` W J H C M M M z l l l l l l l l d d d d d p p p p p p p k u u k u p p p p p p p d k d k k k k l l z z M N N N N N B N B B H L T W R W x @                                         ",
"                                        6 W / ) W J H H M M D u l h l l l l k l d d p p p p i p i p i i u u k u u p u p p p p p p p p d p k k l l l l v v N N N N N N N B B H L T W R K 1                                         ",
"                                      @ l W ) / J H H D m z u D l l d l l p d d d p p d p k p p i i p u u p u p p u u p u p p u p p d k k d d d l l l l v v N v N D D n N N V J L T R R y                                         ",
"                                      - G W ) ^ J G H m z D D u d d l l l l l l x B V J Y Q N p p u u u u u u u u p u u u u u p p d N ^ E J Z V v z z z v v v M z v v v z N N H L T T W n *                                       ",
"                                      6 T W [ I H C m m D u x l B H L T Y R ) ) | | | | ^ V k i u u u u u u u u u u u u u p u u i i k Z ^ |  .| | _ / ^ W E U L V D v v v v N V H T R R K 1                                       ",
"                                      q T ) [ I C H H u c c u D B L / ) ) ) / W T Z V v k i i u u u u u u u u u u u u u u u u u i i i i d v N A U W / / / / / E V z v v v z N V H L T L K e                                       ",
"                                      h T ] ) J C M M M m u x u d l l x l l l d p p i i i u u u u u u w w w w w u u u u u u u u u u i i i i p p d d k x v v v v z z z z z z z D H K T T L s                                       ",
"                                    * z T | ) J H D m u u D u x d d d d a d i i i i i i u i w u w w w w w w w w u u u u u u w u u w u u i u i i d d d d d k d z v b z j b z z b V J U T R b                                       ",
"                                    : D P } ( H M M z x D u c c d d d s d i a i i i i i u w w w w w w w w w w w u u u u w w w u w u w r u i i i i i d a a h h x b b b b z z b v D J Y U L F :                                     ",
"                                    3 D R ..( H D D z c u c x u d d p s a d i i i i i w r w w w w w w w w p f z m k p u u w w w w u w r u i i i i d a d d d d x d z z f z l l b D J U W L K :                                     ",
"                                    < G P  .) H m m z c l x f f d d d a a i a i i i w r w w w w w w u p N U W O.O.O./ U m p u w w w w w r i r i i a a d d d d d z z z b d z l v v H Y ~ L V 1                                     ",
"                                    < G R ..Q H D z z u f x u f d d d a a a i i i i i r r w w w w u k A O.+.+.+.+.+.+.+.] A k u w w w r r r r i i i i a s d s d d b b d d b l b D F I ~ T H 3                                     ",
"                                    , D P ..! H D z x l l u u x s d s a i d i a r i r w w w w w p l P  .+.+.+.+.+.+.+.+.+.+.P k i w r r r r r i i i a d a d s d b d z b j l l b D F ~ W K H 1                                     ",
"                                    : D L } ] J D c l l x x f f d s s a a i i i i r r w r w w i p H O. .+.+.+.+.+.+.+.+.+. . .Z p r w r r r i i i a i i a d s d d b b d d b z b b V W ~ T V :                                     ",
"                                    = b L } } J B z l h l f f f f d a a a i a i i i r r w w w i l W  .+.+.+.+.+.+.+.+.+.+.+.+./ l p w w w i i i i i i s i d d s h l l l l f l n B F ^ Y L F :                                     ",
"                                      d J { ] P D z l l x u u h a a d a a a i i r r i w r w w i z ) +.+.+.+.O._ _ _ O.O.+.+.+._ l i u w r w r r i i a i s d s d h l h h h l h x l F Q T L b &                                     ",
"                                      e K ( ..I D n l l f f f f f a a a a i a r i r r r w w r i f W +.+.~ U N k z v N S _ +.+.W l i r w r w i i i i i a s i a s d l f l f l h n n G Y P L s                                       ",
"                                      6 G R ..Q F n l l f f s f f a f a i a i a i r r r r r w w p v Z V v p u w w w p p v V V z i r w r r i r i i a i a i s d d d h h l f h x n n G T K K 0                                       ",
"                                      : N J } ] H D x l f f f f f f a i i a i r a r r r r w r w w w w w w w w w w w w w w w w w w r w w r r r r a i i a a s s d d h d h f h l b n G T H G 4                                       ",
"                                      # h H ! } J D n l f f f u a a f a a a a i r i r r r w r w w w w w w w w w w w w w w w w w w w r r r r i a i a a a a a a s h d h d h h x n F H K H n =                                       ",
"                                        9 G U } Q B z x l f f s f a a a a i i a i r a r r r r w w w w w w w w w w 8 w w w w w w w r r r i r a r a a i a a a s d h d d h h h b n F G H K t                                         ",
"                                        : n K / ! H n x x h f f a f a a a a a r a a r r r r r r w w w w w w w w w w w w w w w w r r r r r i r i i a a a a d d s a d h d j b b n F G G F 3                                         ",
"                                          y G L ~ S D n j f j a f a f f y a i i w a w i w w r w w w w w w w w w w w w w w w w w r r r r a r r a a a a a g a s d d h d h h b n n F F G g @                                         ",
"                                          : n K U Y H v b j j f f a y f a a a a a a y i r i r w w w w w w w w w w w w w w w w w r r r i a r r a a a a a a d a a d s d h l b b F F F F 3                                           ",
"                                          @ e F J U J n b j j f f g f y f y a r i r y r a i i i y r w w w w w w w w w w w w w w r r r r r a i i a a a a a d a g g g h h b b b F F F t #                                           ",
"                                            % g F J J V v b j g g g g f f f y f a a a a w y w w r r w w w w w r w w w w w w w w r r i i a r a a a a d a a g g g d h h h j b b b n h :                                             ",
"                                              1 z G H V n b b j j g g g f g f y y s a a a y r a r r r r r r r r r r r r w r r r t i i i r a a a a a a a y h g h h h j j b b b D j 3                                               ",
"                                                3 j G V F b j j g g j g y g g g s s s y a a a y y y r r r r r r r r r r w r r r r i i a a a a a a d a h g g h h h h j j b b j j 3 O                                               ",
"                                                  3 h D n n b j j j g g g g g g s s s g a a y a y a y a r r r r r r r r r r r r i i a a a a a g g g h h g h h h h j j j j j y 3 O                                                 ",
"                                                    : y n n b b j g j g g g g g s s s y s a s a a a y a s y r r r r y r r r r r t a a t a a a s g g g g h h h h j j j j h 0 :                                                     ",
"                                                      * 9 j b b b j j h h h h g g g s s g s a s s t t s a s a t r r t r r i r s y s s s s s s s s h h h h h j j j j g 0 > @                                                       ",
"                                                        X = 0 h j b j j l h h h h g h s g d s y s s a a a t a s a a s s t s s y s s s s s s d h h h j h j g g y e 3 = O                                                           ",
"                                                            X * 3 6 0 0 t t y t t t t t t t t t a s s s s y s t s s s s s s s s s s d s g y y y e 0 0 4 , : : # +                                                                 ",
"                                                                    O @ @ @ % % & % & % % & = = : : 1 4 9 0 e r t t t t r t r e 0 9 6 3 3 : : & @ O                                                                               ",
"                                                                                                          O @ # & = & = & & & # @                                                                                                 ",
"                                                                                                                                                                                                                                  ",
"                                                                                                                                                                                                                                  ",
"                                                                                                                                                                                                                                  ",
"                                                                                                                                                                                                                                  ",
"                                                                                                                                                                                                                                  ",
"                                                                                                                                                                                                                                  ",
"                                                                                                                                                                                                                                  ",
"                                                                                                                                                                                                                                  "
};
