/* XPM */
static char *SlimeBasic_00002[] = {
/* columns rows colors chars-per-pixel */
"113 77 109 2 ",
"   c None",
".  c #030602",
"X  c #060B04",
"o  c #080F06",
"O  c #091207",
"+  c #0B1408",
"@  c #0E1A0A",
"#  c #101E0C",
"$  c #13240E",
"%  c #15280F",
"&  c #152610",
"*  c #162B10",
"=  c #192E12",
"-  c #1C3415",
";  c #1E3B16",
":  c #203B17",
">  c #213D18",
",  c #24431B",
"<  c #254A1B",
"1  c #294C1E",
"2  c #2A531E",
"3  c #2C5A1F",
"4  c #2B4F20",
"5  c #2E5522",
"6  c #2E5A21",
"7  c #305724",
"8  c #325C24",
"9  c #2F6021",
"0  c #336325",
"q  c #356B26",
"w  c #38662A",
"e  c #376829",
"r  c #3B6E2B",
"t  c #3D732C",
"y  c #3E7D2A",
"u  c #40762F",
"i  c #407F2C",
"p  c #417630",
"a  c #437C32",
"s  c #3F802B",
"d  c #42822D",
"f  c #448A2E",
"g  c #458432",
"h  c #498636",
"j  c #478B31",
"k  c #498C34",
"l  c #4B8738",
"z  c #4D8B39",
"x  c #479031",
"c  c #4B9334",
"v  c #4E9B36",
"b  c #4E923A",
"n  c #4F9B38",
"m  c #509E37",
"M  c #51943C",
"N  c #529D3B",
"B  c #4FA037",
"V  c #4FA038",
"C  c #50A137",
"Z  c #53A43A",
"A  c #55AB3C",
"S  c #58AB3E",
"D  c #57B13D",
"F  c #59B43E",
"G  c #5ABB3F",
"H  c #5CC13F",
"J  c #579F41",
"K  c #57A240",
"L  c #58A541",
"P  c #5BAD42",
"I  c #5CB443",
"U  c #5DBB42",
"Y  c #60B646",
"T  c #61BD46",
"R  c #63BD48",
"E  c #5EC341",
"W  c #5FC941",
"Q  c #62C345",
"!  c #63CB45",
"~  c #65C449",
"^  c #68C64B",
"/  c #66CC49",
"(  c #69CC4B",
")  c #64D346",
"_  c #66DC47",
"`  c #68D947",
"'  c #67D448",
"]  c #6BD54C",
"[  c #67DB48",
"{  c #6CDB4C",
"}  c #6FD950",
"|  c #70DC51",
" . c #66E247",
".. c #67E448",
"X. c #6DE34C",
"o. c #6CEB4B",
"O. c #70E34F",
"+. c #71EB4F",
"@. c #6EF34C",
"#. c #6DF84B",
"$. c #71F34E",
"%. c #72FB4F",
"&. c #6FE150",
"*. c #72E451",
"=. c #75EC53",
"-. c #75F352",
";. c #79F556",
":. c #76FD51",
">. c #79FD55",
/* pixels */
"                                                                                                                                                                                                                                  ",
"                                                                                                                                                                                                                                  ",
"                                                                                                                                                                                                                                  ",
"                                                                                                                                                                                                                                  ",
"                                                                                                                                                                                                                                  ",
"                                                                                                                                                                                                                                  ",
"                                                                                                                                                                                                                                  ",
"                                                                                                                                                                                                                                  ",
"                                                                                                                                                                                                                                  ",
"                                                                                                              ; < 3 9 3 3 2 < ; $                                                                                                 ",
"                                                                                                  % ; 6 y V I / { O.=.=.=.*.{ ! U m d 9 :                                                                                         ",
"                                                                                      % - < q f Z E ] *.;.>.>.;.;.;.;.;.;.;.;.>.;.-.-.=.] Z 0 =                                                                                   ",
"                                                                            o & < q c I ' &.=.;.;.;.;.;.;.=.;.=.;.:.:.:.:.:.>.>.>.>.>.>.;.;.=.Q g >                                                                               ",
"                                                                      o - q v ~ } =.=.;.=.;.=.;.=.=.=.+.*.X.X.X.X.X.;.%.:.:.:.>.>.>.>.>.>.>.;.;.=.( k ,                                                                           ",
"                                                                  @ 2 v / *.=.=.=.=.=.=.=.=.=.X.X.X.{ { { { { { { X.X.X.@.@.:.:.%.:.>.>.>.>.>.>.;.;.=.( a -                                                                       ",
"                                                              O 2 Z } =.=.=.=.*.=.=.X.+.X.&.{ { { { [ ' ' ' ! / ) { {  .X.X.@.X.#.%.%.%.>.>.>.>.>.>.;.=.*.~ u #                                                                   ",
"                                                            = j } =.*.=.=.*.*.&.&.&.X.X.[ [ [ ) / ' ! ! H W W W E W W H ) W ) ) _  . .o.$.%.:.:.>.:.>.-.=.=.O.m , .                                                               ",
"                                                        o 2 I *.*.*.*.*.X.&.X. .X.[ [ ) ' ) W W W E E E G H H G H G G H H H H H H W W ) )  .o.$.:.:.:.>.>.-.=.=.( t %                                                             ",
"                                                      @ r ( *.*.*.*.{ { { { [ [ ' ' W W E E W H G G U F H G F G G G G G F H F H H G G H H W ! ` X.$.$.-.>.-.-.=.*.*.Z :                                                           ",
"                                                    % k ] | *.| { { { { [ ) ) W W E E E U U F F G F F F D D D D D F D D F F F F F F F G G G H W ! ` X.+.$.>.-.-.=.*.| Q 8 o                                                       ",
"                                                  = m | | | | ] ] ] ) ) W W E H G G G G D F D D F F F D F D D G H D H D F F F D F F F F F G G G G E ! ) X.+.$.-.;.=.*.*.] i $                                                     ",
"                                                = Z | | | | ' ' ! ! ! H H U G G F F F F D D D D A A A F F G F G D D D D F F D H F G F F G F D G G G G E ! ` X.$.$.$.=.=.| | m :                                                   ",
"                                              % m | | } ' / ! ! ! E G G G F F F A F A A A D D A F F F F F F F F D D D D D H D D G D D G D F F F F F G G H W ! ` O.+.+.=.=.| } Y 1 X                                               ",
"                                            @ k | } } ' / ! ! E G G G F F A A A A A V A A D C D F A F F D D D D D D D D D D D D D F F F D G G D F F F G G G H ! ' ..+.+.+.=.| } Y 5 o                                             ",
"                                          o t ] | } ( ( Q Q H G G F F A A A Z Z D C C D A A D A D D D D D D D D D D D D C D D D A D D D D D D F F F F F F G G G E ) ` ..+.+.O.O.] ~ 5 X                                           ",
"                                          5 / | ] ] / Q Q U G F F S A Z Z Z Z Z C C D C C A A D D D C D C C C C C B C D D C C C A A A A D D D D S F F F F F G G G E ! ' ` +.+.O.+.] Y <                                           ",
"                                        ; I | } ( / Q U G F F A A Z Z Z Z Z B B C C C C D A C A B B C C C C B B B C C C C D C C C A Z A A A A A F F F F F F F G G U E E ) ` { +.| | ] Y >                                         ",
"                                      @ k } } ] ( Q U G G F A Z Z m m m v v v Z B D C D C C C C B B B B B C B B B B C B C C C C A C C Z A A A A A A S F F S S F F G G U E Q ' ] | O.} ( N =                                       ",
"                                      0 ] } ] ( Q U G F F A Z Z N v N v v v v Z B B B C B v v B v v v v B x B B B B B B B v v B m Z Z C C A Z A A A A F D A F F F F F G G U Q ' ] ] ] ] ( h @                                     ",
"                                    : U | ] ( Q T G F F Z Z N m v v v v v v B v B B B v v v v B v v v x B B B x x v x v v v v v m m B B C C Z Z A Z A A S A A D S F F F G U G Q ' ` ] ] ( R w X                                   ",
"                                  @ k ] ] ] ~ U F F S A Z m v N v v v v v v v v v v v v x v v x x v x v x x x x x x v x v B v v B x x B B B B m Z Z Z A A A A F S S F F F F U Q ~ ~ ( ] ( ( Y >                                   ",
"                                  6 / ] ] ( T I F F S Z m v c c c z c v c v v v v B s v v s v s v x B s B x x v x x v s v s v s x B x B x B B B Z Z Z Z Z A A A A A S S F F F G ~ ~ ( ( ( ] ^ k @                                 ",
"                                & N } ] ( ~ U I F P V v v v b v c c c v v c c c k x x c x x x x x x x x f x x x f x f f x f x x x x x v x v v v v m Z Z Z Z Z A A A A S A F F F U U ~ ~ ' ] ( ~ 8                                 ",
"                                0 / ] ] / U F F A Z V v v x x x c c c c c c c x k x x x x x x x x f f f f f f f f f f f f f f f f f x x x x x v x m v m Z Z A Z Z Z A S A S S F F U Q ~ ~ ^ ( ^ N &                               ",
"                              & v } } ] Q I F A Z V v v l x v l c c c c c c x x x x x x c c x x f f f d f f f f f f f f s f f f f f x x x x x x x c c m m Z Z Z Z S A A Z A S S S F I ~ ~ ~ ] ^ R 7                               ",
"                              6 U } { / U F A A Z v v x l v x x c c c k x f c f x x c m Z U A x f f d f f s s s s s s f f f s f f x A T A Z v x m x v x b m m Z Z Z Z Z Z A Z A S S S U ~ ~ ~ ~ ^ z &                             ",
"                            @ z ( } [ ~ I F A Z v v c c x b j j c c c k c k x c m Z F / O.+.D x d d s f s d s f s s f s s s f s f f F O.| ( F Z m m m b v v m m m S m S Z Z Z Z m Z S S Y Q ~ ~ ^ Y :                             ",
"                            ; I ( } } U F A A v v c c k j b x b c c c v v Z A G ! | *.=.=.' v f d f f d s s s s s s s s s s s s d f v ' =.=.*.{ ! F S Z Z Z Z Z m N m N Z Z Z m m m Z S S Q ~ ~ ^ ^ w                             ",
"                            0 ~ / &.' U I A v v v c k c x x x b m S U Q / ] | =.=.=.=.=.] A x d d d s s s s s s s s s s s s s s s d x Z { =.=.;.=.=.| | / E U I S m m m m m m m m m m S S Y Q ~ R ^ k @                           ",
"                            g ~ ' &.W I A Z N v v c k k l x x x F | =.=.=.=.=.=.=.=.*.! Z x f d s s s s s s s s s s s s s s s s s d d c Z ! O.=.=.=.=.=.=.=.=.*.Q m m N N m m m m M m Z S I Q Q ~ ^ Z -                           ",
"                          = K ~ &. .E I A Z v v b b s v b s j b S ] O.=.=.=.=.O.] Q A v f d s s s s s y y y y y s s y y y s y s y s s d f v A Q ] O.=.=.=.=.*.] S m M m m m M m M m m m S P Q ~ ~ ~ I ,                           ",
"                          4 P ~ ..&.E A V V v v v s b s s b j x c m S T T U F Z m c f d d s s s y s y y y y y y s s y y y y y y y s y s d d f c v A I U Q T F Z m M B M c m c m c c m M N L Y ~ ! R Y 8                           ",
"                          7 I ~ @.[ U P K v v v x b b x v b s b k k c c c k k f f d d d s y y y y y y y y y y y s y y y y y y y y y y y s s d d f j k c c c c c x x x M c M c M M M c M m S I ' ( ~ R w                           ",
"                          0 R ~ @.[ U P V v v z b b s b b s b s d f d d f d d d s d s s s y y y y y y y y y y y y y y y y y y y y y y y s s s d d d f d g j j k x M f v m M c c v x v m N S I ' ) T R t                           ",
"                          r U ~ @.[ U A V v v z b s b s j g l g k d d g d d d i d y d y y y y y y y y y y i d f f f d i y s s y y y y y y i y d d d d d f g j j k x x k M M M c x k M v M L Y ` ] T R t                           ",
"                          t I ~ #.[ I Z N v v v l j x l l j j j j g g d d d d d d s i y y y y y y y s f S Q ' ] | ] ` Q B f s s y y y y i y i i i d d d g d g k f k x M v v c c v M x v m m S ` _ R R t                           ",
"                          t R ~ @. .U Z v v j z b j l j j j j g g g d g g d d i i i y i y y y y y f D ` =.=.;.=.=.=.=.=.+.` C f d y y y i y i i i d d g d k k d h x h k x v v M x z M M m J S ` ) T R r                           ",
"                          r I E @.&.U K J v v x x l j l j g l s g d j d d d d d i y i y y y y d f G +.+.=.=.=.=.=.=.=.=.=.$.o.H f d y y y i y i d d d d d g d k f h g k z M x z z x v z M J U ` / T T 0                           ",
"                          0 I R @...W P v v b x b l s b l s l j g g g d g d g i i i i i y y i i m | =.=.+.=.O.O.O.` O.=.=.=.=.` c d i y i i i i i i d d d f l g j k k k c k z v z v z v N Z I ' Q Y I 4                           ",
"                          1 P U ..@.W P J v b b j j l j j j j g g g d g i d i i i i y y y y y i f U ] ` H A B x x x v Z Q ] ` U x i y y i y y i i d d d d d d j g d l k k z v x l z z v J N I ! T Y L -                           ",
"                          ; K I [ #.) A v v v l x l s b j j b s g d g d g i g i i i i y y y y y y y f f y y y y y y y y i d g i y y y y i i i i i i d d d l d d g k g k k c z z j v v z M J I / Y Y k %                           ",
"                          & z Y ) @. .U K v v l b x l j l l s l f g d g d g i i i i i i y y y y y y y y q y y y y y y y y i i i y y i y y i i i d d d d d d l l g g j k k z v x j l z v M J I T Y Y r                             ",
"                            r I R X.@.E Z N b b l s s l s b l s g g g d i g i g i i i i y y y y y y y y y t y y y y y y y y y y y i y i i i i i i d d g d l d k g k x l b j l l z x v J J L I Y I L ,                             ",
"                            4 L I ' @.) P N N M b b b b b s l s g g d g g g i i i i i i y y y y y y y y y t y y y y y y y y y y y i i y i i i i i d i g d d g d l d x g j l x z l b z z J L I I Y l %                             ",
"                            & z I ~  . .T Z N M b b s s l l s b g g g d g i i i i i i i y i y i y y y y y y y y r y y y y y y y i i i i i i i d g i g d g d d l g g l g j j j b l h J v J L P P L 7                               ",
"                              5 P I ) _ ) P N M b b b l s l l s f g g g g i g i i i i i i i a i y y y y y y y y y y y y y y y i i i i i i d i d i g i g d l l d x g k g l j l l l h J J J L P P l %                               ",
"                              & l P Y / ' E Z M M M z z z g g g g g g g g d i g i i i i i i i i a y y y y y y y y y y y y y i y i i i i i g d i g d d g l d d l g l l g k l l k z M M J J J L J 5                                 ",
"                                4 N P R ! E I Z M M z z z z l l g g g g g g g i g i i i i i i i y y y y y y y y y y y y y y y i i i i i i i i i i d g d d g x g g g x g l x k k z z J N N J L p #                                 ",
"                                @ u L P U E F S m M z z l z l l f g g g g i i g i i i i i i i i y i y y a y y y y y y y y i i i i i i i i d g i g d g g d l g g g g g l k k k l z J M J J L h -                                   ",
"                                  & p J S Y F S m M M z z l z l l l g g g g g i g i g i i i i i i y y i y y i i y y y y y y i i i d i d g i i l g g d d l d d l x l k k l k l M z J M z M z ,                                     ",
"                                    & p J L S L L m M z z z z l l l l l g g g g g g i i g i i i i i y y i i i i i i i i i i i i i i d d i g d g d g g g d l g g h l l a k z z z M J z J z , o                                     ",
"                                      # 7 z L L Z M M z M z z l l l l l l g l g a i g i i a i i i i i i i i i i i i i i i i i i d d a d g i g d g g g g l l l x z l l a z z z M M M J a , o                                       ",
"                                        + - u z J J J M z z z z l z l l l a i l i l a i l i i i a i i i g i i i i i i i i i i i d a a i a g g g g d l g h h z l l z a J l J z N z M p :                                           ",
"                                            # > t z M M M M z z z z l l l l l l l l l l l a l i l a i i a i i g a i i g a i i i i d l g g l a l l l l l l l l l l z J l l l l J z w =                                             ",
"                                                + - 8 a z J z z z z z z z k l l l l a l l a g a g g g a g a g a g a g g a g l i l g a l l d l l l l l l l z l z z z z z l J a p , +                                               ",
"                                                      # : 8 p h z z M z z z l l l g l g g g a l a g a l l i i l a g l a d l a l l l l l l l l l l l l k l z z z z z z M J a 7 &                                                   ",
"                                                            + & : 4 8 p a l z z k l l g l l g l l l g a g l l l l a g g a a u u t u u u a a i l l l z z z z z l l l a u 1 &                                                       ",
"                                                                      # = : 1 8 w r u u a a a a a a i u u r 0 8 5 4 , : - = = % % % % % = = : : 1 4 7 7 7 7 7 1 > = # X                                                           ",
"                                                                                  @ % % = = = - = - = & # #                                                                                                                       ",
"                                                                                                                                                                                                                                  ",
"                                                                                                                                                                                                                                  ",
"                                                                                                                                                                                                                                  ",
"                                                                                                                                                                                                                                  ",
"                                                                                                                                                                                                                                  ",
"                                                                                                                                                                                                                                  ",
"                                                                                                                                                                                                                                  ",
"                                                                                                                                                                                                                                  "
};
