/* XPM */
static char *SlimeBasic_00003[] = {
/* columns rows colors chars-per-pixel */
"113 77 104 2 ",
"   c None",
".  c #030602",
"X  c #070D05",
"o  c #080F06",
"O  c #091207",
"+  c #0B1508",
"@  c #0E1A0A",
"#  c #101E0C",
"$  c #13230E",
"%  c #15280F",
"&  c #152710",
"*  c #172A11",
"=  c #192E12",
"-  c #1C3414",
";  c #1E3C15",
":  c #203D17",
">  c #213D18",
",  c #214217",
"<  c #24441B",
"1  c #264B1B",
"2  c #294B1E",
"3  c #2A521E",
"4  c #2D5221",
"5  c #2E5B21",
"6  c #315B24",
"7  c #356526",
"8  c #356A26",
"9  c #376328",
"0  c #3B6C2B",
"q  c #3E732E",
"w  c #3E7D2A",
"e  c #40742F",
"r  c #407F2C",
"t  c #417630",
"y  c #437B31",
"u  c #3F802B",
"i  c #42822D",
"p  c #448A2E",
"a  c #458432",
"s  c #498636",
"d  c #478C31",
"f  c #498C34",
"g  c #4B8738",
"h  c #4D8B39",
"j  c #508F3C",
"k  c #479031",
"l  c #4B9334",
"z  c #4E9B36",
"x  c #4E923A",
"c  c #4F9B38",
"v  c #509F37",
"b  c #51943C",
"n  c #529C3B",
"m  c #4FA036",
"M  c #50A137",
"N  c #53A33A",
"B  c #55AB3C",
"V  c #58AD3E",
"C  c #57B13D",
"Z  c #59B43E",
"A  c #5ABB3F",
"S  c #5CC13F",
"D  c #569E40",
"F  c #57A540",
"G  c #59A641",
"H  c #5AAC42",
"J  c #5CB442",
"K  c #5DBB41",
"L  c #60B646",
"P  c #61BC45",
"I  c #63BD48",
"U  c #5EC241",
"Y  c #5FC942",
"T  c #62C445",
"R  c #62CB45",
"E  c #65C449",
"W  c #68C64B",
"Q  c #67CB49",
"!  c #69CC4C",
"~  c #64D345",
"^  c #66DA46",
"/  c #68DA47",
"(  c #66D348",
")  c #6BD44C",
"_  c #67DB49",
"`  c #6CDB4C",
"'  c #70DE4F",
"]  c #6FDA50",
"[  c #71DD51",
"{  c #67E047",
"}  c #6DE34C",
"|  c #6CEB4B",
" . c #70E44F",
".. c #71EB4F",
"X. c #6DF34C",
"o. c #6EF84C",
"O. c #71F44E",
"+. c #72FB4E",
"@. c #72E451",
"#. c #75EC54",
"$. c #75F353",
"%. c #79F556",
"&. c #76FD51",
"*. c #79FD55",
/* pixels */
"                                                                                                                                                                                                                                  ",
"                                                                                                                                                                                                                                  ",
"                                                                                                                                                                                                                                  ",
"                                                                                                                                                                                                                                  ",
"                                                                                                                                                                                                                                  ",
"                                                                                                                                                                                                                                  ",
"                                                                                                                                                                                                                                  ",
"                                                                                                                                                                                                                                  ",
"                                                                                                                                                                                                                                  ",
"                                                                                                                ; 1 1 3 1 , ; - $                                                                                                 ",
"                                                                                                  $ - 1 0 d N K R ` ` ' ] ` ( E J v r 6 ;                                                                                         ",
"                                                                                      $ ; 4 8 u M U ( ' $.%.*.%.*.%.%.%.%.*.$.*.*.$.$.@.! N 8 =                                                                                   ",
"                                                                            + = 3 w c K ] ' #.%.%.%.$.%.$.%.#.$.$.$.$.*.*.*.*.*.*.*.*.*.%.%.$.E a >                                                                               ",
"                                                                      X - 8 N E @.#.%.$.%.#.#.#.#.#.#.#.@.| @.} ..#.O.*.*.*.+.*.&.*.*.*.*.*.%.%.#.) k >                                                                           ",
"                                                                  O , x Q @.#.#.#.#.#.#.#.#.....' } } ` ` ` ` ) ` } | | O.O.o.+.+.*.*.*.*.*.*.*.%.#.$.E r &                                                                       ",
"                                                                ; x ) #.#.#.#.#.@.#.} ..' } ` ` ` ` _ ( ( ) R ^ ^ ` _ } } | X.X.o.+.+.*.*.*.*.*.*.%.$.$.#.J 6 +                                                                   ",
"                                                            + 7 E @.#.@.@. . . .} } } } ` ( _ ^ ( ( R R S Y Y Y Y Y Y Y Y ^ ^ ^ ^ { | | O.+.&.&.&.&.&.*.#.#.[ f -                                                                 ",
"                                                          = f ' @.@.@.@. . .} ` ` ` ) _ ^ ^ Y S U Y U U S A S S U A A S S S S S S Y Y ~ / / | O.+.&.&.&.&.#.#.#.K 3 X                                                             ",
"                                                        < V [ @.@.@.} ` ` } _ ^ ^ R Y Y U U S S A A A A A A A A A A A A A A A A A A A S S U ~ /  .O.$.$.&.&.$...@.! r #                                                           ",
"                                                      3 P [ @.[ ' ' ` ) ( ^ Y ^ R S S A A A A A A A C C Z C C C C A C C Z C A C A B A A A A A U Y ~  ...$.$.$.$.$.@.[ v -                                                         ",
"                                                    6 E ' ' ' ' ) ( ^ R S S S S S A A A A A B Z C C C C C A C A S C C C C C Z Z A B A A A A A A A U Y ~  ...$.$.$.#.@.[ L 2 .                                                     ",
"                                                  6 ! ' ] ] ( ( ^ E U U S S S S Z C C C B B B Z C C C C A C A A C Z Z S A Z Z Z A B A B B A B A A A S U R / | | #.#.#.@.[ E 7 O                                                   ",
"                                                4 E ] ] ] ! ~ R R U U A A C C C Z V V V B B B C C C C A C A C C C C C C C Z Z Z A A A A A B B A C A A A U U ~  .| ..$.#.@.[ ! e #                                                 ",
"                                              , P ] ] ] ~ E R U U A A Z C C C V M B M B B B B B V C C C C C C C C C C C C C C C B A B B A A A B C A C A A S U R / } ....$. .' ] a #                                               ",
"                                            - V [ ] ) ! R E S A A Z Z V V N V M V m V m V B B C C C C C C A C C C C C C C C C C B B A B A B A A Z Z Z Z Z A A U E ^ {  ..... .' ! a #                                             ",
"                                          + d [ ] ) Q E E U A Z Z B V N M M M M m m m V M B B B B C M C M M M M M M M C M M C M B B B B B B B A Z Z Z Z Z Z A A A S R ( {  . . .] ) e +                                           ",
"                                          7 ) [ ) ! E U A A C V B V M M v v M M m V m V V V M V m M M M M M M M M M M M M M M M M B M B B B B B V C Z V Z Z Z Z A A U R / `  . .' ] I e o                                         ",
"                                        > I [ ) ) E U K A C V V M M v v v v v v N M N N m m M m m m m m m m m m M M M M M M M M M M B M B B B B B B Z V Z V B Z Z A K U K ~ / ' ' ' ! I 4                                         ",
"                                      $ c ] ] ) E P A A Z V V M v z z z v v v v m N m m m m m m m z z z k m m m m m m m M m m m M M M B v B B V B B B B Z B V Z Z Z A K K U R / / ] ! ! V -                                       ",
"                                      0 ! ] ) E E A A Z V N M z z z z z c c x v z z m z z m k z z z z k m m k m m k m k m m k m l m m M v v B N B B B B B V B Z V Z Z Z K K U E ) / ] ) ) j &                                     ",
"                                    : J ` ) ! E A Z Z V N v v z x z x z z z z z z z k z z k z k k z k z m k k m u m k m k m m k l m l m v v v v v B B B B B B B B V Z Z Z K K P W ) ! ] W W 0 o                                   ",
"                                  + d ) ] ! E K Z Z V N N v x x l x z x z x z z z k z z k k k z k k k k k k k k k k m k k k k k l l l l m l v v v v v B N B B B B B B V Z Z A K T W ! ! ! W L >                                   ",
"                                  1 E ) ` Q U J Z H B m m m u z l l l z z l l l l k l k k k k k k k k k k k k k k k k k k k k p l l k l l z z z z m m m N N N N V V V V V Z Z Z K P T ! ) ! W f #                                 ",
"                                @ D ) ] ) U J A B B M B x x m x l l l l l l l k k k k p k k k k k p p k p p p p p p p p p p p p p k p k k k k z k m m m N N N V V N N V B V Z Z A P E T ! ! W P 2                                 ",
"                                2 U ) ` Q K J B B B m u z u x x l l l l l l k k k a k l k l l p p p p p p p p p u p u p p p p p p p k l k k k l l l l m v v N N N N V V B B V B B P P E W W W ! s +                               ",
"                              + f ! ] ] U J B B M m m m x x u D l l l k p k k p k k l l v B m k p i p i p p u u u p p u u p u p i k M B m z l k l l l l v v v N N N N N v B B B B N L P E W W W J <                               ",
"                              < J ! ] ) U J B B m z z k D u x u f k c f k k k x l v B T / } Z p i i u p u u u p u p u u u u p u p p Z  ./ E V v m l l l v v v v v B G v v N N N B B G P P E E R E 0                               ",
"                              0 W ) ` ! J B B B m x l l u D l l f k c c v v M Z I ) @.#.$./ m p p i p u p u u u u u u u u p p u i p m ( $.#.@./ T A V N v v v N v v v v v v N v v v N V Z E E E E b $                             ",
"                            @ x ! ` ` Y A B B m m x l f l u u l v V L I E ) '  .#.$.#.#.] N p p u i u u u u u u u u u u u u u u r i k N ] @.#.#.#.@. .` ) T P J G B v v v v v N v v B G L L E E E H :                             ",
"                            ; H ! ` ` U H B M z z x x u l u D l J @.$.@.$.$.$.$.#.#. .E M k p u u u u u u u u u u u u u u u u u r r p k M E } #.#.#.#.#.#.#.#.@.P v v n n n n n v l v G V P E E E P 6                             ",
"                            5 K ! ` _ J H B m x l u D u f u u D N ~ [ @.@.@. .' ~ K N l p i u u u u u w w w w w u u w w w w w w w u u i p k m U ~ '  .@.#.@.' ) V v n n b v z b z z z n V L R E E E q                             ",
"                            q K ) | ( J F N m m l D u D u D u D f v N V V V B v c a k i i u u u u w w w w w w w w w w w w w w w w w w i i i p p c v V Z J V B N n l n l b b z z z z b n G L E R E E a                             ",
"                            a I ( | Q J B N x u l u f f D D u u k k f k a k a a i i r r i w w w w w w w w w w w w w w w w w w w w w w r u i i i r a a k f l k f k l l z z l z b l z z v D V R ~ E E x &                           ",
"                            h I _ X.Y J B N m N l l f f u u u D a a a a p p i p i i r r u w w w w w w w w w w w w w w w w w w w w w w w u u u i r p p a a k a k h k k n z j l l l l z b N V R / E I v =                           ",
"                          % D K ^ o.Y H m m x x l f f u f f f f a a a p r r r r i i i w w w w w w w w w r i k l l l p p w u u u w w w w r r r r r a i a i k a k f f l j z l z l j l z n b H T / E I v =                           ",
"                          % D J ` o.Y H M D m u f f u D f f u a a a a r p a r p r w r w w w w w w w u p Z W ] '  .' ] ! M k u u w w w w r r r r r r i i a a k a f f f l z j j j l l z b n G R / E I D =                           ",
"                          = D H ^ o.Y J m m m x l f f a f a f a a a p p r r r r i r w r w w w w r p Z / #.%.#.#...#.#.#.../ C p r w w w r r r r r p p r i a a a f f f l l l l l j l j b n G T / E K c =                           ",
"                          = D J _ o.~ H B m x x f f f f f f a f a a a p r a a r r w r w u w w u p A ..O.#.#.#.#.#.#.#.#...O.| A p r w w r r r r r r r a a a k a p f y k l j j l l l l b n H T / P I h                             ",
"                            h J ( o.^ J M c x l f f f f f f u a a a a i a i a r r r r w r w w r z ] ..#.#.#.#...' ' #.#.#.#.#./ l i r w r r i r i i i i r a a k k a k f x x x k h l h D v F E ( P I y                             ",
"                            y J Q o.{ J F c x l l f f d f a f a p a i a i i r r r r w r w w w r k T ..' ~ S N v z z M Z ! ' @.T p r r w r w w r r i i i p a a a a a f f x d x x k f x c D F Y R J L 9                             ",
"                            9 H U X.| K F D l l f f f a f a f a a a a i a r i r r r r w w w w w r i k k p u w w w w w w p k l p r w w w w w i r r r i i p a a a a s s f p x h x x f x x v G E K L H 1                             ",
"                            2 H K { X.Y F M c l f f f f f a a a a a a i a i i r r r w r r w w w r w w w 8 w w 8 w w w w w w w w w w r w r r r r p r r p a a a a a k k p x f d x d x x b D H E L L v =                             ",
"                            = D L ( X._ L n b c l f a D q a a f a a a i a r i r r r r r w w w w r w w w w w w w w 0 w w w w w w w w r r r r r r r r a p r a a k a a k f f h d h f l x D D H P J L t                               ",
"                            + q H E | | P N b b l f u D f a a a a a a a r a a r r r r r r w w w w w w w 8 w w w w w w w w w w w r r r w r r r r r r r a r a a a a s k s f h h d h x h D D H L J G 2                               ",
"                              2 G J ^ | R V n b D f a a f a a a a a i a i i a r r r r r w r r w w w w w w w w w w w w w w w w w r r r r r r r p a r a a a a a a a k s a f f f f f h x D G H H L s #                               ",
"                              + f H U _ _ K N n D a D u a f a f a a p a a a r r a r r r r r w w w w w w w w w w w w w w w w w w r r r r r r r r r a r a a a a a a a s f f a h f f D c D G G H G 4                                 ",
"                                4 G L E ( R V n j l j j j a s s p a d r s a r r a r r r r r r r w w w w w w w w w w w w w w w w r r r r r a r a a r r p a a a a a s a s f f f f h b D D D G D y &                                 ",
"                                $ y G L R R K V v j j s j s j s d a s y r a a a r r r r r r r r w r w w w w w w w w w w w w w w r r r r r r r a r a r a a a a a a k s k f f f f h D v D D G D 2                                   ",
"                                  > j G J K K V v b j l s s g s s s d r a s r r a r r r r r r r r w w w w w w w w w w w r w w w r r a r a r r r a a a a a a k s s k s s s f f j h b b D D D 6 +                                   ",
"                                  X 4 D V J K V B b j j j j s j s s s d d y r d r a r a r r r r r r w w w w w w w w w w w r r w r r r r r a a a a a a a a k a a a s s f f s j j j D b b D 0 &                                     ",
"                                    @ 2 j H H G B v b j j s s s g g g s y s s r a r r y r r r r r r w r r r r w r r r r r r r r r a r r r a a r r a a a s a k a s s s f f g j j b D j D q =                                       ",
"                                      + > y D G D b b b j j j s j g g g s s s s s y p y p r r r r r r r r r r r r r r r r r r r r r r a a r a a a a a a s s s s s s j g j j j j b b b 0 &                                         ",
"                                          = 6 j D v b b b j j s g g s s s s s s s s s s y p y a y r y r p r r r r r r r r r y y a r s r r s r s s s s s s s g s f j g j j j j j b h 9 &                                           ",
"                                            + > 9 j D b j j j j j g j g g s s s s s y y g y s y p y y y y r y y r r r p y y p y r s y r s s s s s s f s g g g j g g s j j j j j g 4 +                                             ",
"                                                + = 6 t h D h h j h h h h g s s s s s a a y s a y s a y a s y a r a y y a a y s s s s s s s s s s g g s s j g j g g j j j j h 9 > o                                               ",
"                                                      + - 4 0 y g j h b h h h s s s s s s a s y y a a y a y y a s y s a y s s s s s s s s s s f g s g j j g g j j j j j g e 2 +                                                   ",
"                                                            + $ - < 4 9 q y h h h h s s s s s a s s s s s s s s s a s s s y r t e r e e t y y s s g g g s j s g g g e 6 : +                                                       ",
"                                                                        # = > 2 6 9 0 q t y y y y y y y e e 0 7 6 6 2 < : - = & $ $ & & & = - : > 2 2 4 2 2 2 > > & @                                                             ",
"                                                                                    + # $ = = - - = = = % $ #                                                                                                                     ",
"                                                                                                                                                                                                                                  ",
"                                                                                                                                                                                                                                  ",
"                                                                                                                                                                                                                                  ",
"                                                                                                                                                                                                                                  ",
"                                                                                                                                                                                                                                  ",
"                                                                                                                                                                                                                                  ",
"                                                                                                                                                                                                                                  ",
"                                                                                                                                                                                                                                  "
};
