/* XPM */
static char *SlimeBasic_00008[] = {
/* columns rows colors chars-per-pixel */
"113 77 103 2 ",
"   c None",
".  c #070C05",
"X  c #080F06",
"o  c #091207",
"O  c #0C1608",
"+  c #0D1A0A",
"@  c #101E0C",
"#  c #13220E",
"$  c #152A0F",
"%  c #152710",
"&  c #162A10",
"*  c #192E12",
"=  c #1B3314",
"-  c #1E3A15",
";  c #203E17",
":  c #223D19",
">  c #24441A",
",  c #26491B",
"<  c #284C1D",
"1  c #2A531E",
"2  c #2C591F",
"3  c #2D5421",
"4  c #2E5B21",
"5  c #325C24",
"6  c #346326",
"7  c #356B26",
"8  c #366428",
"9  c #39662A",
"0  c #3B6C2B",
"q  c #3D732C",
"w  c #3E7D2A",
"e  c #40752F",
"r  c #407F2C",
"t  c #417630",
"y  c #437B31",
"u  c #3F802B",
"i  c #42822D",
"p  c #448A2F",
"a  c #458432",
"s  c #498636",
"d  c #468B31",
"f  c #498B34",
"g  c #4B8738",
"h  c #4D8B39",
"j  c #479031",
"k  c #4B9334",
"l  c #4E9B36",
"z  c #4E923A",
"x  c #4F9B38",
"c  c #509E37",
"v  c #51943C",
"b  c #529C3B",
"n  c #4FA037",
"m  c #50A137",
"M  c #53A33A",
"N  c #55AB3C",
"B  c #58AD3E",
"V  c #57B13D",
"C  c #59B43E",
"Z  c #5ABB3F",
"A  c #5CC23F",
"S  c #569C40",
"D  c #57A340",
"F  c #59A541",
"G  c #57AA40",
"H  c #5AAB42",
"J  c #5CB442",
"K  c #5EBB42",
"L  c #60B646",
"P  c #61BC46",
"I  c #63BF48",
"U  c #5EC241",
"Y  c #5FC841",
"T  c #62C345",
"R  c #63CB45",
"E  c #65C449",
"W  c #68C74B",
"Q  c #66CA49",
"!  c #69CC4C",
"~  c #64D246",
"^  c #66DA46",
"/  c #67D448",
"(  c #6BD44C",
")  c #67DA48",
"_  c #6CDB4C",
"`  c #70DF4F",
"'  c #6FD850",
"]  c #71DC51",
"[  c #66E447",
"{  c #67E348",
"}  c #6CE34C",
"|  c #6CEA4C",
" . c #70E44F",
".. c #71EB4F",
"X. c #6CF34B",
"o. c #71F54E",
"O. c #72FB4F",
"+. c #73E552",
"@. c #75EC53",
"#. c #76F253",
"$. c #78F456",
"%. c #76FC52",
"&. c #7AFD55",
/* pixels */
"                                                                                                                                                                                                                                  ",
"                                                                                                                                                                                                                                  ",
"                                                                                                                                                                                                                                  ",
"                                                                                                                                                                                                                                  ",
"                                                                                                                                                                                                                                  ",
"                                                                                                                                                                                                                                  ",
"                                                                                                                                                                                                                                  ",
"                                                                                                                                                                                                                                  ",
"                                                                                                                                                                                                                                  ",
"                                                                                                                                                                                                                                  ",
"                                                                                            + & = - , 1 4 7 w d d k j j a u w q 6 2 , = @                                                                                         ",
"                                                                                  + - 4 u l V U R ( _ } @.$.$.$.$.$.$.$.$.$.$.$.@. .` Q B w , +                                                                                   ",
"                                                                              * 7 m ! +.$.$.$.$.$.$.$.$.$.$.@.$.$.$.$.$.$.$.$.$.&.&.&.$.$.@.' B e *                                                                               ",
"                                                                          = a T +.$.@.@.@.@.@.@.@.@.@.} +...+.| ..O.$.&.$.$.$.$.&.&.&.&.&.$.$.$.+.P 0 &                                                                           ",
"                                                                      # q T @.@.@.@.@.@.@.+.} } } } _ } _ } _ _ } ..o.o.O.$.O.O.%.%.%.%.&.&.&.&.$.@.+.B 1                                                                         ",
"                                                                    > m +.@.@.+.+.+.} } } _ _ _ ( _ / / ~ ( / ~ _ } } | X.X.O.O.%.%.%.%.%.&.&.&.&.$.@.@.! y %                                                                     ",
"                                                                  5 E @.+. . . . . . .^ _ ^ ~ ~ R ~ R R A ~ Y R R ~ ^ ^ [ [ [ | | | o.o.o.O.O.%.%.&.%.@.@.` c =                                                                   ",
"                                                              O 0 ( +.+. . . . .^ ^ / ~ R Y R A U U U U A A A A A A A A Y Y Y Y Y ~ ~ ^ ^ | o.O.O.%.%.&.#.@.+.J >                                                                 ",
"                                                            + q ( +. . .` _ ^ ^ / R Y A A A Z Z Z Z K Z Z Z Z Z Z Z Z Z Z A K Z Z Z K A A R ~ } } o.#.#.%.#.+.+.K ,                                                               ",
"                                                          + i ' +.+.` _ _ / ~ R Y A A Z Z Z Z V V Z V V V V V Z Z V Z Z Z V Z Z Z Z Z Z A A K A R ^ } @.#.#.#.@.+.T 1                                                             ",
"                                                        O i ' ] ` ` ( / ~ Y A A Z Z Z B V V V V V V V V Z V Z V Z V V Z V V Z V Z V Z Z Z Z Z Z A A R _ | o.o.@.+.+.T 3                                                           ",
"                                                      O r ' ] ` ' ( Q Y A A A Z Z Z V N V N V V V V V V V Z V Z V Z V V V Z V Z V Z V Z V V Z Z A A K A ~ } ..o.@.@.+.E 5                                                         ",
"                                                    O e ' ] ` ( / Q Y U A Z Z V B Z N N N N N V V V V V V Z Z V V C V Z Z V Z V Z V V Z Z V V V C C K A A R } } ..@.+.] E 5                                                       ",
"                                                    6 ! ] ' / Q R U U Z V V B B m m N m m N N N B V V V V V V V V V V V V Z V V V V Z V Z V Z V V C C A A K R ^ } ..@.@.] E <                                                     ",
"                                                  , T ] ' ( Q T U Z J C C N N M m N m m N N N B N N V N V V V V V V N N V N N V V V V V V V V V Z N Z B Z Z Z T ~ }  ... .` L :                                                   ",
"                                                & B ] _ ( Q T P Z Z J V M M m m m m m N N N N B N N N N n N n N N N N N N N N N N N N V V V V V B Z N Z Z Z Z Z T ~ [  . . .' M &                                                 ",
"                                              O s ' ' ( Q T P J Z V N M m c c c m m n N m N m m n n n N n n n n n n N N N n N n N N N N N N N V N V Z N B Z Z Z Z T ~ ^ ` ` ` ' a O                                               ",
"                                              6 ( ' ' ! T U Z Z V N M c c c c c m m m n m m m m n n n n n n n n n n n n n N n n N m m N N N N N V N V B B B B Z Z A U R / ` ` ' ! 5                                               ",
"                                            - J ] ( ! T T Z Z B B b c l c l l c l n n l n n l l l l l l n n n n n n n n n n n n m m m N m B B B N N N N N Z N Z Z Z Z T Q ^ ` ' ! J :                                             ",
"                                          + f ] ] ! T P Z Z Z m c l l l l l l l l l l l j l j l j l l j j n j n j n n n n n n n n m m m m m m M N N N N B N N B B Z Z Z U Q / ' ' ! z @                                           ",
"                                          4 ! ] ( ! P J Z B B m c c l z l z l l l l l j j l j l n j j j n j j n j n n j n n j n c l c c m m m M m B N m N N N N B Z Z J Z E Q / ' ! E 8                                           ",
"                                        & B ( ( ! I Z Z B B m c l l l l f l l l l l j l j j j j j j j l j j j j j j j j j j j j j l k k c c c m m m M N N M N N N N J J Z Z E Q ' ! ! H :                                         ",
"                                        0 ! ' ' Y K K V N D n n z f k k l k k k k p k k j j k p k j j j j j j j j j j j j j j j j j j l j l l l l l M M M M B B B B B Z Z Z K I ! ' ! W r +                                       ",
"                                      = H ( ( ! K K V N N n x D k k k k j l j j k k p p p p p j p p p p j j j u j j j j j j j j j j j j j j j k l l c m M M M B B M N B B Z K P E R ! ! P :                                       ",
"                                      0 ! _ _ U J G G N n u D u k k k k l f k j k i j j p p p p p p p p j u u u u u j u u j u j j p a j j j j k k k l c c M M M M B M N N B B K I E ! ! W y                                       ",
"                                    $ D ( ' ( U G K G G n n u D f k f k j j j j a j i a p p p p i p p i u j u u u j u j u j u u i i j j j j j j k k k l c M M M M M M N M M M K P E W ! W H :                                     ",
"                                    4 I ( ' ! J K N N l n u D u k j k j j a j a j j k l M C n p i p p p u u u p p u u u u u p u p p n Z M c k l k j k k c c c M M M M M M M M N K P I E W I e                                     ",
"                                    a ! ( } U J V N n l D u u x s k l k l l c c B P T / +.^ N p p u u u w p p u u u p p j p u p i p N ^ +.^ E Z Z M c c c c c c c M M S M M M M M P P E W W s +                                   ",
"                                  & D T _ ) J J G N l l u S u k c J P T Q Q ' ` @.@.@.@./ N j i u u u p w u u u u u u u u u u u i i j M ( +.@.@. .` ` / ! E T P F M c c M M c M M K P T W W M :                                   ",
"                                  < J ! [ ^ J V N n n u S u S k B ' @.@.@.@.@.+.^ / T N l p i u u u u u u u u u u u u u u u u u i i i j l B U ^ ` +.+.@.@.@.@.' K M c c c k c c S B P E P I P 3                                   ",
"                                  9 I ( } ! J H n n x k u k k k l M B J J C N M c j j i i u u u u u w u w u w w u u u w u u u w u u u i i i p j c M B J J J J M M c v c c c v c M M L E E E I e                                   ",
"                                  w T ( | U V N n x k k g k u S j a a j j p a i i i i i u i u u w u w u w w w w w w w w w w w w w u w i i u i i a i j j j j l l k c v k k v k k c S J K R E W y                                   ",
"                                  g T ) | U B n x x k k u S u u j a a j i a i i i i i i u w w w w w w w w w w w w w w w w w w w w w w w u i i i i i a j j s f k k k k c k c k v c S H K R W I k                                   ",
"                                  z I } | K B N x S k x S u u S a j a a j a i i i i i i u w w w w w w w w u i i u p u u w w w w w w w r u u i i i j a a a j f j k v v k k v k k v M J K R E I c =                                 ",
"                                & S E } [ K H n x k k u g d g d j a a a i i a i i r w r w w w w w w w u k M K W Q Q K M p u u w w w w w r r r i r i a a j a j s k k k k v k k k v c F K _ R I M :                                 ",
"                                = S L } | U N D S k k g j g d d a a a j i a i i i r i w w w w w w u p N ' +.@.@.@.@.@.+.^ N p u w w w r r r r r i i a i a a s j s k v k v k v k v c M K _ R I S *                                 ",
"                                = S K } [ U D n k k k g d g d s z a a a a i i i r w r r r w w w w j A ..$.+.@.@.@.@.@.@.@...A p i w w r r r r i r a i j a a a j s k k k k v g k k c S L ^ R I S *                                 ",
"                                # k K } X.U H l x k k k k u d g a a a a i a i i r i r w w w w u j C ....@.@.$.@.@.@.@.@.@.....Z p r w r r r r r i i i i a j a f s k k v k k k k v c S L ^ E I k                                   ",
"                                  f L _ X.Y H l l z d d d g d d p s p s r p r r r r r r w r r r k ( @.@.@.@.@.@.@.@.@.@.@.@.@.' k i w w i w r i i i i i a s j a d f f k z k k g z b S K ( T P f                                   ",
"                                  r L ( X.~ H b l z z f g d d d s s r r s s r p r r r w r w w r k ` @.@.@. .( R R ! (  .@.@.@.' l i w w w r r r r i i s i a a a d f k z k g k k z b S P ~ P L e                                   ",
"                                  6 L Q X.^ J m l j j f g d g a p s s p r p r r r r r r w w w r p K ` ( A m p w p p p m A ' ' Z d i w r r w r i i i i i a j a a s f j z g k j z z b m I R L L 5                                   ",
"                                  < F P X.[ J m l z z f d g d d s p s s r r s r r r r r w r w w w r j j p w w w w w r r r p p p r w w r r i i r i i i s a a a a f f g k g k g z z b S K T L H >                                   ",
"                                  = v L [ | T M S z f f f f d a p s s r p r r r r r r r r r r w w w w w w w w w w w w w r w w w w w r w r r r r i a a i s a s j d f f f z g j z z S D K L L h %                                   ",
"                                    y L Y X./ N l z z f f f g a r s p s s r r s i r i r r w r w w w w w w w w w w w w w w w w w w w r r r r i a r i i a i a a a s f f f f f f z S b D J L L e                                     ",
"                                    3 H P [ [ Z D l S z f g g s s s r s p r r r r i r r r w r r w w w w w w 7 w w w w w w w w w w r r r r r i r s a i a s a f s s f f f g d f f S S H J H F ,                                     ",
"                                    & l J Q [ U D l f f f f d d s r p s s r s p i r i r r r r r w w w w w w w w 7 w w w w w w w r r r r r i r r r i s i a a i f s f s f g g S z b D F H L y #                                     ",
"                                      9 H L ~ ~ J c v v v s s f p s s p r s r r r s r r r r r r w w w w w w w w w w w w w w w w r r r r r i r a a a a a a s a s a f s f f f v S S S F H F 3                                       ",
"                                      : h L P R A D c v v g v g s p p s r s r s r s r r r r r r y w w w w w w w w w w w w w w w r w r i r a a r i a a a a a d a s f f s f f h v S b F F y %                                       ",
"                                        5 D L P A J b v v f g g s s s s s s s r r r r r r r r r w w w w w w w w w w w w w w w w r i r i r r a a a a a a d a a f d s f f f h v S S S S v ,                                         ",
"                                        @ t H L K J D c v g g v g g s s s r p s s r s r s r r r y w w w w w r w w w w w w w w w r i y r a i a i i a a a a f s g s f f f h h v v b S S 9 O                                         ",
"                                          = y F J J b b v s v g g g g g s s s s y g r s r r r r r r r r r r r r r r r r w w y r i r a r a a a a a a a a y g g g g g y S S S h S S v t %                                           ",
"                                            = y D F F M v v g g v g g g s s s s g r g r g g r r r r r r r r r r r r r r w w r r r i r a i y a a a d d s g g g g S y S h h h h S v t %                                             ",
"                                              = 0 S D M S v v g g g g g g g s s g g g g r y g r g y r r r r r r r r r r r r y r a y a y a a a a a g g g g g g g y S S g S h h h 9 %                                               ",
"                                                # 3 g S S v v v g v v g g g g g g r g y g g y g r y r r r r y r r r r r r r s r y a a a a a g g g g g g y S g g S y h h h S g 3 @                                                 ",
"                                                  o = 5 g S S f S S y g g f S y g g g s a y g a s y g y a a y a a r y y i a r a s y s s s s s s s h g h h h h h h v v h h e = X                                                   ",
"                                                      X % < 9 y y S S g g S f g g g g g g a s y g a y a y a a y y a a a y a s s s s s s s s h f h h h h h h v h h h y e : @                                                       ",
"                                                            o # = : < 3 3 9 0 0 t y y s s s g g s a s a s s s y y s a s s s s s s s y y t t y t t t e e e 9 9 5 3 > % X                                                           ",
"                                                                            O # % % = = > < 3 5 9 0 q t y y y y y y t q 0 9 5 < , : : * % & & & @ @ O @ X O                                                                       ",
"                                                                                                  + # & * * * * * * % # +                                                                                                         ",
"                                                                                                                                                                                                                                  ",
"                                                                                                                                                                                                                                  ",
"                                                                                                                                                                                                                                  ",
"                                                                                                                                                                                                                                  ",
"                                                                                                                                                                                                                                  ",
"                                                                                                                                                                                                                                  ",
"                                                                                                                                                                                                                                  ",
"                                                                                                                                                                                                                                  "
};
