/* XPM */
static char *SlimeBasic_00013[] = {
/* columns rows colors chars-per-pixel */
"113 77 105 2 ",
"   c None",
".  c #060C05",
"X  c #080F06",
"o  c #091106",
"O  c #0C1609",
"+  c #0E1B0A",
"@  c #111F0C",
"#  c #13240E",
"$  c #14290F",
"%  c #152710",
"&  c #162B10",
"*  c #192D12",
"=  c #1C3415",
"-  c #1E3A16",
";  c #203918",
":  c #214017",
">  c #24431A",
",  c #264A1C",
"<  c #294E1E",
"1  c #2B531F",
"2  c #2B4D20",
"3  c #2E5422",
"4  c #2E5A21",
"5  c #315725",
"6  c #325D24",
"7  c #336325",
"8  c #356A26",
"9  c #366328",
"0  c #39662A",
"q  c #376828",
"w  c #3A6D2B",
"e  c #3C722C",
"r  c #3F7D2A",
"t  c #40762F",
"y  c #407F2C",
"u  c #417530",
"i  c #437C32",
"p  c #3F802B",
"a  c #42822D",
"s  c #448A2F",
"d  c #458432",
"f  c #498636",
"g  c #468B31",
"h  c #498B35",
"j  c #4B8738",
"k  c #4D8B39",
"l  c #479031",
"z  c #4B9334",
"x  c #4E9B36",
"c  c #4E923A",
"v  c #4F9A38",
"b  c #509E37",
"n  c #51933C",
"m  c #529C3B",
"M  c #4FA036",
"N  c #4FA038",
"B  c #50A137",
"V  c #53A43A",
"C  c #55AB3C",
"Z  c #58AD3E",
"A  c #57B13D",
"S  c #59B43E",
"D  c #5BBB3F",
"F  c #5CC13F",
"G  c #579E40",
"H  c #57A240",
"J  c #59A541",
"K  c #5BAD42",
"L  c #5CB443",
"P  c #5DBB42",
"I  c #60B646",
"U  c #61BC45",
"Y  c #63BE48",
"T  c #5EC241",
"R  c #5FC941",
"E  c #62C445",
"W  c #63CB45",
"Q  c #66C449",
"!  c #68C74B",
"~  c #67CB49",
"^  c #69CD4B",
"/  c #65D346",
"(  c #66DA47",
")  c #67D248",
"_  c #6BD44C",
"`  c #66DA48",
"'  c #6CDB4C",
"]  c #70DF4F",
"[  c #6FDB50",
"{  c #70DC51",
"}  c #66E347",
"|  c #67E048",
" . c #6DE34C",
".. c #6CEB4B",
"X. c #70E44F",
"o. c #70EB4E",
"O. c #6DF34B",
"+. c #70F44E",
"@. c #72FB4E",
"#. c #72E451",
"$. c #75EC54",
"%. c #75F353",
"&. c #79F556",
"*. c #76FD51",
"=. c #7AFD55",
/* pixels */
"                                                                                                                                                                                                                                  ",
"                                                                                                                                                                                                                                  ",
"                                                                                                                                                                                                                                  ",
"                                                                                                                                                                                                                                  ",
"                                                                                                                                                                                                                                  ",
"                                                                                                                                                                                                                                  ",
"                                                                                                                                                                                                                                  ",
"                                                                                                                                                                                                                                  ",
"                                                                                                                                                                                                                                  ",
"                                                                                                                                                                                                                                  ",
"                                                                                          & < 8 a z V C S S S Z N z r 8 1 - & $                                                                                                   ",
"                                                                                    $ 1 l E  .$.&.&.&.&.&.&.&.&.&.&.&.$. .' E A B h y 0 : $                                                                                       ",
"                                                                                $ 7 A #.$.&.$.$.$.&.$.$.o.$.$.$.&.&.&.&.&.&.&.&.=.&.&.$.' U h 6 *                                                                                 ",
"                                                                            o 4 C #.$.$.$.$.o.$.#. . . .X.X.X.o.o.%.*.&.&.&.&.&.=.=.=.&.&.&.&.#.Q s ;                                                                             ",
"                                                                          $ g [ $.$.$.$.X.X. . .' ' ' ' ) ' ' ' X.o.+.+.*.*.&.&.=.=.=.=.&.&.=.&.$.$.Q r %                                                                         ",
"                                                                        < L $.$.$.#. .#. .' ' _ ) ) ) ) ) ) ) ) ` | o.o.+.@.@.@.*.*.=.*.&.&.=.=.&.$.#.] J 2                                                                       ",
"                                                                    X 0 ! $.$.X.#. . .' ( ( / R W R R R F R R R W / ( ( ....O.O.@.@.@.@.*.@.@.=.=.=.@.$.$.Y 6                                                                     ",
"                                                                  + y _ $.#.X.X. .' ( / W R F F F D D P D D D F D R R R R / ( ( | |  .o.+.@.@.@.@.=.=.$.$.o.^ w o                                                                 ",
"                                                                @ d ] #.X.X. .' ' / W R R D D D D D A D D D D D D D D F F D R R R F R R / )  .o.o.o.@.&.%.$.$._ e o                                                               ",
"                                                              $ h ] #.#.] ' ' ( / F F D D A A A A A A A A A A A A D D A D D D A F S F F F R R / |  .$.$.%.$.$.o._ 0 X                                                             ",
"                                                            % z { { { ' ' / W F F D D A A A A A C A A A A D A D A A D A A A D A S S F F S F F F R T '  .o.@.%.o.#.! 8                                                             ",
"                                                          $ n { { ] ' ' / W E F D S A A C C C C C A A A D A A D D D A A A D A D S S S S S S S F F F T W '  .o.o.$.#.! 7                                                           ",
"                                                        $ z { { ] _ _ W R D D D A C C C C C C C A A A A A A A D A A A D A D D A F S S S S S S S S F F T T )  .o.o.$.#.U ,                                                         ",
"                                                      + h { { _ ! ) W T R D A A C C V C C N C C C A A A A A A A A A D A A A A D S S S S S S A S S S S S R T / ' X.o.#.{ Z *                                                       ",
"                                                    X e _ { _ _ ) E T P D S Z C C V B B C C C C C C C A A A M A A A A C A A A A A S F A S S S S D C Z D D D R W ` o.X.X.] d +                                                     ",
"                                                    4 ! { ] _ ! E T P S S C B B V N V V V V C C M C M M M M C A C C C C C C A A C A C A A S S S C D Z D D D D U W ` X.X.] ) 6                                                     ",
"                                                  - P { ] ! W E T P S Z Z V B B N V N N M C M V M M M M M M M M M M C C M C C C C C C C C A A S Z S D C D D D D T W ` X.] { I ;                                                   ",
"                                                @ v { [ _ E E E D S S C V B b B N N N N N M M x M M M x M M M M M M M M C M C M C M C C C C C C C C C Z Z Z Z D P T ) ) ] _ _ s O                                                 ",
"                                                8 _ { _ ! E P D S Z C V b b v x N N N N N N x M x x x x M p M M M C M M M M M C V V C C V A V A C C C A C Z D D D P P ) _ ] _ ! 3                                                 ",
"                                              : U { ' ! E P D S S V V b b v z x v v v x M p x N p M M p M M M M M p M M x M M M M V M M V V V C C C C C C C C Z D P P T ) _ _ ! V &                                               ",
"                                            + z _ _ _ Q U P S Z V V b z b z b x x x l x x p x p p x x p p M M p p M x x x M x x x M x V V V V V V C V C C C C Z C D P P Q ) _ _ ! e                                               ",
"                                            4 ! [ _ ! U D S Z C V b b n z z b z x l x x l x M p x M p M M p x M p M M p x M p x x x x x x M M V V V C V C C C C C C S L U Q _ _ ! I ;                                             ",
"                                          % H _ _ ) R P A A J N v z z v z x z x z z l l l l l s l l s l s s l l l l s l l l M l z z x x x x x M M M b V V C C C J S S K L E Q ^ ! ! u                                             ",
"                                          4 ~ _ _ Q P K A C C v v z z z z z z z z h l l s s l l s s s s s s s s s s s s l s s l z l l l l l z x M M M C V J V C V C C S S E E Q _ _ L ;                                           ",
"                                        + v _ _ _ Q P A A C v v z z z h z z z z l l s l s s s s a s a s s s p s s s s s s s s l l s l l l l l x v v v M V V V V V C C C S P Y Q ! _ Y t                                           ",
"                                        : L _ ' ~ P A C C v v l z z z z z l z h h s s s s s s i s a a a s p s s s s p s s s s s s s s l l l l l g z v v b V V V V V b C b S L Y Q ! ! C *                                         ",
"                                        e ~ _ ' T L K C H v x v h z z h l l l l l s s s s l s s a a s p p s s p p s s p s s s s s s s l l l l l g z v z v M V b M C M m b C C L Q Q Q Y 3                                         ",
"                                      % v ! ' ' P L A N v v l l z h z z z z z z b B V L T R M s s p p p p p p p p p p s p p p p s s M W P P C B M M v v v M b b m M m m b C Z L U Q Q ! i                                         ",
"                                      - K !  .) P A C N v l l l B I E E E ) _ _ ] X.X.X.) S l a p p p p p p p p p p p p p p p s a a h C ) {  .X.{ { ) ) Q Q Q E Z m b b M m m Z I Q Q ! m #                                       ",
"                                      3 U ~  .W L C V N v l v l B U ) ! _ _ ) E U Z C l l a p a p p p p p p p p p p p p p p p p a y s s l b C S U Q ) ) _ _ ) T Z M m x m M m Z L Q Y Q I ,                                       ",
"                                      0 Q _ ..Q A C N x l l k l z h z z h h h s s s y y a p r p p p r r r r r r p p p p r p p p a p p a a a s s s d l v v v v v b b b b b b b Z Z Y ! Y Y 6                                       ",
"                                      i Q (  .P K C N v v l l k l h h s s s s s y y s y y r p r r r r r r r r r r p p p r r p r r p p a a p a a s s s f s f z z b k b k M z k M Z Y ! E Y u                                       ",
"                                      d P  ...P C N v x v k g l h h l s s s s i a a y y y r r r r r r r r r r r p p r p r r r r p r r a p a a a s i s d f h z z k x k k b k b n Z U ^ E ! f                                       ",
"                                      v T  . .P J N v v k g g g l h d d i s s s s a y y y r r r r r r r r s z b M M s s p p r r r r r p a p a a i s s s l h z z b b k b k k b b C P ) E Y n                                       ",
"                                      k Y  . .P H N N l l k l l h s d d h s s y y y y y y y r r r r p s V E _ $.$.$._ E M s p p r r r r y y y a s s i s d h h l g b k z b z b b m L / W T x                                       ",
"                                      G Y  . .P N N x l l l k p h d d d i s i s a a y y y y r r r p l F { $.$.$.$.$.$.$.} F l p r r r r y y a i i s s s s h h h k k b z z k k m Z L ' ^ Y m                                       ",
"                                      G P  . .T H N x l l G k k h d d s s s s a y y y y y y r r r z T o.$.$.$.$.$.$.$.$.$.$.R l a r y y y y y y s i i d d d h h z z b k z z k k m L _ ^ Y m                                       ",
"                                      p Y }  .T H G l k k p l p l d d l d i i i s y y y y y r y s S $.$.$.$.$.$.$.$.$.$.$.$.o.S s y y y y y y s i s i s s h d d z k k z k z b b m L ' E Y n                                       ",
"                                      y I ' O.R V v v z l k p k g f a f a f y f a y y r r r r y z ) $.$.$.$.$.$.$.$.$.$.$.$.$._ x p r r a r y a a d a d d h d s k g l k l k k v b L ( E U h                                       ",
"                                      0 L ) O.R J N v z k k l k g g g a f a a a a a y y y y r a b _ $.$.$.$.$.#.X.#.$.$.$.$.$._ x a r r r a y a a a d d d h h h g k v k l k v k G L ) U U i                                       ",
"                                      3 K ~ O./ K b v g l k k k f f g f a a a a y a y y r y r y l ^ $.$.X.E C x x b C E #.$.$._ z a y r r y y y a a a d d d s h z k l v k l v G G L ~ U I 0                                       ",
"                                      ; G U ..} K b v k l l p l z a a f a f a a a y y y y r r r s b P P b s r r r r y s x P P M a y r y y a a a a d a d d d d h h g k k l k k v H L E I K <                                       ",
"                                      # d I | ..P H k k g k k p f f a g f a a f a y y y y r r r r r r r r r r r r e r r r y y y r r y y y y y a d a d d d d d h h h h h k l v k H L P L G =                                       ",
"                                        0 I R ../ H G v l g g k f a f f a f a a y a a y y y y r r r r r r r r r r e r r r r r r r y r y y y d y a d a d d g d h h h h k g k G G H L P L j                                         ",
"                                        : V U ` ( K v v l k p p a f a f a a a y y a y y y y y y r r r r r r r r r e r r r r r r r r y y y a y d d d d d d d d h g h h h k k G G K K L K 6                                         ",
"                                        @ i K ) ( T H v G k k k g g f a f a f f a y f y y y y y r r r r r r r r r r r r r r r r y y y y y y a y a d d d d h h d h h h k k j G G H K K G =                                         ",
"                                          5 J I ) W Z m b k k k z f f f a a f a y f y y y y y y r r r r y y y y r r r r e r r r r y y y a d y d d d d d d g f j d h k h v n G G J K K 0                                           ",
"                                          @ f K T E P m n k k j f f a f f a f a f y y y f y y y r r r r r y y y r r r r r r r r y r a y y y d y d d d g d d f i h k h k k n G b G K G =                                           ",
"                                            2 n L T P Z m n j k f f f f f a a a f y f y y y y y y r r r r r y y r r r r r r r r r a y a d a d d d d d d g j G i d g k k k G G G G G 6 O                                           ",
"                                            O u J L P Z m n n j z j f f f f f f y f y y y y y f y y y y r r y y r r r r y y r p y a i y y d a d d d d h d d i j k k k k k n n n G i %                                             ",
"                                              * i K L K G b k n k k j j f f f f y f f y j y y y y y y y y y y y y y y y y y y y r y d y i d d d d d d d j j j j G i j G n k G G j ;                                               ",
"                                                * i J C G M b j k j k j f f f f f f y j i y j f i i y y y y y y y y y y y y y y d y y d a d d d d g j k j j G i i G j j n G n u ;                                                 ",
"                                                  ; i H G G m k k k k j j j f f i j f j j y y i j i i y y y y y y y y y y y y a p a i d d d d d f f k j j j j j G j j G G k e =                                                   ",
"                                                    * t G n n m k k k k j k f f j j f i j j j y f i i y y y y y y y y y a y y y i d d d d d f j j j j k i G j j G j j G i 3 %                                                     ",
"                                                      @ 5 k G k G j j k k k k j j d j j d j d i j i i d i i d i i d y i a d i d d i d d j j d j j j j n j n n n n j i 5 = X                                                       ",
"                                                          * 9 j k G n k k k k k k k d j j d j d d j j d d d d d d d i d i d d d d j j d j j j j j j n j n i i u 5 > # X                                                           ",
"                                                            . & 2 0 e i d j i i i i i i u i i i i d j d j d j i d i d d d d d d j d d j j j j i u u 6 5 ; ; * @ X                                                                 ",
"                                                                  X + % % % * * * * % % % % % * * ; ; 2 5 6 0 u t i i i i i i i u u 0 5 2 , ; * % +                                                                               ",
"                                                                                                            O @ & * * * * * * * # +                                                                                               ",
"                                                                                                                                                                                                                                  ",
"                                                                                                                                                                                                                                  ",
"                                                                                                                                                                                                                                  ",
"                                                                                                                                                                                                                                  ",
"                                                                                                                                                                                                                                  ",
"                                                                                                                                                                                                                                  ",
"                                                                                                                                                                                                                                  ",
"                                                                                                                                                                                                                                  "
};
