/* XPM */
static char *SlimeBasic_00014[] = {
/* columns rows colors chars-per-pixel */
"113 77 101 2 ",
"   c None",
".  c #070F05",
"X  c #091207",
"o  c #0C1609",
"O  c #0E1B0A",
"+  c #111F0C",
"@  c #13240E",
"#  c #152A0F",
"$  c #162710",
"%  c #172B10",
"&  c #192D12",
"*  c #1B3314",
"=  c #1F3B16",
"-  c #203C17",
";  c #24431A",
":  c #264C1C",
">  c #294D1E",
",  c #29511E",
"<  c #2B4E20",
"1  c #2D5421",
"2  c #2E5922",
"3  c #325C24",
"4  c #346425",
"5  c #356926",
"6  c #366428",
"7  c #376A29",
"8  c #3B6C2B",
"9  c #3C732B",
"0  c #3F7D2A",
"q  c #40752F",
"w  c #407F2C",
"e  c #407430",
"r  c #437B31",
"t  c #3F802B",
"y  c #42822D",
"u  c #448A2F",
"i  c #458432",
"p  c #498536",
"a  c #468B31",
"s  c #498C34",
"d  c #4B8738",
"f  c #4D8B39",
"g  c #479031",
"h  c #4B9334",
"j  c #4E9B36",
"k  c #4E913A",
"l  c #4F9A38",
"z  c #509E37",
"x  c #51943C",
"c  c #529D3B",
"v  c #4FA037",
"b  c #50A137",
"n  c #53A33A",
"m  c #58A53F",
"M  c #55AB3C",
"N  c #58AC3E",
"B  c #57B13D",
"V  c #59B43E",
"C  c #5BBB3F",
"Z  c #5CC13F",
"A  c #569D40",
"S  c #57A240",
"D  c #59A641",
"F  c #57AA40",
"G  c #5AAC42",
"H  c #5DB342",
"J  c #5DBB42",
"K  c #60B646",
"L  c #61BC46",
"P  c #64BE48",
"I  c #5EC241",
"U  c #5FC942",
"Y  c #62C345",
"T  c #63CB45",
"R  c #65C449",
"E  c #68C74B",
"W  c #67CB49",
"Q  c #69CD4B",
"!  c #65D246",
"~  c #65D946",
"^  c #68D947",
"/  c #66D248",
"(  c #6BD44C",
")  c #67DA48",
"_  c #6CDB4C",
"`  c #6FDA50",
"'  c #71DC51",
"]  c #66E147",
"[  c #6DE34C",
"{  c #6CEB4C",
"}  c #70E44F",
"|  c #71EB4F",
" . c #6CF34B",
".. c #70F34E",
"X. c #72FB4F",
"o. c #72E451",
"O. c #75EC53",
"+. c #75F352",
"@. c #79F556",
"#. c #76FD51",
"$. c #79FD55",
/* pixels */
"                                                                                                                                                                                                                                  ",
"                                                                                                                                                                                                                                  ",
"                                                                                                                                                                                                                                  ",
"                                                                                                                                                                                                                                  ",
"                                                                                                                                                                                                                                  ",
"                                                                                                                                                                                                                                  ",
"                                                                                                                                                                                                                                  ",
"                                                                                                                                                                                                                                  ",
"                                                                                                                                                                                                                                  ",
"                                                                                                      @ $ & $                                                                                                                     ",
"                                                                                          $ : 9 g n H J I T I J B l u 5 , = #                                                                                                     ",
"                                                                                    O , a I [ O.+.@.@.@.@.@.@.@.@.@.@.+.O.( I n h 0 5 > * X                                                                                       ",
"                                                                                X , n _ @.O.+.O.O.O.O.O.O.O.O.+.+.@.+.+.+.$.@.@.@.@.O.o.W n w > $                                                                                 ",
"                                                                              - l _ O.O.O.O.O.o.O.[ [ [ [ [ [ } O.+.$.$.$.$.$.$.$.$.$.@.@.@.O.` H q &                                                                             ",
"                                                                          O 9 W O.O.O.O.O.[ [ [ _ _ _ ) _ / ) _ [ { +...X.$.$.$.$.$.$.$.$.$.@.@.O.o.L 5 +                                                                         ",
"                                                                        * l o.O.O.o.o.[ [ _ _ ( / / W / ! W W / ) _ { {  .X.X.$.X.$.$.$.$.$.$.$.@.O.O.o.m -                                                                       ",
"                                                                      > J O.O.o.} [ [ [ ) ~ ! U U U I U Z U I U T ! ~ ] { {  .X.X.X.X.X.#.#.#.#.$.$.O.O.| P 3                                                                     ",
"                                                                    5 W o.o.} } [ _ ) ! T Z Z Z I C C C C C Z C Z Z Z Z ! ! ~ ~ ] { { ....X.X.#.#.#.$.+.O.O.Q 6 X                                                                 ",
"                                                                . 7 W o.o.o.[ _ _ ! ! Z Z Z C C B C B C B C B C C C C Z Z Z Z Z Z T T T ^ ] { { | ..+.+.+.O.o.Q 7 .                                                               ",
"                                                              o 9 ( o.o.} ` _ ^ ! T Z C C C C B B B B B B B C C B C C B C C C C C C C C Z Z ( T ^ | | +.+.O.| | ( 7                                                               ",
"                                                            + r ' o.' ` _ ^ ! T Z C C B B B B B B B B B B B B B V V V V B B C B C M C C C C C Z Z ( ^ | { O...O.o.W 6                                                             ",
"                                                          + i ' ' ' _ _ ! T Z Z C C B B B B B M B B B C B C C C V V V V B C B C C C C C C V C C C Z Z T ^ | O...O.' E 3                                                           ",
"                                                        o a ' ' ` _ ( T T Z Z C C B B n B n M B n B B B B C B B V V B V B C C B C M C C V V V V C C C I T ^ | { | o.` L ;                                                         ",
"                                                      X w ( ' ( ( W T T Z C C B n B n n n n b B B B B B B B B B V V C B B B B C C M C V V V V V C C C C Z Z T ^ | | | ` m %                                                       ",
"                                                      5 ( ' ` ( W R Y I C H V M n n n n B b n B M B M M M B B B M M M M M B B B C M C V V V V V V V V V C I Y U _ } } } ( w o                                                     ",
"                                                    : R ' ( ( E I I C C V M n n n b n n b B B n b v v v v M b b M M M M M M B B M C M V M V V V N V V V V C Z Y T ^ } } } Y 1                                                     ",
"                                                  & G ' ( ( T R I C C M M n n n v v b b b n n v v v v v v v v b M M M M b M M M M B M N M V V V V V V V V V C C I W ^ } o.( M &                                                   ",
"                                                o s ' _ ( T R I C C V M n z z z v b b v b b v v j v v v v v v v j j j v b v M v b M M M M M M M N M N V N V V C C I W ^ ` ` ( q                                                   ",
"                                                5 W ' ( W R L C V V m n n z z j v v v v v j j v v j v v v g v v v v v v b v b M b n M N b N M M M M M C V N V V C C Y W ` ` ( L ;                                                 ",
"                                              * H ( ' W R J J V V n n z z j h j j j v j j g j v t v j t g v v g g v v v v v v v b b b b M M b M M M N b M M M V H C C Y W ( ( ( s +                                               ",
"                                            X i ( ( ( R J C V V n n z j j j z j j j j j g g j t v j g v v g g g g g v g g v v v v v v v b b n N b N M M M M M V N H C C P ( ( ( E 1                                               ",
"                                            : R ` ( W P H V V M n z x j h j j h j j g j g g t v t t v t g g g g v g v t v g v g h j v v v b n b n b M b n M M M M B V H L Y ( ( ( c $                                             ",
"                                          o f ( ( / U H C H M F z z x h h h j h g j g g g g g u g g u g g u g g g g g g g g g v h h h j j j j b b b n n M n N M M H V H V P E Q E E 3                                             ",
"                                          < U ( ( U J C B F b v h h h h h j j h g g g i i g g u u u u u u g u u u u u g g g g u g g h h g g g j j v b n n n n M M n V V V J R Q ( E c $                                           ",
"                                          p / ` ( U H C B b v h h h h h h h h h g g i g g g y u u u y u g t t u u u u u u u u u g g g g g g h j j j v v n n n n n n M M V V J Q E ( P 3                                           ",
"                                        * F / ( / J H F M v A h h h s h h h g s g g u g y i u y y u y y t t u u t u t u u u u u u u u g g g g h s j j v c c n n n n n n n H J J E E ( s +                                         ",
"                                        3 R / } E H G F F v h v h s s h g g g g g y y i u u u y y t u t t u t t t u t u t u t u u u u g u g g g s h h j j v c c c n n z c M V K Y E E G -                                         ",
"                                        t R ` ( U G F M v h t h s g h g h h h h z z M V I I v u u t t t t t t t t t t t u t u t u u v U C H M n v j j j j v v v c c z m c n M K P E E P e                                         ",
"                                      $ A W ] ) J B M b v h h h n V R R W W W _ ` } } ` W V g u t t t t t t t t t t t t u t t t y u h M W ` [ } ' ' ( ( R R R I V c z h h z m V P Y E E r                                         ",
"                                      < H W } ! G M M b F t k h n L T W W T R R C B n j u y t t t t t t t t t t t t t t t t t t y y y u g j n B V R U Q Q ( ( I N c m h c h m M K P Y E c &                                       ",
"                                      2 P W { W F B b v h k h k s s h g h g g i y y y y t y 0 t t t 0 t 0 0 0 0 t t t t t t t t y t y y y y y u i g s s s j j j z z h h h c c n J R R R K -                                       ",
"                                      8 J ( { I M M v h h g h t g s i g y g y y y y y y y t t 0 0 0 0 0 0 0 0 0 t t t t 0 0 t 0 t t t t t y u y u u g g s s s j h h h c c h z c N R Y R K 3                                       ",
"                                      9 U ( { U F M b b h h h k s g s g y i y i y y y y 0 t 0 0 0 0 0 0 0 0 0 0 t t t t 0 0 0 0 t 0 t y y t y y u w u i s s s j c f h c f h c c m J T R P e                                       ",
"                                      r J ( { J F b A h k t k t g s i i g i i y y y y y y 0 0 0 0 0 0 0 t u h c b b j u t t 0 0 0 0 0 0 t y y y i i i g s s s j h c h h c g h c m J ( T P r                                       ",
"                                      9 K [ { U F b h h h k t k i s i i i i i y y y w w 0 w 0 0 0 t t u m R ` | | | ' R v u t t 0 0 0 0 w y w i u i u i g i s s h c c g x g x c M R ^ T P r                                       ",
"                                      A K ` { J F b h h k t k s i g g i g i y i y y w w w 0 0 0 0 t g Z o.O.O.O.O.O.O.O.] Z g u 0 0 0 w w w w w w i u i i s s s f f g f g x g c m J _ T P r                                       ",
"                                      0 J ( { U M h v v k t k s s i g i i y i y y w w w 0 0 0 0 w h Z O.O.O.O.O.O.O.O.O.O.| Z g y 0 0 w w w w w w u w i i i s s h f g x x g x c m J ^ T P p                                       ",
"                                      9 K ( { U F S h t k k t s i s i i y i y y y w y w 0 w 0 0 a V | O.O.O.O.O.O.O.O.O.O.O.| C u w 0 w w w w w u i i i i g i i g c c g g x f c c K ^ J P r                                       ",
"                                      6 K T  .! n n l h k t k k g i i i i i i y w i w w 0 0 0 i h Q O.O.O.O.O.O.O.O.O.O.O.O.O.Q h y t w 0 y y w y y i i s i g s f h g k k a A h S J ! L L q                                       ",
"                                      > G W  .! n n h h s s s t i i g i y i y y y w w w 0 0 0 w z _ O.O.O.O.O.} o.} O.O.O.O.O.` j y 0 0 0 w w y y y y i i i i s s h s k g k f f z J ! L L 6                                       ",
"                                      - n P  .] H A l h s s s a s i g i i y i w w y w w w 0 0 w g _ O.O.} T M h z z V T } | O.( h y 0 0 w 0 y w y y i i i i i s s h h f s k A A A P R J K >                                       ",
"                                      $ f K [ { J S h h s s s p i s i i i i y i i w w w 0 w 0 0 u n J J b g t 0 w w w g b L L z y w w w w y w y i i y i i i g s a f s s a k h h S J R K m -                                       ",
"                                        e K ^ { I S l h f s s a s s i i y i y y w w w w w w w w w w w w w 0 0 0 9 0 0 0 w u 0 w 0 w 0 0 w w y w y i i i i s s i s s s s f h h A S J J K f $                                       ",
"                                        > m C { ~ F l k k s s p i i i i i i i w y w w i w w w 0 0 w 0 0 0 0 0 0 9 0 0 0 0 0 0 0 0 w w w y w w w y y i i i i i s s s s f f f A A F H H K 7                                         ",
"                                        # s H ^ ] J l A k s s s i s i i y i i y i y w w w w w w 0 0 0 0 0 0 0 0 0 0 0 0 0 0 0 0 w 0 w w w w y i i i i i i i s i s s s s f h A S S H H S <                                         ",
"                                          6 G P ) U S l h s s s s i s i i i i i w w i w w w w w w 0 0 0 0 0 0 0 0 0 0 0 0 0 0 0 w w w w w i w i y i y i i s i s i a s f f f A A S H H d +                                         ",
"                                          - x K T T J c c f x p i i w s w r s w w i w w w w w w 0 w w 9 0 0 w w 9 0 0 0 0 0 0 0 w w w w i w i w i i i i i i i i f s s f h x A A S G G 3                                           ",
"                                            e G L T J n x x f p s s s s r s i i i w w i w w w w w 0 w w 0 0 w w 0 0 0 0 0 0 0 0 w w w w w i w i i i s i s i d d f i f f f A z A S D d $                                           ",
"                                            - f V J L N c f x p d d s w i d w i w i i w w w w w w w 0 0 w 0 w w 0 0 0 0 0 0 0 0 w w w w w i w y i i i i i i r d s i f f f f A A S A <                                             ",
"                                              < m N J N c c x d d d d s s w s i i i w w i w w w w w w w 0 w w w 0 0 0 0 0 0 0 0 w w y w i y i i i i a i i f A r s f f x A A A z A 7 +                                             ",
"                                              + 6 m m H m c x p d d d d r d d s w d w p d w w w w w w w w w w w w w w w 0 0 0 y w w y i i r i i i i a i r r A d r A A f f A f A e $                                               ",
"                                                @ 8 m m m x x x d x d d d d d r d d d r r w p d w w w w w w w w w w w w 0 0 w w y y i w y i i i i i i f A d d d A d d d A f A 8 &                                                 ",
"                                                  @ 8 m m x x d x d d d d d d d p w p d d i w r w d r w i w w w w w w w w w w y w r i r i i i i d d f d d d d A d A d A f d 3 +                                                   ",
"                                                    @ 3 x m x x x x x d d d d d d p p d r p d r d r r w r r w w w w w w i w w w w i i i i i d i d d d f r A d r A r A f e < o                                                     ",
"                                                      o < d A A d A r d d f f d d p p p i d i i d r i i r i r i i i r y i w r i i i i i d i d d d f f f f f d f f r e < +                                                         ",
"                                                          $ 1 r A A A d A f f f f d d p d i d r d i i r d r r i r i i r r i d i i i i d d d d d d d f f f d e e 1 - +                                                             ",
"                                                              $ < 8 r p r d d d d i r r r r e r e r r i r d d i i r i i i i d i d i d d d d d i r e 3 1 - - @ +                                                                   ",
"                                                                  X + & & * * * * * * $ $ $ $ $ & * = ; < 3 3 7 e e r r r r r r r e e 3 3 < - - $ +                                                                               ",
"                                                                                                              o # $ $ & & & & & $ $ +                                                                                             ",
"                                                                                                                                                                                                                                  ",
"                                                                                                                                                                                                                                  ",
"                                                                                                                                                                                                                                  ",
"                                                                                                                                                                                                                                  ",
"                                                                                                                                                                                                                                  ",
"                                                                                                                                                                                                                                  ",
"                                                                                                                                                                                                                                  ",
"                                                                                                                                                                                                                                  "
};
