/* XPM */
static char *SlimeBasic_00022[] = {
/* columns rows colors chars-per-pixel */
"113 77 102 2 ",
"   c None",
".  c #050A04",
"X  c #080E06",
"o  c #091207",
"O  c #0B1408",
"+  c #0D1A0A",
"@  c #101E0C",
"#  c #13240E",
"$  c #15290F",
"%  c #152710",
"&  c #162910",
"*  c #192E13",
"=  c #1B3314",
"-  c #1D3815",
";  c #213C18",
":  c #204117",
">  c #23431A",
",  c #28471E",
"<  c #264A1C",
"1  c #284E1E",
"2  c #2A521E",
"3  c #2D5321",
"4  c #2E5A21",
"5  c #315B24",
"6  c #355F28",
"7  c #346326",
"8  c #376F27",
"9  c #366228",
"0  c #386629",
"q  c #3A6C2B",
"w  c #3D722C",
"e  c #3E7D2A",
"r  c #40762F",
"t  c #407F2C",
"y  c #407530",
"u  c #447D32",
"i  c #3F802B",
"p  c #42822D",
"a  c #448A2E",
"s  c #458432",
"d  c #498636",
"f  c #468B31",
"g  c #498B34",
"h  c #4B8738",
"j  c #4D8B39",
"k  c #479031",
"l  c #4B9334",
"z  c #4E9B36",
"x  c #4E9239",
"c  c #4F9A38",
"v  c #509F37",
"b  c #51943C",
"n  c #529D3B",
"m  c #4FA037",
"M  c #50A137",
"N  c #53A43A",
"B  c #55AB3C",
"V  c #58AD3E",
"C  c #57B13D",
"Z  c #59B43E",
"A  c #5BBB3F",
"S  c #5CC13F",
"D  c #579E40",
"F  c #57A340",
"G  c #58A541",
"H  c #5AAC42",
"J  c #5DB442",
"K  c #5DBB42",
"L  c #60B646",
"P  c #61BC46",
"I  c #64BE48",
"U  c #5EC241",
"Y  c #5FC941",
"T  c #61C445",
"R  c #63CB45",
"E  c #65C449",
"W  c #68C64B",
"Q  c #66CB49",
"!  c #69CC4B",
"~  c #65D346",
"^  c #66DB47",
"/  c #67D348",
"(  c #6BD44C",
")  c #67DA48",
"_  c #6CDB4C",
"`  c #6ED750",
"'  c #6FD950",
"]  c #71DC51",
"[  c #66E347",
"{  c #6DE34C",
"}  c #6CEC4B",
"|  c #70E44F",
" . c #71EB4F",
".. c #6DF44C",
"X. c #71F44E",
"o. c #72FB4F",
"O. c #72E551",
"+. c #75EC54",
"@. c #76F253",
"#. c #79F556",
"$. c #76FC51",
"%. c #79FD55",
/* pixels */
"                                                                                                                                                                                                                                  ",
"                                                                                                                                                                                                                                  ",
"                                                                                                                                                                                                                                  ",
"                                                                                                                                                                                                                                  ",
"                                                                                                                                                                                                                                  ",
"                                                                                                                                                                                                                                  ",
"                                                                                                                                                                                                                                  ",
"                                                                                                                                                                                                                                  ",
"                                                                                                                                                                                                                                  ",
"                                                                                                    - 2 8 s l m z f w 2 -                                                                                                         ",
"                                                                                            @ 1 e N Q | @.#.#.#.#.#.@.+.Q N e < #                                                                                                 ",
"                                                                                        : i J ` @.#.#.#.@.@.@.@.@.#.#.#.#.#.@._ A k 7 &                                                                                           ",
"                                                                                  + 2 z ( +.@.@.+.+.+. .} O.| | +.@.@.%.%.%.%.%.%.@.| Q z 7 =                                                                                     ",
"                                                                              + 4 N ` @.@.+.+.+.O.| { _ [ ( _ _ { } ..%.%.%.%.%.%.%.%.#.#.+.Q c 5 &                                                                               ",
"                                                                          @ 7 C O.+.+.+.+. .| { [ ( ( ( ~ ( ~ ~ ( { } } ..o.%.%.%.%.%.#.#.#.#.+.O.P s > o                                                                         ",
"                                                                      O 4 J O.+.+.+.+.{ | { _ ( ( ( Y ~ Q Y Q Q Y ~ ( [ } } o.o.%.%.%.#.#.#.%.%.+.+.+.' n 3 +                                                                     ",
"                                                                  . < n ' +.O.+.+.| { { { ( ~ ~ Y Y U U S S A S S S S S [ [ [ .. .o.o.o.$.$.$.$.$.%.#.+.+.' l ;                                                                   ",
"                                                                # t ! O.O.+.O.| { { _ ^ ~ Y Y S U A A A A A A Z Z S S S S S S S ^  . ...o.$.$.$.$.%.%.+.+.| +.W 8 @                                                               ",
"                                                            . < V ] O.O.O.| { { _ _ ^ Q Y S A A A A C C C Z C C Z Z S Z A A S S Y Y ~ ^ [  .....$.$.%.%.@.@.|  .] b =                                                             ",
"                                                          + 8 E O.O.O.| | _ _ ^ ~ Y S S A A A C C C C C C C A A Z Z Z Z C A S S C A A Y Y ~ ^  . . .@. .@.+.%.+.O.] J 1                                                           ",
"                                                        & g ' | ] O.' _ ^ ^ ~ Y Y S S A C C C C C C C C A C A C Z Z Z Z Z Z Z Z A C A A A K Y Y ~ ~ {  . .X.X.@.+.O.O.T 4 .                                                       ",
"                                                      - V ] ] ' ] ' _ ( ~ Q Q S S A A C C B C C C C C C C A A C Z Z Z Z Z Z Z Z C A A C A A Z A K Y E ^ ^  . . .| @.O.] W 5                                                       ",
"                                                    ; Z ' ' ' ( ~ ~ Q Y Y S S A A C B B B B B B B C C C C C C C C Z Z C Z Z Z Z A C A C C A A A A A K Y Y ^ ^ } | X.+.| ' E 2                                                     ",
"                                                  = V ' ' ' ( Q ~ Q Y S A A Z C B B B B B B B B C C B C C B C B C C C Z Z Z Z Z C A C A C C Z Z Z A A A A T Y ( { | | | | ' L ,                                                   ",
"                                                # n ] ` ' ( Q Q T T S S Z Z V V B B M B N B B C C C C M C M C M m C C C C C C C C C A C A C C C Z Z Z Z A K Y Y Q ^ { { | | ' v %                                                 ",
"                                              O p ` ] _ ! Q T T S S Z Z V V N M N N N N N B B B M M m m m m m m m m m C m C C M B C C C Z C Z Z Z Z Z Z Z A Z K S Y ~ { { | ' ' u o                                               ",
"                                              5 ! ] ( ! Q T T P S A Z V B B M M M N M N N B N m m m m m m m m m m m m m C M m C B B C B C C C Z Z Z Z Z Z Z Z A A S T Q ^ ' ' ' W 3                                               ",
"                                            - J ] ] ! ! T A A Z V V B N n M M M m N M N M m m m m z m m k m m m m m m m m m m m B M B B B C B C C V V Z V Z Z Z A A S T Q ^ ' ( ` n =                                             ",
"                                          + f ` ` ( E T K A Z Z B N N N v v c v m M M N m m z z k z k m k m m m i m m m m m m m M M B B M B B B B Z B C B Z Z Z Z Z A P S Q ( _ ` W r                                             ",
"                                          3 Q ` ( ! T K K Z Z B B N v n v v l v m m M z z m k m k z k k m m i m m m k m m k m m M M M M B B B V B B B B V B B B Z Z Z A S E Q ( ! ` L ;                                           ",
"                                        $ N _ ` ! E J A Z V B N v z z l v l v z z z z z k z z k k k k m m i i m k m m k k m m m z v M M M M B N B B B B B B B B V V Z Z A S T Q ` ! ! d @                                         ",
"                                        0 ! ( ( E K J Z Z B N v n z n l l v l z z z k z k k k k k k k k k i m k k i i m k k m i l v v v v M M N M N N B B B B B B V V Z H A P E ! ! ! I 3                                         ",
"                                      $ F ` _ ! U K K H B B B G l l l x l z z l c k l k k k k k k k a k a a a a a a a a k k k k l l z z z z M M M N N B N V N V N V V B Z Z K I E ! ! ! g +                                       ",
"                                      4 ! ` / W K C C B m m z i l l l l z l z l k k k k k k k k p a a p a a a a a a a a a a k k k k k l k z z z z M M N N N N V N B B B B B Z K E E ! ! L ,                                       ",
"                                    @ D ! _ / U H H B m m i G z l l l l l l l l k k k a f f f a a a p a a a i i a a a a a a a k a k k k a z a z l v z v N N N N N B N N N N B Z I E W ! W t                                       ",
"                                    , K / ` Q K C C B B m D i D l l l l l k l g f k f k f f p p p p a p i a i i i i i a i i a a a a k k k l z a l z l v v v N N N N N N N N N N Z I E E W N =                                     ",
"                                    q W / [ W J C B m i z i m i g l l l l k k k g g k z M C m a p i i i a i i i i a i i a i a a a a M C N v l c l l l v v v v N n n N N N N N N Z L I E W I 6                                     ",
"                                  @ j ! _ _ K J C B B m D i i D l l l l l z v M B S E ' | { N a a i i i i i i i i i i i i i a i a a B _ | ( Q S Z B M v v v v v n n c N N N z N N H I E W W u                                     ",
"                                  = H Q [ / K H H m c z i D i c v Z P T Q ( _ ' +.+.#.| ~ V k p i i i i i i i i i i i i i i i i p p k B ( O.+.+.O.| ] ( Q E T P V n c c c c z c N Z P P W W N %                                   ",
"                                  3 K Q } Y K B B m m i D i D i V ' O.+.+.+.+.O.' ~ T V k k p i i i i i i i i i i i i i i i i i p p p k v B S ^ ] O.O.+.+.+.O.] K N c c c c z z v V L E E I Z >                                   ",
"                                  0 K /  .Y J H m c c D i c i D c v V Z Z Z V N v l k p p i i i e e e e e e e e i i i e e i i i i i p p p a a k v N B A A A H B N N l c n l l l n N V W E E P 4                                   ",
"                                  w U (  .U H G m c l i D i D i g k g g g s f p p p p t p i i i e e e e e e e e e i e e e e e e e e i i i p a p f f f f g l l l l l b c b l l n n n V T E E P w                                   ",
"                                  s K ( } U C m c l l l i i D D k g f f f t t f p p p t e i e e e e e e e e e e e e e e e e e e i i e p p i p p u f f f g g g l l l l l b l l l n n G T ~ E I t                                   ",
"                                  j I | } Y H m D l l l D i i i s g s p f t f p p p p t p e e e e e e e e e t a i a i i e e e e e e e t i p p p f t u f f k g g l l b c l l b l l n G T ( ! I s                                   ",
"                                  i L [ } Y G m c l l g g f g f g f f u f t p p p p e i e t e e e e e i l N P ! ! W P F a i i i e e e e t p t p t t f u f f s g j l n l b l l b n n F P ( R I b                                   ",
"                                  D L ) } Y G F D l g g g d g g s f f u f p t f p t p t e e e e e i a B ! O.+.+. .#. .| ~ C a i e e e e t t t p t f t f u f d g j l l b b l l l l n F K ^ W P b                                   ",
"                                  D K _ } Y H m l l l g g g g f s f u f t t t p p p e t t e e e t k S  .#.+.+.+.+.+.| #. .| S a p e e e t t t t t f f t f f g g a s l l j k l j n n n I ^ E P l                                   ",
"                                  w K ^ ..~ H m D l g l g i g g g f f p s f u p t t e e e e e t a Z  . .+.+.+.+.+.#.#.#. . . .A a e e t t t t t t t u f u f f s j j l l k b j l b n n T ^ E P l                                   ",
"                                  w J Q o.~ H c c l l g g g f g f a s s p s s t t t t t e e e s z ( +.+.+.+.+.+.+.@.+.+.+.+.@.( l p e e e t t p p p p p u f f s g g l l l x g x x b F K ( I I u                                   ",
"                                  5 H E ..[ J D c l l g f d d i f s a s s p p p t t t e e e e t z ( +.+.+.| ' R W R _ | +.+.+.' z p e t e t t t t p f p f u f u f g g x g g l g x n F T Q L L 8                                   ",
"                                  > G L } ..S N c l g g g g f d f t s p p s p t t t t e e e e t a A _ _ T N k a a a l N I _ ' A a p e t t e p p t p p f f f g s g g j g j g l x b D N T T J H 3                                   ",
"                                  # x L ~ } Y B c x x g g f d f f h s s s p s p t p t t e t e e t a k k p e e e e e e e p k k a t e e e e p t t f t s t u f f s s g f l j g g j b n G P P J G ;                                   ",
"                                    r L Y } ^ Z F x x g g g g s f f t u s p p t p p t t t e e e t t e e e e e 8 e e e e e e e e e e e t t t t t t t u f u s s g g g g g g j l x b D G K L L s @                                   ",
"                                    , G A ^ { S F c x g g f s d t h f h s t s t t t t t e t t e e e e e 8 e e e e e 8 e e e e e e t t e t t t s f u t f f s s s s g g g g g j x n F H J L G 6                                     ",
"                                    # s L T { Y H D x x g g g f h t t h p s s t t t t t t t t t e e e e e e e e e e e e e e e e t e t t t t p t t f t s f s s g s g g g g j j b D F H H L D =                                     ",
"                                      2 G J R ~ J m x x j g d s f h t f s s p s p s t t t t t t e e e e e e e e e e e e e e e e e t t t t p t t t u s s u s s s g g s g g j x b D F G H G 8 O                                     ",
"                                      & h H P R E N n b b h h u f t h f t s t s t t t t t t t t t e e e e e e e e e e e e e e e t t t t t p t s s p s s s s g s s j g g j j b n b D G G b ;                                       ",
"                                        , D H P Y V n b b h b u h h t f u h f t s t s t t t t t e t e t e e e e e e e e e e e e t t t t p t t s p s s s g s s s g s g j j j b b D n D D 6 .                                       ",
"                                        O 9 F H K K N n b h b b h f t t f h t t t s t s t t t t t t e e e t t t e e e e e t e e t t t t t t s t s s s s s s s h g g s j j j b D D D D y @                                         ",
"                                          @ y F V V F n b b u b h h h h t u t f t h t t t t t t t t t t t e t t e e e e t e t e t p u p p p p s p s s s s g s h s j j j j b j b j D y *                                           ",
"                                            @ y F G G F b b b h j h h h h h f t s t t t t t t t t t t t t t t t t t t t t t t t t t t t s p s s s s s s u h h u D u D h D D j D b 0 %                                             ",
"                                              % 9 n F F b b h h j h h h h u h u t h h t h t h t t t t t t t t t t t t t t t t t t s s t t p u s s s s s u h h D u D u h j j j h 6 @                                               ",
"                                                @ 3 b n n b b j j h h h j u h h h t u h u h h t u h t u s t t t t t t t u t t t p t t p s s s s s s g s h h h h h D h D D j u , O                                                 ",
"                                                  O ; u n b n j j j j h h h h h s h h u h t u h u u u u u s u s u s t u t t u u p u s p u s s s j s h j h u D h h h h D u 6 %                                                     ",
"                                                      & 6 D D u D h h h h h h h d s h s s h u u s s u s u u s u u s u u s u u u s s s h u s h h h h j h h j j j b D u 6 = X                                                       ",
"                                                        X ; 6 D j D h j j j j h h d d h h s s h u h h s s h s s s s s s s s h s s s s s h h h s s h j j j j j j u 6 ; O                                                           ",
"                                                            X = 6 u h D j j j j j h h h s h h h s u u y r y y y y u u s s h s s h s h h h h h h h j j j h y 0 , *                                                                 ",
"                                                                  % = 3 0 8 y u u y y 8 0 5 3 > ; = * % # % % % % * ; ; , 3 6 0 y y y u u u h u u r 0 3 ; %                                                                       ",
"                                                                          O @ & % % % O                                         + % * * = = = * * @                                                                               ",
"                                                                                                                                                                                                                                  ",
"                                                                                                                                                                                                                                  ",
"                                                                                                                                                                                                                                  ",
"                                                                                                                                                                                                                                  ",
"                                                                                                                                                                                                                                  ",
"                                                                                                                                                                                                                                  ",
"                                                                                                                                                                                                                                  ",
"                                                                                                                                                                                                                                  "
};
