/* XPM */
static char *SlimeBasic_00004[] = {
/* columns rows colors chars-per-pixel */
"113 77 103 2 ",
"   c None",
".  c #060B04",
"X  c #080E06",
"o  c #091207",
"O  c #0C1508",
"+  c #0E1A0A",
"@  c #101E0C",
"#  c #13240E",
"$  c #15290F",
"%  c #162710",
"&  c #172B11",
"*  c #192E12",
"=  c #1B3514",
"-  c #1E3B15",
";  c #203D17",
":  c #223D19",
">  c #24441A",
",  c #254A1B",
"<  c #294B1E",
"1  c #2B521F",
"2  c #2B4C20",
"3  c #2D5521",
"4  c #2F5D22",
"5  c #315A24",
"6  c #355F28",
"7  c #336125",
"8  c #366A27",
"9  c #386529",
"0  c #376928",
"q  c #396B2A",
"w  c #3C732C",
"e  c #3E7D2A",
"r  c #40752F",
"t  c #407F2C",
"y  c #417630",
"u  c #437B31",
"i  c #3F802B",
"p  c #42822D",
"a  c #448A2E",
"s  c #458432",
"d  c #498636",
"f  c #478B31",
"g  c #498C34",
"h  c #4B8738",
"j  c #4D8B39",
"k  c #479031",
"l  c #4B9334",
"z  c #4E9B36",
"x  c #4E9239",
"c  c #4F9B38",
"v  c #509E37",
"b  c #51943C",
"n  c #529D3B",
"m  c #4FA037",
"M  c #50A137",
"N  c #53A33A",
"B  c #55AB3C",
"V  c #58AC3E",
"C  c #57B13D",
"Z  c #59B43E",
"A  c #5ABB3F",
"S  c #5CC13F",
"D  c #569F40",
"F  c #57A340",
"G  c #58A541",
"H  c #5BAD42",
"J  c #5DB443",
"K  c #5DBB42",
"L  c #60B646",
"P  c #61BC46",
"I  c #5EC341",
"U  c #5FC841",
"Y  c #62C445",
"T  c #63CB45",
"R  c #65C449",
"E  c #68C74C",
"W  c #66CC49",
"Q  c #69CC4B",
"!  c #64D346",
"~  c #67D946",
"^  c #67D448",
"/  c #6BD44C",
"(  c #67DB48",
")  c #6CDC4D",
"_  c #70DF4F",
"`  c #6FD750",
"'  c #6FD950",
"]  c #70DB51",
"[  c #66E347",
"{  c #6CE34C",
"}  c #6CEB4B",
"|  c #70E44F",
" . c #70EB4E",
".. c #6CF24B",
"X. c #6DF84B",
"o. c #71F44E",
"O. c #72FB4F",
"+. c #72E452",
"@. c #75EC53",
"#. c #76F253",
"$. c #79F556",
"%. c #76FD51",
"&. c #79FD55",
/* pixels */
"                                                                                                                                                                                                                                  ",
"                                                                                                                                                                                                                                  ",
"                                                                                                                                                                                                                                  ",
"                                                                                                                                                                                                                                  ",
"                                                                                                                                                                                                                                  ",
"                                                                                                                                                                                                                                  ",
"                                                                                                                                                                                                                                  ",
"                                                                                                                                                                                                                                  ",
"                                                                                                                                                                                                                                  ",
"                                                                                                                  - - - - = * $                                                                                                   ",
"                                                                                                  # = , 4 e z A K T / / ^ ^ T K V z t 1 ;                                                                                         ",
"                                                                                    + * > 4 w f z K / { +.$.$.$.$.$.$.$.$.$.$.$.&.$.@.| E M 8 =                                                                                   ",
"                                                                            o = 4 f H W ) +.#.$.#.$.$.$.$.@.$.+.$.$.$.$.$.$.$.$.&.&.&.&.$.$.@.E s :                                                                               ",
"                                                                        = 8 B Q +.+.$.#.#.#.#.+.+.#.+.+. . .| |  .o.O.o.%.%.%.$.%.%.&.&.&.%.$.$.@./ s ;                                                                           ",
"                                                                    = s T +.$.$.+.+.#.+.+.+.+.| | { } { ) ) ) ) ) | } o.o.O.O.O.%.%.%.%.&.&.&.&.$.@.@.E r #                                                                       ",
"                                                                # w R +.+.+.+.+.+.#.+. .| | { { ) ^ ) / / ! ! ! ! ) ) [ { } o.o.O.O.%.%.%.%.%.&.$.$.$.@.+.J 2                                                                     ",
"                                                              > B +.+.+.+.+.+.{ { { { ) ) ( ( ! ^ ^ T W S T U U U T U T ! ! [ ! [ [ [ } o.o.%.%.%.&.%.$.@.@.W e #                                                                 ",
"                                                          o 7 E +.+.+.| +.{ { { ) ) / ( ! ! U U I I I I S S S S S I A S S S S S S S T ~ ~ [ } } O.%.%.%.&.@.@.] n ;                                                               ",
"                                                        + w / +.+.] ) { ) ) ( ! ! ! U U I I S S S A A A S A A A A A A A A A S A A A A A I I T { { } $.$.%.@.@.@.+.P 1 .                                                           ",
"                                                      @ s ] ] +.] _ ) ) / ! ! U U S S A A A A A A Z Z Z C C C A Z A B A A A B A A Z A A A A I I T ~ { } #.%.%.#.+.+.Q w O                                                         ",
"                                                    # l _ _ _ _ ) / ! T U U U S S A A Z A Z B B Z B B Z B A A B C C C C C A C C Z Z A A Z A A A A I T ~ { #.o.o.#.+.+.) h %                                                       ",
"                                                  # l ] ] ` ` ! ! T T U I A A A A Z Z B B Z B A B Z Z Z B A A B S C S S B A C A Z A Z Z Z Z Z A A A S I T ~ { #.#.+.+.+.] n ;                                                     ",
"                                                + f _ ` ` / ! T R U S A Z Z Z B B B B B M Z Z B Z Z Z Z A Z Z A C C C C C C C A Z Z Z Z Z Z Z Z Z Z A A S T ~ {  . .#.+.| ] H :                                                   ",
"                                              o r ` ` ` / E T R S A A A Z Z B B B B B B Z M C B B Z Z B B A B Z C C C C C C C C Z Z Z Z A Z Z Z Z Z Z A A A S T ) |  .o.@.] ] L >                                                 ",
"                                              5 / ] ] / T R S A A A A B B B B v B M B B B B Z B C C C C C C C C C C C C C C C C C C C C C C Z Z C Z Z Z A A A I T ! [ } |  .| ` J :                                               ",
"                                            - P ] / / E R P A A A V B B B v n v M B M B M B B B C m C C m C m C m m M C M M C M C B C C C C V Z Z Z Z Z Z Z A A S T T ) { | | _ ] V =                                             ",
"                                          # n ] / / E I P A A A B V M M v n v v M M M C B B M B m m m m m m m m m C m M M C M M C M C M M B B Z B Z Z Z Z Z Z Z A A R T ! ) | | ] / l %                                           ",
"                                          w / ] / W R K A A B B M M M v v v v M M M M m M M M M m m m m z m m m m m m m M M M M M M M C M B B B B B V Z V V Z Z A A A U T ! ) _ ] ] Q t +                                         ",
"                                        , R ] / Q R K A A V B n v n z c z z v n m m m m z z m m z z z z m z z m m m m m m m m m M M M M V M M V C B V B Z B Z Z Z Z A A U U ! ) _ _ Q E 6 .                                       ",
"                                      # n ) ) Q R P A A V N B n z c z z z z z z m m m z z z z z z k z z z m k m z z m m m z z z z M M M M M B N M B B B B B B V V Z Z A J K Y Q / / / Q J <                                       ",
"                                      q / ] / E A J A V V B v v z l n l l z z z z z z z k z i m z z i m z k z z i m z i z z i m z z z z v v v N M V C M B V B B V Z Z Z A K K Y E Q Q ` E b #                                     ",
"                                    - J / / Q P A A V B M v l l c l l l z z z z z z i z z i z z i m i z k z i z i z z z i m i z k z k z l z v v M M M B N B B B B V V V Z Z Z Y W Q Q Q Q E r                                     ",
"                                  O i Q ` ^ I K K K H m m F F i l l l z z l l l l k k k k k k k k k k k a k k k k k k k k k a k k k k k z k z z z z M N N N N V B B B V V Z Z K P Y R Q Q Q H =                                   ",
"                                  > P ` / T K K B H m m m i m D l l l l l l l k k k k k k f k k f k a a a a a a a a a a a a a a a k k k k k k z l z z M N N N V B N B B B Z Z Z K Y R Q Q Q E r O                                 ",
"                                O D Q ` / R K B B m m m i D j i l l l l l k k k f f f f k f f a a a a a a a a a a a a a a a a a a a f f k k k k l l z z v N N N N V N V B B V V C L Y R Q Q Q H :                                 ",
"                                = G ` ` ^ I K A B m m m F i l l g l l g f l f a f f k l v M v a a a p a a i i a a i i i i a i a a a z N z z k l k l l z v v n N N N N B N N B N C Z L P R Q Q R r                                 ",
"                                q T ` ` U K H B m m i D l j i l l k l k l f g k l z M A Q _ A a p a a i i a a i i i a i i a i a a a Z { ! J B v z l l l l v v n v N N N N N N N N G C L R R R E b %                               ",
"                              % D T ` ` I K H m m m F i l j l l l l l l z v M A P / | @.@.! v a p p a i i i i i i i i i i i i i p a m ! @.@._ ! Y Z V N N M v v N N N D N N N N N N C L P R R R L >                               ",
"                              2 J Q { ^ K B B H m m m i l l l l v V P R Q / _ +.@.@.@. .) V a a p i i p i i i i i i i i i i i i p p f B ` @.@.@.@. ._ / Q W Y J G N v v v v N v M M G V P R P R R 9                               ",
"                              8 R T { ^ K H B G i m F i l i j l A | @.@.@.@.@.@.@.+._ R M a a i i i i i i i i i i i i i i i i i p p p f v Y )  .@.@.@.@.@.@.@. .L N v v v v N l M M G V L P W R R g                               ",
"                              s R / ..R H H m m m i m i l l l l n R / | _ _ _ Q R A v f a i i i i i i i e i e e i i e e e i e i e p e p a a m Z E ! _ | | | / E G N z v v v v v j z v V V W W P R n *                             ",
"                            $ D R ` { Y H F m m F i l j i j l i g l v B B B z l k a a a p i i i e e e e e e e e i i e e e e e e i e i i p p p a k l v N V N N v z z z j j v j z z z v N V P W P R G :                             ",
"                            2 D R { [ P K m m i i D i j l l l j g s s a s s a s t a e e e i e e e e e e e e e e i e e e e e e e e e e e i i p p s p f f f f g l j j z v v z z j j z j N V L T W P L >                             ",
"                            2 H R ..[ P B F m F D i D i j i j i s s s a s a t t t t t t p e e e e e e e e e e e i e e e e e e e e e e e i p e p p p s s s f f f k k z j l j z z z j n N V Z ) T R L 5                             ",
"                            2 H P ..[ K m m m i D i d D d e d e s a s t s a a t t i t e t e e e e e e e t a l v M v l a i i i i e e e e t t p t p p p s a f f f k k j z z j v j j z z n N L ~ ~ P L 5                             ",
"                            5 H P ..[ I H m m D i D j i i D i D s s a s u t t t a t t e e e e e e i i k K / _ +.+.+._ / C k i i e e e e t t t t p p p p s s s f f j j z j z j v z j j n N L ~ Q P L 3                             ",
"                            5 H P ..[ U F m m i D i D i D i d i f s a s a t t t e t e t e e e e i a A { @.@.$.@.@.@.@.@. .{ C a p e e e t e t p t p a s p f s f f f d z z j l a j j z n N L / T P L 3                             ",
"                            2 H P } [ U F D m D i D i d d d e D s s a t a t u a t e t e e e e t a Z  . .@.@.@.@.@.@.@.@.@. .} S a t e e e t t t t p p p s s s s f f d j j z z j a z z n G L / U P H >                             ",
"                            , G K  ...U H D z l g g i D i d i i d p d p s p t p t e t e e e t t v ) @.@.#.@.@.+.@.+.@.@.@.@.@.) z p e e e t t p t p p p s s s f g s g g l h l h c h h D D K ! E L N ;                             ",
"                            = n J { ..U G D D l l g g i D i D e p d p s p s p t t t t t e e e t l T +.+.) U C M M M Z U ) +.+.Q k t e t t e t t p p p p p f f s s g g l c g c c g c h c n J T P L b #                             ",
"                            # h J ^ X.! H D z l D i g i d d d d a d s p s t t p t t t e t e e e p a N v k i e e e e e p k M M k t e e e e e t t t p p p p s s f s g g g g g f h h c c D G J T L L r                               ",
"                              w J U X.[ K m z l i D i D e D i i d p p s s p s t t t t e t e e e e e e e 8 e e e e e e e e e e e e e e t t t p t p p p p s s s s s g g g l h c h g g c b G K P L L 5                               ",
"                              3 H L } } R G n b D i d d i D e d s a s p p s t t t t t t e t e e e e e e e e e e e e e w e e e e t t t e t t t t t s s p s s s s s s g g g h c h h c D c G L J H n ;                               ",
"                              = D J ^ ..! H n b D D d d d i D i s s s s s p t p t t t t e t e e e e e e w e e e w e w e e e e e t t e t t t t t p t p p s s s f s g g g h g f g c h D D G J J L y o                               ",
"                              o y H I [ [ A N b i u D e d d d i s s s p s p p p t t t t t e t t e e e e w e e e e e e e e e e e t t t t t t t t p p s s p s s s g s g s g g g g d D h D G L L G <                                 ",
"                                , G J T [ ! V n D D e D i d i D a s s s s t s t p t t t t t t t e e e e e e e e e e e e e e e e t t t t t t t a u p p s s s s s s s g g g g h g d c D D G H H u @                                 ",
"                                @ u L L Q ! A N b b n j j d d d d d s s p p p t t t t t t t t t e e e e e e e e e e e e e e e e t t t t a t t u a t s s s s s s s g g s h g h z j D D D G H D <                                   ",
"                                  < D H U T K V n n j j j j d u s s s s s s s s s t t t t t t t e e e e e e e e e e e e e e e e t t t t t t t a t a s s s s s g g s s g h g h h j D b D D G y @                                   ",
"                                  + r G H R U A G n b j j j d j a d d s s t t s s t t t t t t t e e e e e e e e e e e e e t e e t t t t u t u s u s s s g s s s s g s g g g z j D j D n D j :                                     ",
"                                    @ u G H J A V n n j j j j j j d d d d d s t t s t t t t t t e e e e e e t e e e e e t e t t t t t t s a s t s s s s s s g s g s g h s j j b b b b D b 2                                       ",
"                                      = u D H L G N n j b j j j j d j d d d d s t t d t t t t t e t t t t t t t t t t t t t t t t t s a u s s s a s s s s g s s h h h h j j b b b b D j 5 o                                       ",
"                                        % 9 b H N N n b j j j j j j d d d d d d d d t d d t s t u t t t t t t t t t t t t t t t t s t u s s u s u s s s s s h g j h j u j j h D b b h 5 o                                         ",
"                                          @ 2 u G G D b b j j j j d d d j d d u d t d u u d d t t t t t s t t t t t t t t t t t s t s u s s s s s s s g h j j h h j h D h h j D b h < o                                           ",
"                                              * 5 u b b b b b j b j j j d d d d d d d d t d u d u d u u u t u t t t t t s t t s u s s s s s h s h h h h h h h h j j h h D D j j y :                                               ",
"                                                X * 2 y h b b b b j j h h h h h s s h s u s s s u s s s u u s u u s u s u s u s h s s h s h s h h h h h h h j j b h b j D j u 6 %                                                 ",
"                                                      o * 2 9 y s h b j h b j h h h s h h s h u u h u s s s s s s u s s s s h u h h s h h h h h h j h h h b h b h b j b u 6 = X                                                   ",
"                                                            X @ * : < 5 q u s s s h j h s h s s s h s h u s h u u s s s u u s y y y y r y y u s u h h j h h h u u u r 2 = X                                                       ",
"                                                                          # * : 2 5 6 q r y y u u u u u u y y y r 6 5 1 2 : : = & % % % % % % ; ; : : : > > : ; = @ X                                                             ",
"                                                                                        @ # * * * = * * = * % @ O                                                                                                                 ",
"                                                                                                                                                                                                                                  ",
"                                                                                                                                                                                                                                  ",
"                                                                                                                                                                                                                                  ",
"                                                                                                                                                                                                                                  ",
"                                                                                                                                                                                                                                  ",
"                                                                                                                                                                                                                                  ",
"                                                                                                                                                                                                                                  ",
"                                                                                                                                                                                                                                  "
};
