/* XPM */
static char *SlimeBasic_00010[] = {
/* columns rows colors chars-per-pixel */
"113 77 108 2 ",
"   c None",
".  c #060C05",
"X  c #080F06",
"o  c #091207",
"O  c #0C1609",
"+  c #0E1B0A",
"@  c #111F0C",
"#  c #13230D",
"$  c #15290F",
"%  c #152710",
"&  c #162910",
"*  c #192E12",
"=  c #1B3314",
"-  c #1E3A16",
";  c #1F3818",
":  c #203E17",
">  c #223D19",
",  c #214217",
"<  c #24441A",
"1  c #264A1B",
"2  c #294B1E",
"3  c #2A531E",
"4  c #2B4E20",
"5  c #2D5321",
"6  c #2E5C21",
"7  c #325C25",
"8  c #336225",
"9  c #356926",
"0  c #366428",
"q  c #39662A",
"w  c #376828",
"e  c #3A6C2B",
"r  c #387127",
"t  c #3D732C",
"y  c #3E7D2A",
"u  c #40762F",
"i  c #407F2C",
"p  c #437C31",
"a  c #3F802B",
"s  c #42822D",
"d  c #448A2F",
"f  c #458432",
"g  c #498636",
"h  c #468B31",
"j  c #498C34",
"k  c #4B8738",
"l  c #4D8B39",
"z  c #508F3B",
"x  c #479031",
"c  c #4B9334",
"v  c #4E9B36",
"b  c #4E923A",
"n  c #4F9A38",
"m  c #509F37",
"M  c #51943C",
"N  c #529C3B",
"B  c #4FA036",
"V  c #50A137",
"C  c #53A33A",
"Z  c #55AB3C",
"A  c #58AD3E",
"S  c #57B13D",
"D  c #59B43E",
"F  c #5ABB3F",
"G  c #5CC03F",
"H  c #579E41",
"J  c #57A140",
"K  c #58A541",
"L  c #5AAB42",
"P  c #5CB442",
"I  c #5DBB42",
"U  c #60B746",
"Y  c #61BC46",
"T  c #63BF48",
"R  c #5EC241",
"E  c #5FCA41",
"W  c #62C445",
"Q  c #63CB45",
"!  c #65C449",
"~  c #68C74B",
"^  c #66CB48",
"/  c #69CC4C",
"(  c #65D346",
")  c #66DA47",
"_  c #67D448",
"`  c #6BD44C",
"'  c #66D948",
"]  c #6CDB4C",
"[  c #70DE4F",
"{  c #6FD750",
"}  c #6FDA50",
"|  c #70DC51",
" . c #66E147",
".. c #67E548",
"X. c #6CE44C",
"o. c #6CEB4B",
"O. c #70E34F",
"+. c #70EB4E",
"@. c #6CF24B",
"#. c #71F44E",
"$. c #73FC4F",
"%. c #6FE250",
"&. c #72E551",
"*. c #75EC53",
"=. c #76F253",
"-. c #78F456",
";. c #76FD52",
":. c #7AFD55",
/* pixels */
"                                                                                                                                                                                                                                  ",
"                                                                                                                                                                                                                                  ",
"                                                                                                                                                                                                                                  ",
"                                                                                                                                                                                                                                  ",
"                                                                                                                                                                                                                                  ",
"                                                                                                                                                                                                                                  ",
"                                                                                                                                                                                                                                  ",
"                                                                                                                                                                                                                                  ",
"                                                                                                                                                                                                                                  ",
"                                                                                                                                                                                                                                  ",
"                                                                                          # - , 3 8 9 9 t a d d h h a t 9 3 3 1 , = #                                                                                             ",
"                                                                                    - 9 c P ^ ] X.*.*.=.=.=.-.-.-.-.=.=.*.*.*.] ] ^ Y A f 7 -                                                                                     ",
"                                                                              + 3 c ^ *.*.-.*.=.*.*.=.=.=.=.-.*.-.-.-.-.;.-.-.-.:.:.-.-.-.*.~ c 5 @                                                                               ",
"                                                                          O 5 C } *.*.*.*.*.*.*.*.*.X.*.+.O.O.*.#.;.-.-.-.-.-.-.:.:.:.:.-.-.-.-.[ A 6 @                                                                           ",
"                                                                        * h ] *.*.*.*.X.*.*.X.X.] X.] ] ] ] ] ] O.+.#.#.$.$.;.-.;.:.;.-.-.-.:.-.-.*.[ c >                                                                         ",
"                                                                      5 I *.*.*.*.X.X.*.] ] ] ` ] _ _ _ _ _ _ _ ]  .X.+.#.$.$.$.;.;.;.;.;.-.:.:.-.*.*.*.~ 7 O                                                                     ",
"                                                                  O 9 ^ *.*.*.%.%.X.X. .' ' ( E Q Q Q E E E Q E Q _ )  . .o.@.o.#.#.#.$.$.$.$.;.:.:.=.*.+.{ i @                                                                   ",
"                                                                + p { *.*.%.%.X.] ' ' E E E E E R R I R G F I G R R G E Q Q Q Q E ) ) ) o.+.#.#.$.;.;.:.*.+.| l #                                                                 ",
"                                                              + h } | *.] ] ' ' _ ' E E R R G S F F F F F F F F F F F F G F G G F E E E E ` ) o.&.;.#.=.;.*.+.[ n &                                                               ",
"                                                            # h { *.*.] ] ] ) Q R R R S I P R S S S S S S F S S F S F F F F F G F F D F F F G Q ) ) +.+.*.;.*.&.| n &                                                             ",
"                                                          # j | | | ] ] ' Q E R R I F S S S S S S S S S S F S F D D S S S S F S D F D D F F F F F G ` ) +.;.;.*.*.` b $                                                           ",
"                                                        + j | | } ` ` ( E R R F S S S S Z Z Z Z Z S S S S S F S D D D F F S S F D D D F D D F D F I G E Q +.+.*.*.*.| b %                                                         ",
"                                                      O f [ | { ` _ Q W R F S S Z Z Z Z K Z Z S S S S S F F S F D D F S S F F S D F F D D D D D F F F G G ` o.+.+.*.*.` h +                                                       ",
"                                                    . t ` | [ ` Q Q G G F F S Z Z Z Z C B Z Z Z S S S S S S S S S S S S S S F S S F S D D D S D D D D F I G E ) X.O.O.*.` t O                                                     ",
"                                                    7 ` [ { ~ ^ Q R I F D D Z V J B C C Z Z Z S Z S S S Z S Z S S S S Z S S S S D D D D D D D D D D D D F I R Q ) X.+.O.O.^ 5                                                     ",
"                                                  , Y | { ` Q W R I D A A V C V B C B Z B Z Z K Z B Z Z V S V Z Z Z Z S Z Z Z Z Z D Z Z Z D A D S D A D D F F R Q ) O.O.O.[ Y >                                                   ",
"                                                % C | ] ` ^ W I I D D A C m V m C B C C Z B C B B B B B V V B V B V Z Z B S B S Z Z Z Z Z Z D D Z D D D D D P F G W ( ) O.[ { m #                                                 ",
"                                              . t { { ` ~ W R I D A Z V m m m m B B B C B B B B B v B B B B B B B B B V V V B B V V Z Z Z Z Z Z A Z A A A D D D F W Q _ [ [ [ ~ t                                                 ",
"                                              1 ~ } ` ~ Q R I D P C C m m m M v v B B v B Z B Z v B v v V V V B B B B B B B B V V C V C C Z Z A Z Z Z Z D A D D D F I Q ` ] [ { U 4                                               ",
"                                            % C | ] ~ ~ I I D D C m m m m c v v v v v v v a v a a B B a a B B B a v B B B B B B B B V C V C V C Z Z Z Z Z Z Z D D F F I W _ ` ` / m %                                             ",
"                                            t ` { ` ~ I I P D C C n v c c v v v v v v v a v B v v B v a V B B V B B V B a B B B v B B B V V C C V A Z Z Z Z Z Z S D P I I ~ ` ` ` ! 9                                             ",
"                                          , I { ` ~ I I D D Z m n n b m c c m c v c c v a v a B a a v B a B a a B a a B B B B a v c v c B B B V C C C V Z Z Z Z A Z D D I ~ ^ ^ { ~ L -                                           ",
"                                        + a ` { _ R I I P Z B Z v c c c c c v c x x x x x x x x x x x x x x x x x x x x x x x x c c v c v c v v v B V V C C C A A A A D I I ~ ~ ` ~ ~ p O                                         ",
"                                        1 Y { ` ^ R S S Z K B K c c c c c c c c x x x x x f x d d d d d x d a x d x d x x x x x d c x x x x c v v v V V C C L C C A A A D D I ~ ` ~ ~ Y ,                                         ",
"                                        a / { ` W P S Z Z v v a c c c c c c c h x x x x f x d d d d d s x d d d a d d d d d d d d d x d x x c c c v B B C C C C C A Z Z Z D D ~ ~ ` ~ ~ i                                         ",
"                                      ; L { | ^ I P P Z P a v J c j c c c x c h f x s f d d s s d s d s a d a d d a d a d d d d d d d d x d x x c c c v B C C C C C C C C Z L D ! ~ ~ ~ K -                                       ",
"                                      q ! ` ] ^ P Z Z B J a B a c j j c j d j d x f x x x m x d s s d a d a d a a d d a a a d d s d v v c c c j x j c c B B C C C C K m C C Z L Y W ~ ! ~ 8                                       ",
"                                    O H ^ ] ] I P P Z B B J a J j c c c c c v v m A P ^ ) ) Z d d s a a a a a a a a a d a d a a d d Z ) ] ^ I A C V B B v B B V m m m H C C C A U Y W ! ! j                                       ",
"                                    = L ^ X.' I S Z B B J a c a V D Y W Q ~ ] ] &.*.*.&._ A x s a a a a a a a a a a a a a a a d s s x Z _ &.+.+.&.[ ` ~ ~ ~ W I L m m m m m C C L U W ! ! K :                                     ",
"                                    5 I ^ X.E P S K v v a H a H A ~ [ | *.[ *.] _ W P V x x s a a a a a a a a a a a a a a a a a s i d d j C F Q ` [ &.&.&.&.[ ` D K v v v m m C A P ~ ! ! Y 5                                     ",
"                                    q ~ ` X.E P Z B v v c a H a c c m C m m M c j d d d s a a a y a a y y y y y a a a a y a a a a a a a s s s d x v m m C C C C m v v v N v v v H P W W T T u                                     ",
"                                    g T ' X.R L Z B v c a H a H j x h j h h d i d i i i s a y a a a y y y y y y y a a a y y y y y s a s a s s s f f f x j j c c v v v M c N M v K A Y ~ ~ T i                                     ",
"                                    j T X.o.I L J v c c c H a a j j f d d i i d d i i i y a y y y y y y y y y y y a a a y y y y a y y a s a s s d d d f j j j c c M M c v c c m H A P Q ~ ~ z                                     ",
"                                  * H I X...I L B H c c c a H a d h j f f d f i i d i i s y y y y y y y a a d x d d d a a y y y y y y i a s s s i d f d x j j j c v c M z c c v m K Y Q ~ T N                                     ",
"                                  * H Y o.X.I K C v c c j j h j h h h p h p f d i i s y y y y y y y y d m D ~ [ [ ] ~ D x d a y y y y y i i i s i d p f x f j j c M z v c c c z m K P { Q Y H =                                   ",
"                                  * H Y o. .I Z J c c j j j j j h h h h f f p i i i i s i y y y y a d D | *.*.*.*.*.*.*. .D x a y y y y i i s s p d d f f f x g j c c z c z c v m H D ) { Y C =                                   ",
"                                  = c P o...I K n v H c j a h h h h h p d i d d d i i t i y y y i x G +.*.*.*.*.*.*.*.*.*.+.G x s y y y i i i p i d s f f x x f j c c c z c c z v H P ] Q Y C ;                                   ",
"                                    H I o...I Z v H a c j j g j p h p h p d i p i i i i i y y y x D +.*.*.*.*.*.*.*.*.*.*.*.+.D d i y i i i i i i i d f f f f z j c M c c c j z N H P ) W Y m                                     ",
"                                    j U ] @.R L n b c x j j j h h h g h s s s s s i i i i y y s c _ *.*.*.*.*.*.*.*.*.*.*.*.*.` x s s y y s i s s i d i p h h f j j c b j j j j n J P ' ~ U j                                     ",
"                                    t U ' @.E Z n n b j h g f j g s g s g s g s s i i y y y y i m { *.*.*.*.[ ] ] ] [ *.*.*.*.[ v s y i y i i s d i f f h h p k j j c j j H c j n n P _ U U f                                     ",
"                                    7 P ^ @._ L n n c x j j h g g s g s s s s i i i i i i y y i x ~ +.| ` D m d h d m A / *.*.W x s y i i i s i i f d i f h h h j j g j j j j H H H P Q Y Y e                                     ",
"                                    1 L R @. .P J n b j j j j h g h s g s g g i i s i i i y y y d x m m d s y y y y i h d B B d s y i y i i i s f i f f f p k k j j H j j c j j b H P ~ Y L 4                                     ",
"                                    * b Y  .@.G J n b x h j g f g g s g s g s s s i i i i i i y y y y y y y y y r y y y y y y y y i i i i i i d i f i f h h h p j j j j j j b H n J I I P H *                                     ",
"                                      p P Q @.Q J n b j j j j h s h h s s g s s s i s i i i i i y y y y y y r y y y y y y y y y y i y i i i i p i d d f h p h k j j j j j j j H H J P P U p                                       ",
"                                      5 K Y  .) P n b b j j j g h g g s s s s i s s i i i i i i y y y y r y y y y y y y y y y y i t i i i i i i p i p f p p h p h j j j g j j H H K P P K 5                                       ",
"                                      & b P _  .R J H b b j j f g s g g g s g g i i s i i i i i y y y y y y y y y y y y y y y y i i i i d p d i f d f f h h h h k k j j g g H H J L L L H *                                       ",
"                                        u K Y _ Q A N z z z j j s h j p j i i p g i i i i i i i i y y y y y y y y y y y y y y y t d t t d i d p f f f f g f f g f j k j j j H H H J L L q                                         ",
"                                        * z L W Q I H N z z k k j g i j i j i j i g i i g i i i y i y y y y y y r y y y y y y y i i d d i i i p f f f h f f h j h k j j H k j H H H K j =                                         ",
"                                          7 K U W G A N z c z k j j j j k i j i i i i i i i i i i i i y y y i y y y y y y i y y t a i i d d p d a f f f h f g g k j k j k k H H H H H 7                                           ",
"                                          # p K P G A H m z z k k k k p k j k p g i g i i i i i i i i y i y i i y y y y i y y y d p i d i i d p f f f f f j g k h k j j H H k H H H p %                                           ",
"                                            ; l L L A K N z k z k k k k k j p k i k i k k i i i i i i i i i i i i i i i i i i i t d i t y f p g f f f f k k k p k k H p k H k H H p =                                             ",
"                                              > g L K K N m z k z z k k k k k k g k k i p i k i i i i i i i i i i i i i i i i i d a f d f f f p f g g j k k H p k k k H j H k H p >                                               ",
"                                                ; p K H m z z z z k z k k k j p p k k i k g k i k p i i i i i i i i i i i i i i t f f p f f p p H p j k k k k k H k H k H k H q =                                                 ",
"                                                  & q v H m z z z z k z k k k k k k k k k i i k p p p p p p i i i i i p i i i i f p f g f g H p p p H j k p H p H k p H k H 7 @                                                   ",
"                                                    + 4 p H j H k k j p k k k k k k g g f g p g p f f p f f f p p f p p f i p h p p p k k p k k k j z k z z k z z H k k e > +                                                     ",
"                                                        @ 4 q p H H H H k H k H k j k k k g k f p g p f f p p f p p f f f f h p k k k h h k k z k k k z z j z z k u 7 > @                                                         ",
"                                                            o & > 4 7 7 7 q e e t t p p p g p g k f k f h f k f f h f f f p k h k h k k p p p u u u q 7 7 5 4 , = @ .                                                             ",
"                                                                            + + @ % % % * = > 4 4 7 0 e e u p p p p p p u u e q 7 4 < > > * & & @ @                                                                               ",
"                                                                                                      + @ & * * * * * * % % +                                                                                                     ",
"                                                                                                                                                                                                                                  ",
"                                                                                                                                                                                                                                  ",
"                                                                                                                                                                                                                                  ",
"                                                                                                                                                                                                                                  ",
"                                                                                                                                                                                                                                  ",
"                                                                                                                                                                                                                                  ",
"                                                                                                                                                                                                                                  ",
"                                                                                                                                                                                                                                  "
};
