/* XPM */
static char *SlimeBasic_00006[] = {
/* columns rows colors chars-per-pixel */
"113 77 103 2 ",
"   c None",
".  c #070C05",
"X  c #080F06",
"o  c #091107",
"O  c #0C1609",
"+  c #0E1A0A",
"@  c #101E0C",
"#  c #13240E",
"$  c #15290F",
"%  c #152710",
"&  c #172B11",
"*  c #192E12",
"=  c #1B3414",
"-  c #1F3B16",
";  c #203E17",
":  c #213E18",
">  c #24431A",
",  c #274A1C",
"<  c #294A1E",
"1  c #2A521E",
"2  c #2B4C20",
"3  c #2D5221",
"4  c #2E5B21",
"5  c #325B25",
"6  c #346425",
"7  c #376E27",
"8  c #366129",
"9  c #38652A",
"0  c #376928",
"q  c #3A6C2A",
"w  c #3D732D",
"e  c #3E7D2A",
"r  c #40772F",
"t  c #407F2C",
"y  c #427731",
"u  c #447C32",
"i  c #3F802B",
"p  c #42822D",
"a  c #448A2F",
"s  c #458432",
"d  c #498636",
"f  c #478B31",
"g  c #498B34",
"h  c #4B8738",
"j  c #4D8B39",
"k  c #479031",
"l  c #4B9334",
"z  c #4D9B36",
"x  c #4E923A",
"c  c #4F9B38",
"v  c #509F37",
"b  c #51943C",
"n  c #529D3B",
"m  c #4FA037",
"M  c #50A137",
"N  c #53A33A",
"B  c #55AB3C",
"V  c #58AC3E",
"C  c #57B13D",
"Z  c #59B43E",
"A  c #5ABA3F",
"S  c #5CC23F",
"D  c #569F40",
"F  c #57A240",
"G  c #59A641",
"H  c #5AAC42",
"J  c #5CB442",
"K  c #5DBB42",
"L  c #60B646",
"P  c #61BC46",
"I  c #63BF48",
"U  c #5EC341",
"Y  c #5FC841",
"T  c #62C445",
"R  c #63CB45",
"E  c #65C349",
"W  c #68C64B",
"Q  c #66CC48",
"!  c #69CC4B",
"~  c #64D246",
"^  c #66DA46",
"/  c #67D448",
"(  c #6BD44C",
")  c #67DB48",
"_  c #6CDB4C",
"`  c #70DF4F",
"'  c #6FD950",
"]  c #71DC51",
"[  c #66E347",
"{  c #67E548",
"}  c #6CE44C",
"|  c #6CEA4C",
" . c #70E44F",
".. c #71EB4F",
"X. c #6CF24B",
"o. c #71F44E",
"O. c #73FB4F",
"+. c #72E451",
"@. c #75EC54",
"#. c #76F353",
"$. c #79F556",
"%. c #76FD51",
"&. c #79FD55",
/* pixels */
"                                                                                                                                                                                                                                  ",
"                                                                                                                                                                                                                                  ",
"                                                                                                                                                                                                                                  ",
"                                                                                                                                                                                                                                  ",
"                                                                                                                                                                                                                                  ",
"                                                                                                                                                                                                                                  ",
"                                                                                                                                                                                                                                  ",
"                                                                                                                                                                                                                                  ",
"                                                                                                                                                                                                                                  ",
"                                                                                                                                                                                                                                  ",
"                                                                                                  $ = > 4 7 e l c V C Z C V V z k t 6 , *                                                                                         ",
"                                                                                    $ , 6 e f c V U ! ' @.#.$.$.$.$.$.$.&.$.$.#.$.#.@.` P l 4 $                                                                                   ",
"                                                                            O - 7 c T ' @.@.$.$.$.#.$.#.#.@.#.#.#.#.#.&.&.&.&.&.&.&.&.&.$.$. .T u ;                                                                               ",
"                                                                        + 4 M ! @.@.#.@.#.@.@.@.@.@.@.@.@...+...#.#.#.&.&.&.&.&.&.&.&.&.$.$.$.$.@.Q p *                                                                           ",
"                                                                    o 3 V ' @.@.@.@.@.@.@.@.+.| +.} } _ _ _ _ _ } | | o.X.&.O.O.%.%.%.%.$.&.&.$.$.$.@.P 5 O                                                                       ",
"                                                                  = l ( @.+.@.@.+.+.} } } _ _ _ _ ) _ / / / / / ) _ } } | X.X.O.O.O.%.%.%.%.%.$.$.$.@.@.] b :                                                                     ",
"                                                                < P +.+.@.+.+.} } } } _ ) ) ) R ! ~ ~ R S Y R Y ~ ~ R ^ ^ [ ^ [ [ [ ..o.o.O.%.%.%.%.%.#...@.L 3                                                                   ",
"                                                            X 0 ! @.+.+.+.} _ } _ _ ~ ~ ~ R Y S U U U U S S S S S S S S S S S U Y Y Y ^ ^ [ ..o.%.%.%.%.&...@.Q q O                                                               ",
"                                                          + w ( +.+.} _ _ _ ) ^ ~ R Y Y U U A S A A A A Z S A A A A A A A A S A A A A A S S ^ ^  .....%.#.#...@._ s #                                                             ",
"                                                        + p ( +.+.] _ _ _ ~ ~ Y Y S S A A A A A A A C C Z C Z C C A C A A A C A A A A A K K K S Y ^ +...#.#.#...+.' g *                                                           ",
"                                                      @ s ' ` ` ` _ ~ ~ Y S S S S A A A C C C C C C C C C C C A Z Z C C C C A C A C A A A A A A S S Y ^ ....o.#.@. .` n *                                                         ",
"                                                    @ s ' ` ' ' ( R R T S S S A C C C C C B C C C C C C C A A C Z C A A C A C A C A C A C C A A A K S S R  ...#.@.@.+.] J :                                                       ",
"                                                  o r ' ' ' ( ~ Q R S S A A C C C V V V B B C M C C C A A A C A Z Z A C C A A C A C C A C A C C Z A A K S Y ^  ...@.@.+.] L <                                                     ",
"                                                  6 ! ` ' ! Q Q S S K A C C B V B m V m B B C C V C C C C C C C Z C C C C C C C C C A C A C A C Z Z Z A K S S ^ } ...... .' L :                                                   ",
"                                                , E ] _ ( R T S S K Z Z V B N N C M M M C M C B C B C B C C C C C C C C C Z C C C C C C Z Z C C Z Z Z Z Z A A T ~ ^  ... . .` V =                                                 ",
"                                              = V ] ' ( Q T P A A Z B N N N N N M M M C M C B C B B B B B m B B M M M C M M C M B B B B B C C C Z Z Z Z Z A A K S R ^  . . .` ' n #                                               ",
"                                            O g ' ' ( W T S A Z V B B N N v v N M M M B C M C M m m m B m m m m M M M C M M M M B B B B B B B C B Z Z V Z Z Z A A T R ^ `  .` ` ! u O                                             ",
"                                            6 ! ' ( ! T T K Z Z B N N v z v z z M M M m m M m m m m z m m m m m M M M M M C M M M M M B B B B B B B Z B V Z Z Z A A K S Q ^ _ ` ' I r .                                           ",
"                                          = J ] ' ! T K A A Z N n n v v z z z v m m m z m m z m z z z z z z z m z z m M M m m m M M M M M B N B B B B V Z B Z Z Z A K K S ~ ` ` ' ! L >                                           ",
"                                        + f ' ] ! E P K Z Z N N v z z z z z v z z m z z z m k z z z z z z z z z z z z m m m m m z M M M M M N N B B B B B B B V Z Z Z K K S Q ~ ' ' ! N *                                         ",
"                                        4 ! ' ( ! P A Z V V N v v l v l l v z z m m m m k i z k z k k k z z z m z i m k z m i M z z z v M M M N N N M V B B B Z B B Z A K K E Q ! ' ! W y O                                       ",
"                                      * V ( ( ! T J Z Z V N z z z z l l z l z l m i z i z z k k k z k k z i z i z z k m i k k z l z l l z z v M M N M B N B B B B B V Z A K K E ! ' ! ! L 2                                       ",
"                                      q ! ( ( W J J Z G G m c c g l l l z z l l k k g k k k k k k k k k k k k k k k k k k k k k k k l k l z z z z z M N N N N V V B B V Z J K K E W ! ! W n @                                     ",
"                                    - J ' _ ! U J Z C B m D i D l l l l l l l k k k k k k k a k k k k p a k a a a a a k a a a k a k k k k k k l z z v M N N N V V N B V V Z J K T R ! ! W E 5                                     ",
"                                    q ! ( ( Y K Z Z G m z i c i g l l l l g k k k k k k s k k k a a p a k a a k a a i a a a a a a a a a a k l l l l z z v N N N N B B V B B C C L T W W W W n @                                   ",
"                                  * F ( _ ( U J B B m m m m m i l l l g k k k k s k s k k k k s p a a p i a i i i a a i i a i a a k k l k k k k l l l z v v N N N N N N B N B B J L R R W W L 2                                   ",
"                                  4 E ! _ ! K H B M M z i c i D l k g l k g k k g g v N A R B a a p i i a i i a a i i i i a a i a a B ~ K B z z l l l z z z v N n N M M N N N N V L T T W W W u                                   ",
"                                + h ! ( _ U J H B M M i D i D i l l l l l v v N A E ~ +.@.} M a a p a i i i i i i a i a i i i i p a M _ @. .( E A B N M v v v v N M M v N M M N N G J L W W W M *                                 ",
"                                = F ! _ ^ U C C G m m c i D i D v V P T ! ( ` ` @.@.@.@.~ V k a i p i i i i i i i i i i i i i i p p k B ~ @.#.@.@.+.` ( ! W T K V n v n n M M M M G Z T T I W L 2                                 ",
"                                3 K ! } ~ J C G m m m i D i c i A  .@.@.@.@.@.@.@.` ~ Z v k p i i i i i i i i i i i i i i i i i p t p s v A ~ } +.@.@.@.@.@.@.+.T N n n n n z z M M G L T T W I q                                 ",
"                                7 E ~ } Y J G M m c i c i D i D z J P Q ~ ! T K V N k k p p i i i i i e e e e e i i e i e e i e i i p p p a k M Z K E Q ! W E A N n z v z b z b v b V J T T W W u                                 ",
"                                s E _ } Q J G M m D D i D i D i g g g z l g g k a p p p p i i i i e e e e e e e i i e e e i i e e i e i i p p p s k k l z z z z n v l l z b z z v v n H T T T I x %                               ",
"                              * x K +.| Y H B m l i D i i i x i k g s k p k p p p p p t i e e e e e e e e e e e i e e e 7 e e e e e e e i i p p s p s k k s g g l l n l b l v b v v n J T R W E n =                               ",
"                              = D K } | U G M m c D i j i D i D s s s p s s p p p i p t e e e e e e e e e e e t i i e e i e e e e e e e i p t p p a s s s k k k h l n l l l l l l b b V K ( T I G :                               ",
"                              : F K } X.U G M m l l j l l i j i s k p s p p p p p e e e p e e e e e e i a z N Z J Z N z i i i i e e e e t t t p p p s p s k s k g l b l b l l l l n n G T ( Q T G >                               ",
"                              > F K } | U D M c l l i l j j f j s s k s p s p p p e p e e e e e e i a M W +.@.@...@.@.+.Y M a i e e e e t t t t p p p s s s k s g g l l b l b l l l b H Z _ Q L H :                               ",
"                              : F K | { U G M c l l l l i l i l s s p p s s p p p t e t e e e e i k A  .@.@.@.@.@.@.@.@... .A a p e e e t t t p p p p s s k s k g g l l l l b l l b b n T ^ R T F -                               ",
"                              = D P } X.Y G c c l l j i j j j i s g s s p p p p t t t e e e e p k Z  ...@.@.@.@.@.@.@.@...o.| A a t e e t e t t p p p s s s s s g g g l b l l h j l n F J ( T T n =                               ",
"                              * D J } X.Y H c c l l j j i l j j k p d p p p p e t p t t e e e e z / @.@.@.@.@.@.@.@.@.@.@.@.@.( z p t t e t t p p p p p s s s s s g g l x x x k x x c D K ^ E L x #                               ",
"                                h L ) X.~ H c c l l l i j l i j d d p p p d t d t t e e e e e d z / @.@. ._ R K Z K T ( @.@.@.( k p t t e t t t t p p p s k s k g g g x l f x j j x n D K ! P L u                                 ",
"                                w J ! X.^ J M c l l j j j i i j d p p d d p p t p t e t e e e e a M T T M k i e t t a k N T T M p t e e t t t t p p p s s s s s s g g l g l k l l x x F K E L L 6                                 ",
"                                5 H U X.[ J D c D l l i i j j i p d p d p p p p t t t t e e e e t e t e e e e e e e e e t i i t e e t e e t t p p p p s s s s s s g g l h g j k x x D F K U L H <                                 ",
"                                : F K [ X.T G n j l j j i j j j k p p d p p p t p t t t e t e e e e e e e 7 e e e 7 e t t e e e t t t t t t t t p p s s s s s k s s g g x f h j l x D F P J L b &                                 ",
"                                % h J ! X.~ H n l j l i l i i j d d d p p d d e t p t t t e e e e e e e e e e 7 e e e 7 t e e e t t e t t t p p t s p p p s s s g g g g f f l j h D D H L L H w                                   ",
"                                  0 H K [ [ A n D l D j j l j i p d p p p p d t d t t t e t e e e e e e e e e e e e e e e e e e t t t t t t p p u p s s s s s s s g g g f j j h x x n H L H G >                                   ",
"                                  = n J R [ R V D l h h j i i j k d p d d p t p e p t t t t t t e e e e e e e e e e e e e e e e t t t t t t u t p s p s s s k s s s g g j f j x x D F F H H u @                                   ",
"                                  O y G L ~ ~ A n b b b l h d h d d d p d a t t e e d e e d t e e e e r e e e e e e e e e e e e t t t t t p p p p s s s s s s g g s s j g g j b b D D G H D 2                                     ",
"                                    : b J I Q S V b b l b h h h d p p d p p t d d t e e e e t e e e e e e e e e e e e e e e e e t t t p p t t s s s s s g s s s s g g s g j g b b D n G G y @                                     ",
"                                    X 8 G J K E K n b b h h b h k d d d d e d e d e e d e e t t e e e e e e t e e e e e e e t t t t p u u p p t p s s s s s g s g g s g g j j b b D D D j :                                       ",
"                                      % y G J A K V n b h b h h h h d d d d d d t d t t p t t t t t t e t e t t e e e t e e t t t t p t p s s s s s s s g s s s s j j g h j b b b b D D 5                                         ",
"                                        * u G H V V n b b h h h h h h h d d d d d d t t t d t t t t t e t t t t t t t t e t t t t t s t t p u s p s s s u h h h D u D u j j b b b D b 5 +                                         ",
"                                          * y D V D n b b h b h h h h h d d d d u h d t t t t t t t t t t t t t t t t t e e t t p t t s s s s s s s s s h h h h u h u D j b b b b b 9 @                                           ",
"                                            % 8 b D D n b b b h b h h h h d d d d t h u h t u h u t u t t t t t t t t t t t t t u s s u s s s h s h h h h h h h D u D u h D j D h 5 @                                             ",
"                                              + : y b n b b b b b h l h h d d d d d h h u h t h u t t u t u t t t t t t t d t t s u s s s s s h j s h j h h h h u D u D h h D u < O                                               ",
"                                                  @ 2 0 h D h D h D h b h h h h h g s h h u s s s u u s u s u s u s s u p s s u h s h s h s h h h h h j j j h j j h D h D u 9 =                                                   ",
"                                                      O % 2 8 q h h h h b x h h h h h s h u h u h s h s s u u s s u u s s s s s s h s h h h h h j j j j j j j h b b D u 9 : o                                                     ",
"                                                            . + & = 2 3 5 9 w u s h h h h s h s s s u s u s s s u s s s s s h u u u u u y u u u u u u u u u u u r r < % o                                                         ",
"                                                                            @ % * : > 3 5 0 q w y y u u u u u u y r q 9 5 2 < : : * % % # % % % % * * * * % % @ X o                                                               ",
"                                                                                            O @ % * * * * * * * % # O                                                                                                             ",
"                                                                                                                                                                                                                                  ",
"                                                                                                                                                                                                                                  ",
"                                                                                                                                                                                                                                  ",
"                                                                                                                                                                                                                                  ",
"                                                                                                                                                                                                                                  ",
"                                                                                                                                                                                                                                  ",
"                                                                                                                                                                                                                                  ",
"                                                                                                                                                                                                                                  "
};
