/* XPM */
static char *SlimeBasic_00024[] = {
/* columns rows colors chars-per-pixel */
"113 77 106 2 ",
"   c None",
".  c #060B04",
"X  c #080E06",
"o  c #091207",
"O  c #0C1508",
"+  c #0E1B0A",
"@  c #111E0C",
"#  c #13230E",
"$  c #152A0F",
"%  c #152710",
"&  c #172A11",
"*  c #192E12",
"=  c #1B3313",
"-  c #1F3B16",
";  c #203B17",
":  c #213C18",
">  c #214217",
",  c #23431A",
"<  c #264A1C",
"1  c #294E1E",
"2  c #2A541E",
"3  c #2B4E20",
"4  c #2D5421",
"5  c #2F5B22",
"6  c #315C24",
"7  c #346325",
"8  c #376E27",
"9  c #366328",
"0  c #39662A",
"q  c #3A6C2B",
"w  c #3D742C",
"e  c #3E7D2A",
"r  c #40762F",
"t  c #407F2C",
"y  c #407530",
"u  c #447C32",
"i  c #3F802B",
"p  c #42822D",
"a  c #448A2F",
"s  c #458432",
"d  c #498636",
"f  c #468B31",
"g  c #498C34",
"h  c #4B8738",
"j  c #4D8B39",
"k  c #508F3C",
"l  c #479031",
"z  c #4B9335",
"x  c #4E9B36",
"c  c #4E933A",
"v  c #4F9A38",
"b  c #509E37",
"n  c #51943C",
"m  c #529C3B",
"M  c #4FA037",
"N  c #4FA038",
"B  c #50A137",
"V  c #53A33A",
"C  c #55AB3C",
"Z  c #58AD3F",
"A  c #57B13D",
"S  c #59B43E",
"D  c #5BBB3F",
"F  c #5CC13F",
"G  c #559B40",
"H  c #57A340",
"J  c #59A541",
"K  c #5AAC42",
"L  c #5DB442",
"P  c #5DBB42",
"I  c #60B646",
"U  c #61BC46",
"Y  c #63BE48",
"T  c #5EC341",
"R  c #5FC941",
"E  c #62C345",
"W  c #63CB45",
"Q  c #65C449",
"!  c #68C74B",
"~  c #66CB49",
"^  c #69CC4B",
"/  c #64D346",
"(  c #66DD47",
")  c #68D947",
"_  c #67D348",
"`  c #6BD44C",
"'  c #67DB49",
"]  c #6CDC4C",
"[  c #70DF4F",
"{  c #6FD950",
"}  c #71DC51",
"|  c #67E347",
" . c #6DE34C",
".. c #6CEC4C",
"X. c #70E44F",
"o. c #71EC4E",
"O. c #6DF44B",
"+. c #6DF84C",
"@. c #70F44E",
"#. c #72FB4F",
"$. c #72E451",
"%. c #75EC53",
"&. c #76F353",
"*. c #79F556",
"=. c #76FD51",
"-. c #79FD55",
/* pixels */
"                                                                                                                                                                                                                                  ",
"                                                                                                                                                                                                                                  ",
"                                                                                                                                                                                                                                  ",
"                                                                                                                                                                                                                                  ",
"                                                                                                                                                                                                                                  ",
"                                                                                                                                                                                                                                  ",
"                                                                                                                                                                                                                                  ",
"                                                                                                                                                                                                                                  ",
"                                                                                                                                                                                                                                  ",
"                                                                                                    # > 7 i v N V N l e 2 =                                                                                                       ",
"                                                                                              = 5 l P ` %.&.*.*.-.*.*.*.$.~ C e 2 $                                                                                               ",
"                                                                                        = 7 v ~ %.*.*.*.&.&.%.&.&.&.*.*.&.*.*.&.] D j 4 $                                                                                         ",
"                                                                                  + 1 l ~ %.&.&.&.&.%.%.%. .$.o.o.&.-.-.-.-.-.-.-.-.*.%.Y t , +                                                                                   ",
"                                                                              = 8 C { &.&.%.%.%.$. . .] ] ] ] ]  .....@.-.-.-.-.-.-.-.*.*.&.{ Z r =                                                                               ",
"                                                                        o > f ~ %.%.%.%.%.%.X. . .] ] _ _ _ _ / ` ]  ...O.#.+.-.=.=.-.-.-.*.*.*.%.! z , +                                                                         ",
"                                                                    o < c ` %.%.%.%.%.$.X. .] ] _ _ _ ~ W W W R W / ) ]  ...+.+.=.=.=.-.-.-.-.*.&.&.&.[ V 4 #                                                                     ",
"                                                                . > c ` %.%.%.$.%.X. . .] ) / / W R T T F D F D F F F F F | | | o.#.#.#.#.#.-.-.-.-.%.%.%.X.C 3 o                                                                 ",
"                                                              $ t ^ %.$.$.$.X.X. . .] ] / / R F T D D P D D D D S D S F F F F F / ) | o.#.#.#.=.=.-.=.-.%.$.X.` j ;                                                               ",
"                                                          . < K } $.$.$.$.X. . .] ) / W R T F D D D A D D A A A S S S F S F F F F P F W ) o.#.#.#.-.=.-.-.@.%.$.X.I 6 o                                                           ",
"                                                        + w ~ $.$.$.X.$.] ] ) ) / W R F D D D A A A A A A A D D S S S S S S S F S F F F F W W ) X.o.o.-.-.&.&.%.$.X.^ p %                                                         ",
"                                                      = c { } [ } [ ] ` ) / / W F F D D D A A A A A A A D A D A S S S S S S S S A S F F D F F F R / X.o.o.@.@.%.&.$.} } m ;                                                       ",
"                                                    ; Z } } } [ [ ` ` / / W F F F D D S A A A C C A A A A D A D A A S A S S S F F A A A A D P D P F W / ) X.@.@.o.&.%.$.{ I :                                                     ",
"                                                  ; L } [ { ` ` _ / W R F F D D S A C C C C C A A A A A A A A A A A A A S S S S F A A D D A S P D F F F R / ) X.o.o.o.$.$.[ I :                                                   ",
"                                                = Z } [ { ^ _ W R E R D D D A A A C C C V C C C A A A C A A C C A A A A A A S S A A D A D A A S A D A F F F W / ) X.X.o.$.[ [ V ;                                                 ",
"                                              # v } } ` ^ ~ W E R P D D S Z C V C C V V C C C A A A C C A A M A B B A B A A A A A A A D A D S A S S S D D D F E W ) |  . .X.X.{ m @                                               ",
"                                            o e ` } ` ^ W E E P P S S S Z C V V N C N C V C C C M M M M M M M M B B A B B A M A C A A A S A S S S S S S S D D D R R ! _  .X.[ [ ^ r o                                             ",
"                                            4 ^ } ` ` ! E E P D S S Z Z C B V V N V N C C C N B M C M M M M M M B B B B B M M A B C C C C A S S S C C S S S I D S P R R _ ) [ [ { Y 4                                             ",
"                                          = K } ` ` ! Y T P S S S C B B B B B B N N N C N N N N M x x x M x M M B M M B B M M M C B C C C C C A C S S S C S S S S P P R W ! [ _ { ^ K =                                           ",
"                                        O s ` { ` ! Y D D S S Z V B N v b b v b N N N N M M M M x M x x M M M M M M M M M M M M B C B B C C C C C S C S S C S S S S D P R E ! ) ` { ^ u +                                         ",
"                                        2 ~ } ` ~ Y P P S S C V V N v v b v v v M M N v x x x M i M M i i M i M M i M M M M M M x B B C B C C C C C C C C C C C C S S D L P W ! ^ ` ^ Y 3                                         ",
"                                      $ V ` ` ^ ! P L S S C V b B v v x x v v v x x x x x i x i i x x i i M i M i M M i M M i M x x B B x C V V C C C C C C C C C S L S S P R E ^ ` ^ ^ n #                                       ",
"                                      7 ^ ` ` ^ P S S A C V b v v v v z x x v v x x x l x x M i M M i x M i M i M i M i i M i M x x x x x x V V V V C V C C C C C C C C S S P U ! ^ ^ ^ Y 6                                       ",
"                                    & H ` ` _ P L A K C N N N H z c z z x x z x z z l l l l l l l l a a a a a a a a a a a a x a z z z z x M M M B M C C V J C C C C C J Z Z S P Y ! W ^ ^ V %                                     ",
"                                    6 ^ ` ` ~ P S A A H N N x i z z z z z x z z z z l l l l l a a a a a a a a a a a a a a a a a l l l z z z z M M M M M V V C C b C C C C Z Z S P Y W ^ ! Q 6                                     ",
"                                  @ v ^ { ` T P A A N N x z G N z z z z x z z l l l a g a a a a p a a a a i a a a a a a a a a a a l a l l z z z x x x M V V V V V b J C C C C C Z Y ! ! ! ! k #                                   ",
"                                  < P ^ { ^ P K C C N x x z i G z z z z z a z l l g a z z l l a p a p a a i i i i i i i i a a a a a z z z z l l l l x x b V V V V C C b b B B C C P P ! ! ! K :                                   ",
"                                  w ! _  .! A A C N N x z i G i z z z z z z a z z z x V P R C a a i i i a i i i i i i i a a i a a a C W L C b b x x x x x x x b V V b b b b b C V K L Y ! ! Q q                                   ",
"                                # c ! ] ] P A C N N v l z z i G z z z z z x B V L E _  .%.) C a a i i i i i i i i i i i i i i i a a C ) %.$._ R D C V V b V C b B V V m b b m m V C K Y U ! ! l @                                 ",
"                                - K ~  ._ P C C N v x l i x i z m Z I E ! ^ ) X.%.%.%.%._ C a a i i i i i i i i i i i i i i i i i p g C _ &.&.%.%.$.[ _ ^ ! E P C m m x m x x m b V Z L Q Q ! Z ;                                 ",
"                                5 P ~  ._ L C C v v z z G i G x L [ %.&.&.&.&.&.%. .! D x g p i i i i i i i i i i i i i i i i i p p p g b L ! | $.%.%.%.%.%.%.$.L V x m x m x x B b Z S Q Q ! U 4                                 ",
"                                q Y ^ O.R K K C x x z i G i i G b L P ! ! ! R D C B z a p p i i e e e e e e e e i i e e e e i e i i i p p a x M C P W ! _ ^ E P C m x z x x x x x V V L E Q Q U q                                 ",
"                                s Y ) o.R K C N x z i G i z z i g g z z z g z g a p p p i p i i e e e e e e e e e e e e e e i e e i i i p p p a g g z g z z x z z x z m n x g n x n V Z Q W E U s                                 ",
"                                j Y ) ..R K N v x z z z G i i G d a g a a u a p p p p p i i e e e e e e e e t e e e e e e e e e e i e p i p p p p a a a g g g g z z m z x g x n x n G Z Q / ! ! j                                 ",
"                              & c P  ...T K N v G i G i i G G i a a a a a a p p p p p p e e e e e e e e e e t t i i e e e e e e e e e e p i i p p p a a g g g g d z x k k x g g g k V H P ) E Y c &                               ",
"                              = G P | ..T H N v z z G j j f z i d a d u a u t u p i e p e e e e e e e e f x C L D D C x i i i i e e e e t t p p p p g p a a h g d z x k z n g x n x V H U ) W Y b =                               ",
"                              * G L  ...R K N v z z i j i f j j d a a a p a a p p i p e e e e e e e i B ^ $.$.%.%.%.$.X.R B i i e e e t t t t t p p p p d a a h d z z k n l x n l n n H U ) ! Y b =                               ",
"                              & z L | O.R K N v z z i j z j f f a d a u a a t p t t t t e e e e p l F X.%.%.%.%.%.%.%.%.%.X.D a p e e e t t t p p p p g a d d a s d z k z k l g k n V Z E ) W U G &                               ",
"                                G I ( O./ K H v z z z j z i j i d a u a u p u t p e e t e e e p a S X.@.%.%.%.%.%.%.%.%.%.@.o.D a t e e t e t p p p p p u a a h s z z z g x k l l n n V P ) ! U n                                 ",
"                                s L ~ +._ K N v z z j j j i z j s l s s p p s p t t t e e e e p x ^ %.%.%.%.%.%.%.%.%.%.%.%.%.` z p e e t t t p t p p p a u d a g g a c c j j c j j G b Y _ I Y d                                 ",
"                                0 L ~ O.| L H v z z z i z i j i s s s s s s t t t t t t t e e t x ) %.%.%.) W P P P ! ) %.%.%.` x p t e p e e p p p p p a u a d p a j z l c l f c G b H T W I Y w                                 ",
"                                4 K P ..O.T H v c z j j j j f j s s s p p p p p t t t e e e e t p C Q Q C z i e t e a z C E ! V p t e e e t t t t p p a d a d a g g c j j l l c c c G J E E I K 5                                 ",
"                                - G L ) O.R H v v z z i i j s i l s s p s s t t t t t t e t e e e e p i e e e e e e e e e i i i e e e t e t p t p u t a a u a d p g a j f j j j c c b J Y L I J :                                 ",
"                                + s L ! O.) S m G z j j f f i j s s s s p s t s p p t t e t e e e e e e e e e 8 e e e e e e e e e e e e t t p u t a t u a a a u j g g g f j j f c n H K Y L I h @                                 ",
"                                  6 K I ) | Y V c G z i i j j j s s s p s p p t t t t t t e e e e e e e e e e e e e e e e e e e e e t t t t t t t u a u a u d a p j g g j f f c c G b K K I K 6                                   ",
"                                  & c K W | / C G c z j j z j i s l s s s p t s p t t t e t e e e e e e e e e e e e e e e e e e t t t t t p t p a a u a d a u a a d a a f j j c n G G K I K n =                                   ",
"                                    7 K D W ) P v G G j j i i j s s s s s p s t p t t t t t t t e e e e e e e e e e e e e e e e t t t t t t p t t u a u u a d d d a j d j f j c G G H J K J 0                                     ",
"                                    = k K Y W R Z V n k k g s s h p p s p s p p t p t e t t t e t w e e t t t e e e e e e e e e t t t t t t t p p p p d p d a p d a a d j g j z G G G J J k &                                     ",
"                                      3 G Z U E P V n k k h k h h s h s s p p s t s u p t t t t t t t e t t t e e 8 e e e e t t t t t t t p p t s s p p d a d j d d j d j j n n G b m J G 3                                       ",
"                                      @ 9 m K I P V n n k s h h h p h p s s s p t t t p p t t t t e e t t t t e e e e e e e e t t t t t s u p p p s p s p d j p j d j a d k k n n G G G 6 +                                       ",
"                                        @ y G Z Z Z V n k k k h g h s s s s t s s t s t t t t t t t t e t e e t e e e e t t t t t p t t t p p d s s d p d a p g a d g j k k n n n G n 0 @                                         ",
"                                          # 0 G Z Z m m k h k h h h h h s s u p s u p p t p p e t t t t e e t t t t t t t t t t t p t t t s p s t s s s d d d p k h h h k z k k n n 6 @                                           ",
"                                            + 6 k H m m m g h k h h h h h h s h s s s u s p u u t t t t a e t t t t t t t t t t t p p s p t s p s s s d d d j j h h k k k k n n d 3 O                                             ",
"                                              @ : u G m n k k h h h h h h h h h d u u s s u s s u s t u u u t t t t a t t t t t t u t p s s p s s p s d h h h k h k k k k k k y : o                                               ",
"                                                  * 9 k m n k k k k h h h h h s s h h s s s u s s u u u s s u s u u u u t a u u s t s s u s s d d d d j h h h h h k k k k h 4 @                                                   ",
"                                                    O : y j G j j j j j h h h d d d d d s u d d s u u d t u s u d t u u a u t d u a a u d d d d d d h d h h h h k k k h 0 = .                                                     ",
"                                                        + 3 y j n k k j j j d d d d d d d d d u s d d d d d d d u d d d u d d d d u u d d d d d d d h k k k k h k h 0 : +                                                         ",
"                                                            + : 9 u j j j j j j j d d d d d d d d d u u t r r w r r y u u u d d d d d d h h h h k k h h h k u y 3 : o                                                             ",
"                                                                  @ - 4 7 w u u u d u y r q 9 6 1 , : = & % # # % % & & ; ; , 3 6 9 y y u u d u u u y y 6 , = +                                                                   ",
"                                                                          O % % & = & & @ O                                         + @ % & = & & & @ +                                                                           ",
"                                                                                                                                                                                                                                  ",
"                                                                                                                                                                                                                                  ",
"                                                                                                                                                                                                                                  ",
"                                                                                                                                                                                                                                  ",
"                                                                                                                                                                                                                                  ",
"                                                                                                                                                                                                                                  ",
"                                                                                                                                                                                                                                  ",
"                                                                                                                                                                                                                                  "
};
