/* XPM */
static char *SlimeBasic_00017[] = {
/* columns rows colors chars-per-pixel */
"113 77 100 2 ",
"   c None",
".  c #070D06",
"X  c #091207",
"o  c #0C1609",
"O  c #0E1B0A",
"+  c #101E0C",
"@  c #13240E",
"#  c #15290F",
"$  c #172A11",
"%  c #192D12",
"&  c #1B3314",
"*  c #1E3B15",
"=  c #213D18",
"-  c #24441A",
";  c #264B1B",
":  c #294C1E",
">  c #2B541F",
",  c #2C5A1F",
"<  c #2B4F20",
"1  c #2D5422",
"2  c #2E5C21",
"3  c #305624",
"4  c #325B24",
"5  c #336125",
"6  c #366C26",
"7  c #366428",
"8  c #38652A",
"9  c #396C2A",
"0  c #3C742B",
"q  c #3F7D2A",
"w  c #40752F",
"e  c #407F2C",
"r  c #417630",
"t  c #437C31",
"y  c #3F802B",
"u  c #42822D",
"i  c #448A2F",
"p  c #458432",
"a  c #498636",
"s  c #468B31",
"d  c #498C34",
"f  c #4B8738",
"g  c #4D8C39",
"h  c #479031",
"j  c #4B9335",
"k  c #4E9B36",
"l  c #4E923A",
"z  c #4F9B38",
"x  c #509E37",
"c  c #51943C",
"v  c #529C3B",
"b  c #4FA037",
"n  c #50A137",
"m  c #53A43A",
"M  c #55AB3C",
"N  c #58AD3E",
"B  c #57B13D",
"V  c #59B43E",
"C  c #5ABB3F",
"Z  c #5CC13F",
"A  c #57A240",
"S  c #59A641",
"D  c #57AB40",
"F  c #5BAC42",
"G  c #5DB442",
"H  c #5DBB42",
"J  c #60B646",
"K  c #61BC46",
"L  c #63BE48",
"P  c #5EC341",
"I  c #5FC842",
"U  c #62C345",
"Y  c #63CB45",
"T  c #65C449",
"R  c #68C74B",
"E  c #66CB49",
"W  c #69CC4C",
"Q  c #65D346",
"!  c #66DB47",
"~  c #66D348",
"^  c #6AD34C",
"/  c #66DA48",
"(  c #6CDC4C",
")  c #70DF4F",
"_  c #6FDA50",
"`  c #70DC51",
"'  c #65E046",
"]  c #6CE44C",
"[  c #6CEA4B",
"{  c #70E54F",
"}  c #71EB4F",
"|  c #6DF24B",
" . c #71F44E",
".. c #72FB4F",
"X. c #72E451",
"o. c #75EC53",
"O. c #75F353",
"+. c #78F556",
"@. c #75FD51",
"#. c #7AFD55",
/* pixels */
"                                                                                                                                                                                                                                  ",
"                                                                                                                                                                                                                                  ",
"                                                                                                                                                                                                                                  ",
"                                                                                                                                                                                                                                  ",
"                                                                                                                                                                                                                                  ",
"                                                                                                                                                                                                                                  ",
"                                                                                                                                                                                                                                  ",
"                                                                                                                                                                                                                                  ",
"                                                                                                                                                                                                                                  ",
"                                                                                                  @ * ; , , 5 , ; *                                                                                                               ",
"                                                                                          + ; 0 k G ^ ( { o.{ { ( Q V j 6 - #                                                                                                     ",
"                                                                                      & 6 G ( o.+.O.o.+.+.+.+.+.+.+.+.+.o.( P m u 2 = $                                                                                           ",
"                                                                                  # 0 P o.+.O.o.o.o.o.o.} { } o.+.+.+.+.O.+.+.+.+.o._ H k 6 - @                                                                                   ",
"                                                                              O 6 H o.o.o.o.o.X.{ ] ] ] ] ( ( { {  .@...+.+.+.+.#.#.+.+.+.o.( J p < o                                                                             ",
"                                                                            - m X.o.o.o.X.X.] ] ( ( ~ ^ ( Q ~ ~ ( ] }  .@.@.+.+.#.#.#.#.+.+.+.o.o.) m 3 O                                                                         ",
"                                                                        + 0 R o.o.X.o.] { ( ( ~ Q Q Q E Y E E Q Q ( ] }  .....@.@.+.#.#.#.+.#.+.o.o.o.) v :                                                                       ",
"                                                                      & z X.o.o.{ { { ] ' I I Q P I P P Z Z Z Z Z Q Z ' | | | | ....@...@.@.@.#.#.@.} +.o.Y 5 o                                                                   ",
"                                                                    > K X.X.X.X.{ ] ( ' Q Q P P C C C C V Z Z V Z Z Z Z Z ' ' ' ' |  . ...@.@.@.@.#.#.o.o.X.` q +                                                                 ",
"                                                                X 6 W X.X.X.] ( ( ( I I I P Z V V V V V V V V V V Z V Z C Z Z Z I Q Q ! ' }  . . .O.O.O.O.o.X.` d #                                                               ",
"                                                              + p ^ X.X.X.X.( / I I P C C C V V V V V V V V V V V V V V C C C C C C Z U Y Y Q ! ] } O.O.O.O.o.X.` j #                                                             ",
"                                                            $ d ` X.` X.( ( Q Q I Z Z C G M M V M M C M C M V V Z V V V M M C C C C C C C C C Z I ^ ] ] }  . .o.X.` z @                                                           ",
"                                                          $ m ` ` ` ( ^ ~ Q I I P C V V M M M M M V M C C C V C V V V V C C V V V V V V C C C C Z P I I ] ] } } o.X._ d O                                                         ",
"                                                        & N ` ` ) ^ ^ Q I I P C V V M M M M M D M V M M M C C V B V V V V V V C V C V V C C C C C Z Z U Y Q ] } } } ` _ 0                                                         ",
"                                                      $ m ` ` _ ^ Q E U P C V V V M M b b M M M M M M C M M M M B B V M V V C M V V V V N C M C V V V Z Z Y Y ! ] } X.` R 1                                                       ",
"                                                    @ k ` _ _ ^ E E I I C V V N D M b b M M M M M M M M M M M M M M B B B B B B V V V V V B M V N C N C C H H Q ( ] { { ) N $                                                     ",
"                                                  X q _ ) _ W U U Z H V V N M m b A b M M b M M b b b b b b M b b b b B B M B B B V V V V V C V C M C C C C C H E Q ( { ) _ p X                                                   ",
"                                                  4 W ` ^ ^ E U Z H C V M m m m b b b M b D b b b b b b b b b b b M b B B b b B M M M V B V V V M N C M C N C C C I ~ ) ) _ R >                                                   ",
"                                                * G ` _ W E U H C V V N m m x x b b b b b b b b b b k k k b b M b b b b b B b b n M M M M M M B N B N M N C C C C I U ~ ( _ _ m $                                                 ",
"                                              O d _ _ ^ T U U C V V M m m x x x k b b b b k b b k k k y b b b b b b b b b b b b n M M N M M M N M M V M N C M N C C H E ~ ) _ R 8                                                 ",
"                                              4 W _ ^ R U H C V N M m v x k k k k k b k k k k y y b b b y b b y y b b b b b b b n n n n n M n M M M M M M M M C C C H H U ^ _ W F =                                               ",
"                                            & N ( _ W T H H V N M m v x k x k k k k k k y b b k k b y b y b y b b y y b b b b b k n n n n M m N M N M M M M M M M N G H U U E _ W e                                               ",
"                                            0 W ^ ^ T H V V N M m k j x j j j k k k k h k h y k y y b y b y b b y b b b y b y k k x x x x n m n n n M n M M M M N M V H K U E W W G :                                             ",
"                                          & F ^ _ I P G H M M D k j j z j k j x x h h j s h h s h i i h h h i h h i h h h h b h k k j k k k k b n n m M m m M M M F N V C K T W W W t                                             ",
"                                          9 ^ ^ ^ I G H M D b D z j j j j j j j h h h h s s s i i i i i i h y h h y i i h i h h h h h k h j k k k n n n m m M m m m N N V C K W W W J =                                           ",
"                                        $ A ^ ^ ^ H H M M M A y j j j j j j j j h h s s s i i i i i i u i y i y y i i i i i i i h h h h h k h k k k x m m m m m m m m N m C K T W W U w                                           ",
"                                        < H Q ( T H M M M b k j j j j d j j j j s s s i s i i u y y i u y i y i y i y i i i i i i i h i h h h j h k k x m m m m m m m m m m C K U R R v $                                         ",
"                                        0 W _ ( P F G M A k y j j j j j j j i s s p s s i i i i y i i y y y y y y i y i y y i i i i i s s h h h h j h x x x m m c m m m m m m H L U R L <                                         ",
"                                      # v W _ ( H F M M z k b k d s j j j h j k x x M V I I m i y y y y y y y y y y y y y i i y u i m Q U H M m x k k k k x x x n m k n m m m J L U R R w                                         ",
"                                      = F W ' Q G M M k z j y k m V K U E E ^ ( ) { { { E N h u y y y y y y y y y y y y y i y y u i h B ~ ) ] { ` ` ^ ^ E T T P m m c n k n m F J U U R l @                                       ",
"                                      2 H ^ [ P G G b k z l z l m K E E ^ ^ E U H V m k s u y u y y y y y y y y y y y y y y y y u u i p s x m B L T E ^ E _ E U S m k n c c m m J U R U F =                                       ",
"                                      0 L ( ' P M M b k j y y z d j j d j d s i u i u u y y y y y q q q q q q q y y y q y y y y y u y u u u i i s s h j j j l x k k c k c x x m V L L T J 3                                       ",
"                                      0 L _ { P D M b k j k l l d s s s s s u i u u u u u y q y q q q q q q q q q y y y q q y q q y u y u u u u p s p s h j j j k k l l g j j m V L Y T L w                                       ",
"                                      f H ] [ H M b z k j a y y d s d i s u p p u u u u q y q q q q q q q q q q y q q y q q q q q y q u y u u i i p s s h h j l j l l k k k k c S J Y T L t                                       ",
"                                      d L ] [ H A A z k j j l j s d s d p s u u u u u u u q q q q q q q q i j n b b i i y y q q q y q y u y u u i i p a a h s l k k l l g j k n m H ^ T R f                                       ",
"                                      g L ] ] H A b k z j j j a d s s s s t p u u u q e q q q q q q y i m L ` X.X.X._ L b i y y q q q e e u u u e p p p t f d d l j k j g k k c S H ^ Y K j                                       ",
"                                      g L ] [ H D z k y a l y j d p s t p p u u u u u e e q q q q y h Z ` o.o.o.o.o.o.o.[ C h y q q q q e e e u e p i s s f p d j l g j j j c n m H ^ Q K l                                       ",
"                                      g L ' [ H D k l j j y j a s s s s p p u p e u e e q q q q i j P } +.o.o.o.o.o.o.o.+.} P h u q q e e e e u e i p p s s s f j k g g g g g c m J ^ Y L l                                       ",
"                                      q J / | I A z k j l l y j s s t s p u u u u e e q e q q e i V X.o.o.o.o.o.+.o.o.o.+.} } V i e q e e e e e p u u p s t s s p g k j j j k c c L ^ Y L l                                       ",
"                                      9 J ^ | I M b z z a h y a f i p i e i e i i e e q q e q e h Q o.o.o.o.o.o.o.o.o.o.o.o.o.W j u y q u q e u u u p p s s f f d z a z a z z c v G ( K L s                                       ",
"                                      4 G E ..I M b z d j a j a i f p f f p p e e e e e e q q i n ^ o.o.o.o.o.) ) X.o.o.o.o.o.` k u y q q e u e u u u p t s s s d a z a d d d v v G Q L J r                                       ",
"                                      : m T [ ' F v z d a j a j f i i e e p f e e e e e q e q e j W o.o.` Y m k n n N Y ) o.o.W j u q e u e u u u p p p t s t s d a a z d z c c v H R H J 4                                       ",
"                                      $ c J ] [ H v z d j h a a f i f f e i e e e e e e e q q e i n H H n i i q q q q h n H H n u e q q q e e u u u u p s s f s d d a z a a c c v H T J F <                                       ",
"                                        w G Q | P S c z a a d y i e f p i e e i i e e e e e e q q q q e q q q q q q q q q e i q q q q e e e e u u p p p p s s f d d d d d c c v S H L G v &                                       ",
"                                        < F H ] ( D c z j a d d f i f p p p f e e e e e e e q q q q q q q q q q q 0 q q q q q q q e e e e u e u u p u p p s s f d d d d d f c c S G G G t                                         ",
"                                        $ l J ~ ' G z z z a a a f f i e f e e e e i e e e e e e q q q q q q q q 0 0 q q q q q q q q q e e p p e u u p p p t s t f d d d c c c A S F F F 3                                         ",
"                                          7 F L ' P S z z a j a i t i f e i f f e e p e e e e e q q q q q q q q q q q q q q q q e q e e e e e e p p p p s s s s d d d d f c A A S F F c $                                         ",
"                                          = c J Y Y V n c c g g f i f i e p i e e p e p e e e e e q q e e e q q q 0 q q q q q q q e e e u t e p p p p p p f t f f d f d c c c A S S S 4                                           ",
"                                            8 S H Y K m c g g g f i p p p p f e p e e e e e e e e q e e e q q q q q q q q q q q e e u e u u p e p p d p p f f t d f f f c c v v S S g &                                           ",
"                                            % f S K H N n g g g f f f p p p e p e p p e e e e e e q e e e e q q q q q q q q q q e e e u u e p p p p p p p d f f p d c c c c c A A c 3                                             ",
"                                              : c V J V S c g g f f f i f p p p p p e e p e e e e e e e e e e e q q q q q q q q e e e q u p p u p p p d p p f f d d f c c c c A A 8 o                                             ",
"                                                1 A S S A v g g g f g f f p p p e p e p e e e e e e e e e e e e e e e e q e e e e u t p p y p t p p p p g g f g g g g c c c c c w +                                               ",
"                                                o 4 c F A v g c g g f f f f f f f f f t f e f f e e e e e e e e e e e e e e e e e q u u t p p p p p p d g g g g g g g g c c c 4 +                                                 ",
"                                                  o 4 c A v v g g g f f f f f p f e t f f e e t f t e e t p e e e e e e e e e e e p e p p u p p f f d f g g g g c g c c c t - o                                                   ",
"                                                    o < f v v c c g g f f f f f f f f f t f f f t t t t t e f e e e e e e e e p u t p p p p f f f f f d g g g g g c g f 3 &                                                       ",
"                                                        = r c c c c f f c f f f f f f f f t f t p p f t t t t f s t t t s t t s t t t f f s t f f g g g g g g g g t 3 % X                                                         ",
"                                                          # 3 f c c c f c f f f f f f f f f p f f f f t p s s t t t s t s t t s s f t s f f f f f g g g g f t 8 < +                                                               ",
"                                                              $ 3 0 f c c f c c d d p f f t t r 0 0 r r t t t f f s t s t s t f t f f f f t g g s t w 8 < = + X                                                                   ",
"                                                                  o $ = < < < 3 3 1 < * & & $ # # # # # $ & = < 3 4 8 r r t t t t f t t w w w 3 : $ +                                                                             ",
"                                                                                                                    o + $ $ & $ = % % % + o                                                                                       ",
"                                                                                                                                                                                                                                  ",
"                                                                                                                                                                                                                                  ",
"                                                                                                                                                                                                                                  ",
"                                                                                                                                                                                                                                  ",
"                                                                                                                                                                                                                                  ",
"                                                                                                                                                                                                                                  ",
"                                                                                                                                                                                                                                  ",
"                                                                                                                                                                                                                                  "
};
