/* XPM */
static char *SlimeBasic_00000[] = {
/* columns rows colors chars-per-pixel */
"113 77 110 2 ",
"   c None",
".  c #030702",
"X  c #060C04",
"o  c #080E06",
"O  c #091107",
"+  c #0C1508",
"@  c #0E1A0A",
"#  c #101F0C",
"$  c #13240E",
"%  c #15290F",
"&  c #152710",
"*  c #172B11",
"=  c #192E12",
"-  c #1B3314",
";  c #1F3C16",
":  c #203D17",
">  c #213D19",
",  c #204017",
"<  c #24441A",
"1  c #26481C",
"2  c #294B1E",
"3  c #2A531E",
"4  c #2B4F20",
"5  c #2D5321",
"6  c #2E5C21",
"7  c #315724",
"8  c #315C24",
"9  c #336325",
"0  c #356826",
"q  c #366428",
"w  c #38652A",
"e  c #3A6C2B",
"r  c #387127",
"t  c #3C732C",
"y  c #3E7D2A",
"u  c #40762F",
"i  c #407F2C",
"p  c #417530",
"a  c #437C32",
"s  c #3F802B",
"d  c #42822D",
"f  c #44892E",
"g  c #458432",
"h  c #498636",
"j  c #468B31",
"k  c #498B34",
"l  c #4B8738",
"z  c #4D8B39",
"x  c #479031",
"c  c #4B9334",
"v  c #4D9B36",
"b  c #4E923A",
"n  c #4F9A38",
"m  c #509F37",
"M  c #51943C",
"N  c #529D3B",
"B  c #4FA037",
"V  c #50A137",
"C  c #53A43A",
"Z  c #55AB3C",
"A  c #58AC3E",
"S  c #57B13D",
"D  c #59B43E",
"F  c #5ABB3F",
"G  c #5CC13F",
"H  c #579F41",
"J  c #57A340",
"K  c #58A641",
"L  c #57A840",
"P  c #5AAB42",
"I  c #5DB443",
"U  c #5DBB41",
"Y  c #60B746",
"T  c #61BC46",
"R  c #64BE49",
"E  c #5EC341",
"W  c #5EC941",
"Q  c #62C445",
"!  c #62CB45",
"~  c #65C449",
"^  c #68C64B",
"/  c #67CB49",
"(  c #69CC4C",
")  c #65D346",
"_  c #65DB46",
"`  c #68DA47",
"'  c #67D348",
"]  c #6BD44C",
"[  c #67DB48",
"{  c #6CDB4C",
"}  c #70DE4F",
"|  c #6FD750",
" . c #6FD950",
".. c #71DC51",
"X. c #66E547",
"o. c #67E847",
"O. c #6DE34C",
"+. c #6DEC4C",
"@. c #70E44F",
"#. c #70EA4E",
"$. c #6DF44C",
"%. c #6DFA4B",
"&. c #71F54E",
"*. c #72FB4F",
"=. c #72E451",
"-. c #75EC54",
";. c #75F353",
":. c #78F556",
">. c #76FD51",
",. c #7AFD55",
/* pixels */
"                                                                                                                                                                                                                                  ",
"                                                                                                                                                                                                                                  ",
"                                                                                                                                                                                                                                  ",
"                                                                                                                                                                                                                                  ",
"                                                                                                                                                                                                                                  ",
"                                                                                                                                                                                                                                  ",
"                                                                                                                                                                                                                                  ",
"                                                                                                                                                                                                                                  ",
"                                                                                                                                                                                                                                  ",
"                                                                                                          % < 6 r y y y r 9 3 , &                                                                                                 ",
"                                                                                                $ ; 6 s C / { -.-.:.:.:.:.:.O.] T C a 5 -                                                                                         ",
"                                                                                      @ - 3 r x D ' #.:.:.:.;.;.:.:.:.:.:.:.:.:.:.:.;.#.Q c 6 $                                                                                   ",
"                                                                              @ ; 6 d Z ' =.-.:.;.:.;.-.-.-.-.-.-.;.>.:.>.:.:.:.,.,.,.,.:.:.=.T u :                                                                               ",
"                                                                      X * 6 g P / -.:.:.:.-.-.:.-.-.-.=.#.O.O.{ #.#.&.&.&.*.>.>.>.>.,.,.,.,.;.:.-.Q d :                                                                           ",
"                                                                  $ 3 k Q =.-.-.-.-.-.-.-.-.@.@.O.O.{ { { ] ) ` ` O.O.#.#.&.*.*.>.>.>.:.,.,.,.,.:.:.-.] c >                                                                       ",
"                                                              $ e Z } -.-.-.=.-.-.-.+.=.@.O.{ { { ] [ ' ) ( ) / / ) ) ` X.X.+.&.$.*.*.>.:.:.,.,.,.,.;.;.-.( h -                                                                   ",
"                                                          + 8 D ..-.-.#.=.@.#.#.@.@.[ [ [ _ ) ) ' / / W G G G G G G G G G W W X.` ` o.+.%.*.*.*.,.,.,.,.-.-.=.^ r $                                                               ",
"                                                        - c | -.=.=.=.@.@.@.@.[ [ @.[ _ ) ) W W E E G G G G G G G G G G G G G G G G W ) ` O.&.%.*.>.>.,.:.>.-.=.-.I 5 X                                                           ",
"                                                    X 4 Y =.=.=.=.=.@. .@.[ _ _ [ ' W W E E W G F F F D D D D D D D G D G D D G F F F F G G ! ` #.*.*.>.:.,.:.=.-...| i *                                                         ",
"                                                  @ e ( =.....}  . . .[ [ ' ) W W W W I E I S G D D D D D D D D D D D D S D D D F S F F G G G Q Q ) O.#.#.>.>.>.;.-.-...Z 4 X                                                     ",
"                                                & k } } } } } } [ ' ' ) W W W E U U F D S S E S D D D D Z F F D S S S S S D D G S S F F D F F F G G ! ) #.#.#.*.;.;.-.=...( u #                                                   ",
"                                              % N ..} | | ) ) ) ' W E E E E D G U I D Z S S Z Z D Z Z D Z F Z F S G S G D D S S F F S F S F D F D G G G Q ) #.#.#.;.;.-.#.} | C >                                                 ",
"                                            $ n } | | | ( ) / E E E E F E D D D Z Z Z Z Z Z Z S Z D D F F F F F S S S S S S S D F S F S D S D D D D D D G G Q ` X.#.#.#.-.-.....Y 4 o                                             ",
"                                          @ c ..} | ( ) Q Q E Q U F F D Z D Z Z Z Z Z Z Z Z S Z D Z D Z Z Z Z Z S S S S S S S S S S S S F F D D D D D G G G G G ) ` #.#.#.-.-.....^ 8 o                                           ",
"                                        O y { ..] ] ( Q Q G G F F D D Z Z Z C Z L Z B B L D S S Z I D Z S L Z Z S S S S B S B S D S S D D D D D D S D D D U D U U E ) ` X.#.#.#.@.} ^ 6 o                                         ",
"                                        8 ( ..| ( ( Q Q T F F D Z Z Z C C C C V B Z Z Z Z Z Z L Z Z B B Z B B B B B B S B S S B C D Z Z Z D D D D D D D D D D D U U E W ` X.#...=.} | R 7 o                                       ",
"                                      : T ..| ( / Q G F F D D Z Z C C C V C V V B B B L Z Z B Z B B B B B B B B B B B B B S B B C C B S Z C D D S D D S D D D D U U U E W ! ] ` ..=.` | Y <                                       ",
"                                    # N ..| ] ( Q T U F D Z Z C V V n V n V n V L B B B B B B B B B B B B B B B B B B B B B B B B C C B Z B Z C C S S S S S S S D D F U T W ! ] ` ....| ( K -                                     ",
"                                  X r ] ..] ( Q F F D D Z Z N N n n v n n V V V B B B L B L B L B B B B B B s B B B B B B B B B B B B B C C C S S S S S D C D S D D D D U T U W / ` } | ( ( c $                                   ",
"                                  < ~ ..] ( T U F D D Z C C m m v v n n n n V n B B B v B s B s B s s B B B B B s B s B s B B B v B B B V V C C C C S C D C S S C A D D D G G T E ^ ( ` | ^ ^ t X                                 ",
"                                $ n { ] ] ~ U U D Z Z C m N m N v v c v n v n n B B s B s B B B s B B s B s s B B B s B B s s B v v B B B B C C C S C C D A A D A S D D D D D U G R ( ( ( | ( Y 1                                 ",
"                                9 ( | ] ( T I D D Z C N m c c c c c v v v v v v L s L B s B s B B s B B B s B B s s B B s B s B c c c c c B c m C C C C V A V C D V A A D D D D U G ^ ^ ( ( ( ( n $                               ",
"                              * L |  ./ E I I D Z V V n b c c c c c v v c v c c c x x x x x x x x x x x x x f x f f x f x f x x x x x c c v v v v m B B C C A C D C S C D D D A U U U R ^ / ( ( ^ 8                               ",
"                              t ( ' | / U D D Z Z n n c c c c c c v c c c c c x c x k x x x x f x k f f f f f f f f f f f f f f d x x x x x x c v v m B C C C C D C C A C D A D Z U U U ^ ^ ( ^ ( C *                             ",
"                            = L |  .' ~ I I Z Z V n b c c c c c c c c c c x x x x x x c m m c k f f f f f f s x f f f s f f f f x x c m v c c x c c c m m V C V C C A C C A C C Z Z A U G R ^ / ^ ^ 8                             ",
"                            q ^ | [ / U D Z Z V V x c c c j c c c c x x j c j x x c v C F ) D k f f f d f s f s s s s f s s f s d x D ) G V m v c v c c c m m H C C C C C C C C N Z Z A U Y ^ ^ ^ ^ M #                           ",
"                          # n ( '  .~ U D Z V v n c c k k x c j c c k c c c c v m Z Q ] -.#.D f d f f s f s s s s s s s s f s f f x Z #.-.] R Z B B c c m m m m m C C H C C C C N Z m Z A Y U ^ ^ ^ Y <                           ",
"                          4 U (  .[ U D I Z V n c c k c c j k c c c v v v C Z U ( } -.-.-./ v f d s s s s s s s s s s s s s s s s f v ! -.-.-.X.) G D A V m m m C m C m C C C C m m m Z A Y U Q ~ ^ ~ e                           ",
"                          e ~ ( @.' I D L V n c c c x k k c k c c Z I Q ( { #.=.-.-.-.-.] Z f f s s s s s s s s s s s s s s s s d d x Z ] -.-.-.-.-.@.| ( / U D H C m m m m C m H m m N A A Y Q ~ ~ ^ l #                         ",
"                        @ c ^ | O.W I Z V V n c c k c k j k c c P #.-.-.-.-.-.-.-.-.-.) Z x f s s s s s s s s s s s s s s s s s y d d k Z ] -.-.-.-.-.-.-.-.-.} Y m m M m m m m m c m c N A Y R Q ~ ^ P >                         ",
"                        - P ~ [ O.E L Z V V n x c k k c k s k c Z ..-.-.-.-.-.-.#.( D m f f s s s s y y y y y y s s y y y y s y s y d d x v D ) } -.-.-.-.-.-.#.A m m m c N N N c N c c m A A R ~ Q R I 4                         ",
"                        4 I ~ +.@.U I Z V n b c k k k j k c k c n Z Q ] ] ( / U C m c f d s s s y y y y y y y y s s y y y y s y y s y s d f x v Z Y ) ) | ) Q D C c c M N N c c N c c N c H A U / / ~ R 9                         ",
"                        8 I ^ +.X.U L C n n x c k k k k k k j k k k c m m v c c f f d d s s y y y s y y y y y y s y y y s s r s y y y y s s d f k k c m m m v x c c c c N c c c N c c c m H A Y / ) Q R r                         ",
"                        t R ^ $.[ U L V n n c c k k j k k j j s f j g g f f d d d d y y y y y y y y y y y y y y y y y y r s r s y y y y s s d d d d d k k g k k k k c c c N z N c c N c c m H U ) ) R R a                         ",
"                        t R ~ &.[ U L V n v c k k k j j j j j g d j g d d d d d d s d y y y y y y y y y y y y i s s y y s s s s y y y y y i i d d d d d f k d k k k d c c c N c c c N c z H H Y ) ` T R a                         ",
"                        t Y W &.[ U L V n c c k k k k k h k g g d g g d d d d i d y i y y y y y y y s s m A U Q / Q G S x f s s y y y y y i i i d d d d d d k d k k k k c M z z N z c z c N H D [ ] T R a                         ",
"                        a R W &.X.U L V n c c k k k l j j g g j g d f d d d d d i y y i y y y y y f V ` -.-.-.:.-.-.-.-.@.! B f d y y y i y i i i d d d g k d k i d k k c M c c c l c c N H H D [ ) R R t                         ",
"                        t Y ~ &.X.E L n n b c k k k j j l j j g g g g d d d d d y d y y y y y d x G @.#.-.-.-.-.-.-.-.-.-.&.o.G f i y y y i i i i d d d d d g d k k k k c c c M c c c z c M H D ` / T R e                         ",
"                        w I R &.+.G Z N v c b k k j k j k g g g f h i f i i i i i y y y y y y i v ` -.-.@.@.` / / ` ` =.-.-.-.` x d i y y i y d i d i d d k d k k g k g k b c b c b j b b N H I ) E U R 5                         ",
"                        5 I I +.$./ Z C N c c k k k j h g j j g i i l i f h i i i i i i y y y i s C U G V v x d d d d x Z U Y Z d i i i i y i i i d d d d g g g d k d k k c k c l k b x b N N I / U Y P >                         ",
"                        ; H I [ %.` I C N c b k l j h j j g g g l f f i i i i i i i i y y y y y y y i i y y y y y y y y y y y y y y y y y i y i i i d d g d d k k g h k k c b k c k b b M H H I ~ Y Y M &                         ",
"                        $ H I / &.X.Y C N c c k k k k g h g j g h i h i h i f i i i y i y y y y y y y y r y y y y y y y y y y y y y i y i y i i d d i d d d g g g g h k k k k c c l l b b N J U U I Y t                           ",
"                          e P R +.$.W C H c b c k j k g j g h g f i h i l i i i i i i y y y y y y y y y y y r y y r y y y y y y y y i i i i i i i d i g g d d g g g k k k l k l k k b b N H L I U I P 4                           ",
"                          4 K I ! $._ D H M M c l k h k h g j g i h i f i i i i i i i y i y y y y y y y y r y y y y y y y y y y y y i y i i d i d i d i d g g g k g g g k k k k l c l b M H J I Y P l &                           ",
"                          # l I T ` X.W A M M M b x k j j g j g f h h i f i i i i i i i y y y y y y y y y y y y y y y y y y y y i i i i i i d i i i d g g d g g g k k g k k k k k j b b H H J Y P H 4                             ",
"                            5 P I ! ` ) D C M M b l l j h g g g i i f h i h i i i i i i i y i i y y y y y y y y y y y y y y y y i i i i i i i i d d g d g g g g g g g k k k k k l b l H H H J P P H #                             ",
"                            # h P Y / ) Q S M M N z z z h h f h l i h i i h i i i i i i i i i i y y y y y y y y y y y y y y y y i i i i i i i i d d g d g g g g g g g k k k k k b l N H H N J K H 4                               ",
"                              > H K Y Q Q D A M z z z z k h h h h h i f h i i f i i i i i i i i i y y y y y y y y y y y y y i y i i i i i d g i g d d d g g g g g k g k h k k h l l H b M H J H q +                               ",
"                              O 7 H K Y G I D N N z z z l k l l h f i h h i i i i i i i i i i i y i y i y y y i y y y y i y y i i i i i i i g i d g g g d k g g k k g g h k k z l H l H H N H a &                                 ",
"                                @ 7 H K D D A N H z z z z l l l h h l i i h h i h i i h i i i i y i i y i y i i y y y y i i i i i i d i g i d g g d d g d g k g g g k k k h z z l l H H M H a *                                   ",
"                                  # 7 z K K K K N z z M z z l l l l h l h i h i i h i i i i i i a i i y i i i i i i i i i i i i i i g i i g i g i g g g g k g g h h h z k z z z l l H l H p -                                     ",
"                                    o > i H K H N N M z z z z l l l l l h h h h i i i i i i i i y i i i i i i i i i i i i i a i i d i g i i g i g g g g g g g k h l l z z z z z H l z H e *                                       ",
"                                        $ 4 a M H M M N z z z l l l l l l i h i l l l l l i l i a i a i i i i i i i i i i i i a i i i g g g d h g g g h h h h h h z z z z z z M l H l 8 #                                         ",
"                                            = 7 a M M M N z z z l l l l l l l l a l i a i l a i l a i i h a i i l a i a i i i i g a h g a h g h h h h h l h z l l z z z z M z M H a 4 +                                           ",
"                                                # 4 t l H H l l l l l l l l l l h h h g a h g g a h a h a h i h h a g g g a a h h a h h a h h h l l h l l l z z z z z z z z z z 7 =                                               ",
"                                                    + - 4 w l l H l l l b l l l h h h h g h a h h a g g g a h a a g h a h h h h h h h h h h h h k l l l z z z z z z z z H a q - O                                                 ",
"                                                          + * > 5 t p l l l b l k l h h h h h h h h g h h h h a h a a a u u u i u i a h h h h z l l z l z z z z z z z p 7 > +                                                     ",
"                                                                    & > 2 8 e r a a a a a a a h u u e e q 8 3 2 > : - * $ $ $ $ $ & * * > > 1 7 8 q e e e q q 8 4 > * +                                                           ",
"                                                                              # & * * - - * - * * $ $ +                                                 +                                                                         ",
"                                                                                                                                                                                                                                  ",
"                                                                                                                                                                                                                                  ",
"                                                                                                                                                                                                                                  ",
"                                                                                                                                                                                                                                  ",
"                                                                                                                                                                                                                                  ",
"                                                                                                                                                                                                                                  ",
"                                                                                                                                                                                                                                  ",
"                                                                                                                                                                                                                                  "
};
