/* XPM */
static char *SlimeBasic_00029[] = {
/* columns rows colors chars-per-pixel */
"113 77 111 2 ",
"   c None",
".  c #060B04",
"X  c #080F06",
"o  c #091107",
"O  c #0B1508",
"+  c #0E1A0A",
"@  c #101F0C",
"#  c #13240E",
"$  c #152A0F",
"%  c #152610",
"&  c #172B11",
"*  c #192E12",
"=  c #1B3314",
"-  c #1D3915",
";  c #1F3918",
":  c #203C17",
">  c #213D18",
",  c #204016",
"<  c #25441B",
"1  c #264B1B",
"2  c #294B1E",
"3  c #2A521F",
"4  c #2C591F",
"5  c #2B4E21",
"6  c #2D5322",
"7  c #2F5B21",
"8  c #325C25",
"9  c #346425",
"0  c #356A26",
"q  c #366428",
"w  c #38662A",
"e  c #366928",
"r  c #3B6D2C",
"t  c #377027",
"y  c #387127",
"u  c #3D722D",
"i  c #3E7D2A",
"p  c #40762F",
"a  c #407F2C",
"s  c #407330",
"d  c #437C31",
"f  c #3F802B",
"g  c #42822D",
"h  c #448A2F",
"j  c #458432",
"k  c #498635",
"l  c #478B31",
"z  c #498C34",
"x  c #4B8738",
"c  c #4D8B39",
"v  c #479031",
"b  c #4B9334",
"n  c #4D9A36",
"m  c #4E923A",
"M  c #4F9A38",
"N  c #509E37",
"B  c #51943C",
"V  c #529D3B",
"C  c #4FA036",
"Z  c #50A137",
"A  c #53A43A",
"S  c #55AB3C",
"D  c #58AD3E",
"F  c #57B13D",
"G  c #59B43E",
"H  c #5BBB3F",
"J  c #5CC03F",
"K  c #569F40",
"L  c #57A340",
"P  c #59A541",
"I  c #5AAC42",
"U  c #5CB442",
"Y  c #5DBB42",
"T  c #60B546",
"R  c #61BC46",
"E  c #64BE48",
"W  c #5EC341",
"Q  c #5FC942",
"!  c #62C446",
"~  c #63CB45",
"^  c #66C449",
"/  c #68C64B",
"(  c #67CC49",
")  c #69CC4B",
"_  c #64D346",
"`  c #66DB47",
"'  c #68DC47",
"]  c #66D348",
"[  c #6BD44C",
"{  c #67DB49",
"}  c #6CDB4C",
"|  c #70DF4F",
" . c #6FD750",
".. c #6FDA50",
"X. c #71DD51",
"o. c #66E547",
"O. c #66E048",
"+. c #6DE24C",
"@. c #6DEB4C",
"#. c #70E44F",
"$. c #71EB4F",
"%. c #6DF34C",
"&. c #6EF94D",
"*. c #71F44E",
"=. c #72FB4F",
"-. c #73E552",
";. c #75EC54",
":. c #75F353",
">. c #78F456",
",. c #75FC51",
"<. c #79FD55",
/* pixels */
"                                                                                                                                                                                                                                  ",
"                                                                                                                                                                                                                                  ",
"                                                                                                                                                                                                                                  ",
"                                                                                                                                                                                                                                  ",
"                                                                                                                                                                                                                                  ",
"                                                                                                                                                                                                                                  ",
"                                                                                                                                                                                                                                  ",
"                                                                                                                                                                                                                                  ",
"                                                                                                                                                                                                                                  ",
"                                                                                                          > 4 y f l l h i 9 1 - %                                                                                                 ",
"                                                                                                $ 1 0 l G [ #.;.>.>.>.>.>.>.+.[ Y b t , @                                                                                         ",
"                                                                                        * 1 t n Y } >.>.>.>.>.>.>.>.>.>.>.>.>.>.>.>.;.[ D u -                                                                                     ",
"                                                                                $ 1 u S / #.;.>.>.>.;.;.$.;.;.$.*.:.,.>.,.,.>.>.<.<.<.<.>.>.[ b 6 O                                                                               ",
"                                                                        + - 9 m ! } ;.>.>.>.;.>.;.;.$.+.#.#.} +.#.$.$.*.=.,.=.>.<.,.<.<.<.>.>.>.X.U e %                                                                           ",
"                                                                  . * 0 S [ -.;.;.;.;.;.$.;.#.+.+.+.} } ' ] ] ] ' } o.$.$.*.=.=.,.,.,.<.<.<.<.<.>.>.| U 0 +                                                                       ",
"                                                              . > j ! -.;.-.;.;.;.;.#.$.#.+.} } } } _ _ ] ~ ) ~ ] ] ] ' o.o.@.*.*.=.,.,.,.>.<.<.<.>.>.;.X.T s @                                                                   ",
"                                                            : j ( -.;.-.-.;.#.;.#.#.#.#.` ` _ ` / ~ Q Q J J J J J J J J J ` J o.' ' @.%.=.=.=.<.<.<.<.,.;.;.;.G 4 o                                                               ",
"                                                        O e E X.;.-.-.#.#.#.+.+.#.} ` ` _ _ Q Q Q W W W H H J F J J F J J J J J W W Q ' ' @.*.=.=.<.<.<.<.;.;.-.} m =                                                             ",
"                                                      * z [ -.-.-.-.#.#.+.} O.` _ _ Q Q Q W J J J G G G F H F J F F J J J F F J H H H J W Q _ +.*.*.*.=.>.<.;.;.-.-.R e @                                                         ",
"                                                    < U X.-.X.-.....} } } _ _ ` Q Q W W Y Y F J G G G G F H H G J F F F F J F F H F H H J J W W _ ' $.$.$.,.,.,.>.-.-. .b =                                                       ",
"                                                . 7 ^ X.| | | | } [ _ _ _ Q Q J W Y G G J F F F G G G G S G F G H H H F F F F J F H F H F H H J W ! _ ' $.$.$.,.>.*.-.-.X.R 8 o                                                   ",
"                                              o e ) | [ [ [ ] ] _ ~ ~ Q J Q J G Y G G G F F S F S G S G G G J G S F F H F J F F H F H F H H F H H J H H _ ' $.$.$.>.$.;.-.| [ x %                                                 ",
"                                            . 0 ) | | ] [ ) ~ ~ ~ W J H G G G G G S G S S S S F G G G G G G G G F F H S J F F F H H H F F F F G H H H H H ! _ ' +.$.$.>.;.-.X. .V :                                               ",
"                                            8 ( | | [ ) ) ) Q ! H H H H G G S S S S S S S S S S S G S G F S F S S S S F F F F F F F F F H H H F G G G H J H H Q _ ' +.$.$.;.-.X.[ A >                                             ",
"                                          < ! X.X.[ ( ^ ! ! J H H G G S S S S N F C F S S S S S F F F F F F F Z S S F S S S S S S F F F F G G G S G G G H H H W Q Q ] +.+.+.$.#.[  .D =                                           ",
"                                        * P X.[ [ ( ! ! J R H G G G S S S S N S C S C S S C S S C S C C Z Z Z C C C C S C S S S S S S F F F F F G G G G G G G H Y Q Q Q ' +.+.+.$.|  .N *                                         ",
"                                      + z X.X. .( ! ! Y H G G S S S N N N S N N C C C S S S S S C S C C C C C C C C C C C S C C S A A S S S S F G G G G G G G G G Y Y Q ~ _ } +.| | [  .B +                                       ",
"                                      9 ( X.[ ( ^ Y W H G D S S S n N N N N N N C S C S C C C C C C C n C C C C C C C C C C C C Z A A A S S S S S D G S G D S G G H H Y J ! ~ [ | | X.[ / s O                                     ",
"                                    - U X.} [ ! ! H G G S S S N S M n n M M M S C C S C C C n C n n n n C v C C C C v C C n C C C C C A A A S S S S S S S S G G G G G H H H ! ~ ) [ ' [  .R 6                                     ",
"                                  + z  . .[ / Y R G G S S S Z n m n M n M M n n C C n n C v n n n n n v C v v C v v C C n n n n n C C C n S n S S S S S S S S S D D G G G H H H ! ) [ [  . .P ;                                   ",
"                                  7 / } [ ( E Y G G S S n N M n m n n n n n n M n n n n v n C n v n v n v n n v v v n v v n v n n n n C C A S A A S S S S S S S D D D G G G H W ! ! ) ) /  .) d +                                 ",
"                                * S [  .( ^ U U G D S Z n n m m b m m n n n n n C C f n n f f n v v n f v v v v v v v v v v n f v v n n n n n n n A S S S S S S S S D D I G G G H ! ^ / ) / ) E 3                                 ",
"                                r )  . ./ Y Y U I S Z M M M M M v n b C n b b b b b b b v v v v v v v v h h h h h v h h h h v v v v v n b n n n n Z A A A A A A D D S D S D G G G H ! E / ) ) / M #                               ",
"                              = I _  ._ W U G S Z Z M v v z z v v m b b b b b b v b h v h v v v v v v g h h h h h h h h h h h h h v v v v v v n n n n N A A A D A A S D S A D D G G Y R / ) ) / E 8                               ",
"                              e /  .} / Y I S S Z Z M M v M M z b b b b b v v v b h h v n b b v h v g g h h h h h h h f h h h h h h v b n v v v b n n n A A A A A D A D S S D S G D I Y E E / / / c @                             ",
"                            * M ) } } W U G S S M M l M z z v v v b b v v v v v h b N Z G ! S v f f v f h f f f f f f h f f h h h h G ! G Z N n b b b n n n n A A A A A A A A S A K D D ! ! / / ^ E 5                             ",
"                            6 E _ } _ Y I S S Z M M v M v v v z v m z z v m v n n S Y ] #.$.F h h f f f h f f h f f f f f f h f h h G $.#.[ Y D Z n n n n n n A A K A A A A A A A A A D I Y ! / / / u                             ",
"                            j ^  .../ U S S Z M n v l l z z z M v v N N Z Z D H ) } -.;.;._ b h h f h f f f f f f f f f f f f f g h b ] ;.;.#.| ~ Y U A A V n V A N A A n A A N N N A A I T ! ^ ^ / N *                           ",
"                          * L / ` #.Q I S S M M M M z z z l v v N D R ! ( [ #.$.;.;.;.;.} S v h f f f f f f f f f f f f f f f f g g h D [ ;.;.;.;.;.-.[ ) ! ! G A A N B N N N N N N Z Z D T R ^ E ^ T <                           ",
"                          5 U ) #.` W I S Z M M z v v z k K v v G | ;.;.;.;.;.;.;.;.;.) A v g f f f f f f f f f f f f f f f f f g g g h D ( $.;.:.;.;.;.;.;.;.#.Y N N N N B N N B N N Z K I Y ! ^ ^ E w                           ",
"                          w Y ) $._ Y I S C n v v v z v z z z v D | -.;.$.;.;.-.| ) G n h h f f i i i i i i i i f f i i i i i i i f f g h b G Q | #.;.;.;.;.$.} I N N N N b V V N b N N A P Y ^ ^ ^ E d                           ",
"                          d E _ $._ I S Z C M v v z z z z z z z b A Y ^ ) ) Y G Z b h g g f f f f i i i i i i i i i i i i i f i i f i g h h v b S G Y ! ) ~ R S N B b B V b b c b N b b A K I ^ / ! ^ c %                         ",
"                        % c Y } %.) I S Z K n v z z z l z v v z h v m v b v m h h g g g f i i i i i i i i i i i i i i i f f i i i i i a f g g g g z m n m n m m b b b b V N b V b N b c N K I ! _ ! ^ B *                         ",
"                        * M E } %.Q I S Z v K v z z z z z f z z z j h j h g g g g g g g f i i i i i i i i i i i i i i i y y i i i i i i f i f g g g g h h h z h k b b b c V b c b b b V N D I ! ` ^ E S =                         ",
"                        = L Y } %.Q I S M M v v z z z l j z l l j j h g g g g g g f g i i i i i i i i i i i i h h g g i f f f i i i i i i a a a g g g g h h z j k b b b b b V b B b B b c K D ! ` ! E P ;                         ",
"                        - K T } %._ I L K v v M z z z z z l j j j j j g j g g g a a a i i i i i i i f h Z Y / _ [ _ / H C h f i i i i i a a a g g g g g g j j z h k k b b b c c b c b b V K D ! } ^ E P -                         ",
"                        - K Y } %._ I Z K v M z z z z z l k l j j j j j g g g a a i i a i i i i i h S _ ;.;.>.;.;.;.;.;.$._ Z h g i i i i a a a g g g g h j j h k h k h b b B b b b b b V V P ! ` ^ E N =                         ",
"                        $ K Y _ &._ I K M M M z z z l z j l j j h g g g g g g g g i a i i i i g h H $.$.;.;.;.;.;.;.;.;.;.*.@.J h g i i i i a a g g g g g g j j h k k b b B b b b c c B N V P / _ Y E M #                         ",
"                        # M U / &.` Y N N M v v z z l z j l k l j j j g g a a j a i i i i i i a Z [ ;.;.$.-.| | ' ' | -.-.:.:.[ m g i i g i i g g a g g g h j x l j j z l M M c c M z c M K L ~ _ E T j                           ",
"                          d U / %.o.Y S M M m m z l z j l k j j j j g g j j a a a a a a i i i a h G ( ( G C b h h h l N H / / G h a i i a i i a a g g g g j j h j z j z z c l z z v c M K N I ! ^ Y E r                           ",
"                          w U ^ %.%.! D B M c z z z z j j l l j j g g j g g a a a a a i i i i i i i g g i i i i i i i i i a g a a i i i i a a a a g g g g j g j j z l z z c z M z c c M c K I ! E T I 5                           ",
"                          1 I U ` %._ G K M M z z z z z z j j j j j j j g a j a a a i a a i i i i i i i i i y i i i i i i i i a i i i i a i g a a a g g j g j x j j j l m z c z c v c c M K I ^ U T N =                           ",
"                          * M I ~ %.o.H V V b c z z z k j l k j h j g g j a a a a a a a i i i i i i i i i i i i i i i i i i i i i i i a a a a a g g g j g j g h j g z z z z z c z z c K K K I T U T d O                           ",
"                          O u I R ' o.Q P V V B c z k z k j l j j j j j j a j a a a a i a i i i i i i i i i i i i i i i i i i i i i a i a a a a g a d g g j j j l x g x z z z z z M c c K K I T I P 5                             ",
"                            5 K T ! o.' U V B B M z z k l l j j j j g j a j a a a a a a i a i i i i i i i i i y y i i i i i i i a a a a a a a g a a j g j j j j x h z z z z z z k k K K K P I I I d @                             ",
"                            O u U U ) ] Q U V V c c z z j k j j j j j g j j a a a a a a a i i a i i i i i i i i i i i i i i i i a a a a a a a a g g g j g j j j g g x j k z k z z k K M K P P I P 5                               ",
"                              > B T T ~ ~ H A V c c c c k k j k j j j j j j a j j a a a a a a a i i i i i i i i i i i i i i i i a a a a g a a j g g j g x g g j x j h x h z z z K x K x K K P P d +                               ",
"                              O w P T T ! W U V V V c c z z k k h j j j j a j a a a a a a a a a a a i i i i i i i i i i i i i a a a a a a g a g g j g j g g x z x h j x z x x z d K K K K K K x =                                 ",
"                                % s P I Y U U P V c c c c x x k j j j j j a a j a a a a a a a a i a a i a i a i i i i i i i i a a a a a a g a a j a g j g z x g j j h z x z z c K x K x K K K >                                   ",
"                                  * s P U U S A K V c c c c c x l j j j j j j a j a j a a a a a a i i a i a a a i i i i a a a a a a a a j a j j j j j j g j g x h x z x x x x B x x K K B x 5 .                                   ",
"                                    * w K I I K V c c c x x x x x k k k j j j a j a a a a a a a a a a a a a a a a a a a a a a a a a j j g a j g g g j j x g z h x x x x z x B x K x K K x 5 O                                     ",
"                                      @ 2 d K K K V c V B c c x x x x k j j k j k d j a a a a a a a a a a a a a a a a a a a a a a a a a d j g g j j j j g g x j j x B x z B x B x K K s < o                                       ",
"                                          = w c K K K c B x c x x x x x k k k k k a x a x a a k d d a a a a a a a a a a a a a a a j a a j g d j j j j x x x x c x x x x B x B B K x u =                                           ",
"                                            + = w x V K B c B c c c x k k k k k k x d k d x d x d d d a x a d a x d a a x a d a g d x j j x j x j j x x x x x x x z B x x B x B x 8 %                                             ",
"                                                O = 8 x c B B c c c x c x x x x j j d x d j d d x a x d x x a d d x a x a j a x a x x d x j x x x x x x x z x x B x x B B B x s > X                                               ",
"                                                    . % 5 w d c B B c c c x x x x x j x x j x j d x d a a d x x j x x d d x x x x x x x x x j x x x x x x z x x x B x B x s < +                                                   ",
"                                                          O * > 8 r x x z c z x x x x j x x x j x x g x x x a d d d p p p p p p p a d d x z x x x c z c B B B B x x d 8 5 +                                                       ",
"                                                                  O % > 5 w r d d d x d d d d d p r r 9 6 6 2 > = * * * # # # % # * = : < 2 6 8 w r s s r w 8 6 5 ; % O                                                           ",
"                                                                            O % * * = * * = * * # @ O                                             O @ @ @ O                                                                       ",
"                                                                                                                                                                                                                                  ",
"                                                                                                                                                                                                                                  ",
"                                                                                                                                                                                                                                  ",
"                                                                                                                                                                                                                                  ",
"                                                                                                                                                                                                                                  ",
"                                                                                                                                                                                                                                  ",
"                                                                                                                                                                                                                                  ",
"                                                                                                                                                                                                                                  "
};
