/* XPM */
static char *SlimeBasic_00011[] = {
/* columns rows colors chars-per-pixel */
"113 77 106 2 ",
"   c None",
".  c #060B05",
"X  c #080E06",
"o  c #091107",
"O  c #0C1609",
"+  c #0E190A",
"@  c #111F0C",
"#  c #13230E",
"$  c #15290F",
"%  c #152710",
"&  c #162810",
"*  c #182D12",
"=  c #1B3314",
"-  c #1E3A16",
";  c #203A17",
":  c #223D19",
">  c #204017",
",  c #24451A",
"<  c #28471E",
"1  c #264A1B",
"2  c #294D1E",
"3  c #2A531E",
"4  c #2D5B1F",
"5  c #2C5320",
"6  c #2E5A21",
"7  c #315724",
"8  c #315B24",
"9  c #336225",
"0  c #356A26",
"q  c #376428",
"w  c #39672A",
"e  c #376F28",
"r  c #3A6C2A",
"t  c #387027",
"y  c #3D732D",
"u  c #3F7D2A",
"i  c #40762F",
"p  c #407F2C",
"a  c #437B32",
"s  c #3F802B",
"d  c #42822D",
"f  c #448A2F",
"g  c #458432",
"h  c #498636",
"j  c #468B31",
"k  c #498C34",
"l  c #4B8738",
"z  c #4D8B39",
"x  c #479031",
"c  c #4B9334",
"v  c #4E9B36",
"b  c #4E933A",
"n  c #4F9A38",
"m  c #509E37",
"M  c #51943C",
"N  c #529C3B",
"B  c #4FA037",
"V  c #50A137",
"C  c #53A33A",
"Z  c #55AB3C",
"A  c #58AD3E",
"S  c #57B13D",
"D  c #59B43E",
"F  c #5ABB3F",
"G  c #5CC03F",
"H  c #57A140",
"J  c #58A641",
"K  c #5AAC42",
"L  c #5CB442",
"P  c #5DBB41",
"I  c #60B646",
"U  c #61BC45",
"Y  c #63BC48",
"T  c #5EC241",
"R  c #5FCA41",
"E  c #62C446",
"W  c #62CA44",
"Q  c #66C549",
"!  c #68C74B",
"~  c #66CA49",
"^  c #69CD4B",
"/  c #64D346",
"(  c #67DC47",
")  c #68DA47",
"_  c #67D349",
"`  c #6BD44C",
"'  c #67DB48",
"]  c #6DDC4D",
"[  c #70DF4F",
"{  c #6FD950",
"}  c #71DD51",
"|  c #65E046",
" . c #67E748",
".. c #6DE34C",
"X. c #6CEB4B",
"o. c #70E44F",
"O. c #71EB4F",
"+. c #6DF24C",
"@. c #71F34E",
"#. c #72FA4F",
"$. c #72E551",
"%. c #75EC53",
"&. c #76F353",
"*. c #79F556",
"=. c #76FD51",
"-. c #79FD55",
/* pixels */
"                                                                                                                                                                                                                                  ",
"                                                                                                                                                                                                                                  ",
"                                                                                                                                                                                                                                  ",
"                                                                                                                                                                                                                                  ",
"                                                                                                                                                                                                                                  ",
"                                                                                                                                                                                                                                  ",
"                                                                                                                                                                                                                                  ",
"                                                                                                                                                                                                                                  ",
"                                                                                                                                                                                                                                  ",
"                                                                                                                                                                                                                                  ",
"                                                                                          & - 3 9 t u u g x x x x g s 0 6 3 1 - = #                                                                                               ",
"                                                                                    & 0 n P ] o.$.*.*.*.*.-.*.*.*.*.*.&.%...` _ E L A c y 1 #                                                                                     ",
"                                                                                1 g T $.*.*.%.&.*.*.%.*.%.&.%.&.&.&.-.&.&.-.&.*.-.-.&.*.%.} U h < O                                                                               ",
"                                                                            - k ` %.%.%.%.%.%.%.o.o.o.o.o.o.o.%.%.&.-.-.-.-.-.-.-.-.-.-.-.&.&.%.{ m 2 O                                                                           ",
"                                                                        + 0 E %.%.%.%.%.$.o.......{ ] ' ] ' ] ] ..X.+.&.-.#.-.-.-.-.-.-.-.-.-.&.%.%.` k ;                                                                         ",
"                                                                      = c $.%.$.%.o.....o.] ] _ _ _ _ _ _ _ _ _ ' ..X.X.+.#.#.-.=.#.=.-.-.-.-.-.-.&.%.$.Y 7                                                                       ",
"                                                                    < K $.$.o.o.$.' | | | / / R ~ R R R R R R R R / | | | +.+.+.#.#.#.#.#.#.#.=.-.-.*.O.%.^ y O                                                                   ",
"                                                                  2 R $.$.o.o.o.' ' | R R R R T T G P T G G T T T T R R R R R / / ) ) ..X.+.#.#.#.=.-.*.*.O.{ p +                                                                 ",
"                                                                7 E $.o.$.o...' ' ~ R R T P T G F D P D D D D G P D T G F P T T G G G R W / ) ..o.@.#.*.&.O.%.{ g +                                                               ",
"                                                              8 ~ $.o.o.{ { / / R R G G P K S S D D D D D D D D Z P D D D F F P D G G F G G E W ) ) @.@.&.&.O.%.} g #                                                             ",
"                                                            8 ! $.} { { | R R T T P D D P Z S S Z D Z F Z F F D F F D D D D D D G D D F D G D G U T / ..X.#.&.O.%.] g O                                                           ",
"                                                          8 ^ } } { ` _ R R T P L L Z Z Z Z Z Z Z Z Z F Z F Z F F D D D D D G D D D D D D D D G G G U W ) ..O.O.%.$.{ u +                                                         ",
"                                                        4 ^ [ { ` ` _ R T T P D Z Z Z Z Z Z Z S Z Z F Z F F Z F Z F D D D D D D D D G D D D D D D G D G T / ..X.X.%.} { w                                                         ",
"                                                      , E } [ ` ` W T T T D Z Z Z Z Z Z V Z Z Z Z D Z F Z D F Z Z Z D D D D D D D D D D D D D D D D D G U T R ....%.$.{ E 6                                                       ",
"                                                    = L [ { { ~ E T P F F Z Z Z V V V V V K K Z Z Z S S Z S Z S Z S Z Z S S S S D D D A D D D D D D D D D G T W ( ..o.o.[ L ;                                                     ",
"                                                  # n } { ` ! E E T F Z Z Z Z N B J V K V Z V Z Z Z V V V Z V S Z Z Z Z Z Z Z S C S S S S D A A D A D D D G G G W ) ..o.o.[ c @                                                   ",
"                                                  y { { ` ^ E E F F A Z Z Z n m V V V V Z V V V V V B B V V V V B V Z Z V Z Z V S S C S S S S S S A S A D D D U T W ^ ..[ [ ^ w                                                   ",
"                                                2 E } ` ^ E E L F F Z Z n m n n V V V V V B V B B B B B B B B B B B B V V Z V V V V S C C S C S S S S S D A D D P T W ) ] [ } E ,                                                 ",
"                                              & Z } { ^ E E F F F A V V n n n n B B B V V V v V s B s V B B x B B B B B V B B V C V C S V S S A S A S S S S S L D U U W ` ] ] ` N #                                               ",
"                                            X u ` { ` ~ U P F A Z V V n c n n n v B s J v s v V V B B v x B B x x B B B B B B B B B V V C C V C V C C S S S C S D F F U W ` { ` ^ w                                               ",
"                                            1 E { { ! U F F A Z V m n c n n n n B v v v v s v s s v s v x B B x x B B x x B B B B B B B B V C C C C C S S C S S D D F L U ~ ^ { ^ I -                                             ",
"                                          @ b ` ` ^ E L F F Z Z N c n n x x v v B V s V s v s B v x V s x B s x B s B s B x B x c B c c B B B V C C C C V S C C S S F F U E ^ ^ ^ ^ g O                                           ",
"                                          8 E { _ R P P P K B H n c c c c n c c c x x x x j x j j x x j x x x x x x x x x x x x v x v f v v v v V V V C C C A A A A D D D U Q ! ^ ^ U <                                           ",
"                                        # M { { ~ T P D Z V H n n c c c c c c c x x x x f j j x f f f f f f f f x f f x x x x x f v f v x x x v v v V C C C C A Z Z A A D U T ! ^ ^ ! h +                                         ",
"                                        5 E ` ' ~ P P Z V V n c c k c c c c c x x x f x f x d f f f f f f s f f f f f f f f f x f x f f f f v v c v v B C C C C Z C C C A D U Q ! ^ ^ I ,                                         ",
"                                      + k ~ ` ` E L D K V B n n c c c c c c x x g x f f d f d f f d f d f f s f f s f s s f f f f f f f f v f x c c c v m C C C B Z Z C Z Z D U E ^ ! ! y                                         ",
"                                      : K ~ } ` P K K V n n c n k c c c x x x g g x d f x x f f s s s f s f f s s f s f f f f s f f x v x x x x c c c n n B V C H N C C C C Z D U E ! ! Z *                                       ",
"                                      8 E ` ..~ L K K V n n c s c x k c c c c m m S L E ^ / Z f s f s f s s s s s s s f s s f s f f C ^ ^ E L A V B n B n n V V C m m m B C C A U U ! ! I 6                                       ",
"                                      h ! ` ..T P Z V V n n c b m L U E W ~ ` [ o.o.O.O.^ D f f s s s s s s s s s s s s s s s s d d x D ^ O.O.o.o.] ` ` ! ! ! T A C m m m m C A I U E ! ! i                                       ",
"                                    & M ~ ' | P Z Z B B n s c n A ~ ` [ [ [ ] ^ ~ U S V f f d s s s s s s s s s s s s s s s s s d d d g x V D G ~ ` ] ] ] ] ] ! D m m M m m m H K U E U ! M #                                     ",
"                                    < K ~ o._ P Z V B n s n b s x c c c m x c x x g d d d s s s s s s u u s u u s s s s u s s s s s s s d d d f x x c m m m N m m m c m m M m C A P Y Y ! A ;                                     ",
"                                    7 L ~ X.R L K B n n n s b s x k k k x d g d d d d d s d u s s u u s u u u u u s u u u u u u u s s d s d d d g g g x c c c c M M c M c m c m N I Q ! U I 2                                     ",
"                                    9 L ` X.R L Z B n c n b s c x k x g g d g d d d d d s s u u u u u u u u u u u s s s u u u s u s u d s d d d d g x g h x x c m M c M c M c m Z A Q Q ! I 8                                     ",
"                                    y L ` +.R K H n n n c s b c h g x g x g d d d d d d u u u u u u u s s s f c x x f f s u u u u u u u d s d d d g g g g h h c c c m c c M c M C A Q / ! I i                                     ",
"                                    r I _ +.R K B n n n k k k k x g x g g g g d d p u u p u u u u u s f m L ^ [ [ [ ^ P v f s u u u u p p d p d d x d g x g k x c M c c M c c m m A E ) Q U i                                     ",
"                                    r I _ +.R K H n c s k c s k k g g g g g d d p d d p p u u u u s x F } %.%.%.%.%.%.%.| F f s u u p u p p p d d d d g g g x h k c M c c c k m N N Q ) Q Y i                                     ",
"                                    r I _ +.R K B n c b c k k k x g g g g d d g d p p u u u u u s c G o.*.%.*.%.%.%.%.%.%.O.G x d p p p p p d p d d g x g x x g k c M M M c z M N A Y ) U Y i                                     ",
"                                    q L _ +.R K H n c k k k k k h g x g d g d d d p p u u u u d f L o.%.%.%.%.%.%.%.%.%.%.%.O.F d p p p p p p p d g d d g h g h k c c c k c c M H N Q ) U Y r                                     ",
"                                    8 K E @./ L n n x c k k k k c g f g g p g p p p p p p p p g c ^ %.%.%.%.%.%.%.%.%.%.%.%.%.` x d s u p d p d d d d g x g g x g k z c b c b b N H E _ Y I 9                                     ",
"                                    < A E +.( D Z b b k k k s k g f g g g f g g p p p p p p p p B ] %.%.%.%.o.[ ] [ $.%.%.%.%.] n d s p u u d p p d g d g g g k c b x b k k c b N H R / Y I 2                                     ",
"                                    = N U X. .P H n c x k k k k g g g g g p g p p p p p u p u p c W %.%.] G V x c c V G ] %.%.! k d u p p d p d d d g d g g g x k c k b k b c b N H E E I H ;                                     ",
"                                      h I ] +.T Z n c b c k g g g c g g g g p p d p p p p u u u d c Z C x d u u u u u f c V A c d p u u p p d p d d d h g g h k k k k b k k b b N H E U I b %                                     ",
"                                      w L W +./ H n b c g c h g g p c p g p g f p p p p p p p u u u u u u u u t u u u u u u u u u p u p p p p g g d d g h d k g k k k z k z b M N H E I I i                                       ",
"                                      < A U  .| K N b b k k k k g c z a g g g p f p p p p p p u u u u u u u u u u t u u u u u u u p p p p p p p d g h d d h g g k k k k k z z n N K Y L J 6                                       ",
"                                      & l I /  .T H n b c k k g z p p z f p g p p p p p p p p p u u u u u u u u u u u u u u u u p p p p p d p g d d h d h d k k k k k k z z M M N K L K M =                                       ",
"                                        8 K E ) R K M M b k k h p c g p g g g g g g p p p p p p u u u u u u u u u u u u u u u u p p p d p p d p g g d h g k h g h h k k z M M N J K L K i                                         ",
"                                        : H I ! ) L H M M k M a z p g g g g g p p g p p p p p p u u u u u u u u t u u u u u u u p p p d p d d g d g g g g g h h h k h k z b M N H H K H ;                                         ",
"                                          w K I W G A N M M z z z z g g g g g g g p p p g p p p u u u u u u u u u u u u u u u u p p p p p g d g g f g g h k g l h k k k z M M H H H J i +                                         ",
"                                          ; z K U U D C M k z z z z g z g g g g p g g p p g p p p u u u u u p u u u u u u u u u p p p p p d d d g g g g g g l l k k k z M M N H H H M ;                                           ",
"                                            5 H L G L C M M z z z a z a g g g g g g p p p p p p p p u u u u p p u u u u u u u u p p g p g a g g g g g k g k l a h k z z M M M M N H 7 X                                           ",
"                                            @ w C L L A H z z z z a z z z z c p z p a g a p p p p p p p p p p p p p p p u u p p p p p g g p g g g g g k l l l z z z z z z M M M H w +                                             ",
"                                              & w H J C H M M z z z z z z a z a a k z a k k a p a p p p p p p p p p p p u p p p g p g p p g g g g g h k l z z l z z M z M M M M w @                                               ",
"                                                + w N H H M M z z z z a z a z a z a z a a a a k k p a a p p p p p p p p p p a p p d g g g g g h h h l l z l z z z z z M M M M 7 @                                                 ",
"                                                  + 7 z H H M M M z z z z z z z z a k z a z z a a a k a a a p p p p p p p g a p d a g a h h h l l l l z z z z z z z M M M a < +                                                   ",
"                                                      : y M M M M z z z z z z z l h h h g h a g a l a g a a g a a p d g p a p g a h a h h h h h l l l z z z z z z z z a 7 *                                                       ",
"                                                        + < w l z M M M M z z z z l l h l l l g h a h g g g a h g a g a g h g h h h h h h h k z l l z z z z l l a i < % X                                                         ",
"                                                            O * < 7 w w w w i i y y a a a a a g h h h l h h h g g h g g g h h h h h h h l a a a i i w 8 7 < ; ; # +                                                               ",
"                                                                        + + @ @ % % % % * * = ; , 2 6 8 w w i a a a a a a i y w 0 7 6 < ; ; * % @ +                                                                               ",
"                                                                                                        + # # * * * * = * & # +                                                                                                   ",
"                                                                                                                                                                                                                                  ",
"                                                                                                                                                                                                                                  ",
"                                                                                                                                                                                                                                  ",
"                                                                                                                                                                                                                                  ",
"                                                                                                                                                                                                                                  ",
"                                                                                                                                                                                                                                  ",
"                                                                                                                                                                                                                                  ",
"                                                                                                                                                                                                                                  "
};
