/* XPM */
static char *SlimeBasic_00021[] = {
/* columns rows colors chars-per-pixel */
"113 77 104 2 ",
"   c None",
".  c #060C05",
"X  c #080F05",
"o  c #0A1307",
"O  c #0C1509",
"+  c #0E1A0A",
"@  c #111F0C",
"#  c #13230E",
"$  c #152A0F",
"%  c #162A10",
"&  c #192F13",
"*  c #1C3414",
"=  c #1E3B16",
"-  c #203E17",
";  c #213D18",
":  c #24441A",
">  c #28471E",
",  c #264A1B",
"<  c #284A1E",
"1  c #2A531E",
"2  c #2C581F",
"3  c #2C4E20",
"4  c #2D5421",
"5  c #2E5921",
"6  c #305624",
"7  c #325D24",
"8  c #336525",
"9  c #366B27",
"0  c #38662A",
"q  c #376928",
"w  c #3A6B2A",
"e  c #3D722D",
"r  c #3E7D2A",
"t  c #40762F",
"y  c #407E2C",
"u  c #417530",
"i  c #447C32",
"p  c #3F802B",
"a  c #42822D",
"s  c #448A2F",
"d  c #458432",
"f  c #498636",
"g  c #468B31",
"h  c #498B34",
"j  c #4B8738",
"k  c #4D8C39",
"l  c #479031",
"z  c #4B9334",
"x  c #4D9B36",
"c  c #4E923A",
"v  c #4F9B38",
"b  c #509E37",
"n  c #51943C",
"m  c #529D3B",
"M  c #4FA137",
"N  c #50A137",
"B  c #53A43A",
"V  c #55AB3C",
"C  c #58AD3E",
"Z  c #57B13D",
"A  c #59B43E",
"S  c #5BBB3F",
"D  c #5CC13F",
"F  c #569E40",
"G  c #57A440",
"H  c #59A542",
"J  c #5AAC42",
"K  c #5CB342",
"L  c #5DBC41",
"P  c #60B646",
"I  c #61BC46",
"U  c #64BF48",
"Y  c #5EC341",
"T  c #5FC941",
"R  c #62C345",
"E  c #63CB45",
"W  c #65C549",
"Q  c #68C74B",
"!  c #66CC49",
"~  c #69CD4C",
"^  c #65D346",
"/  c #65D946",
"(  c #68DB47",
")  c #66D348",
"_  c #6BD44C",
"`  c #67DC48",
"'  c #6CDB4C",
"]  c #70DF4F",
"[  c #6FDB50",
"{  c #71DC51",
"}  c #66E247",
"|  c #6DE34C",
" . c #6CEB4B",
".. c #71E64F",
"X. c #71EC4E",
"o. c #6DF24C",
"O. c #70F54E",
"+. c #72FB4F",
"@. c #72E451",
"#. c #75EC53",
"$. c #76F253",
"%. c #79F556",
"&. c #76FC52",
"*. c #79FD55",
/* pixels */
"                                                                                                                                                                                                                                  ",
"                                                                                                                                                                                                                                  ",
"                                                                                                                                                                                                                                  ",
"                                                                                                                                                                                                                                  ",
"                                                                                                                                                                                                                                  ",
"                                                                                                                                                                                                                                  ",
"                                                                                                                                                                                                                                  ",
"                                                                                                                                                                                                                                  ",
"                                                                                                                                                                                                                                  ",
"                                                                                                    = 1 9 d z x l r 8 :                                                                                                           ",
"                                                                                            % 5 d A ) @.$.%.%.%.%.%.#._ L l 8 =                                                                                                   ",
"                                                                                        3 p Y ] $.$.%.%.$.$.$.$.%.%.$.%.%.$.#.E B r < #                                                                                           ",
"                                                                                  + 1 v ' %.#.$.$.#.#.#.] ......#.$.*.*.*.*.$.*.*.$.' Y z 7 $                                                                                     ",
"                                                                              + 1 C ] $.$.#.#.#.@.] | | ' ' ' | |  .o.*.*.*.*.*.*.*.%.%.%.@.R z 7 %                                                                               ",
"                                                                          o 1 B ] #.#.#.#...] | ' ' ) ) ) ) ) ) ' |  ...+.*.*.*.*.*.%.%.%.%.%.%.] R f : X                                                                         ",
"                                                                        : v ] #.#.#.#.] ] | | / ) ! ^ E E E E E E ^ / }  .o.+.+.*.*.*.%.%.%.%.%.#.#.#.[ m 3 +                                                                     ",
"                                                                    % i _ #.#...@.....| ' / ^ T T Y Y Y D D D D D D D D }  . .o.+.+.+.+.&.&.*.*.*.*.#.#.#._ x *                                                                   ",
"                                                                X 1 P @.@.@.......| ' / ^ ^ D D Y S S S A A A D S D D D D D } D (  .O.O.+.&.&.&.*.*.*.*.#...@.U 7 O                                                               ",
"                                                              # y ~ @.@.@.@...' ' / ^ ^ D D S S S A A A A A Z Z A A A D A D D D Y T ^ (  . .O.+.$.&.$.$.$.$.@.@._ a #                                                             ",
"                                                            = B { @.@...] ] ] / ^ E T D D S S A Z C A A A A A S A A A A A A A D S S S D Y ( ( ( X.X.X.+.$.%.%.X.@.{ m &                                                           ",
"                                                        . 7 I { @.{ ] ] ' / / ^ E D D S A A A V Z Z Z Z A S S Z A A A A A D A A S A S S S D Y T ^ ( | X.X.+.$.X.#.] [ B *                                                         ",
"                                                      o 9 ~ { { { ] _ _ ^ ^ T Y D S A A A V V V V Z A Z A Z Z S Z A A A A A A A A A A S S S S S S Y Y ( ( | ..X.#.#.@.{ B &                                                       ",
"                                                    o e _ { { [ [ / ^ E D D D S A A C C C V V V V Z Z Z Z Z Z Z Z A A Z A A A A S A S A A A A S S S Y Y T ( '  .X.X.#.@.{ m $                                                     ",
"                                                  X w _ { ] _ _ ! E E Y D S A A V V V V M V V V Z Z Z V Z V Z V Z Z Z Z A A A A A A A A A A A A S A S S Y Y T ( | | ....] { g @                                                   ",
"                                                  7 _ [ ] _ ~ E Y Y Y L S A V V C V N N C V V V V Z Z M V Z M V M Z A Z Z Z Z Z A A A A A A Z Z A A A A S L Y R E / | ....] ! 0                                                   ",
"                                                : I { _ _ ~ R R Y L L A A V V V N N N C N V C C V M M M M M M M M M M Z M Z M Z V C A A A A A A A A A A A S S S R E / ] ' ..[ I :                                                 ",
"                                              % B { { _ ! R R I L K A V C B N N N N N V V N N N M M M M M x M M M M M M M Z M Z Z Z V C V A A A A A A C A A S S S R T / ] ] ] [ v @                                               ",
"                                            o r { { _ ~ R R S S K A V V N b b b N N N N N N N N x x x x x x M M M M M M M N M M N V N Z V V C A C A A C A A A A S S L R ! / [ ~ ~ 0                                               ",
"                                            < W { ~ ~ R I L S A C C B B b b b b x M M N M x M l x x l x M M M M M M x M M M M M N N C Z N V V C Z C A Z A C A A A A S L Y ! ' [ [ J -                                             ",
"                                          # m [ [ ~ R L S S A C C B b m b b z b M M M x x x x x l x l l p M p M p M p x M M M M N N N N V Z N C Z N V Z V V V V A A S S L W ! _ ~ Q y                                             ",
"                                          8 ~ [ _ W I L A A C B x x b z z b b x x x x x l l x l l x l l p M p M M x M M p x x M N N N N N N B C Z C N C V C V V C A A K S U W ! [ ~ I :                                           ",
"                                        * C [ _ ~ U K S A C B B b x v b z z b z x x l x x l l l l l l l x p M p M p p x M x M p l b b b b N N N N B N V B V V V C C V A A L U ! ~ ~ ~ f @                                         ",
"                                        0 ~ _ _ T Y K Z Z J N F x z z c z x z b v l l z l l l l l l s s s s s s s s s l l l l l l x x x x x x B B B B V B C B C C B C C A A L W ! ! ! U >                                         ",
"                                      % H _ ` ~ Y Z Z K N N x G z z z z z x z z z l l l l l l s s a s s s s s s s s s s s s l l l l l l x x x x x x N B B B B C V C B C C Z A U W ! ~ ~ f                                         ",
"                                      6 W _ ` ~ L K K N N x x p z z z z z z z z l l l l d l a s s s s a s p s p s s s s p s s l l l l l l l x x l b b b B B B B N B B B B B C A U W Q ! J ;                                       ",
"                                      h ~ _ _ Y K K J N x x x M z z z z z z g z l l d l l d a s a a s a s p p p p p p s s s s s s s s l l l l l x b l b b b B B V b V b V b V A P W Q ! Q 0                                       ",
"                                    = J ~ ` _ L J Z N M x p F p g z g z z l l l g g z z b N x s p s s p p p p p p s p p p s s p s s x V b v z z l x x x x b b B B b b b b b B C K U R Q Q z @                                     ",
"                                    4 U _ ] ~ K Z N K p x x p F v g v v z x x b B A R ! ] / V s p p p p p p p p p p p p p p p s a l V ' ] / R A C B b b m b B b b b b m b b b B J P U R U U ;                                     ",
"                                    e W ` ` Y S K N M z p F p z b P I R E _ _ ....@.#.../ C l a p p p p p p p p p p p p p s p p a a l V ! @.X.#.@.] _ _ Q ! R U A B m m m x m b B K U U Q U 7                                     ",
"                                    h W ` } L K N Z G p F p F F C _ @.@.@.@.@.] ] ! L C l a a p p p p p p p p p p p p p p p p p a a a l z C S ^ _ @.@.#.@.@.@._ P n n x x x x m B J U W Q U i                                     ",
"                                  = M W ] ` L H G M z z h p F p g m B C C B N b z l a a a p p p r r r r r r r r p p r r p p p r p p a a a a s l v b N C C J B m b m z x m x h x F C P R W W x                                     ",
"                                  ; H W o./ L H M M z z z z p h g g g g a l a l a a a a p a p p r r r r r r r r r r r p r r p r p r p p a a a s a d l l g z z z m x c z x h m x m G P R W W B *                                   ",
"                                  3 J W o./ K V N M F z z p F p g g f l d s d a a a a a p r r r r r r r r r r r r p r p r r r r p p r a p a a a a a l d f g z z g m c m x c x h m G K _ ! W A :                                   ",
"                                  4 K W o./ K M F z h z h h p F g g f a a l a d a a a a r r r r r r r r r r s g s s p p r r r r r r r p p a a a a l d d d z g z c z m g h m h m m C V T ! U P 3                                   ",
"                                  6 H Q o./ K M M z h h h l h d g g l d d a a a a a a r r r r r r r r p x A U _ _ _ W A l p p p r r r r y a a a a d a g l d l g g m h m h x h x h G A W _ U P 6                                   ",
"                                  6 K Q o./ K M M z z h h h h h g f d a d a a d a p y y y r r r r r l A { #.X.#.#.#.#.#.( Z s p r r r y y y y a a a a d d d d g g g c x m h h m m b A ! ( U P 5                                   ",
"                                  4 J Y o./ K F F z h h h h h l f d d l d a a a a a r y r r r r r z D ..#.#.#.#.#.#.#.#.X...D l a r r y y y a y a a d d d l l f f m h h h h x h m F C ! ( U P 5                                   ",
"                                  3 H Y o. .L M M z z h h h d h g f d d a d a a y y y r y r r a g A ..X.#.#.#.#.#.#.#.#.#.X.X.S s y r r r y a a a a d a d d d l h h h m c h h n c m C ! ! A P 3                                   ",
"                                  - m I  . .L G v c z d h d h d d g g d d a a d y y y r r y y y z _ X.#.#.#.#.#.#.#.#.#.#.#.#._ z a r r y a y a a a a a d g g d g g k z c h l c c m H ^ ! P J :                                   ",
"                                  # k P } o.Y B v v z c h h l h z d d d a d a y a y y y y y y y b ' #.#.#...] _ _ _ ] #.#.#.#.] x a r r r r y a a a a a a f f f g c g z l c h c m m J ! I U B *                                   ",
"                                    i P ^ o.^ C v v z d h h h d d d d d d a y a y y y r r r r y l U ..{ E V z l l l z V _ ] ..U l a r r r y a y a a f a a g d f k g c z k d l c n F J E I I c #                                   ",
"                                    7 J R  .} K F v z c h h d h g d d d a d d a a a y y r y r r r g x x l r r r r r r r s z z l a r r y y y y a a a a d d d d l k g d k l c c c m m J R P P t                                     ",
"                                    ; m K }  .L G v c l d h h d g g i g d a a a y y y y y y y r r r r r r r r r r r 9 r r r r r r r r r y y y a a f a f a f f d g g k g z k c c F G J L J J 6                                     ",
"                                    + i K T  .^ G v c k h h h d g i i g d a d y a y y y y y r r r r r r r r 9 r r r r r r r r r r r y y y y y y a a a a a f a f f g g k d k k c F F K K P m *                                     ",
"                                      6 C I ( ( K B c c c h d h i g g i d a d a a y a y y y y y r r r r r r r r r r r r r r r r r y y y a y y d a y a f d g f l f g g k g k c n F H J J J t                                       ",
"                                      # g J R ^ Y H F c c d h d g i g g d d y a a a y y y y y y r r r r r r r r r r r r r r r r y r y y y y y y a f f a f a f d f g f k k k n F F H J J F ;                                       ",
"                                        7 H P W ! C b n n k k j g g g i g i g i d y y y y y y y i r r r r r y y r r r r r r r r y y y y a y a d a a d d d d d j g f k g k n n F m F H H u +                                       ",
"                                        # i H U R I F b n k k k j i i g i g g y y d d y y y y y y r r r r r r y r r r r r r r r y y y y y a y a d d d d d f d j j g g k k k F n F F H k ;                                         ",
"                                          ; n J I S C b n j k i k i g i i g i d y y d y y y y y y y r r r r y y r r r r r r r r y y y y a a a a d d d d d g i i g f g k k F k F F F F 3 .                                         ",
"                                            ; n C A C F n n k k k j j g g i g y d d y y y d y y y y y r r r y i r r r r r r r r y y y d a i d d a d d f d f F i j k k k k k n n n F 6 +                                           ",
"                                              6 n C C F F k k k k k k i g i g i y d y y d y y y y y y y y y y y y y y y r i y y y y d y r d d d d d d d j j j i j j i F k F k F k 6 +                                             ",
"                                                > j C F n n n k k k k k i k i k d d j y y y f d i y y y y y y y y y y y r i y i a y y a d y d d d d d d j j j F F i F i F k F u : +                                               ",
"                                                  > i F F n n k k i i k k i k g i j d f j i y i y j y y d y a i y y a y y y y y a y a a y d d d d d d k j j j j j j F F F j 7 &                                                   ",
"                                                    * t n n n n n n k k k k k i f f j i f j f i j i y j y y d a a i i a y a a i a i d i d d f d j j g k j j j j j F i F u 3 @                                                     ",
"                                                      @ 4 j F k k k k k k k j j f f f f f d i f i d i d d f i d i d i i a f a d i f f f i f f f f j j z j j k n n j i > %                                                         ",
"                                                          & 0 k k F k k k k f k f j f f f f f f f f d f f i i f f d f a y f i f d f f f f f f f j k k k k k k i u > #                                                             ",
"                                                            o = 7 i k c k k k k g k f j j f f f i i t i t t t t i i i f f f f f f f f f j j f z k k k j i u > ; #                                                                 ",
"                                                                  # ; 3 7 w u i u t e 0 7 4 : ; * & # # # # # & & * : < 6 7 0 w t y i i i f i i u 0 6 : & +                                                                       ",
"                                                                            + # # @ @                                         @ # & & & & & & & #                                                                                 ",
"                                                                                                                                                                                                                                  ",
"                                                                                                                                                                                                                                  ",
"                                                                                                                                                                                                                                  ",
"                                                                                                                                                                                                                                  ",
"                                                                                                                                                                                                                                  ",
"                                                                                                                                                                                                                                  ",
"                                                                                                                                                                                                                                  ",
"                                                                                                                                                                                                                                  "
};
