/* XPM */
static char *SlimeBasic_00015[] = {
/* columns rows colors chars-per-pixel */
"113 77 102 2 ",
"   c None",
".  c #060C05",
"X  c #080F06",
"o  c #091207",
"O  c #0C1508",
"+  c #0D190A",
"@  c #111F0C",
"#  c #13240E",
"$  c #162C0F",
"%  c #162710",
"&  c #172B11",
"*  c #192E12",
"=  c #1B3314",
"-  c #1E3B15",
";  c #1F3818",
":  c #203A17",
">  c #223D19",
",  c #24431A",
"<  c #264C1B",
"1  c #294C1E",
"2  c #2A531E",
"3  c #2B4F20",
"4  c #2D5521",
"5  c #2E5A21",
"6  c #315C24",
"7  c #336325",
"8  c #376D27",
"9  c #376329",
"0  c #39662B",
"q  c #3A6C2A",
"w  c #3C742C",
"e  c #3F7D2A",
"r  c #40752F",
"t  c #407F2C",
"y  c #427731",
"u  c #437C31",
"i  c #3F802B",
"p  c #42822D",
"a  c #448A2F",
"s  c #458432",
"d  c #498636",
"f  c #468B31",
"g  c #498C34",
"h  c #4B8738",
"j  c #4D8B39",
"k  c #479031",
"l  c #4B9334",
"z  c #4E9A36",
"x  c #4E923A",
"c  c #4F9A38",
"v  c #509E37",
"b  c #51943C",
"n  c #529D3B",
"m  c #4FA036",
"M  c #50A137",
"N  c #53A43A",
"B  c #55AB3C",
"V  c #58AC3E",
"C  c #57B13D",
"Z  c #59B43E",
"A  c #5BBB3F",
"S  c #5CC13F",
"D  c #569B40",
"F  c #57A340",
"G  c #58A541",
"H  c #5AAC42",
"J  c #5DB443",
"K  c #5EBC42",
"L  c #60B646",
"P  c #61BC45",
"I  c #63BD48",
"U  c #5EC341",
"Y  c #5FCA41",
"T  c #62C345",
"R  c #63CB45",
"E  c #65C449",
"W  c #68C64B",
"Q  c #66CB49",
"!  c #69CD4B",
"~  c #64D246",
"^  c #65DA46",
"/  c #67D348",
"(  c #6BD44C",
")  c #67DC48",
"_  c #6CDB4C",
"`  c #70DE4F",
"'  c #6FDA50",
"]  c #71DD51",
"[  c #67E547",
"{  c #6DE34D",
"}  c #6DEC4C",
"|  c #70E44F",
" . c #71EC4E",
".. c #6CF24B",
"X. c #71F34E",
"o. c #72FC4F",
"O. c #72E451",
"+. c #75EC53",
"@. c #75F352",
"#. c #79F556",
"$. c #76FD51",
"%. c #79FD55",
/* pixels */
"                                                                                                                                                                                                                                  ",
"                                                                                                                                                                                                                                  ",
"                                                                                                                                                                                                                                  ",
"                                                                                                                                                                                                                                  ",
"                                                                                                                                                                                                                                  ",
"                                                                                                                                                                                                                                  ",
"                                                                                                                                                                                                                                  ",
"                                                                                                                                                                                                                                  ",
"                                                                                                                                                                                                                                  ",
"                                                                                                    $ = - - - -                                                                                                                   ",
"                                                                                          $ < 8 l C K Q / ( ( R K V l w 2 - $                                                                                                     ",
"                                                                                      , s U { +.#.#.#.#.#.@.#.#.#.#.#.@.+._ K M a 8 4 : #                                                                                         ",
"                                                                                  , g ( +.#.+.+.+.+.+.+.+. .+.+.@.@.#.#.@.#.#.%.#.+.| ( A l 7 : +                                                                                 ",
"                                                                              $ p / +.+.+.+.+.+.| { { { { _ { { +.@.$.#.$.#.%.%.%.%.%.#.#.#.+.! V 6 #                                                                             ",
"                                                                            6 I +.+.+.+.+.{ { { _ _ _ / ( _ / _ { } X.o.$.$.#.#.%.%.%.%.#.#.#.#.+.| L 9 +                                                                         ",
"                                                                        # p _ +.+.+.` { { _ _ / / / / R / R R / / _ { } X.o.o.$.%.%.%.%.%.#.%.#.#.+.+.` v >                                                                       ",
"                                                                      ; N +.+.+.`  .` ^ ^ ^ Y Y U U U U S S S S Y ^ [ [ [ } ..o.o.o.o.o.$.$.$.$.%.%.+.+.+.L 4                                                                     ",
"                                                                    1 K +.+.` ` ` ` ^ ^ ~ Y Y S A S S A Z S S S S S S S Y / ^ ^ [  .X.X.X.o.o.o.$.$.%.@.+.+.! 8 o                                                                 ",
"                                                                . 5 E +.] +.` { { ^ Y Y U K S Z Z Z C Z Z Z Z S Z S Z S S S S S Y Y R / _ [  .X.X.@.@.@.@.+.+.! w o                                                               ",
"                                                              o 8 ( ] +.' _ _ ^ / Y U S Z K Z Z Z C C C Z Z Z Z Z Z Z S Z Z A A A A U A Y Y W / _  . .@.@. .+.+.( q X                                                             ",
"                                                            o r ' ] +.' _ _ / Y U S Z Z C C C C C C C C Z Z Z Z Z Z Z Z Z Z Z S A A A A A A A T Y Y ^ {  .@. . .+.! q                                                             ",
"                                                          O p ' ] ] _ ( ^ Y Y U K Z Z Z C C C N C C C C Z Z Z Z Z Z S Z Z Z Z Z B A B A A A A A P Y Y ~ ^  . . .+.` ! 6                                                           ",
"                                                        @ t ' ' ` _ ( R Y U Y Z Z Z C N C N N C C C C C Z Z C Z Z Z Z Z Z Z Z Z A A B A A B A B Z A P S R ~ {  .} +.] I ,                                                         ",
"                                                      X t ' ` ' ( ! R R U U Z C C N C N N N C N C V C C C C C C C Z Z Z Z Z Z Z B A A A B A A B Z Z A A S Y ~ { { | +._ V *                                                       ",
"                                                      7 ! ` ' ( R T T U A A Z V G N N N N N C C C C C M M C M C C C C C C C C Z A A B A A B B A B A B A A U U R _ { | | ' p o                                                     ",
"                                                    < Q ' ' ( W T T K A Z B V M N M M N N C N N M M M m M C M C M M C C M C C C B A A B A B A B A B A A A A A K R ) | | ` E 2                                                     ",
"                                                  = H ] ' ( Q T T K A Z B N M v M M M M N N N m m m m m m M m M M M C M M C M C B B B B B B A A B B A B A A A J U R ) ` ` ' V *                                                   ",
"                                                + g ' ] ( Q T T A Z Z B V M v v M M M M N m m m m m z m m m m m M M m M M M M M M B B B B B B B B A B B B B A A A T R ( ` ` ! r                                                   ",
"                                                5 ( ] ( ! T S A Z C V N M v z z m m M M m m z z z z z i k m m m m m m m M M M M M B M B B B B B B B B B B A B A A K U Q ( _ ' L :                                                 ",
"                                              = J _ ( ! T I I Z C V N n v z c z z m z z z m i z k z z m m k i m m k m m M m M M M M M B M N N B V V B B B B B J C K K U Q ( ( ! g @                                               ",
"                                            o s ( ' ! E K K Z B V m n z l c l v z z z z z i i z z i i m m m m i i m m m k m m m v v M M M N N B N N B V B B B B C A J K E ( ' ! W 4                                               ",
"                                            < I ' ( ! I A Z Z B N z z c c z l z z z k k z z z k k z m i i m i m k k i m k m k m z v v v M M N M N V N N B B B B B B Z K K E ! ! ! b #                                             ",
"                                          + g ( ( ( U K C K H N m z c l l c l l l l k k k f k k a k a k a a k k k k k k k k k z z l z z z z M M M M M B V v V V V B B A J I E / ! I 6                                             ",
"                                          , L ' ( Y K Z C B N z c l l l l l l l l k k k f f f a a a a a a a a a a a k a k k k k k l k l k l k m z M M M v V V M M V B B A I E W W ( b @                                           ",
"                                          e ( ( ( E K B B B N z l l l l l l l l k k f f f a a a a a a p a a a a a a a a a a a a k k k k l l l k l v v M v N M V V V N V B J I W ! W I 1                                           ",
"                                        = H ( ] / K K C N N m F l l l l l l l l f f f f f a a p p p p a a i i i i a i a a a a a a a a k l l a l l z l v v V M N M M M V B B J Y ! W ! u                                           ",
"                                        5 E ( ) Q J H H N m z i l l g l l k a g f p f f a a a a a i p p i i i a i i i a a a i a a a a a f f f f g l l v v v M M N v N v M N J P T Q W B :                                         ",
"                                        w W ( ( U J H N N F i F g g l l l g l z z v M Z A U m a a i i i i i i i i a i i i i i a a a M U U J B N v v l v z v v v v N v b v N B J I E W I 4                                         ",
"                                      % D Y ) ) U C B N m i D i N L T T R ! ( _ _ ` | _ Q Z k p i i i i i i i i i i i i i a i i p a l C Q ` [ O.` _ ( / W W T I G N v v v v N J I T E W t                                         ",
"                                      ; H ( ) Y K B N m z F i D M J T R ! R T K I B M z a p p i i i i i i i i i i i i i i i i i p p p a f z M B A I T W W / W Y G v v v z z v J L T E W b #                                       ",
"                                      4 J Q ` ~ K B m m z i D i g l g k g f f a p p p p i i i i i i i e e e e e i i i i i i i i i p i p p p a a a f g g l c l c v z z z l v v G H I E W H :                                       ",
"                                      9 J '  .Y H N m z z z i D g g g f f f a p p p p p p i i i e e e e e e e e i i i i e e e e e t i p p i p p a f f f g g l c b b x x b v v v J I T I L 4                                       ",
"                                      q K ( } Y H N D l l D i i f g f f f p s s p p p p e e e e e e e e e e e e i i i i e e e i i i e p i i p a a s f f g g l l z l l x l l v D J T W T I 6                                       ",
"                                      w K (  .K H M z z l i l l g f g f s f p p p p p p p e e e e e e e i a l v M M m a i i e e e e e e p p p p a s s f g g g l b b z l x l b v N T ~ W I r                                       ",
"                                      w L ( ..Y N M z l l l g g g f f f u f s p p p p e e e e e e e i a V E ` +.+.+.` W m a i i e e e t t a t t t s s s f g g g l l l b l l b v V P ~ T T t                                       ",
"                                      w L ( ..E H m z l g g g g g f f u u f p s p p t t t e e e e i k S O.+.+.+.+.+.+.+.[ S k i e e e t t t t t a t s s s s s g l b l b b l v b V P _ E L t                                       ",
"                                      w L ) ..U H z l l l g g g f f f f f u s p p t t t t e e e p l Y  .+.+.+.+.+.+.+.+.+. .Y k t e t t t t t a u t a s f h f g l b l l h l b b N L _ I I t                                       ",
"                                      9 L / ..Y H z D l g g i g f f u f u f p p p p p t e e e t a J O. .+.+.+.+.+.+.+.+.+. . .Z a t e t t t t t a a a s u f f h l l h l l l l v N L _ Y I t                                       ",
"                                      6 H ! ../ V n z l g g g g h h a a h t a t t t t t t e e a l !  .+.+.+.+.+.+.+.+.+.+.+.+._ z p e e i p t p p p p f u f h f g c j j g c c c N K / I I q                                       ",
"                                      , V T ..^ C n z l l g g g a h t h a a t h t t t t t e e t v _ +.+.+.+.+.+.` +.+.+.+.+.+.' z p e e t e t p p p y f f f f h g g l c g g j D D K / I L 6                                       ",
"                                      = b L } [ J n l l g g g s h a h a t u t t a t t t t e e t l ! +.+.| R B m z N Z T ` +.+.! l p e t t p t t p p f s u h f h g j j g j g j c N K Q L H ,                                       ",
"                                        f L _ } K n c c g g g g h a u a a h h t t t t t t e e t a N T I N a p e e e p k N U U N p t t e t t p p p s p s f f u f g g g g g c j D F E T L n =                                       ",
"                                        9 J R ../ F c j j g g s a u h a a t a t t t t t t e t e e p p p e e e e e e e e e p p p e e t e t t t s s p f y f f f h g g g g j c c c F K K L f                                         ",
"                                        > n I [ [ G D c c g g g h a u a h u u a a t t t t t e e e e e e e e e e 8 e e e e e e e e t t t t t p t t s f y u f f h g g g g g j D D G K J J 0                                         ",
"                                        @ s L Q [ K N c j g g g h a h a a t t h h t t t t t t t e e e e e e e e e e e e e e e e t t t t t p p p f f f f f f f f g g j g j j D G G J J D >                                         ",
"                                          4 G I ^ Y G c c j g s a h t h h t a t t t a u t t t t e e e e e e e e e e e e e e e e t t t t t t p p y p y f u f u h g g j g d D D D G J L y @                                         ",
"                                          ; b L T R L N n h h a h a h a t a t u u a t a t t t t e e e e e e e e e e e e e e e e t t t t p t p s s s s s s g s d s g j j j j D D G H G 3                                           ",
"                                            6 G U R U N b b b h h h h t h t a h t a t u t t t t t e e e e e e e e e e e e e e e e e p t t p p y s s s s s s d d g g h c c D n F D G u %                                           ",
"                                            * h V U U V n b h b h h a a h t t a t t h t t t a t t t t e t e e e e e e e e e e e t p t p s p s s s s g s g s y h f j j j j b D D G D 3                                             ",
"                                              > b V L V N b b h h h h h h a h u h t t t t u t t t t t e e t t t e e e e e e e e p p y t t s s p s s s s s g D u h j j j b D b n D 6 o                                             ",
"                                                3 D V H V n b b j j j h h u h h a u h t t t t a u t t t t t t t t e t e e e e e p p t t s t s s s s s g u D u h D u h D D b b D r @                                               ",
"                                                + 6 D V D n b h j j j h h h a h h u t h h h u u u t u t t t t t t t t t e e u u p p p s y s s s s g j s h h D h h D j h j D b 6 %                                                 ",
"                                                  + 6 D D D b j b j h h h h u h h h a h u h h t h u a u p u t p t t t t t t u u t y p s s s s d s h h h h h y D D u h D D u 3 o                                                   ",
"                                                    + 4 b D b b b j h b h h h h h h u h u h u h t u a t p p u u t t p u t p u p t s s s s s s h j h h j h h D u D D D h 0 : o                                                     ",
"                                                        3 y D D D u D D y D h h h d d d h s s y s f u u h u u f u u f u f y u f u f u h f h h h h j j j j j j b j u 0 : O                                                         ",
"                                                          % 4 y D D D y D y j j j d d h f g h h h u f f u f u u f u u u u f u f h u h u u h h h j j j j h f y 0 1 % X                                                             ",
"                                                              % 3 q w D d j h h g d d y y y y y y y y y u f h h f u u f f f u h h h h f h h h h u y 0 4 > : @ X                                                                   ",
"                                                                  O @ ; ; ; , , , ; ; ; % % % % % % = - > 3 4 6 0 r y y y u u u u y y r 0 6 3 > * @                                                                               ",
"                                                                                                                O @ % * * * = = * * # O                                                                                           ",
"                                                                                                                                                                                                                                  ",
"                                                                                                                                                                                                                                  ",
"                                                                                                                                                                                                                                  ",
"                                                                                                                                                                                                                                  ",
"                                                                                                                                                                                                                                  ",
"                                                                                                                                                                                                                                  ",
"                                                                                                                                                                                                                                  ",
"                                                                                                                                                                                                                                  "
};
