/* XPM */
static char *SlimeBasic_00026[] = {
/* columns rows colors chars-per-pixel */
"113 77 108 2 ",
"   c None",
".  c #070E05",
"X  c #091107",
"o  c #0B1508",
"O  c #0E1A0A",
"+  c #101E0C",
"@  c #13240E",
"#  c #15290F",
"$  c #172A11",
"%  c #182D12",
"&  c #1B3314",
"*  c #1E3A16",
"=  c #203E17",
"-  c #213D19",
";  c #24431B",
":  c #28471E",
">  c #264B1B",
",  c #294C1E",
"<  c #2A531E",
"1  c #2B581F",
"2  c #2B4E20",
"3  c #2E5422",
"4  c #2D5820",
"5  c #305623",
"6  c #335D25",
"7  c #356426",
"8  c #356A26",
"9  c #366328",
"0  c #39662A",
"q  c #3A6B2B",
"w  c #3C732C",
"e  c #3E7D2A",
"r  c #40762F",
"t  c #407F2C",
"y  c #417530",
"u  c #437B32",
"i  c #3F802B",
"p  c #42822D",
"a  c #448A2F",
"s  c #458432",
"d  c #498636",
"f  c #478B31",
"g  c #498B34",
"h  c #4B8738",
"j  c #4D8B39",
"k  c #508F3C",
"l  c #479031",
"z  c #4B9334",
"x  c #4E9B36",
"c  c #4E923A",
"v  c #4F9B38",
"b  c #509F37",
"n  c #51943C",
"m  c #529C3B",
"M  c #4FA037",
"N  c #4FA038",
"B  c #50A137",
"V  c #53A33A",
"C  c #55AB3C",
"Z  c #58AD3E",
"A  c #57B13D",
"S  c #59B43E",
"D  c #5BBB3F",
"F  c #5CC03F",
"G  c #559B40",
"H  c #57A440",
"J  c #58A641",
"K  c #5AAC42",
"L  c #5CB442",
"P  c #5EBC42",
"I  c #60B646",
"U  c #61BC46",
"Y  c #63BF48",
"T  c #5EC341",
"R  c #5FC941",
"E  c #62C345",
"W  c #63CB45",
"Q  c #65C449",
"!  c #68C64B",
"~  c #66CB49",
"^  c #69CD4B",
"/  c #64D246",
"(  c #66DB47",
")  c #68DB47",
"_  c #66D448",
"`  c #6BD44C",
"'  c #67DB48",
"]  c #6CDC4C",
"[  c #70DF4F",
"{  c #6ED450",
"}  c #6FDB50",
"|  c #71DD51",
" . c #67E447",
".. c #67E348",
"X. c #6DE34C",
"o. c #6CEA4C",
"O. c #70E54F",
"+. c #71EB4F",
"@. c #6BF34A",
"#. c #6DF84B",
"$. c #70F44E",
"%. c #73FB4F",
"&. c #72E451",
"*. c #75EC53",
"=. c #76F253",
"-. c #79F556",
";. c #76FD51",
":. c #7AFD55",
/* pixels */
"                                                                                                                                                                                                                                  ",
"                                                                                                                                                                                                                                  ",
"                                                                                                                                                                                                                                  ",
"                                                                                                                                                                                                                                  ",
"                                                                                                                                                                                                                                  ",
"                                                                                                                                                                                                                                  ",
"                                                                                                                                                                                                                                  ",
"                                                                                                                                                                                                                                  ",
"                                                                                                                                                                                                                                  ",
"                                                                                                      $ , 8 s x V N x f w < *                                                                                                     ",
"                                                                                              + , 8 x T ] *.-.-.-.:.-.-.=.&.~ C t < #                                                                                             ",
"                                                                                        $ 1 f L ` =.-.:.=.=.*.=.=.=.-.-.=.=.:.=.=...U j < #                                                                                       ",
"                                                                                  # 4 l Q O.=.-.=.*.*.*.&.*.O.+.*.=.;.;.:.;.:.:.:.:.:.-.[ I t -                                                                                   ",
"                                                                            + , f E &.=.-.*.*.*.*.*.O...O...] ] ..o.+.=.;.;.;.:.:.:.:.:.-.=.=.^ v , +                                                                             ",
"                                                                      . * w P } =.*.*.*.*.O.O.O...] ] ' / / ` / ] ] ..o.#.=.;.;.;.;.:.:.:.:.-.-.=.{ L 8 @                                                                         ",
"                                                                  O , x ` *.*.*.*.*.*.O.O.O.] ] ` _ _ ~ R ~ ~ R ~ / / ( ] o.o.#.%.;.;.;.:.:.:.:.-.=.=.*.I r %                                                                     ",
"                                                              . : m { *.*.*.*.&.&.O.O...] ' ( / ~ ~ R T F F F F F F F F F F  . .) $.#.%.%.%.:.:.:.:.$.=.=.[ I 8 #                                                                 ",
"                                                            & s ^ *.*.&.&.&.O.O...] ] ( _ / R F T T D D D F D D D D F F F F F F R / ) ) o.%.%.%.:.:.:.:.=.*.*.[ C < X                                                             ",
"                                                        X 5 L | &.&.O.O.[ [ ....] ] / ~ R T D D D S D S D A A D A F A F A F F F D D T T / ) o.$.$.$.$.:.:.=.=.+.&.^ p $                                                           ",
"                                                      # t ` | &.| O.O.] ] ] ( ( ~ R R F D D D D S S S S A A A C A A A A A A A D D D D D T T W ) ) =.=.$.=.*.:.*.&.&.| K , .                                                       ",
"                                                    - m [ [ [ [ [ [ ` ) ( ( ~ F F F D D S S A A A A A A S S A D A A A A D D A A D S S D D D D T W / ) +.=.=.$.=.=.*.&.| ^ r +                                                     ",
"                                                  - C | | { [ ` ` / / ~ F F F F D D S S A S A C C S S S S S D D A F A F A A A F A D D S S D D D D T R W ) ) =.$.*.=.*.&.| ^ j #                                                   ",
"                                                - C | [ { { / / W W T T F D D S S A A C C C C C A A S S S D A A A A A A A A A D D A D A S S D S D D D T T R ) ) +.+.+.*.*.[ [ m $                                                 ",
"                                              & Z | [ { ^ / ~ ~ W T T D D S S A C C C C C C C S A A A C C C C C A A C A A A A A S S A D S S A D S S D D D T R / ) ..o.+.+.O.[ { m $                                               ",
"                                            # z | } ` ` ~ ~ F E F D D S S C C C C N C N C C S C C A C C A M A M C C C C C C C A A A A A A D S A A A P A D D P T ~ / ) X.O.O.O.[ ` z O                                             ",
"                                          X w ` | { ^ Q E T F D D S S C C V C V C N N C C C C C C C M M M M M M M M C M M C M C C C A A A A S A D A A P A D D P D T / / ) O.O.O.| ^ r .                                           ",
"                                          4 ~ | ` ` ~ E E D D S S C C V V V V b N C N C C C C N M M M M M M M M M M M M M C M C C C C C C A A A A A A A A A D D D F U T / ` ] [ | { E 3                                           ",
"                                        & K | { ` Q E P U S S C C V V b b b b b N N N C N N N x M M M M M M M M M M M M M M M M B C B C C C C A A A A A A A A A D D D T F / / ) ] { { K -                                         ",
"                                      o s ] } ` ! U U D S S C C V b b v b b b b M M N N M x x x x M x x l M M M M M l M M M M M M M B V C C C C C A A A S C A A A L D D F U E ^ ` ` ` ^ h +                                       ",
"                                      < Q } ` ~ E P D L S C V m b v x x b x x b M M M M x x x x i M M i M M l l l l x M M x x x x M B B B V V C C C C C Z C C A A A A D L F E E ` ` ` ^ Y 6                                       ",
"                                    # m ` ` ^ Q P S S C C V m b v x x x x x x b M M M M i M M x i x x i l l l l l l x l l x l x x x M M B B V V V C C C C C C C Z A A A L A F U Q ^ { ^ ^ K &                                     ",
"                                    7 ^ } ` ~ U S S S C V b x x x x j x x x x x M M i M i x i x M M i M l l l l l l l l l l l l x l x M M B V V V V C V C C C C Z Z Z A A A L F U Q ^ ^ ! ! r                                     ",
"                                  $ H { } ~ P L L A A G N G G z j x x x x x j l z z z l l z l l l l a l a a a a a a a a a a a l l l l b x x b b b b V Z V H C Z C C Z Z Z A A A P U Q ^ ^ ^ Z -                                   ",
"                                  7 ~ { _ ~ P S A C C N N z i z j j x x l x l x z l l l s l a l l a a a a a a a a a a a a a a a l l l l l l l b b b b b V H V V V C C Z C C A A P P U ! ^ ^ ! r                                   ",
"                                @ v ^ } ` T L S C N N N z z z z l x l l l j l x l l l l l a l a a a a a a a i a a a a a a a a a a a l l l l l l l v b b b V b K V C C V V C Z V Z P U Q Q ^ ! J &                                 ",
"                                2 Q ` } ~ P L S C N z z z z z z l x j l l l l l l l l l x V z a a p p p i a i a i i i i i a a a a a x V b x l b l l x v b b b V V V V V V V V V V H P U Q ! ! U 6                                 ",
"                                e ~ _ } R L S C N x x l G i z z z z g l l j l l z b V L / ] A a p i a i i i i i i i i i i a i a a a S ] / U V b b v v v z v b V V V V b V V b V b V Z Z U ~ Q ! j o                               ",
"                              $ H Q } ' P L C N N x z l i G z z z z v v b b V S Y / [ &.*.) M a a p i i i i i i i i i i i i i i p a V ) =.&.[ ^ F S Z V b b b b b b b b V b b b b b Z P U Q Q ! K &                               ",
"                              , L ~ O._ P C K N v z z z z i i G b C I Y ^ ^ [ O.*.*.*.*.` C l a i i i i i i i i i i i i i i i i p p l Z ` *.=.=.*.*.{ { ^ Q E F Z b m x m m b m m b H Z P Q Q Q U 4                               ",
"                              0 Q _ o.~ L C C N z z z g z z z i L | *.=.=.=.=.=.*.&.[ F V l p i i i i i i i i i i i i i i i i i t t p l b U [ +.=.*.=.*.*.*.*.&.U b x m x m m m m b b H P E E Q Y w                               ",
"                              s Y { O.R L L N z z z i z z i z G V F { [ O.[ ` / Q C b l a p i i e e e e e e e e i e e e e e e e e i i p a l x S E / ] [ O.[ { E Z m x x z m z z m m m Z Z Q Q Q ! s                               ",
"                            @ z Y ..o.T K G N N G i G i i G i G z v b V V V b l l l l p i p i e e e e e e e e e e e e e e e e e i e e i p p a a j x b V Z V V b m m m x m z z m z z n m Z E W Q Y m $                             ",
"                            * G Y ..o.T K C N v z G z i G i G i s l s l l s l p p p t t i i e e e e e e e e e e e e e e e e e e e i e t i p p p p a l j l l l j l z l z m z z n z z B m Z P / ~ ! J *                             ",
"                            - H Y O.o.T C N v z z g z g i z i z l s s s s p t p p p t t e e e e e e e e e e e t e e e e e e e e e e e e i i i p p p p p s s l l z g z m z n z z n z n m H P ) ~ Y J -                             ",
"                            ; H P o.O.T C N v v z g g g f g s f s s p s p a p p p p p e e e e e e e e e t a x B V B x a i i i i e e e e t t p t p p p p s l s j g g l n n z z z z z n b J U ) ~ Y K ;                             ",
"                            2 H P o.o.T C v v z z g g g g g f f s s s s p p p t t t t e e e e e e e a l I { [ &.&.&.[ ) A l i i t e e e t t t p p p p a p l l s g g l k n g n z n z n m Z I ) ~ Y L ;                             ",
"                            ; H I o.o.T K V v z z g g g d f g d s s s p s s p p t t e t i e e e p a S ) *.*.*.*.=.=.*.*.*.) A a p e e e t e t t p p p p p s s l s g g z z n g g g l n b b P ) ~ Y K ;                             ",
"                            - H L X.#.R K v v z g g g g d f g i l s p s p p p p p e t e e e e p a S +.$.*.*.*.=.*.*.*.*.*.$.o.F a t e e e t t p p p p p s p s j g s g l z z z n z n n b G U ) U I J *                             ",
"                            $ m I ] #./ K v v z z g g g g s f d z p p p t h p t t e e t e e t t B ) =.*.*.*.*.*.*.*.*.*.*.*.*.` x p e e t e t p t t p p s p l s s f j f z j z z g z z G H P _ Y Y n $                             ",
"                            O s L _ #.' L H v z j g g g g d s f h p h p p p p p t t t e e e t t l ~ *.*.] R S C B B S W [ *.*.~ l p e t e p t t p p p p s p s s f s f j z z j g j j G G m P ~ I I s                               ",
"                              w K Q #. .P V v z z g f g g g g g p p h p p p p t t t t e e e e e t l b b a i e e e e e t z B B z p e e e e e t t p p p p s s s s s j f x j j z j z z z G H P Q L I 9                               ",
"                              4 K P ' #.T H G v z g g g g i d i p h p t h p p t t t t e t e e e t e e t e e e e e e e e e e e e e e e t t t t p t p p p p s l s p s f j j f g g g j m G H P I I K ,                               ",
"                              & n I ~ #.) C m m z g g g i g d d h p p p h t p t t t t t e e e e t e e e e e e w e w e e e e e e e e e e t t t t p t s p s s s s j p j l g j g j z d G G J L I I n #                               ",
"                              o r K P .. .I Z n G j g g d g d g p h p h p p t p t t t t e t e e e e e e e e e e e e e e e e e e e p t t t t p t p p t s p s s l p j a j g g g g G G G G K I K L 9                                 ",
"                                ; Z S ~  .~ Z n z g g d g i g i h p p p p t p t t t t t e e t t e e e e e e e e e e e e e e e e t w t t t t t p t s t p s s s s j s s j g g j g G z G G J K I n &                                 ",
"                                O u L U / / F Z G G G d g d d d p h p h h p p p t t t t t t t t e e e e w e e e e e e e e e e e t t t t t t t t s t s s s s s s s s s l g g g g j G G N J K J q X                                 ",
"                                  : G K Y W W C m n j j h h h h l p p p h p p t t t t t t t t t e e e e e e e e e e e e e e e e t t t t t p t s p p s p j p p j s l p j l j j j n n G J J J k $                                   ",
"                                  O r G K U T L J m n n z h h h p h h p a t t h t h t t t t t t e e e e e e e u e e e e e e e e t t t t p t p p p s p s p s s p s s j s s j j x n G m G G G 2                                     ",
"                                    @ u K K F L Z m n j h h h h h p h p t h t p t t t t t t t t e t e t e e t t e e e e e t e t t t t t t u p p s s s s p j s j j l s j s j j g k n G n G 9 +                                     ",
"                                      % r G K L Z m B j j g n h h h p h p p t h t t h t t t t t e t t t u e t t e e e e t e t t t t t p s t p s s p p s s p p j s j s j j k k n G m n G 9 +                                       ",
"                                        + y G K Z m m n j j h h h h h h h t h t h t t t t t t t t t t t t t t t t t t t t t t t t t u p p s u s p s s s s s j s j d d d k k k n n n n 6 #                                         ",
"                                          O 5 k J m m n n j j j h h h h h h t h u t h t t h u t t t t t t t t t t t t t t t t u p t p p p p p s s s s s s s s j j d k k k j k k n d 2 +                                           ",
"                                            O - u G m n m j j j h h h h h h h h t h u t h t t t u t t t t t t t t t t t t t t t t p p u s t s s s s s s d j d d d k d k k k n k y - X                                             ",
"                                                @ 5 u n j m j h z h h h h h t h h h h h t h h t h h u u t h t h u u t h u t t t s u s s s s s d s s s j h h h k d j k k k n s 6 $                                                 ",
"                                                    $ 6 d n n j j j j j d d d d d s d d d u s u s s s s u u s u u s s u s s u s s d s d u s h h d k d d d h h k h k k k d y - X                                                   ",
"                                                        $ 5 u j n n j j j j s j d d d d s d d d d u u s d s s d s u s s u d d s s d s h h h s h d s d k h k h k k k d y 2 +                                                       ",
"                                                            @ 2 6 y s j j k j j d d d d s d d d d s d s u u u y r r r y u u u u u h h s s h h h j j j j k k k d u 9 - +                                                           ",
"                                                                  + * 2 6 q u u d s d u u y y q 9 5 2 : - - $ $ $ + # $ $ $ & - 2 : 5 6 y y u u u u u y q 6 2 - $                                                                 ",
"                                                                          O @ $ $ & * $ $ $ + o                                           + # # $ $ # + o                                                                         ",
"                                                                                                                                                                                                                                  ",
"                                                                                                                                                                                                                                  ",
"                                                                                                                                                                                                                                  ",
"                                                                                                                                                                                                                                  ",
"                                                                                                                                                                                                                                  ",
"                                                                                                                                                                                                                                  ",
"                                                                                                                                                                                                                                  ",
"                                                                                                                                                                                                                                  "
};
