/* XPM */
static char *SlimeBasic_00028[] = {
/* columns rows colors chars-per-pixel */
"113 77 108 2 ",
"   c None",
".  c #040703",
"X  c #060C05",
"o  c #080F06",
"O  c #091206",
"+  c #0C1609",
"@  c #0E1A0A",
"#  c #111E0C",
"$  c #13240E",
"%  c #152B0F",
"&  c #152710",
"*  c #172C11",
"=  c #192E12",
"-  c #1B3414",
";  c #1E3A16",
":  c #223E19",
">  c #24441B",
",  c #264B1C",
"<  c #294E1E",
"1  c #2A541E",
"2  c #2B4D20",
"3  c #2D5321",
"4  c #2E5A22",
"5  c #305724",
"6  c #325C24",
"7  c #346226",
"8  c #356A26",
"9  c #366228",
"0  c #386629",
"q  c #376928",
"w  c #3A6B2B",
"e  c #3D732D",
"r  c #3E7D2A",
"t  c #40762F",
"y  c #407F2C",
"u  c #417630",
"i  c #437C32",
"p  c #3F802B",
"a  c #42822D",
"s  c #448A2F",
"d  c #458432",
"f  c #498535",
"g  c #478B31",
"h  c #498C34",
"j  c #4B8738",
"k  c #4D8B39",
"l  c #479031",
"z  c #4B9334",
"x  c #4E9B36",
"c  c #4E933A",
"v  c #4F9B38",
"b  c #509E37",
"n  c #51943C",
"m  c #529C3B",
"M  c #4FA036",
"N  c #4FA039",
"B  c #50A137",
"V  c #53A33A",
"C  c #58A73F",
"Z  c #55AB3C",
"A  c #58AD3E",
"S  c #57B13D",
"D  c #59B43E",
"F  c #5BBB3F",
"G  c #5CC13F",
"H  c #569D40",
"J  c #57A240",
"K  c #59A641",
"L  c #5AAC42",
"P  c #5DB443",
"I  c #5DBB42",
"U  c #61B746",
"Y  c #61BB46",
"T  c #62BB48",
"R  c #5EC341",
"E  c #5FC941",
"W  c #62C345",
"Q  c #63CB45",
"!  c #65C449",
"~  c #68C64B",
"^  c #66CA49",
"/  c #69CC4C",
"(  c #65D346",
")  c #67DA47",
"_  c #68DB47",
"`  c #66D248",
"'  c #6BD44C",
"]  c #67DA48",
"[  c #6CDB4C",
"{  c #70DF4F",
"}  c #6FDC50",
"|  c #70DC51",
" . c #66E247",
".. c #6CE34C",
"X. c #6DEC4C",
"o. c #70E44F",
"O. c #71ED4F",
"+. c #6DF24C",
"@. c #6DF84B",
"#. c #71F54E",
"$. c #73FC4F",
"%. c #6FE050",
"&. c #72E451",
"*. c #75EC54",
"=. c #76F353",
"-. c #79F556",
";. c #76FC51",
":. c #79FD55",
/* pixels */
"                                                                                                                                                                                                                                  ",
"                                                                                                                                                                                                                                  ",
"                                                                                                                                                                                                                                  ",
"                                                                                                                                                                                                                                  ",
"                                                                                                                                                                                                                                  ",
"                                                                                                                                                                                                                                  ",
"                                                                                                                                                                                                                                  ",
"                                                                                                                                                                                                                                  ",
"                                                                                                                                                                                                                                  ",
"                                                                                                        % , 8 r l x x g r 4 , -                                                                                                   ",
"                                                                                                - 1 r Z W [ *.-.=.-.-.-.=.*...Q Z y 1 =                                                                                           ",
"                                                                                        % , e N W ..-.-.-.-.=.-.=.-.-.-.-.-.-.-.-.-.o.! z 1 $                                                                                     ",
"                                                                                @ ; 8 N ~ %.*.-.-.=.=.*.*.O.*.O.O.#.-.#.-.;.-.-.:.:.:.:.-.o.P t :                                                                                 ",
"                                                                          $ , r L ' *.-.=.=.*.=.*.&.&.....[ [ [ o.O.O.O.;.;.;.-.:.;.:.:.:.-.-.*.! s > +                                                                           ",
"                                                                    O > a I } *.=.*.*.*.*.*.O.%.....[ [ _ ' ' ' _ [ X.X.X.#.$.$.;.;.;.:.:.:.:.-.-.*.[ v 2 +                                                                       ",
"                                                                $ 4 Z ' *.*.&.*.*.*.%.O.%...[ [ [ ' ( ( ( Q Q Q Q ( ( ( X.X.X.#.$.;.;.;.-.:.:.:.:.*.*.*.| J 2 o                                                                   ",
"                                                            O 3 L | *.&.&.*.&.*.%...%...[ ] ] ( ~ Q E E G G G G G G G G G G  .G _ X.+.$.$.$.;.;.;.:.:.-.*.*.' z : .                                                               ",
"                                                          ; z ' &.&.&.&.&.%.........[ ( ( Q E G E G R I D G G G G F G G G G G G G E E _ _ X.#.$.;.;.:.:.;.*.&.*.~ y &                                                             ",
"                                                      O 6 Y &.&.&.&...&.......] [ ( ( E E R F G G D D D D D F D F D D D G D G G F F F G E ( _ X.O.#.;.;.;.;.*.*.&.| Z 2 o                                                         ",
"                                                    $ d ' | | &.| &.[ [ [ [ ( ( Q E G G R I F F D D D D D D D D S S D D S D D G D F F F G G E Q _ O.O.O.;.*.;.;.*.&.| ' y &                                                       ",
"                                                  = b | { { { { [ [ ' ( ( E E R G G F F S F S S D D S S D D D D S S S S S D G S D D F D D F F G G W ` _ O.O.*.;.-.O.o.&.| K > .                                                   ",
"                                                : K | | [ [ ' ' ( Q Q E E G R G F D D D S S S S D Z D D D D D D S S G S D D D S D F S F D F D F G G G E _ _ O.*.#.-.*.*.&.| ! 9 +                                                 ",
"                                              - C | | [ ' ' Q Q Q W G G G D D D D Z Z Z Z Z S Z Z D D D D S D S S G S S S S S G F S S D D D D D D D G G G W ` _ o.o.O.O.O.&.| ' i #                                               ",
"                                            * Z | | | ' Q ! Q W G G F F D D D Z Z Z Z Z Z Z Z S D S Z S S S S Z S S S S S S S S D D D F S F D D D D D G G G G E ' X.o.O.O.&.&.| / i #                                             ",
"                                          @ z | } | ' ~ Q W G R F F Z Z Z Z Z Z S B Z Z Z Z S Z S S S S S S S S M S B S S S S S S S S S S S D S S D D D F F F R R ( ) ....O...&.[ ' i @                                           ",
"                                        X e ' } ' / ~ W W Y F D D D Z Z Z Z Z B B B B Z Z Z Z S B S B B N B M B M M S B B B B B S S M S S S S S D D D D F A F F G G R ( _ ..o...| | ~ q +                                         ",
"                                        < ~ | ' ' ~ R R F F D Z Z Z Z Z Z B x b B S B S Z Z Z N B B S N M M M B M M M M B B B S S B V S S S S S A D S D A A D F F F I R ` ( [ ..| [ | U 5                                         ",
"                                      = L | ' ' W W I I D D D Z Z b x b x b B m B B B B M M M M N N B p M M M B M M M M B M B B V V V V S V V S S D D D A S S D D F I R I W ` ' [ | [ ' K :                                       ",
"                                    O a ' } ' ~ W I P D D Z Z m x Z x v x x m B B B B B M x M x N N N x B N M M M M M M M B B B M M M V V S V S S S S A S S S S A D D I I I G ` ' [ [ ' ~ k &                                     ",
"                                    3 ~ ' ' / W I F D Z Z Z m b x x v v x x x b x x B N x x x x p N B p p M M p p M p M M p M M x M M M V V V V V V S S S S V S S S D D I I I I W / ' [ / ~ t +                                   ",
"                                  $ Z ' ' / ~ I D D D Z Z m b b z v x z x x x m x x x x p B B x x x N p p M p M M M p M p M M p x M x M M M V V V V V V S V S V S S S S D D I I W W / ' ' ~ A :                                   ",
"                                  8 ~ ' ' / I P D D Z Z v z z v c z z x x x x x x x x N p x p x p N p x M p M M p p M p M M p M x l l x x M M M V V S V V S V S V S S S A D D F U ! ~ / / ' ~ k @                                 ",
"                                - L ' } ' T D D Z Z N v v v l c z z z x z x z z z z l l l l l l l l l l s s s s l s s s s s s l z l z z z x x x x M M B C Z V Z Z Z Z C A A A F D Y ! ! ' ' / U 2                                 ",
"                                8 / ' ' ~ I D D Z Z N x x l c c z x z x x z z z l l l l l l l l s s s s s s s s s s p s s s s s s z l l l l x x x x M B B V V Z V V Z Z Z Z A A D A Y ! ! ~ ~ ' k #                               ",
"                              * J ' [ ' W P D Z Z x v x l z l l z z z z l z z l l l l g h l l l s s s s s p p s s p s s p s s s s s z l x l l l z x x M B B B J Z J Z V Z Z Z Z Z Z A ! ! ~ ~ ~ T <                               ",
"                              6 ~ ' [ Q P D Z Z N x z c l z c l z z z g g l l l l l v b Z P Z l s a a y s p s s p s p s p s s s s s Z I Z x x z z z z x v B B B V V B Z V V Z B Z Z A U Y E ~ ~ ~ i                               ",
"                            @ g ~ [ [ ~ D D Z m x x z z l l c c z z z z z z z z b b D Q { o.D s a a p s p p p p p p p p p s p s s s D o.{ / D Z M x x x x x B B b Z b b B V V V m b V A D ! ! ! ~ C =                             ",
"                            ; L ~ ] ] I D Z Z x x z z g h c h l z z z z b B Z D ! { &.*.O.' M s a a s p p p p p p p p p p p p p r s M ^ *.*.&.' E I A V V B B B V b b m V v b m b b b C L G ! ! ~ Y 3                             ",
"                            4 T ~ ..( I Z Z Z x z z z g l h l l b Z Y W / ' { &.*.*.*.*.[ Z s s p p p p p p p p p p p p p p p p a s l Z ' *.*.*.*.*.{ { ^ ~ R A C b m m m m m b b b b Z A U ! ! T ~ t                             ",
"                            d R ] X.~ P Z Z x c z z z k h l h v D o.*.*.*.-.*.*.*.*.&.Q B l s p p p p p p p p p p p p p p p p p r y s s Z ^ o.O.*.*.*.*.*.*.*.*.U V b b b v b b b b m b C U G ! ~ ~ z $                           ",
"                          * c ~ [ ..R P Z Z v c h h h l H p h l C ' &.*.*.*.&.{ ' W Z z s a p p r r r r r r r r p p r r r p p p r y r s s l Z W ' { *.*.*.*.&.' A m b b B m z m z z z V C L ! ! W ~ J ;                           ",
"                          ; J ~ X...R L N N v l H l p l h h h l z b Z U Y Y D Z b g l a a p p p r r r r r r r r r r r r r 8 p p r r y p s s s l M Z P I I I A Z b m b z z z m z z m z b V K ! ! ~ T L ,                           ",
"                          2 L T X. .I L N N v l l l h h h h h h g g g z g g l l a a a a p p r r r r r r r r r r r r r r 8 p 8 p r r r r r y a s s s h l x l l l z z z z z z n n z n z b V K G ( Q W U 6                           ",
"                          4 P ~ X. .R L Z v x c l h h h h h p l g d s a s a y a a a a r p r r r r r r r r r r r r r r r p p p p r r r r r y r a y s s d d h h h k k z z z n n n z z z b V C D ' ' Y U 6                           ",
"                          6 P ~ X...I Z N v z z h h h h g h g d d d a d a a a a a p a r r r r r r r r r r y s s s s s y p p p p r r r r y y y y y s y s s d d h d l z z m z z z n z l n m V D ' ( Y Y 9                           ",
"                          7 P T +...I Z N v z z h h h h h d h g d d g a a a a a a p r y r r r r r r p s Z ! ` [ { [ ` W B l p p r r r r y y y y y y s i i s d h l d d l z z n z k z n m b V D _ ' Y Y 9                           ",
"                          7 P T +...R Z N v c z h h h g h d d d g d a d d a a a r r y y r r r r r s S _ *.*.*.-.*.*.*.*.O._ B l s r r r r y y y y s y i y s d d d k d k n n z n z z z n b J U _ Q Y U 6                           ",
"                          3 P I X.+.W Z m v c g h h h f h g g d d a d a a a a a a r r r r r r a s D O.*.-.*.*.*.*.*.*.*.*.#.X.G s y r r r r y y y y y s s s h h d l l z z z z k z k k n n H U ' W Y P 1                           ",
"                          2 L I X.+.E L v v z z g g h h h g d f d d d a d a a a y y y r r r y y M [ *.-.*.*.*.{ { { { *.*.*.*.} M y r r y r y y a y y s y d d d g g g k g z z c z k c v m m I ] Y Y L :                           ",
"                          ; J P ] @.( P Z v c g c g h d d h d g d d a a a a y y y y r r r r y y s G [ ' E D x l l l x D E ' } I s y r r r y r y y s y y s i d d d d d g c z k g g g c c m H I ~ Y T n *                           ",
"                          & k P ( @. .P m v c z h h h h g d f g d d a d a y y y y y y r r r r r r r s s r r r r r r r r r s s r y r r r y r y y y s y s s s s s d g g k g c k c k c c c m H I W U U d                             ",
"                            e P W +. .R J v c c h h g f f g d d z a d d a d d a y y y r r r r r r r r r r r q r r r r r r r r r r r r r r y y y y y y y i s i h d d g g k g g k k g c c H J I Y P P 6                             ",
"                            3 L U _ +.( K m m z c g h h d d d d d d d a a a y y y y y y y r r r r r r r r r r q r r r r r r r r r r y y y y y y i y i s i d d d j g z j h k g g l g c c H J Y U P H :                             ",
"                            * c U W  . .P m m n c h h h f h d g d a a d d y a y y y y y r r r r r r r r r r r r r r r r r r r r r r r y y y y y y s y s s d d d d d d d h h h k k c c H H L U L L u O                             ",
"                            o 8 L Y ( X.Q Z m m c k h h g g d d d d d d y d y y y y y y y r r y r r r r r r r r q r r r r r r r y r y y y y y y y y i i y d d d d d z j h h h k k c c H J L L L J >                               ",
"                              - n D F ( ' I m m c k k h f d f d d d d a d a a y y y y y r y r y r r r r r r r r r r r r r r r r y y y y y y y y i s s y d d d d g j d d h h h h h k m H J J L J u @                               ",
"                              o 0 K U Y / W A m n n k k h i h i d d d d d a a a y y y y y y y y r r r r r r r r r r r r r r y y y y y y y y i s a i i s d d d d d d d j z z d z k H n H m J J H :                                 ",
"                                = i K U W W P Z n n k k k k k k d d d d d i d a y y y y y y y y r r r r r r r r r r r r y r y r y y y y y s y y y s i d d d d d d z j d d j j j k n n H H J H 6 o                                 ",
"                                  : n K P I P Z b n n k k k k i z d d d d a y d i s s y y y y y r r r r r r y y r r r r r r y y y y y y y s y s s i s i s d d z d z d z j j z k k H H n H H 0 #                                   ",
"                                    : n C A P A m m n k k k k k d d d d d d d y i y y y y y y y y y y r r r y y r r r y y y y y y y y y y i y i i s d d d d d d j d j d z k k k k n n H m u &                                     ",
"                                      : i K K K C m n k k k k i k k k k d i d i d d y y y y y y y y y r y y y y y y y y y y y y y y i s i s s i s i s d d z d d j j j j j k n n k H n n 0 &                                       ",
"                                        & 9 n H m m n n k k k k i k i i d h h d i d i d i y y s y y y i y y y y y y y y y y y y s y y i s i i s i s d d d d d j j j j i j k j n k H k 6 #                                         ",
"                                          # 2 u m m m n n k k k k k i k k i h i i d d i d i d i i d i y y y y y y y s y y y y y i i i i i i d i d d d d d j j k j j k H k k n n k f 2 O                                           ",
"                                              & 5 i n n n n k k k k k k k k i k k d d d d d i d d i d i d i d i i y i d i y d i s i s s i s d d j d j j j j j j j j j j H j H j w :                                               ",
"                                                  & 2 u k H k k k k k k f f f d f f f d f i d f d i i f i d i f d d i d i d d d i f d f i d j f d j j j j j k k k k k H H k i 2 #                                                 ",
"                                                      @ : 0 f k n k k k k k k f f f f f d f f i f d d i d d d i i d d d d f d d f f j d j j f j j j k j k k k k k k k j i 5 &                                                     ",
"                                                          o & : 6 u i f k k k k f f f f f f f d f f d d d i f i i t u u u u u u i i i j j j j j d k k k k k k k j i u 2 =                                                         ",
"                                                                  @ = 2 3 0 e i f f i i i i i u e 0 0 5 2 > : : = = & & & & & & - : : > 2 5 6 t t u u u t 0 6 2 > = @                                                             ",
"                                                                            # & = - - = - = = & # @                                             # # $ # #                                                                         ",
"                                                                                                                                                                                                                                  ",
"                                                                                                                                                                                                                                  ",
"                                                                                                                                                                                                                                  ",
"                                                                                                                                                                                                                                  ",
"                                                                                                                                                                                                                                  ",
"                                                                                                                                                                                                                                  ",
"                                                                                                                                                                                                                                  ",
"                                                                                                                                                                                                                                  "
};
