/* XPM */
static char *SlimeBasic_00019[] = {
/* columns rows colors chars-per-pixel */
"113 77 104 2 ",
"   c None",
".  c #070D05",
"X  c #080E06",
"o  c #091107",
"O  c #0C1609",
"+  c #0E1B0A",
"@  c #101E0C",
"#  c #13240E",
"$  c #152A0F",
"%  c #172A11",
"&  c #192E12",
"*  c #1C3314",
"=  c #1F3D16",
"-  c #223F19",
";  c #204017",
":  c #24431A",
">  c #264A1C",
",  c #294B1E",
"<  c #2A521E",
"1  c #2B4E20",
"2  c #2D5421",
"3  c #2D5B20",
"4  c #305723",
"5  c #325C25",
"6  c #355F28",
"7  c #336325",
"8  c #356A26",
"9  c #366428",
"0  c #386729",
"q  c #376928",
"w  c #3A6B2A",
"e  c #387127",
"r  c #3D722D",
"t  c #3F7D2A",
"y  c #40762F",
"u  c #407F2C",
"i  c #417631",
"p  c #447C32",
"a  c #3F802B",
"s  c #42822D",
"d  c #448A2E",
"f  c #458432",
"g  c #498536",
"h  c #468B31",
"j  c #498B34",
"k  c #4B8738",
"l  c #4D8C39",
"z  c #479031",
"x  c #4B9334",
"c  c #4E9B36",
"v  c #4E923A",
"b  c #4F9A38",
"n  c #509E37",
"m  c #51943C",
"M  c #529D3B",
"N  c #4FA037",
"B  c #50A137",
"V  c #53A43A",
"C  c #55AB3C",
"Z  c #58AC3E",
"A  c #57B13D",
"S  c #59B43E",
"D  c #5ABA3F",
"F  c #5CC13F",
"G  c #579F41",
"H  c #57A240",
"J  c #58A541",
"K  c #5AAC42",
"L  c #5DB443",
"P  c #5EBC42",
"I  c #60B646",
"U  c #61BB46",
"Y  c #64BF49",
"T  c #5EC341",
"R  c #5FC841",
"E  c #62C445",
"W  c #63CB45",
"Q  c #66C549",
"!  c #68C64B",
"~  c #66CB49",
"^  c #69CD4B",
"/  c #64D246",
"(  c #67DA47",
")  c #67D448",
"_  c #6BD44C",
"`  c #67DA49",
"'  c #6CDB4D",
"]  c #70DD4F",
"[  c #6FDC50",
"{  c #71DC51",
"}  c #66E147",
"|  c #6DE34C",
" . c #6CEB4B",
".. c #70E44F",
"X. c #71EB4F",
"o. c #6DF34C",
"O. c #71F54E",
"+. c #72FC4F",
"@. c #72E451",
"#. c #75EC53",
"$. c #76F353",
"%. c #78F456",
"&. c #75FD51",
"*. c #79FD55",
/* pixels */
"                                                                                                                                                                                                                                  ",
"                                                                                                                                                                                                                                  ",
"                                                                                                                                                                                                                                  ",
"                                                                                                                                                                                                                                  ",
"                                                                                                                                                                                                                                  ",
"                                                                                                                                                                                                                                  ",
"                                                                                                                                                                                                                                  ",
"                                                                                                                                                                                                                                  ",
"                                                                                                                                                                                                                                  ",
"                                                                                                  # = < 8 t a t e 3 =                                                                                                             ",
"                                                                                            = 8 c P _ ..#.$.%.%.#.@._ L d 7 ;                                                                                                     ",
"                                                                                      + 3 b ) #.%.%.%.%.%.$.%.%.%.*.%.*.%.#._ A s 7 - @                                                                                           ",
"                                                                                  # 7 C ..%.#.#.#.#.#.#. ...#.X.$.$.*.$.%.%.%.*.$.#.] I j < & X                                                                                   ",
"                                                                              + 3 C ..#.#.#.#.#.| | | ' ' ' ' ' ..X.O.*.%.%.*.*.*.*.*.%.$.@.Q M y * X                                                                             ",
"                                                                            : b [ #.#.#.#.X.| | ' ) ) ) ) ) _ _ ' | X.O.+.+.%.*.*.*.*.*.*.$.%.%.@.^ c , O                                                                         ",
"                                                                        # t ~ #.#.#.@.#.| ' ' ) ) ) ) W W W W W W ( }  .X.+.+.+.*.*.*.*.*.*.*.$.$.#.#._ M , O                                                                     ",
"                                                                    X 2 L @.#.#.........( ( ) / R R T T D F F F F F F } } o.o.o.+.+.+.+.&.&.*.*.*.*.#.#.@._ p #                                                                   ",
"                                                                  + y _ #.@.........( ( / R F F D D D D D D D D D F F F F F ( } }  .O.+.&.&.&.&.&.*.*.*.#.#.@.M =                                                                 ",
"                                                                * n { @.@.@...] ' ( / R T T F S D D A A A D A D D D D D D D F F R / / ( } X.O.+.+.*.+.#.#.X.@.@.L ,                                                               ",
"                                                              > L { @.....] ] ( ( R T T D D S A A A A A A A D A A D A A D D D D D D T T W ( ( ( ] X.X.+.+.*.#.@.@.E 2                                                             ",
"                                                          X 9 ! { @...] ] ( / / R T D D S S A A A A A A A D A D S S D A A D A D D D D D D T T R ~ ( | X.X.O.+.X.@.{ Q 5                                                           ",
"                                                        + u _ { { { ] _ / / W T T D D D C C C C A C A A D A D A S S A A D A D A S S S S D D D D P P R / ( | X.X.#.#.{ ~ 2                                                         ",
"                                                      @ f _ { { ] ] / W R R D D D D B Z C C C C C A A A A A A A S S A D D A A D D S D S S S S S D D T T W / | X.X.X.@.{ I :                                                       ",
"                                                    O u ] { _ _ W W W E D D D D C C Z B C C C C A A C A A C A A A A A A A A D A S S S S S S S S S D D D T T W ( | X.X...{ C %                                                     ",
"                                                  . w _ { ] _ ^ W E T D D D Z C Z C B Z C B Z Z C C C C C C C C C C A A A A A A S S S S S S S S S S S S D D T Q ) ( ......_ u O                                                   ",
"                                                  2 ~ { _ _ ^ E E T L D D C Z B B B B B C Z B C N N N N N N N N N C N C C C C C C C S S S S S S S S S S D D D T T ) ( ....] ! 2                                                   ",
"                                                * L { _ ^ ^ E E D D D D Z Z B B B B B B B C B B N N N N N N N N N N N N N A C C A A C S C S S S S Z S S S S D D F E W ] ] ] _ Z *                                                 ",
"                                              + l { { _ ^ E T L D L Z C B B B B n B B n B B n n c c N z c c N N c N N C N N N N B A C Z C C C S C S Z S Z S S S D D T W ' ] _ ^ e                                                 ",
"                                              7 _ [ _ ^ E U D D D V C C B n n n N N N N N c c N c c c z z N N N c N N N N N N N B B C B A C Z Z C Z A A Z S S S D D D T W _ ] _ U :                                               ",
"                                            = L _ _ ^ E P P D Z V C n m n n c n c N N N c c z c z z c z N z z z z N z N N N N N n n B C B B A Z C C A A C C C Z L L D D E ^ _ _ ^ l +                                             ",
"                                          O s _ { _ Q P D D Z C V C c c v c c c c c c c z z c z z z z z z z z N z z N z c N N c N N B B B B Z B C Z B C C C C C C S Z L D Q ^ ^ _ Y <                                             ",
"                                          : U _ _ ^ U L D D C C M c c c x c c c c c c z c z z z z z z z z z z z z z z z z z z c N n n B B B B B B B Z B C C C C C C D L D E Q ^ ^ ^ m #                                           ",
"                                          a _ _ ) T P L A K V J c c x x c n x n x x x z z z z z z z d d z d z z z z z z z z c z c x c N N N N N N n B B V Z Z Z Z Z V Z S P Y ! ^ ^ Y 1                                           ",
"                                        - I _ ' ~ P A A A V N J x l x x x x x x x z x z d z z d s d d d a d d a a d d d d z d z z x z z z x x N N N B B V V V V C C C C Z S P ! W ^ ^ v @                                         ",
"                                        r ! _ ' T L P A V N N a x x l x x x x x z z z d z z d d d d s d d d d a d d a d d d d z z z z x z x x N x n B B V V V V B C M C C Z S Y Q ^ ^ I ,                                         ",
"                                      $ G ! ' _ T L A V V N N H x x x x x x x z z f z f s s s d s s s s a d a d a d d a d d d d d d d d z z z x x x M M B B V B C n B C M C Z S Y Q ^ ! w                                         ",
"                                      1 L _ ' ~ L K V V H a N a l z l x x x z z j z z z d x z d d a a a a a a a a a d a a d d d d d x x x x z x x x x x n n B B n M C B M C C Z U Q Q Q M #                                       ",
"                                      w Q _ } Q L L V N N J a H x z x x x x x x B V Z Q / / C d d a a a a a a a a a a a a a d a d d C / W U D C B n n n n n n n n n n M M n M C L Q Q Q U ,                                       ",
"                                      f ~ ' } L L C V N N a G a B L E Q W W / ] @.@.@.| / C z s a a a a a a a a a a a a d a a a s s x S / @...X.@.] _ _ ~ Q Q Q Z M M M M M n C Z U Q Q ! 0                                       ",
"                                    % G ~ } ( P A A A a J a a H B W _ ] ] ] ] _ W D S N x f s a a a a a a a a a a a a a a a a a s s s f x B S F ^ _ ' ] ] ] _ ~ S M M z c z M M Z U E Q ! g                                       ",
"                                    : J ~  .) L V V N N x a G a c z c c c x x x z s s s a s a a t a t t t t t t a a a a a a a a a s a s s s d d z j c c c n M c n M x n M x n G V I Q Q ! M &                                     ",
"                                    2 L ~  .~ L K N a N a G a G l z f f z f s s s s s s s a t a a t t t t t t t t t a a a a t t a t a s a s s d f f f z z z v c x x v n x x x M V I E Q Y Z -                                     ",
"                                    5 L ~ o.R L H N x x G a a a f z z f f s s z s s s s t a t t t t t t t t t t t a a a t t t a a a a t s s s s f z f z f j x x v n j x j M j M V S E W Q I 2                                     ",
"                                    9 L ) o.R A N c G x a G G a z z l f z s f s s s s s s t t t t t t t a a z z z z d a a t t t t t t s a s s s s s f f z j j j j x v n M x x M G Z E ^ Q I 6                                     ",
"                                    9 L ~ o.~ L N c x x x a j j g z z f f f s s s s t s t t t t t t a d M U _ ] @.@._ U z d a t t t t t u s s s s f s z z g z g j n M j M j M j M V W ( ! I 6                                     ",
"                                    9 L ~ o./ J H c x x j G a j f f f f f f f s s s s u t t t t t a z S @.#.#.#.#.#.#.#. .D z a t t t t u u u s s f s f f f g z j v l j M j x j G Z W ( U Y y                                     ",
"                                    6 L R o./ L c c a G j j j j l f f z f s s s s u u u u t t t t z F X.#.#.#.#.#.#.#.#.#.#.F z s t t t u u s u s f f f f z f f j x M M j j j M M H E ( U Y 0                                     ",
"                                    4 K R o.( A H x G x j j j j z f f f s f s f s u u t t t t u z S X.#.#.#.#.#.#.#.#.#.#.X.X.S d u t u u u s s s s s f f f z z j x j j j M x M M H W _ U Y 7                                     ",
"                                    : J U o.} L b b x x j j j j z d s g g s s s s u u u t t t s x _ #.#.#.#.#.#.#.#.#.#.#.#.%._ x s a t a u u s s s s f f z g l j l x l v j v b M C W ) U I 2                                     ",
"                                    * M P  . .P C v v j j j a j g g g s s s g s u u u t u t t u n ' #.#.#.#.@.] ] ] @.#.#.#.#._ c s t t t u u s s s f s f f f f j x j x j x l v m H E Q U K >                                     ",
"                                      g I ` o.T H b x x x j j a g s z g s s u s s u u u t t t u z ^ #.#.' P B x x c B T ' @.#.^ l a t u u t s u s s s f f z f g j x x l j x v v M J E E I V *                                     ",
"                                      w L ~ o./ J b v x j j j g g z s g s g g s s u u u t u t u d z Z V x d u t u u u a x C A x s t t t u s u s s f s f f f f z j j j l j j v m G K E U I l #                                     ",
"                                      , V U } } L B v x j j j g g s z g s g s s s s u u u u t t t t t t t t e t t t t t u u u t t t u u u s u s s f s g s g f g j l j j j x v m M K P L L w                                       ",
"                                      # m L (  .T H v j j j j j s g g s g s s u u u u u u u t t t t t t t t t t t e t t u t t t t t t u u u u u f s s g f f f z j j j j l l v b G K L L K ,                                       ",
"                                        9 K Q ( W K b G x j g j z s g s g s s u s u u u u u u u t t t t t t t t t t t t t t t t u u u u u u u f s s g s g s z g f j j j l l m G J K L K l #                                       ",
"                                        - M I W ( L b b G g j a k g s g s s g g s s u s u u u u t t t t t t t t t t t t t t t t u u u u s u s u f s s g s l g f l j f l l l m G G K K K 5                                         ",
"                                          i K I W T G M l j l g g s g s g s s s u u g u u u u u u t t t t t t t t t t t t t t t u u u u u s u f s f f s f f g g j f j l l v m M G J K m &                                         ",
"                                          & l K P E S M M M l l g k s g s g s g g u u u u u u u u t u u u t t t t t t t t t t t u u u u u u u f f s f j l f g k j l l l x v m G M G G 4                                           ",
"                                            4 m I P I C M k l l z k g s s g s g g u u u u u u u u t t t t u u u t t t t t t t t u u u u f u f s f f f f s l k k f j j l m m M G G G i #                                           ",
"                                            O y V S S Z G l l l k k g g g s g s u u k u g u u u u u u u u t u u t t t t t t t t u u s s u f s f f f f f j s k p l l l l m m m m G p &                                             ",
"                                              % r G K Z H M l l l k k k g g u g u u k u u u u u u u u u u u u u u u u u t u u u u u f s p s s f s f j f k p G p p G l l m m m G i -                                               ",
"                                                # r G G V m l l l l k k z k g g k u u k k u k u u u p u u u u u u u u u t u u u s u u p s s f f f f f l k k p G G p G k m m k 6 &                                                 ",
"                                                  % w M H m m l l l k k k g k g k k k u p k p k k u p p u u g u u u u u u u u u s u u u f s f f f g g l k k k k p G k G G p 1 @                                                   ",
"                                                    # 5 l G m m l l k k k k k k k p k k k p u k p k p p k p u p u p u u u u u u s p f f f g g g g l g g k p G p G p G p 6 & X                                                     ",
"                                                      o 1 p G G l l l l k k k k k g g f g f g p g p f f p p f p p f p p s u u g p f g p g g g g g k k l l l m m l p 6 - o                                                         ",
"                                                          # 4 p l G m l l l l l g k k k g g g f g g p g g g f g f f f f p g p g g g g g g g g g g m m k m l p i 1 & X                                                             ",
"                                                              * 5 p l l l l l l l l k g g g f p i i y u y y p p p g g g g g g g g g g g g l l l l k g i 6 , & @                                                                   ",
"                                                                  @ * 1 5 9 w w w w 5 2 , - * & % # # # # & & * : , 2 5 w w y u u p p g p p y w 6 , - #                                                                           ",
"                                                                              o                                           @ # & & & * & & & # O                                                                                   ",
"                                                                                                                                                                                                                                  ",
"                                                                                                                                                                                                                                  ",
"                                                                                                                                                                                                                                  ",
"                                                                                                                                                                                                                                  ",
"                                                                                                                                                                                                                                  ",
"                                                                                                                                                                                                                                  ",
"                                                                                                                                                                                                                                  ",
"                                                                                                                                                                                                                                  "
};
