/* XPM */
static char *SlimeBasic_00007[] = {
/* columns rows colors chars-per-pixel */
"113 77 106 2 ",
"   c None",
".  c #070E05",
"X  c #080F06",
"o  c #0A1207",
"O  c #0C1609",
"+  c #0E1A0A",
"@  c #111E0C",
"#  c #13230E",
"$  c #15290F",
"%  c #152610",
"&  c #172A11",
"*  c #192E12",
"=  c #1B3213",
"-  c #1E3A16",
";  c #213D19",
":  c #204017",
">  c #24441A",
",  c #26481B",
"<  c #294B1F",
"1  c #2A521E",
"2  c #2C591F",
"3  c #2B4D20",
"4  c #2D5321",
"5  c #2E5921",
"6  c #315C24",
"7  c #346426",
"8  c #366B26",
"9  c #376428",
"0  c #39672A",
"q  c #376929",
"w  c #3A6C2B",
"e  c #3C722C",
"r  c #3E7D2A",
"t  c #40762F",
"y  c #407F2C",
"u  c #417631",
"i  c #437B31",
"p  c #3F802B",
"a  c #42822D",
"s  c #448A2F",
"d  c #458432",
"f  c #498636",
"g  c #478B31",
"h  c #498C34",
"j  c #4B8738",
"k  c #4D8B39",
"l  c #479031",
"z  c #4B9335",
"x  c #4E9B36",
"c  c #4E913A",
"v  c #4F9B38",
"b  c #509F37",
"n  c #51943C",
"m  c #529C3B",
"M  c #4FA037",
"N  c #4FA038",
"B  c #50A137",
"V  c #53A43A",
"C  c #55AB3C",
"Z  c #59AE3F",
"A  c #57B13D",
"S  c #59B43E",
"D  c #5ABA3F",
"F  c #5DC13F",
"G  c #569E40",
"H  c #57A240",
"J  c #59A542",
"K  c #5AAB41",
"L  c #5CB442",
"P  c #5DBC42",
"I  c #60B746",
"U  c #61BC45",
"Y  c #63BC48",
"T  c #5EC341",
"R  c #5EC841",
"E  c #62C345",
"W  c #63CB45",
"Q  c #66C549",
"!  c #68C64B",
"~  c #66CB49",
"^  c #69CD4C",
"/  c #65D246",
"(  c #65DB46",
")  c #68DB47",
"_  c #67D448",
"`  c #6BD44C",
"'  c #67D949",
"]  c #6CDB4C",
"[  c #6FD650",
"{  c #6FD950",
"}  c #71DD51",
"|  c #67E048",
" . c #6DE34C",
".. c #6CEB4B",
"X. c #70E54F",
"o. c #70EC4E",
"O. c #6DF34C",
"+. c #71F54E",
"@. c #72FB4F",
"#. c #6FE050",
"$. c #72E451",
"%. c #75EC53",
"&. c #76F353",
"*. c #79F556",
"=. c #76FD51",
"-. c #7AFD55",
/* pixels */
"                                                                                                                                                                                                                                  ",
"                                                                                                                                                                                                                                  ",
"                                                                                                                                                                                                                                  ",
"                                                                                                                                                                                                                                  ",
"                                                                                                                                                                                                                                  ",
"                                                                                                                                                                                                                                  ",
"                                                                                                                                                                                                                                  ",
"                                                                                                                                                                                                                                  ",
"                                                                                                                                                                                                                                  ",
"                                                                                                                                                                                                                                  ",
"                                                                                                # - - , 2 8 p f z x N v x x l f y 7 5 ; #                                                                                         ",
"                                                                                  . - 1 e f N C D Q `  .%.&.*.*.-.*.-.*.*.*.*.&.*.%.X.[ P d 1 #                                                                                   ",
"                                                                              - w N ~ $.%.&.*.*.&.&.&.*.&.&.&.%.*.*.&.*.*.*.*.*.-.-.-.-.*.*.X.L t -                                                                               ",
"                                                                        . , z _ $.&.%.%.%.%.%.%.%.%.%.%.%.X.$.%.%.+.*.-.*.*.@.*.-.-.-.-.-.*.*.*.%.Q e $                                                                           ",
"                                                                      - f ` %.%.%.%.%.%.%.%.#. . . . .] ]  .] ]  ...o.+.+.@.@.=.=.=.=.-.-.-.-.-.*.%.%.P 5 X                                                                       ",
"                                                                  + 8 Q %.%.%.$.$.%. . . .]  .] ] ] ' _ / ` / / ]  . ...o.O.@.@.@.@.@.=.@.-.-.-.-.*.%.%.[ f *                                                                     ",
"                                                                $ h } $.$.$.$. . . . . .] ' / / ~ / W W R R W R W / ( ( ( | | ........+.+.@.@.=.=.=.-.&.%.$.Z >                                                                   ",
"                                                              - V $.$.$.$.X. .] ] ] / / W W R R T T T T F F T T T T F F F R F R R R R ) ) ....@.@.=.=.-.&.X.$.Q 1                                                                 ",
"                                                            : K $.$.$.X. .] ' ( / W R F F F F D D F P D D D D D D D D D D D D D F S F F U E R ) ..$.&.&.=.&.%.$.^ 9 X                                                             ",
"                                                          > L $.$.} ] ] ] / / R F F F D D D D A D A A A A A A D A D D A A D D D F S S S F F F E E ) ..&.+.&.&.%.$.` e O                                                           ",
"                                                        , U } } } ] ` / / R F F F D D A A A A A A A A A A A D A A D A A D A A D S S F F A F A F F F R ) $.&.+.%.%.$.[ t O                                                         ",
"                                                      > U } } [ ` ` W W T F F D D A A A A C A A C A A D A D A D S A D D A D A D S S A A S S S F S F F F / ) o.&.o.%.X.[ y @                                                       ",
"                                                    - L } } ` ` / R T F D D A A A C C C A C C C A A A A A A D A A S D A A D A D F A A A A S S S S Z F F F R ) X.o.%.%.} [ d @                                                     ",
"                                                  # V } } ` / W T Q D D A A C C C V C V B C C C C A A A A D A A A A A A A A A A A S S F S S A A S S S F F F R ) X.X.o.o.} [ g @                                                   ",
"                                                O f ] } ` / W Q T P D D C C V V V V V V C C C C A A A A A A A A A A A A A A A A C A A A A A S S Z A F Z Z F F T / ) o.o.$.} ` y X                                                 ",
"                                                8 ` } ` W Q Q D P D C C V V V V M V V C M C C C B A B A M A B A B B B A B A A B C C C A C A S A Z A A A Z F Z F T / ) X.X.X.[ Q 6                                                 ",
"                                              > Y } [ ^ Q Q U D D C C V b b b b V M V V C C V C B B B B M M M B B A B B B B B B C C C C C C C A A A A A Z Z F F D T R /  .X.} [ I ;                                               ",
"                                            % b } [ ` Q U D D D C V V b b b b b M M V V M M M x M B M M M x M M B B B B B C B B B C B C C C C C A A A A D Z Z Z D P T / / } ) } [ m *                                             ",
"                                            e ` { ` ^ U D D L C V b b x z b b b M M M x M M M x M M M M x x x x M M M M B M M B B B B B V V V S C C C C C C Z Z Z F P P / / ) } [ ^ i O                                           ",
"                                          , Q } ` ^ U L D D C V b b b x z b b z x x x x x x l M l l x l x x x x l M l M B M M M B x B B B B V V C C C C S C A S A Z F F P Q / [ ` [ Y 6                                           ",
"                                        # b { ] ^ Q L D D C V b b c b n z b z b x x l x l l M l l x l l l x l M M l l M l x x x x x x b B B b V B S C B C C C A C A Z F P P Q ` ` ^ [ J ;                                         ",
"                                        7 ^ ` ` ^ P D D C V b b x c z z z z b z x x l x l l l l l l l x x l l l l l M l l x l l z x z x z b b b b B B C V C C C C C Z Z P P T Q ^ ^ ^ ! i O                                       ",
"                                      = H _ [ ~ T P P A K C N N z z z z z x z z l l l l l l l l l l l l l l l l l l l l l l l l l z l z z z x x x b B B V V S S V Z V Z S S E E ~ ` ` ! U >                                       ",
"                                      e [ [ [ ~ L A A A N H p H z z z z z z l l l l l l g g s l s l s s s l s s s s s s s l s l l l l l l l l x x x b B V V V V S V S Z Z S S U Y ~ ! ` ^ d @                                     ",
"                                    & H [ ' ~ P K P K N N x H p z z z z z l l l g g g l g g s s s s s s s p s s s s s s s s s s s s s s l l l l l z b b m m V V V V Z Z V S Z S U Y ` ! ^ I ;                                     ",
"                                    7 Q ` { ~ P A A A N N p p H z h z z l z h s g s g g l g g s a a a a s s p s s p s p p s p s a s z g l l l l z z z z B B V V V V V V V V S Z U E Y ! ^ ! i                                     ",
"                                  # v ~ ' ' Q A A C N z p H p p l z h l h l s l g l z b C T V s s a p s p s p p p s p s p p s p s s B T S b x z l z z z b b B V B Z G B V V V K Z L E ! ! ! K =                                   ",
"                                  , L ~ { _ L L C N N N G z p H h z z z z x b V D U / } %.] V s s a a p p p p p p p p p s p s p a s C ) $.} / E S S B B b b B B B B B B B B B B Z L U Y ! ! E 5                                   ",
"                                  w Q `  .~ L A C N z z p z p G b D U Q ^ ` ] $.$.%.%.X.` C s s a p a p p p p p p p p p p p p p a a l C ` %.%.%.X.} } ` ^ Q Q U K B B m m m B B B K I E E ! ! u                                   ",
"                                  f Q `  .T A C C N z z G p G p C } %.%.%.%.%.$.X.[ / D x s s p p p p p p p p p p p p p p p p p a y a s x Z W ) $.%.%.%.%.%.X.} U B B B z m m m m K L I E E E m %                                 ",
"                                - b Q  .' P L C H N p p G p p G b C I U Q U D C V z h s s r p p p p p p p r r r p p p p r p p r r p p p a s l x V K P E E E U K B m z m n b z z G V Z U Q Q Q K ;                                 ",
"                                > K ~ #.' P H N N H N z z z p G h h h l h h l s s y y s p p r p r p r r r r r r p p r r r r p r p r p a p a a a a l g z z z z v n m m z B z z B b G Z U W E E S 6                                 ",
"                                4 L ~ o.' L A N z p G p p G p p h d s s s y s y s r y y a r r r r r r r r r r r p p p p r r r r r p r y r y a a a l a g g g g z z z z m b z n z z B G Z Q Q ! I 6                                 ",
"                                7 L ~ O./ L C V G z z z G p p G h d d s d d y s y r s y r y r r r r r r r r y y p p p p r r r r r r r r p a p a a a a f g g g g n g x n n z z z z b G L Q ` ! Y 9                                 ",
"                                w L ~ O./ A N N z z z h h h h p l s d s y d d y y y y r y r r r r r r p g B Z E E U S b p p p p r r r r y y y a a g y g g i g g g g n z n z z z m m G K Q ) E I w                                 ",
"                                w L ~ O./ L V N z z h h h h h h d d d s d y y y y y y y r r r r r p s B ` X.%.%.%.%.%.X.R C s p r r r r y y y y a a a i g g f g g n z z n z s n n m m K W ) E E w                                 ",
"                                w L ~ O._ L V b z h h h h h h f d d h i d y d y s y y r y r r r p l F X.%.%.%.%.%.%.%.%.%.X.D s a r r y y y y a a i g a g i g g d n n z z z n n g m G Z W ) E I w                                 ",
"                                7 L ~ O.' L V v G z z h z p h h d d s s s y y s r y r y r r r y s S o.%.%.%.%.%.%.%.%.%.%.+...D s r r r r y y y a y y g g f i f g g g z n z n s n z m Z W ) I I 7                                 ",
"                                4 L T O.' P H v z z z h z h h h f f f a f a f a y y y r r r y y x ` %.%.%.%.%.%.%.%.%.%.%.%.%.{ z a a y r y y y a a a a g g i g h h h z c l c z c n b K ~ W I I 4                                 ",
"                                3 J Y O...P H N z z h h p f f p a s a a a a y y y y y y y y y y x ) %.%.%.) ) E E E ~ ] %.%.%.{ z a r y r y y a a a a a i g g g d h h c z c f h c c G J / Q I K ;                                 ",
"                                - b L ....T H N z z h h f h h p s f a f a a y a y y y r r r r y s A ` Q S x a r y y s x D ~ ~ S a y r r y y y y y s s g i g g f h h h z c l l c c v G K W U I n *                                 ",
"                                @ k L ' O.W H N c z z h h h h f a f f a a f a d a y y y y r r r r a a a p r r r r r r r p a a y r r y y r a a y y a i y g i g i d h z f z k c l c c b K Q P I i                                   ",
"                                  w L Q O.( K b v z h h h h h f s a f a f a y y y y y y r r r r r r r r r r r r r r r r r r r r y r y r y y y s i g g i g g g g h h h h c f l f c G G K Y L L 6                                   ",
"                                  3 J Y | ..U V c G h h h f h p f f a f a y a a a y y y y r r r r r r r r r r r 8 r r r r r r r y y y y y y y i y y y g g i i g d h h h l f c c c b G L L I G -                                   ",
"                                  & k L / ..W C G h k h h p h f f f f a a f y f y a y y y r y y r r r r r r 8 r r r r r r r r r y y y y y y y y g g y i i g g g h d h h h k h k c G H K L L i O                                   ",
"                                    7 L P ( ) D v G G h h h h f a s a f a f a a a y a y y y y y r r r r r r r r r r r r r r r r y y y y y y y y y i i g g i i g d h d h h h k k G H H K K H 3                                     ",
"                                    ; n K Q / R Z n n n n f f f s f a d d d a a r d r y y y y y r i r r r r r r r r r r r r r r y y y y y d y g s d d d d d d d h d h h h c c c G G G K K i @                                     ",
"                                      t K I W / S B n n k k k k f f f f a d d d f y r f y y y y r y r r r r r r r r r r r r r r y y y y i y y g y d d d d d h d d h j d c d c c n G G J G 3                                       ",
"                                      = j K I T S Z n n n f i k s f f f d d y d f r f y y r f y r r r r r r r r r r r r y r r r y y y y s s y i i d d h d h d j h h d c j c c G G n G G w @                                       ",
"                                        > m K I U Z G n n k k k k f f f f d f d r f r y r r y y y y y r y r y r r r r r r r y y y y y s y i g i d d d d d d d j d h c d j j c c G G G j *                                         ",
"                                        o 4 G J Z Z G n n k k k k i k k f f f y f y f y y y y y y y y y r r y r r r r r r r r r y y i i s y d d d d d d i G u j j i j j G G j G n G j ;                                           ",
"                                          o 4 n K Z Z G n n k k k k k i f f f f f f y f f f y y y y y y y y y y r r r d r r d i y y s y i d d i d d d h j j j j j j G j j c i G G j ;                                             ",
"                                            O < d G G m n n n k k k f k f k f f f i i f i f i f i y y y r r y r y y r r r d r r i g d i d d d j j d d k j k j j j G G j G j G G i ;                                               ",
"                                                = 9 n n n n n n k k k k k f k f k f f f y f y f f f i i r f i r r f d i r r r f d i d d d d j d j j j k j j j j j j j j j G j 9 -                                                 ",
"                                                  + ; 0 j G G j k n k k k k k j d d j d i d j j i d i d i i d d i d y i d i i d d d d j d j d j d j j j j j i G j j G j G u 3 @                                                   ",
"                                                      X & 3 0 e j j k k c c k k k j j j j d d i j d j i d d d i d i d d d d j i d j j j j j j j j c c c c c G i G j j u 4 *                                                       ",
"                                                            X @ * - 3 3 6 9 w u i i d j j j d j d i d d j d d i d d d d d d j d j i i i i i i i i u u u u u t t 0 6 ; O                                                           ",
"                                                                            O @ * * ; > 3 6 6 w t t u i i i i i u u u w 9 6 4 , ; ; * % % % % % @ % % % @ @ O O                                                                   ",
"                                                                                                @ % * * * * * * * % # O                                                                                                           ",
"                                                                                                                                                                                                                                  ",
"                                                                                                                                                                                                                                  ",
"                                                                                                                                                                                                                                  ",
"                                                                                                                                                                                                                                  ",
"                                                                                                                                                                                                                                  ",
"                                                                                                                                                                                                                                  ",
"                                                                                                                                                                                                                                  ",
"                                                                                                                                                                                                                                  "
};
