/* XPM */
static char *SlimeBasic_00005[] = {
/* columns rows colors chars-per-pixel */
"113 77 102 2 ",
"   c None",
".  c #060B04",
"X  c #080F06",
"o  c #091207",
"O  c #0B1508",
"+  c #0E1A0A",
"@  c #111E0C",
"#  c #13230D",
"$  c #152A0F",
"%  c #152610",
"&  c #172A10",
"*  c #192E12",
"=  c #1C3414",
"-  c #1D3A15",
";  c #203E17",
":  c #223E19",
">  c #25461B",
",  c #264A1C",
"<  c #284B1D",
"1  c #29511D",
"2  c #2A4C20",
"3  c #2D5321",
"4  c #2E5C21",
"5  c #325C25",
"6  c #346426",
"7  c #356A26",
"8  c #376229",
"9  c #386629",
"0  c #366828",
"q  c #3B6E2B",
"w  c #377127",
"e  c #3D732C",
"r  c #3E7D2A",
"t  c #40742F",
"y  c #407F2C",
"u  c #417631",
"i  c #437C31",
"p  c #3F802B",
"a  c #42822D",
"s  c #448A2F",
"d  c #458432",
"f  c #498536",
"g  c #478B31",
"h  c #498B34",
"j  c #4B8738",
"k  c #4D8B39",
"l  c #479031",
"z  c #4B9334",
"x  c #4E9B36",
"c  c #4E923A",
"v  c #4F9B38",
"b  c #509E37",
"n  c #51943C",
"m  c #529C3B",
"M  c #4FA037",
"N  c #50A137",
"B  c #53A33A",
"V  c #55AB3C",
"C  c #58AD3F",
"Z  c #57B13D",
"A  c #59B43E",
"S  c #5BBB3F",
"D  c #5CC13F",
"F  c #579F41",
"G  c #58A541",
"H  c #5AAB42",
"J  c #5CB442",
"K  c #5DBB42",
"L  c #60B646",
"P  c #61BC46",
"I  c #64BE48",
"U  c #5EC341",
"Y  c #5FC842",
"T  c #62C345",
"R  c #63CB45",
"E  c #66C449",
"W  c #68C64B",
"Q  c #66CB49",
"!  c #69CC4C",
"~  c #64D246",
"^  c #65DB46",
"/  c #66D449",
"(  c #6BD44C",
")  c #67DB49",
"_  c #6CDB4C",
"`  c #70DF4F",
"'  c #6FDA50",
"]  c #71DD51",
"[  c #6DE34C",
"{  c #6CEB4B",
"}  c #70E44F",
"|  c #71EB4F",
" . c #6DF44C",
".. c #71F34E",
"X. c #72FB4F",
"o. c #6FE150",
"O. c #72E551",
"+. c #75EC54",
"@. c #76F353",
"#. c #79F556",
"$. c #76FD51",
"%. c #7AFD55",
/* pixels */
"                                                                                                                                                                                                                                  ",
"                                                                                                                                                                                                                                  ",
"                                                                                                                                                                                                                                  ",
"                                                                                                                                                                                                                                  ",
"                                                                                                                                                                                                                                  ",
"                                                                                                                                                                                                                                  ",
"                                                                                                                                                                                                                                  ",
"                                                                                                                                                                                                                                  ",
"                                                                                                                                                                                                                                  ",
"                                                                                                                    $ $ $ $ $                                                                                                     ",
"                                                                                                  $ = < 4 w h v V K E E E K A V b l w 1 *                                                                                         ",
"                                                                                    $ - 1 7 r h B A Q _ +.@.#.#.%.#.@.#.@.#.%.#.#.#.+.} R m 6 =                                                                                   ",
"                                                                            + - 6 z J ( o.+.@.#.@.#.@.#.@.@.@.@.@.@.@.%.%.%.%.%.%.%.%.%.#.#.} E s :                                                                               ",
"                                                                        & 7 B ( +.+.@.@.@.+.@.+.+.+.+.+.[ +.O.O.+.@.@.%.%.%.%.%.%.%.%.%.%.%.#.#.O.! y ;                                                                           ",
"                                                                    $ 0 K O.+.+.+.+.+.+.+.+.o.o.[ [ _ _ [ _ _ _ [ [ { {  .X.X.X.X.X.%.%.%.%.%.%.#.+.+.E t +                                                                       ",
"                                                                X 1 V O.+.O.+.O.O.o.[ } o.[ [ _ _ _ ) / / / / / ) ) [ [ { {  .X.X.X.X.X.%.%.%.%.%.#.+.+.] H :                                                                     ",
"                                                              $ d ( +.O.O.O.} } [ [ [ [ _ _ ) ) / Q R R ~ R Y R R R D ^ ^ ^ ^ [ ^ { {  . .X.$.$.$.%.%.@.+.+.W 6 +                                                                 ",
"                                                            = v ] O.O.} } } [ [ _ _ ( ^ ~ R Y Y Y Y Y Y D D D D D D D D D D D D Y Y U ~ ~ { { ..$...$.$.$.+.+.( d $                                                               ",
"                                                          ; H O.O.O.} _ _ _ ) ~ ~ R Y D D D D D D S A S A A S S A A D D A D A D S S S S D U ~ ^ [ { ..@.$.@.@.O.] m =                                                             ",
"                                                        < K O.] ` ` _ ( ) ~ ~ R D D D S S S A A S A Z Z A A A A A A A A A A A A Z S S S S S D U ~ ( [ ....@.@.+.O.O.J >                                                           ",
"                                                      < I ] ` ` ( ) ) R R D D D D S S A Z Z Z Z Z Z Z Z Z A S Z Z D Z Z A A A A Z S A S A S S S D K E ~ [ ....@.+.O.O.E 5 X                                                       ",
"                                                    < E ] ` ( ) ( ! Y U D S D S S A Z Z Z Z Z Z V Z Z Z Z S Z A Z A A D A A A D S A A A A A A A A D D D ~ [ | ..@.| O.] W t o                                                     ",
"                                                  > I ] ` ( ! ! R Y U S S S Z Z Z V V V V V V V Z Z Z S S Z S S Z Z A Z A A A A S A A A A A A A A A D D D T ~ [ | | +.+.` ( t O                                                   ",
"                                                ; V ] ' ( ! R R U S S S Z Z V V V N V V V V V Z Z Z Z Z Z Z Z Z Z Z Z Z Z Z Z Z Z A A A S A A A A A A D A D T ~ [ [ | | O.` ( t +                                                 ",
"                                              + x ] ` ( R R E U S S V V V V V b V N B V N V Z V Z Z Z Z Z Z Z Z Z Z Z V V V V Z V A V A A A A A A A A A A S K D R ^ ) | } } ` ! t X                                               ",
"                                              e ( ] ( ! E U S S A A V V V b N b B N B V V V V V N Z N Z M Z M Z V V M V V V V V V V V V Z V A A A A A A A S S K D R ) ) } } } ` W 8 X                                             ",
"                                            < W ] ( ! W E S S A Z V m V b b b b N B N V V V B B N N M M M M M M M M M V M V M M V V N V V V A V V A A V A A A K S E U ) ) ` } ` ' K 3                                             ",
"                                          & H ' ( ( E P P K A V V V m b b b b b N B N M M M M M N N M M M M M M M M M M M M M V N N V V V N V V V V A V A V C A A S D U R ) ` ` ] ! H =                                           ",
"                                        o y ' ' ( W P S S A V V b b b b b b b b M M M M M M M x M M M l M M M M M M M M M M M M N N N N V B V V V V V V V A V A A A K K U ! _ ) ' ! ! l %                                         ",
"                                        1 W ] ( ! E P A A V B N b x x c c b b c M x x x x x l M M l l M M M p M M M p M M M M l N x N N N N N B V V V V V C V A A A A K S K T _ ' ' ' W t O                                       ",
"                                      $ B ' ( ! P P A A V B N b c x b z z b b x x z x z l z M l l M l M M p M p p M M M M M l M b x x b b b b B N V B V V V V V C A A A S K K E ! ' ' ! L >                                       ",
"                                      q ! _ ( W K A A A V N b c z z z z x z x z x x l x l l l l l l l l M p M M l l p M p l M p l x l z z b b b N B B B C N V V C C C A A A S T W ! ! ! W n &                                     ",
"                                    : L ' ' Q K K K H B M F v z z z z c x z z z l l l l l l l l l l l l s l l l l l l s l l l l l z l x l x x x x b N B B B C B C V C V J A A P T W ( W W W 8                                     ",
"                                    e ! ' / Y K Z Z V M v z z z z z z z z z z z l l l l l g l l l s l s s s s s s s s s s s s l s s s l s l z z z x b b B B B B B V V V V J A A L I W ( ( W B *                                   ",
"                                  : J / / ! K J Z B F M p M z z z z z z z z z s l g l s g g g s s s a s s s s s s s p s s s s s s s s s l s z z z x z b N N B B V V B V V J V A A T T W W W W 8                                   ",
"                                  e ! / ' W K Z Z B M v z v z v z z l l l l l s g s l l z x z s s s a a p s p p s s s p p s p s s s x b x l l l l z z z m N N N B B B C B B B V J A T W W W W b %                                 ",
"                                * G ! ' / U J Z V M v z p F p p l l l l l l l l l z V C T ) Z l a a s p s p p s p s p s p s p s s s Z ^ T C N b z z z z b b N N b B B B B B B B B J J L W W W J <                                 ",
"                                3 K Q ' / K J G B M M p F p M v z z c z z b b V K W _ O.+.) N s a s a p a p s p p p p p p p p p a s N ^ +.| ' R K A B B N N N B B B B B V b B B B V J L W W W W t                                 ",
"                                e W / o.Y K Z V M v v v p v p F b Z P E ! ( ` } +.+.+.+._ V l a a p a p p p p p p p p p p p p p a a l V ( +.+.+.+.O.` ( ! E E A G B b b b n b b B B G A S W W W n $                               ",
"                              % v Y ' [ U H V F M v v p F p v p A ] +.+.+.+.+.+.+.O._ S b s s p a a p p p p p p p p p p p p p p a a a s b K ( | +.+.+.+.+.+.+.O.L B B n b b b b b V B J S W S W H ;                               ",
"                              : H Q [ ' K H V M v p M p v p p F m L ! _ ( ( _ E A V c l a a p p p p p r r r r r p p r r r r p r a r a a a l x V K W ! ' ' ' ! L V b b b b n b b z b B G P W W W L 1                               ",
"                              5 J ! { ' K G V M v F p F p F F p z z c b b z z l l s a a p a p p r r r r r r r r p p r r r p r r r r r p p a a a s l x x b b b x b z z n b z z n b n B V A T T I P 9                               ",
"                              q K !  ./ J V M v v p p k p F p p f s s s s s s a a a a y p r r r r r r r r r r r p r r r r r r r r a r r p a a a s a s g s s j z z z b n z n z z z n b F J T ~ T P e                               ",
"                              e L !  .Y H V M v F p F p F p p F s s i s i s a a a a a y p r r r r r r r r r r r p r r r r r r r r r r r p r p a a a i s g l g j h z n z b z n z z b b F J ~ Q W W i                               ",
"                              e K /  ./ H M M v F p z F z p z p f s i s i s a a r a a r r r r r r r r r a l b V V B b l p p p r r r r r y r y a y s y g g g g g h z n z z n z n z n b F G Q ~ T P d                               ",
"                              p J /  .Y Z V v v z z k p k h k k f s s s s i a y a r r y r r r r r p p M W ( O.+.+.+.O.( D x p p r r r r r y r y a a a i i g g g h h z z z z z n z z b F G ~ ` T P d                               ",
"                              f J /  ./ J B v z F p k z k p k p s s s i i s i a y y r r p r r r r l S [ +.+.+.+.+.+.+.+...[ A s a r r r r y y a a i s i i s i g h h z z n n z z z z n n G ~ ~ I I i                               ",
"                              e J !  .^ H B v v z z p z p k z p i f i s s i y y a r y r r r r a l A O...+.+.+.+.+.+.+.+.+...{ S s a r r y r y y a y y s g s j g y h h n z z z j z n n b G ~ ~ I P u                               ",
"                              e J !  .) K F v z z k p z z k p k d d d d s d y d y y r y y r y y z ~ +.+.+.+.+.+.+.+.+.+.+.+.+.( b p r r r r y y a a a a g i g g h f h z z z z c h c c m H R Q P P 5                               ",
"                              5 H U  .[ K B v v z k k k p k k p d d d d y y d y y y y r r r y y z ~ +.+.` ~ S A V V S Q +.+.+.( z a r r r y y y a y a a g i g i f h h z k c h h z c m F H R E L L 2                               ",
"                              2 H K { { U F B z F p p z p k f e l d d y y d y y y y r y y r r r a b A V z s r r r r r s b V A z a r r y y r y a y a a a i g g i a h h k z h k z k c n m V E P L G =                               ",
"                              * v J [  .Y H v v z F p k k k p F d d d y s d y y y y y r y r r r r r r y r r r r r r r r r r r r r r r r r a a y y a y g g i g g s h h h z h h z l c n m H Y P L f @                               ",
"                              @ d J Q  .) J m m z z p z k p f p d d d d y d y s y y y y y r r r r r r r r r r r r r r r r r r r r r y r y y y y g y y g i g i g f f h h h h h h c c v G H P L H 6                                 ",
"                                5 H P [ { P F m z k k z p F e F d d s d d d d y y y y y r y r r r r r r r w r r w r r w r r r r r y r y y y a a a i g i g i g i f s f h h h h c k c m F H L J G ;                                 ",
"                                = m J ~ { D V m F k p p k p p p d d d s d y a a a y y y y y y y r r r r r r r w r r r r r r r r y y y y y y y a y i s y i g g g s f l f h h h k c n F G H L H i +                                 ",
"                                + e J D ^ [ S B F k F k p F F e d d d y y s a a y a y y y y y y r r r r r r r r r r r r r r r r y y y y y y a a g y i g g i i g f f s h h k h k c n m F H H G 2                                   ",
"                                  : F L W ~ Y V m n n j j j k i d d d d d y y y y d y y y y y y r r r r r r r r r r r r r r r r y y y y y a a i s i i s s f f s s f h f h h z k n F F G G H i @                                   ",
"                                  @ u H L R ! P B n n k k k k k l d d d d s y d d y y y y y y y y r r r r r r r r r r r r r r r y y y a y a y i i i s i i i s f s f f h h h z k n n m F F F >                                     ",
"                                    = n Z L E S C B n n z k k k k y j j d y d y y y y d y y y y r y y r r r r r r r r r r y r r y y a y y i y s s i s s f s f s f s f h j k k k F n F F F 9 +                                     ",
"                                      2 m H A A C F n n k k k i k k j i j d j d d d y y y y y y y r r y r y r y r r r r y r y y a i y y a s s i i s i f s f s h f h h f k j k m k F m F u %                                       ",
"                                      @ 3 n F L C F B n k k k k j j j j j d y j d y y y i y y y y y y r y y y y r y y y y y y y y a y y s i i s s i f s f f f f f j j j k k m k n n F i =                                         ",
"                                        O 2 n F C F m m n k k k j j j j j j i j d j j y j y y s y y y y y y y y y y y s y y y y a i s i i i s i f s s f f j h f j j j j k k k F n n u =                                           ",
"                                            : u F F m m n n k k z k j j j j k j d i i j y j i i i y y y y y y y y y y i y i y y s i i s s i f f f f i j j j j j k k j F F k k F n t =                                             ",
"                                              @ 2 y n n n n n z k k j j j j j j j j j i j y j i i i y y i y y y y y y y y y i i i i j i s f f f f j j j j j k k j k k j j k n j 9 %                                               ",
"                                                  % 2 q j k F k k k k k k k f f f f f f f i f d d i d i f f y f y i f y s i f s i f f f f f f f j j j j k k j j k j k F F j i 2 +                                                 ",
"                                                      + & 2 5 u j k k n k k k f k f f f f f f i d f f i y i f i f y i f i f i f f f f f f f j z k k k k k k j F F j F i i 2 @                                                     ",
"                                                            X @ & = 2 3 6 q u f f j f f f f f f f i f f i f a f i f f f f f i i i i t i i i u i i i j i j i i i i u 5 : @                                                         ",
"                                                                          + $ * ; < 3 5 9 q q u y i i i i y t t t q 5 5 3 > : ; * & % % % % % * * * ; ; * ; = * @ @                                                               ",
"                                                                                          + $ % * * * * * * * % @ +                                                                                                               ",
"                                                                                                                                                                                                                                  ",
"                                                                                                                                                                                                                                  ",
"                                                                                                                                                                                                                                  ",
"                                                                                                                                                                                                                                  ",
"                                                                                                                                                                                                                                  ",
"                                                                                                                                                                                                                                  ",
"                                                                                                                                                                                                                                  ",
"                                                                                                                                                                                                                                  "
};
