/* XPM */
static char *Health_Potion_00004[] = {
/* columns rows colors chars-per-pixel */
"42 50 172 2 ",
"   c None",
".  c #020101",
"X  c #0D0A09",
"o  c #110C0C",
"O  c #1D1514",
"+  c #271B17",
"@  c #251A1A",
"#  c #291E1C",
"$  c #221612",
"%  c #2C211E",
"&  c #37241C",
"*  c #2E2220",
"=  c #352626",
"-  c #372827",
";  c #382827",
":  c #3B2A2A",
">  c #402E2E",
",  c #453231",
"<  c #4A3534",
"1  c #4D3837",
"2  c #4F3938",
"3  c #523B3B",
"4  c #583F3E",
"5  c #57423A",
"6  c #5A443C",
"7  c #734A3B",
"8  c #5B4241",
"9  c #644847",
"0  c #664948",
"q  c #6A4E4C",
"w  c #614645",
"e  c #6E504F",
"r  c #795857",
"t  c #8E5C49",
"y  c #825E5C",
"u  c #82625F",
"i  c #886663",
"p  c #8F6B68",
"a  c #8B6865",
"s  c #916967",
"d  c #956D6B",
"f  c #986F6D",
"g  c #94706D",
"h  c #9A726F",
"j  c #9C7471",
"k  c #AB7865",
"l  c #AB7764",
"z  c #B27761",
"x  c #B47862",
"c  c #B97F6A",
"v  c #A37674",
"b  c #A67B78",
"n  c #A57C78",
"m  c #D95C6A",
"M  c #D7636E",
"N  c #DB606D",
"B  c #DE6471",
"V  c #DD6B76",
"C  c #D37277",
"Z  c #D17C7D",
"A  c #D37378",
"S  c #E0616F",
"D  c #E66574",
"F  c #E86675",
"G  c #E66877",
"H  c #E96877",
"J  c #E66C7A",
"K  c #EE6D7C",
"L  c #E3717C",
"P  c #ED717E",
"I  c #B9826E",
"U  c #AE8D70",
"Y  c #AE827E",
"T  c #B28574",
"R  c #B1807E",
"E  c #B38878",
"W  c #AC9476",
"Q  c #AD9C7D",
"!  c #B29277",
"~  c #B5957B",
"^  c #B6997F",
"/  c #C38F7C",
"(  c #C4907D",
")  c #E77483",
"_  c #ED7382",
"`  c #E37D85",
"'  c #E77C89",
"]  c #EB7A88",
"[  c #AC8580",
"{  c #B18782",
"}  c #B48B86",
"|  c #B88885",
" . c #BC8E8A",
".. c #B79A81",
"X. c #B7908A",
"o. c #BE948E",
"O. c #BE9891",
"+. c #AEA383",
"@. c #B5A78A",
"#. c #B6A98C",
"$. c #BEA88E",
"%. c #BDB295",
"&. c #C58C84",
"*. c #DA838D",
"=. c #DF8F8F",
"-. c #D38A8A",
";. c #C29483",
":. c #D09F8D",
">. c #C09790",
",. c #C19891",
"<. c #CC9C96",
"1. c #DF9090",
"2. c #E48287",
"3. c #E3868A",
"4. c #EC808E",
"5. c #E3888B",
"6. c #EB8391",
"7. c #E38F91",
"8. c #EB8994",
"9. c #F18895",
"0. c #E19090",
"q. c #E89297",
"w. c #E49698",
"e. c #E5999B",
"r. c #F1949E",
"t. c #C0A48B",
"y. c #D1A08E",
"u. c #C6A198",
"i. c #CBA69C",
"p. c #DDA296",
"a. c #DDA39D",
"s. c #D4A290",
"d. c #C7B59B",
"f. c #CAB29A",
"g. c #CCB89E",
"h. c #E3A69C",
"j. c #E99CA4",
"k. c #F39AA5",
"l. c #DBA6A1",
"z. c #DCA8A2",
"x. c #C6BDA1",
"c. c #C8BEA2",
"v. c #DEB1A8",
"b. c #D5BAA0",
"n. c #E1ADA6",
"m. c #E9ACA3",
"M. c #E4AFA8",
"N. c #F4A3AD",
"B. c #E6B5AD",
"V. c #E9B6AE",
"C. c #E8B8AF",
"Z. c #E7BAB0",
"A. c #ECBCB3",
"S. c #DEC6A9",
"D. c #DACAAC",
"F. c #D5CDAE",
"G. c #EDC5B8",
"H. c #EEC8BB",
"J. c #EBC3B6",
"K. c #F0C9BC",
"L. c #EFCACA",
"P. c #F7C1C7",
"I. c #F8C9CE",
"U. c #F7C4CA",
"Y. c #F7CFD4",
"T. c #F9CDD2",
"R. c #FAD5D9",
"E. c #FADCE0",
"W. c #FCE7EA",
"Q. c #FAE5E6",
"!. c #ECFEF3",
"~. c #F5FEF8",
/* pixels */
"                                $ + + + # # & % &                                   ",
"                              & t l l l T ....&.;.5                                 ",
"                            & t x I I I / y.y.y.s.;.6                               ",
"                          . 7 x I I I I / y.y.y.:.s.E o                             ",
"                        . . 7 I I I I I / y.y.y.y.s.T X .                           ",
"                      3 d f &.a.h.a.w.h.h.m.m.m.m.m.a.h d 8                         ",
"                    ,  .                                  ,.3                       ",
"                    2 z.    Q ......+...$.d.d.d.d.b.D.    v.9                       ",
"                      q a.  W ! ..^ ..^ ;.f.f.f.d.f.S.  m.r                         ",
"                      * v J.W ! ....^ ^ t.f.f.f.f.f.S.  { ;                         ",
"                    * u V.  W ! ^ ;.^ ^ t.d.f.f.d.f.S.  V.d =                       ",
"                    3 B.    +.U ! ^ ^ ^ t.d.f.d.f.b.S.    A.0                       ",
"                    3 V.      +.^ @.@.@.%.x.x.x.c.F.      J.0                       ",
"                    3 V.                                  A.q                       ",
"                  ; Y                                   !.  { ,                     ",
"                  > B.                                  ~.  A.3                     ",
"                  , m.                          2.      ~.  V.3                     ",
"                  ; v.                                  ~.  V.3                     ",
"                  , v.        *.                        ~.  V.3                     ",
"                  ; m.      0.q.1.                    I.Q.  B.3                     ",
"                  > v.7.K K K K P K K K K K _ K _ K K 9.k.2.Z.3                     ",
"                  , v.7.K K K K K K K K K K K K K K K K K 2.Z.3                     ",
"                  : m.1.K _ K K K K K K _ K K K K K K K _ 2.Z.3                     ",
"                  < v.1.K K K K K K K _ K K K K K K K K K 2.C.6                     ",
"                , X.  2.P K K K K K K K K _ K K K _ K K _ 8.  >.3                   ",
"              , {   0.P P K _ K K K K K K K K K _ 9._ K N.U.q.  o.2                 ",
"            o {   0.K K K K K K K _ K _ K K K K _ _ _ ] k.W.P.e.   .O               ",
"            3 >.  _ K K K K K K K K K K K K K K K K _ ] P N.W.k.  i.8               ",
"          . b   2.P K K K K K H K F K F K F K K F K K K K P U.I.q.  | o             ",
"          0 O.  _ _ 6.K K K H F F F F F D D ) J D D K F K K k.Q.k.  u.e             ",
"        . f   2.K _ ] F F D D D D D F D D D _ J D F D D F F K T.T.q.  b X           ",
"        q u.  _ K F F D D D D F D D D D D D D D D D D F F F F 8.E.k.  f.r           ",
"        y K.` H D D D D D D D F D D D F D D D D D D D D D G G G Y.R.8.  d .         ",
"        y J.L D D D D D D D D D D D D D D J J D D D D D D ' ] D ' U.'   d .         ",
"        y H.J D D D D F D D D D F D D D D ' _ D D D D D D G D D D K L   d .         ",
"        y H.V D D D D D D D _ J D D D D F D D D D D D D D D D D J 6.L   d .         ",
"        y H.V D F D D D D D ' J D D D D F D D D D D D D D D D D ) Y.`   d .         ",
"        y H.  B D D D D D D D D D D F D D D D D D D D D D D D D J j.-.  d .         ",
"        , [   B m F D D D D D D D D D D D D D D D D D D F D D D N N   X.3           ",
"          d     N m S D D D D J D F D D D D D D D D D F D D D m m     v .           ",
"          ; {   N m m m D D D 6.J D D D D D D D D D D D D m m m N   >.;             ",
"          . h     N m m m m B J D D D D D D D D D D N m m m m m     b o             ",
"            @  .  M m m m m m m m D S D D D D N m m m m m m m M   <.=               ",
"            X d     M m m m m m m m m m m m m m m m m m m m N     h O               ",
"              @ p     M m m m m m m m m m m m m m m m m m M     h *                 ",
"                @ a     C M m m m m m m m m m m m m m M C     g =                   ",
"                  % i A.    Z Z Z Z Z Z Z Z Z Z Z Z Z     A.g =                     ",
"                    * 5 d B.                          B.n 8 ;                       ",
"                        = , n z.l.l.l.l.l.l.l.l.l.z.{ < ;                           ",
"                            = ; ; = ; = = ; ; = = ; =                               "
};
