/* XPM */
static char *Health_Potion_00000[] = {
/* columns rows colors chars-per-pixel */
"42 50 170 2 ",
"   c None",
".  c #020101",
"X  c #0D0A09",
"o  c #110C0C",
"O  c #1D1514",
"+  c #271B17",
"@  c #251A1A",
"#  c #291E1C",
"$  c #221612",
"%  c #2C211E",
"&  c #37241C",
"*  c #2E2220",
"=  c #352626",
"-  c #372827",
";  c #382827",
":  c #3B2A2A",
">  c #402E2E",
",  c #453231",
"<  c #4A3534",
"1  c #4D3837",
"2  c #4F3938",
"3  c #523B3B",
"4  c #583F3E",
"5  c #58433B",
"6  c #734A3B",
"7  c #5B4241",
"8  c #644847",
"9  c #664948",
"0  c #6A4E4C",
"q  c #614645",
"w  c #6E504F",
"e  c #795857",
"r  c #8E5C49",
"t  c #825E5C",
"y  c #82625F",
"u  c #886663",
"i  c #8F6B68",
"p  c #8B6865",
"a  c #916967",
"s  c #956D6B",
"d  c #986F6D",
"f  c #94706D",
"g  c #9A726F",
"h  c #9C7471",
"j  c #AB7865",
"k  c #AB7764",
"l  c #B27761",
"z  c #B47862",
"x  c #B97F6A",
"c  c #A37674",
"v  c #A67B78",
"b  c #A57C78",
"n  c #D95C6A",
"m  c #D7636E",
"M  c #DB606D",
"N  c #DD6371",
"B  c #DD6A76",
"V  c #D37277",
"C  c #D5747A",
"Z  c #D9707B",
"A  c #D17C7D",
"S  c #E0616F",
"D  c #E66574",
"F  c #E56977",
"G  c #E96877",
"H  c #E66D7A",
"J  c #EE6D7C",
"K  c #E6717E",
"L  c #ED717F",
"P  c #B9826E",
"I  c #AE827E",
"U  c #AE8D70",
"Y  c #B28574",
"T  c #B1807E",
"R  c #B38878",
"E  c #AC9476",
"W  c #AD9C7D",
"Q  c #B29277",
"!  c #B5957B",
"~  c #B6997F",
"^  c #C38F7C",
"/  c #C4907D",
"(  c #E57582",
")  c #ED7482",
"_  c #E47C86",
"`  c #E77D88",
"'  c #E87D8A",
"]  c #AC8580",
"[  c #B18782",
"{  c #B48B86",
"}  c #B88885",
"|  c #BC8E8A",
" . c #B79A81",
".. c #B7908A",
"X. c #BE948E",
"o. c #BE9891",
"O. c #AEA383",
"+. c #B5A78A",
"@. c #B6A98C",
"#. c #BEA88E",
"$. c #BDB295",
"%. c #C58C84",
"&. c #DF8F8F",
"*. c #D38A8A",
"=. c #C29483",
"-. c #D09F8D",
";. c #C09790",
":. c #C19891",
">. c #CC9C96",
",. c #DF9090",
"<. c #E48287",
"1. c #E3868A",
"2. c #EB828E",
"3. c #E3888B",
"4. c #EC8591",
"5. c #E38F91",
"6. c #EA8A93",
"7. c #F18895",
"8. c #E19090",
"9. c #E89297",
"0. c #E49698",
"q. c #E5999B",
"w. c #F1949E",
"e. c #C0A48B",
"r. c #D1A08E",
"t. c #C6A198",
"y. c #CBA69C",
"u. c #DDA296",
"i. c #DDA39D",
"p. c #D4A290",
"a. c #C7B59B",
"s. c #CAB29A",
"d. c #CCB89E",
"f. c #E3A69C",
"g. c #E99CA4",
"h. c #F39AA5",
"j. c #DBA6A1",
"k. c #DCA8A2",
"l. c #C6BDA1",
"z. c #C8BEA2",
"x. c #DEB1A8",
"c. c #D5BAA0",
"v. c #E1ADA6",
"b. c #E9ACA3",
"n. c #E4AFA8",
"m. c #F4A3AD",
"M. c #E6B5AD",
"N. c #E9B6AE",
"B. c #E8B8AF",
"V. c #E7BAB0",
"C. c #ECBCB3",
"Z. c #DEC6A9",
"A. c #DACAAC",
"S. c #D5CDAE",
"D. c #EDC5B8",
"F. c #EEC8BB",
"G. c #EBC3B6",
"H. c #F0C9BC",
"J. c #EFCACA",
"K. c #F7C1C7",
"L. c #F8C9CE",
"P. c #F7C4CA",
"I. c #F7CFD4",
"U. c #F9CDD2",
"Y. c #FAD5D9",
"T. c #FADCE0",
"R. c #FCE7EA",
"E. c #FAE5E6",
"W. c #ECFEF3",
"Q. c #F5FEF8",
/* pixels */
"                                $ + + + # # & % &                                   ",
"                              & r k k k Y  . .%.=.5                                 ",
"                            & r z P P P ^ r.r.r.p.=.5                               ",
"                          . 6 z P P P P ^ r.r.r.-.p.R o                             ",
"                        . . 6 P P P P P ^ r.r.r.r.u.Y X .                           ",
"                      3 s d %.i.f.i.0.f.f.b.b.b.b.b.i.g s 7                         ",
"                    , |                                   :.3                       ",
"                    2 k.    W  . . .O. .#.a.a.a.a.a.A.    x.8                       ",
"                      0 i.  E Q ~ ~ ~ ~ o.s.s.s.s.d.Z.  b.e                         ",
"                      * c G.E Q ~ ~ ~ ~ e.s.s.s.s.c.Z.  v ;                         ",
"                    * y N.  E Q ~  .~ ~ e.s.s.s.s.s.Z.  N.s ;                       ",
"                    3 M.    O.U ! ~ ~ ! e.s.s.s.s.c.A.    C.9                       ",
"                    3 N.      O.! #.@.@.$.l.l.l.z.S.      G.9                       ",
"                    3 N.                                  C.0                       ",
"                  ; I                                   W.  [ ,                     ",
"                  > M.                                  Q.  C.3                     ",
"                  > v.                                  Q.  N.3                     ",
"                  > v.        K                         Q.  N.3                     ",
"                  > b.                        C         Q.  N.3                     ",
"                  > v.                      8.9.8.    J.E.  N.3                     ",
"                  > M.&.J J J J L L J J J J J J J ) J 7.h.<.B.3                     ",
"                  > x.1.J J ) J J L J J J J J J J J J J J 1.B.3                     ",
"                  : x.0.J J J J J J J J J J J J J J J J J 1.B.3                     ",
"                  < x.1.J J J J J J J J J ) J J J ) J J J 1.V.5                     ",
"                , [   1.J J J ) J J J J J J J J ) 2.) J ) 7.  ;.2                   ",
"              , }   0.J J J 7.) J ) J J J J J J J ) J J m.K.0.  o.2                 ",
"            o ]   0.) J J J ) J J J J J J J J J J J ) J h.R.K.q.  %.O               ",
"            3 :.  J J J J J J J J J J J ) J J J J J J J J m.R.h.  y.7               ",
"          . v   1.J J J J J J G J G G G J G G J G J J J J J L.L.q.  } o             ",
"          9 :.  ) J J J J G G G G G G G D D D D D D G J J J h.E.h.  t.w             ",
"        . g   1.J J G G G G D D D D D D D D D D D D H ' G G J L.L.9.  v X           ",
"        0 t.  ) G G G D D D D D D D D D D D D D D D D H D G G 6.T.h.  s.e           ",
"        y H._ G D D H D D D D D D D D D D D H D D D D D D D D G I.Y.6.  s .         ",
"        y G.H D D L 1.D D G D D D D D D G D ' ) D D D D D D D D ' P.'   s .         ",
"        y F.K D D D D D D D H D D D G D D D D D D D D D D D D D D H H   s .         ",
"        e G.H D D D D D D D _ L D D D D D D D D D D D D G D D D H 4.K   s .         ",
"        t D.B D D D D D D D D D D D D D D D D D D D D D G ( H D ) I._   s .         ",
"        t F.  N D D D K ( D G D D D D D D ( H D D D D D D ) H G H g.*.  s .         ",
"        < I   m M G D H L D D D D D D D D K H D D D D D D D D G n M   ..3           ",
"          a     n n M D D D D D D D D D D D D D D D D D D D n n M     c .           ",
"          ; [   N n n n D D D D D D D D D D D D D H ' D D n n n M   ;.;             ",
"          . d     n n n n n M D D D D D D D D D D D B n n n n n     v o             ",
"            # |   m n n n n n n n D M D D D D D n n n n n n n m   >.=               ",
"            X i     m n n n n B n n n n n n n n n n n n n n M     h O               ",
"              # i     m n n n ( N n n n n n n n n n n n n m     h *                 ",
"                # p     V m n n n n n n n n n n n n n m V     f =                   ",
"                  # u N.    A A A A A A A A A A A A A     C.s =                     ",
"                    * 4 f M.                          M.c 7 ;                       ",
"                        = < b k.k.k.k.k.k.k.k.i.k.k.[ < ;                           ",
"                            * ; ; = ; = = = = = = = =                               "
};
