/* XPM */
static char *SlimeBasic_00018[] = {
/* columns rows colors chars-per-pixel */
"113 77 104 2 ",
"   c None",
".  c #080D06",
"X  c #091207",
"o  c #0C1508",
"O  c #0E1A0A",
"+  c #101E0C",
"@  c #13240E",
"#  c #15290F",
"$  c #162610",
"%  c #162A10",
"&  c #192E12",
"*  c #1B3313",
"=  c #1E3A16",
"-  c #203E17",
";  c #223E19",
":  c #204017",
">  c #234319",
",  c #26491B",
"<  c #294B1E",
"1  c #2A531E",
"2  c #2D5321",
"3  c #2F5E21",
"4  c #305624",
"5  c #325C24",
"6  c #336225",
"7  c #356C26",
"8  c #366328",
"9  c #3B6C2C",
"0  c #377027",
"q  c #3C732B",
"w  c #3F7D2A",
"e  c #40772F",
"r  c #407F2C",
"t  c #417630",
"y  c #447C32",
"u  c #3F802B",
"i  c #42822D",
"p  c #448A2F",
"a  c #458432",
"s  c #498636",
"d  c #468B31",
"f  c #498C34",
"g  c #4B8738",
"h  c #4D8C39",
"j  c #508F3B",
"k  c #479031",
"l  c #4B9334",
"z  c #4E9B36",
"x  c #4E923A",
"c  c #4F9B38",
"v  c #509E37",
"b  c #51943C",
"n  c #529C3B",
"m  c #4FA037",
"M  c #4FA138",
"N  c #50A137",
"B  c #53A43A",
"V  c #55AB3C",
"C  c #58AC3E",
"Z  c #57B13D",
"A  c #59B43E",
"S  c #5ABB3F",
"D  c #5CC13F",
"F  c #579E40",
"G  c #57A340",
"H  c #59A542",
"J  c #5AAC41",
"K  c #5CB442",
"L  c #5DBB42",
"P  c #60B646",
"I  c #61BD46",
"U  c #64BD48",
"Y  c #5EC241",
"T  c #5FC942",
"R  c #62C345",
"E  c #63CB45",
"W  c #65C449",
"Q  c #68C64B",
"!  c #66CB49",
"~  c #69CD4B",
"^  c #65D346",
"/  c #65DA46",
"(  c #68DB47",
")  c #67D348",
"_  c #6BD44C",
"`  c #67DB49",
"'  c #6CDC4C",
"]  c #70DC4F",
"[  c #6FD950",
"{  c #71DD51",
"}  c #66E247",
"|  c #6DE24C",
" . c #6CEB4B",
".. c #70E44F",
"X. c #71EA4F",
"o. c #6DF24C",
"O. c #71F54E",
"+. c #73FC4F",
"@. c #72E451",
"#. c #75EC53",
"$. c #76F253",
"%. c #78F556",
"&. c #76FD51",
"*. c #79FD55",
/* pixels */
"                                                                                                                                                                                                                                  ",
"                                                                                                                                                                                                                                  ",
"                                                                                                                                                                                                                                  ",
"                                                                                                                                                                                                                                  ",
"                                                                                                                                                                                                                                  ",
"                                                                                                                                                                                                                                  ",
"                                                                                                                                                                                                                                  ",
"                                                                                                                                                                                                                                  ",
"                                                                                                                                                                                                                                  ",
"                                                                                                  @ = 1 6 7 0 7 3 , *                                                                                                             ",
"                                                                                            , 0 z L ~ ..#.$.#.#.X.' R B w 1 *                                                                                                     ",
"                                                                                      # 6 B ` #.%.$.%.$.%.$.%.%.%.%.%.%.$.| ! B i 5 - +                                                                                           ",
"                                                                                  # 7 K @.$.#.#.#.#.#.#.X.X...#.#.%.%.%.$.%.%.%.%.#._ K f 6 - o                                                                                   ",
"                                                                              o 3 K @.$.#.#.#.#.@.| | | ' | ' | X.O.+.&.%.%.%.%.*.*.*.%.%.@.~ B e - o                                                                             ",
"                                                                            , M ' #.#.#.#.@.| ' ' ` ) ) ) ) ) ) ' | X.O.+.&.%.%.*.*.*.%.%.%.%.%.#._ v < o                                                                         ",
"                                                                        o q ! #.#.#.@.@.| | ' ' ^ ^ ^ ! T ! ! ! ^ ( '  .O.+.+.&.&.&.*.%.%.%.*.%.#.#.#.] n <                                                                       ",
"                                                                      - B @.#.X.#...| | ` ^ ^ ^ Y T Y D D D D D D T / / }  .o.o.+.+.+.+.&.&.&.*.*.*.#.#.#.Q q O                                                                   ",
"                                                                  X 6 Q #.@.@...| | ' ` ^ ^ D D L S S S D A Z D D D D D D / / } | o.O.O.+.+.+.+.&.*.*.$.X.X.{ j %                                                                 ",
"                                                                + r ] @.@.@...| ' ' ^ T D D A A A A A A Z D Z D Z D D D D D D D T T ( ( | o.O.O.O.&.&.&.&.#.X.] B *                                                               ",
"                                                              & x { { @...] ' / ^ T D D D A A A A A A A Z Z Z Z Z Z Z Z A D A A S S D D T _ _ ( | X.X.#.#.&.#...{ J -                                                             ",
"                                                            ; C @.{ @.] ' ' ^ ^ D D D S A A A V V A V A A A Z A S Z S S A A A A S S S S S S D T ! _ |  .X.X.#.#.@.{ K =                                                           ",
"                                                          < I { { ] ' _ / ^ ! D D S A A V V V V V V A A A A D A Z S Z A A A A A A A A A S S S S S D T ^ ( X.X.#.#.#.{ J *                                                         ",
"                                                        1 Q { ] ] ) _ ^ ! D D S A A V V V V V V V V A A A A A Z Z Z A A A A A D A S S A S A A A S S D Y T (  . .X.X...[ x @                                                       ",
"                                                      1 R { ] ] _ ^ ! R Y S S A V V V V B V V V V A V V V V V Z Z Z Z Z Z A A A A A A A A A A A A S S S Y Y E ( | X...@._ r                                                       ",
"                                                    - I { _ [ ~ ! T T Y A A A C V B B B V V V V V V V V V V V V V V V Z Z Z Z Z A A A A A A A A A A A S Y Y T R ^ | ......Q 2                                                     ",
"                                                  % B { ] _ ~ Q R Y Y S A C C N B B N B V B V V V m m m m m m V V m V V V V V Z Z Z A A A A A A A A A A A A S Y ! ^ ( ] .._ B &                                                   ",
"                                                o a [ { _ ~ R R Y Y K A C C N N N N N B N B N N m m m m k m m m m m V m m V m Z V V A C V A A A A C A V C A Y S S R ^ ' { _ _ r                                                   ",
"                                                5 ~ { _ _ R R I A A C V N B N v B N N N N N N z m k m k m m m m m m m m m m V m V N V V V V V A V A A C C A A A S D T ) ] { [ U <                                                 ",
"                                              = K [ _ ~ Q Y L S A C V N N v v v z m N N m m z z k z k m k m m m k m m m m m m m N V V V V V V C V C V A V A V A A K Y I _ _ _ _ b +                                               ",
"                                            o a _ ' _ ! I L L A C V B v v v z x m z m z z z k m k z k k m k k k m m k m m m m m N N N N N V V C V V V V V V V K A K K Y R _ _ _ Q 5                                               ",
"                                            1 Q { _ ~ I S S A A V N z z z z z z z z z z k k k k k m k k m k k k k k k m k m m m v N N N N N B B V V V V V V V V A A A Y I Q ~ _ ~ B %                                             ",
"                                          @ c _ _ ~ Q K A A C B v v z z x x z z z z k z l k k k k k k k k k k k k k k m k k m k z z v N N N B N B B V N V V V V V V A A Y U ~ ~ ~ Q 8                                             ",
"                                          2 Q _ _ T L L J V V G z z x l l l z x l l l l k k k k p k p p p p p p p p p p k k k m z k z z z z z m m m N V B B C C C V C A A S Q ~ ~ ~ B &                                           ",
"                                        + l _ _ _ Y J L V V M z z x l l l z l z l k k k p s p p p p p p p p p p p p p p p k k p k k k z k z z z z m N B B B B C C N V C C S R Q ~ ~ U 5                                           ",
"                                        > L _ [ ! L L V V V M z x l l l l l l k k k k p p p p p i k i i p p u p p p p p p p p p k k k z k k z z z z v N B B B B N B C C V C K U Q ~ ~ l +                                         ",
"                                        q ~ _ ' T J V V M z z G x k l l l l l k k k p p p p p i i i i i u p u p p u u p p p p p k k i i k k k l l l z v v B B B B B N N B B C R Q Q Q K ,                                         ",
"                                      $ F ! ' ` L J J V V z u u f k l l l k k p k s p s k i k i p p p u u p u u u p u p p p u p i k k l k k k l l l l z n v N B n v v n B B V K I Q Q Q e                                         ",
"                                      ; K ~ ' ! L J V M G u M z x k l x l l z z v B V Y T ^ V i u u u u u u u u u u u u u u p u i k V ! R Y A V n z z z z n n n v n v n v v B C K Q Q Q l $                                       ",
"                                      5 L _ | T J V V m u F u F N K I R Q ) ) ' ] @...| ) A k i u u u u u u u u u u u u u u u u i i l A ~ ..X...| ] _ ~ ! ! R R C B z z v v B H P I Q Q K ;                                       ",
"                                      q Q ` | T Z V M l F l z u B T ) _ _ _ ) ! T K V z l i i u u u u u u u u u u u u u u u u u i i i i f v V S R ) _ _ ' _ _ R C v v v v v v B A I I Q U 5                                       ",
"                                      f Q | | L G V M z k l u F f f l l l l k k i k i i i u u u u u w w w w w w u u u w u u u u u u i i i i i k i l k l v n l v v n j z z z z B J U W U U e                                       ",
"                                    % x Q | ` L V V z l l l F u k k k f s k i i i i i i u i u w w w w w w w w w u u u u w w w w u w u i u i i i i s s k k f l l z z z j z l j v H P W W Q g                                       ",
"                                    = G Y  .` J G M z l l l f l k s s s k i p i i i i r w w w w w w w w w w w w u u u u w w w u u u u w i i i i i p i k s l f l z z j v j l z z C K E E Q n &                                     ",
"                                    > G W o.` L M F z l l u f f k k s k i s i i i i i i i w w w w w w w w u f z m k p p u w w w w w w i u i i i i p s s k s f k j l f j z l j n B K E ~ U n ;                                     ",
"                                    > F Y X.' K V z z l l f u f s s p s i i s i i i r w i w w w w w u p B U ' @.@.X.' U m p u u w w w w r i i i i i s i i k s k f z j l z j h z v K ^ _ S C ;                                     ",
"                                    : F U o.} K F c l l f f l f s k s i s p i i i r i r w w w w w u k S @.#.#.#.#.#.#.#.} S k u w w w r r r r i i k i k s k k s f z z l h h j z G C ^ ^ U C <                                     ",
"                                    = F L  .} K M z F f f f f f s p s s i s i i i r r w w w w w w f Y X.#.#.#.#.#.#.#.#.#.X.Y k i w w w r r r i i i i s s p s p h l j l l l l n n J ' ~ U J >                                     ",
"                                    & F L  . .L F z l l l f f f p s p p p i i i r i r r r w w r k S X.#.#.#.#.#.#.#.#.#.#.#.X.S p r w r r r i i i i s i s i k s f l l h l h l z n C _ ~ U B ;                                     ",
"                                      f P | o.D B c x x f f f f i s i s i i i r r i i w r w w r l ~ #.#.#.#.#.#.#.#.#.#.#.$.$.~ l i w w w r i r i i i s k s s s f f x k x f x c n J ) R U B *                                     ",
"                                      r P _ o.T B c x x f f u f k k s i s s i s i r r w w w w i v ' #.#.#.#.@.] ] @.@.@.#.#.#.] z i w w w i r r i i i i i p s k x x f x f h x b n J ) R I x                                       ",
"                                      5 K ! o.^ J c l k f f f f s s k s i i i i i r r r r w w r l ~ #.#.] Y V l l v V Y ] @.#.~ l i w r w i r i i i s i s s s k f f x f k x x c n J ! L P t                                       ",
"                                      , H I  .} K M z x f f f a k i i s i s i i i r r r r w w r u l S A v k w w w i i k v A A v i r w w r r r i i i i s i s i s f f f f h f x x F K R P P 9                                       ",
"                                      & f P (  .L n x x f f a f s f s i s i i r i r r r r r r w w w w w w w w w 0 w w w w r i w w w r r r r r a s i i s i f f f f f f f f h x n G K L K J <                                       ",
"                                        9 K T  .^ G c h x f f f s i i s i i i s r i r r r r r r w w w w w w w w w w w w w w w w w w w r r r r r i i i s i s i s f f f f f h x F G K P K x &                                       ",
"                                        - B P ( / J c F h f f f s i s i i s s r s i i r r r r r w w w w w w w w w w w w w w w w r r r r i r r i i i s i s s i f f s f f h h F F F K K K 9                                         ",
"                                        + y K Q / Y B c x f f f s k s s s i i i r r i r r r r r w w w w w w w w 0 w w w w w w w r r r r r i a r s i i s i f f s s f f f h h F F F H K F ;                                         ",
"                                          2 F P ~ E C n j j k s i k r f r y f r s r r r r r r r w w w w w w w w w w w w w w w w r r r r r a r a a i a a a a s s f f f f h b n F H H J t +                                         ",
"                                          + t J Y Q A B n j j s f s f f f r f r r r i r r r r r r r r w w w w w w w w w w w w w r r r i r r r a i a a a f s f g f s f h j b b F F F b ;                                           ",
"                                            ; b C A P C n h j j f f f y f r r y r s s r s r r r t w w r r w r w w w r w w r w r r r r r i a r i a a a a a s g g s f h j j j n F F F 8 o                                           ",
"                                              2 B K A A v j j g g g y f f g r f s r r r r r r r r r r w r r r r r w w r w w w r r r r i a r a a a a f i a f g y f h h j j F b b F t +                                             ",
"                                              + 5 F J H F n j g j g g g y g y f s r s r r r r r r r r r r r r r r r r r r r r r r a r r i i a a a a a a g y F g g g g j b b b F t $                                               ",
"                                                + 8 B H F n j j j g g g g g g y g y r g g g y g r r r r r r r r r r r r r r r r r i r a a a i a a f s f g g g g F g F g b b j 5 $                                                 ",
"                                                  + 5 F F n n j g j j g g g g g r g g y s r r y y r y y g r r r r r r r r r r r i i i i t a a a s s s h g g g y y F g F F t < o                                                   ",
"                                                    o 2 g n n j j g g g g g g g g g g g r g g r g g y g y r g y r r r r r r r r i t a a a a s s s s s h g y F F y F F y 4 &                                                       ",
"                                                        > y F F g g h h h g g g g s a g s s a t s s t s a s a t a t a i t a r t s i s s s s s s g g j g j j j j j y 4 & X                                                         ",
"                                                          $ 2 y F F h h h h h h g s s g s g s s s s s a s t a s s t s i a s a s s s s s s s s s g g j g j s y 8 < %                                                               ",
"                                                              & 4 t y F x j h h h h g g s t t t e t e r t t t s a s a s s s s s s s s f s s s f g g y t 4 ; % o                                                                   ",
"                                                                  + & > 2 5 8 8 8 5 2 , , = * % @ @ @ $ & & * , < 4 5 9 9 e r t t s a t y t t 8 2 ; % o                                                                           ",
"                                                                                                                      o + @ & * & * & & % % o                                                                                     ",
"                                                                                                                                                                                                                                  ",
"                                                                                                                                                                                                                                  ",
"                                                                                                                                                                                                                                  ",
"                                                                                                                                                                                                                                  ",
"                                                                                                                                                                                                                                  ",
"                                                                                                                                                                                                                                  ",
"                                                                                                                                                                                                                                  ",
"                                                                                                                                                                                                                                  "
};
