/* XPM */
static char *SlimeBasic_00027[] = {
/* columns rows colors chars-per-pixel */
"113 77 107 2 ",
"   c None",
".  c #030702",
"X  c #060B04",
"o  c #080F06",
"O  c #091106",
"+  c #0B1508",
"@  c #0E190A",
"#  c #101E0C",
"$  c #13230E",
"%  c #14290F",
"&  c #152710",
"*  c #172B11",
"=  c #182E12",
"-  c #1B3314",
";  c #1E3A16",
":  c #213B18",
">  c #204117",
",  c #24441A",
"<  c #28471E",
"1  c #264B1C",
"2  c #294C1E",
"3  c #2A531E",
"4  c #2D5421",
"5  c #2E5D21",
"6  c #325C25",
"7  c #355F28",
"8  c #336325",
"9  c #356926",
"0  c #376429",
"q  c #38652A",
"w  c #376B28",
"e  c #3A6C2B",
"r  c #3C732B",
"t  c #3E7D2A",
"y  c #40752F",
"u  c #407F2C",
"i  c #417630",
"p  c #447C32",
"a  c #3F802B",
"s  c #42822D",
"d  c #448A2F",
"f  c #458432",
"g  c #498636",
"h  c #478B31",
"j  c #498C34",
"k  c #4B8738",
"l  c #4D8C39",
"z  c #479031",
"x  c #4B9435",
"c  c #4E9B36",
"v  c #4E923A",
"b  c #4F9B38",
"n  c #509F37",
"m  c #51943C",
"M  c #529C3B",
"N  c #4FA037",
"B  c #50A137",
"V  c #53A33A",
"C  c #58A73F",
"Z  c #55AB3C",
"A  c #58AD3F",
"S  c #57B13D",
"D  c #59B43E",
"F  c #5ABB3F",
"G  c #5CC13F",
"H  c #569D40",
"J  c #57A340",
"K  c #58A441",
"L  c #5AAB41",
"P  c #5DB443",
"I  c #5DBB41",
"U  c #60B646",
"Y  c #61BC46",
"T  c #64BE48",
"R  c #5EC341",
"E  c #5FC942",
"W  c #62C346",
"Q  c #63CC45",
"!  c #65C449",
"~  c #68C64B",
"^  c #66CB49",
"/  c #69CC4B",
"(  c #65D346",
")  c #65DC47",
"_  c #68DA47",
"`  c #66D348",
"'  c #6BD44C",
"]  c #67DB48",
"[  c #6CDB4C",
"{  c #70DE4F",
"}  c #6FDA50",
"|  c #71DC51",
" . c #6DE24C",
".. c #6CEB4B",
"X. c #70E44F",
"o. c #70EB4E",
"O. c #6EF44C",
"+. c #6EF84D",
"@. c #71F54E",
"#. c #72FA4E",
"$. c #6FE150",
"%. c #72E451",
"&. c #75EC53",
"*. c #76F353",
"=. c #79F556",
"-. c #76FC51",
";. c #7AFD55",
/* pixels */
"                                                                                                                                                                                                                                  ",
"                                                                                                                                                                                                                                  ",
"                                                                                                                                                                                                                                  ",
"                                                                                                                                                                                                                                  ",
"                                                                                                                                                                                                                                  ",
"                                                                                                                                                                                                                                  ",
"                                                                                                                                                                                                                                  ",
"                                                                                                                                                                                                                                  ",
"                                                                                                                                                                                                                                  ",
"                                                                                                        > 3 t d c B x h r 8 > %                                                                                                   ",
"                                                                                                ; 9 h S ` &.&.=.=.=.=.=.=.&.[ I x 9 >                                                                                             ",
"                                                                                        $ 3 t Z `  .=.=.=.=.=.=.=.=.;.=.;.=.=.=.=.o.' S r ;                                                                                       ",
"                                                                                  - 8 x R $.&.=.=.=.&.&.o.&.X.&.o.=.=.;.;.;.;.;.;.;.;.*.&.' x 4 &                                                                                 ",
"                                                                          + - 9 b ^ &.=.*.=.=.&.&.%. . . . .[ [  .....@.@.;.#.;.;.;.;.;.=.=.=.%.L 0 *                                                                             ",
"                                                                      $ 5 b ^ %.&.&.&.&.&.&.$.$. .[ [ [ ' ' ( ' [ ]  .....@.#.#.;.;.;.;.=.=.;.=.&.&.! u :                                                                         ",
"                                                                X - t I %.&.&.%.&.&.&.X.$.$. .] [ ` ` ( Q Q Q Q Q ( ( )  .....+.#.#.#.;.;.=.;.;.=.=.&.&.~ g :                                                                     ",
"                                                              * y ! &.&.%.&.X.X.X.X.X. . .]  .G Q Q E R G G G G G G G G G G )  .) O.O.#.#.#.;.;.;.;.#.*.*.%.~ u =                                                                 ",
"                                                          + 6 P X.&.| X.X.X.X.X.X.[ ] ] ( ) G G R R G I F F F F F F F F G G G G G E _ _ ..O.#.#.;.;.;.;.*.o.%.%.Y 6 #                                                             ",
"                                                        - j ' %.%.%.X.X.X.X.] X.] ' ( Q E G F F F F S F F S S F F F F F S G F G F F G G E (  ...@.#.@.;.;.;.&.X.%.' x :                                                           ",
"                                                    o 2 P | %.%.X.{ { [ { ] ] ( Q E G G G F F F S S S S S S F S S S S S S S S S F D F F G G E ( _ X.o.@.*.*.;.*.&.%.&.Y 0 @                                                       ",
"                                                  o w ~ | | { { { ' ' ' ) ( E E G G F F F F S S S S S S F S S F S G S G G F S F D D D F F F F G Q Q _ X.o.o.*.*.=.&.X.%./ x =                                                     ",
"                                                o y ' | | ' ' ' ' ( Q E E G G F F F F Z Z F S S S S S S S F F S S S S S S S F S F D F D D D F F G G R E _  .o.o.@.&.&.%.&.' U :                                                   ",
"                                              O y ' | } { ' ( ( E E E G F F F G Z F V Z Z Z Z Z S S S F S S S S S S S S S S S S D D F D D D D D F F G F G E _  .o.o.o.=.&.X.' Y 2 .                                               ",
"                                            X 9 ' | ' ' ~ ( Q Q E G F F F F Z Z Z V Z Z Z Z Z Z S S S S S S S S S S S S S S S S D D D D D F D D F A F F G G R Q ]  .X.o.%.X.&.{ ! 4                                               ",
"                                            3 ! | } ' ~ ! ! G G G G P D S S S V Z V Z V Z Z Z F Z Z Z Z B S S B S B Z B S Z S S D D D D D D D D D D D D D G G G G ( ]  .o. .&.{ } I <                                             ",
"                                          ; I | } ' ~ ! G ! F F P Z Z Z Z V V V V V B Z Z Z Z Z S S B Z B B B N B N S B B S Z N Z Z Z Z D D D D D D D D D D D Y G G G ' ]  . . .} } A -                                           ",
"                                        $ v | | ' ^ Q ! Y F D D S Z Z n V V V n V B V V V Z Z B N N B B B B N N B N B B Z B N B B Z Z Z Z D Z D D D S S D D D D G G G Y Q ' {  . .} ~ M &                                         ",
"                                        e ' ' [ ~ ! I F F D D Z Z Z n n n n n n B V V V B B B B N N z N N N N N N N N N N B B B Z B B Z B Z Z Z S S S S S S S S D P G G G Q Q { } } } ~ y o                                       ",
"                                      > Y } ' ~ Q Y Y F D Z Z V M n n n n n n n N B B B N N N N c N c c N N z N z N N N N N N N B B B Z A B B S S S A S S S S S D D D G G G I ~ ' } ' } Y 2                                       ",
"                                    $ v } ' ' ! Y F F D Z Z V V n n x n x n n n N N N c c c c z z z c z z N N z N N z N N z z N c c B B B S B S B S A B S Z Z S A A D D D G I Q Q ' ' ~ ' H =                                     ",
"                                    9 ~ [ [ ~ Y F D D Z V V n M n x n x x n n n c c c c z c z c z N z z N z N a a N N a z N N z c c c M B B B B B A S B Z Z S Z A S A D D D G I ~ ~ / ' / ~ y +                                   ",
"                                  = V ' ' ~ ! I D D Z V V n x x x x x x n x n x c c z c z z c z z z z z a N a N z a z z z z z z x c c x B M M M Z B B S Z Z Z Z Z Z A A D D D U Y T ~ ' ~ ' Y :                                   ",
"                                  w / ' ' ! I I S Z Z B c x v x x x n x x x n x x z x z z z z z z z z z d d d d d z d d d d z z z z c c z c c c N V V V Z Z Z Z Z Z Z Z Z A A D I U E ~ / / / s @                                 ",
"                                * J ' } ` R P S S Z B x c x x x x x x x n x x x z z z z z z z z z f d s d d d d d d d d d d d d d z z z z z c c c c n V B Z M Z M Z Z Z Z Z A A I I T ! ~ / / U <                                 ",
"                                8 ! ' } ^ I S S Z B c v x x x x x x x x x z x z z z z z z z z f d d d s d a d d a d a d a d d d d d z z c z z z z c c c M M Z M Z Z Z Z Z Z Z Z A A I T ~ / ~ ~ i                                 ",
"                              # v / ' ' E P P Z B b c x x x h x x x x x z j z z z z z n n Z n z d s d s d a a a d a d a a d a d d d V Z V c c z c z c c c n n Z B M M Z B B B Z B C A Y I ~ ~ ~ K ;                               ",
"                              < I / } ` I S S B B b x x x x h x x x z z x j z x z V Z Y ] X.Z d s s d a a a a a a a a a d a d a d z S X.' ! D V n c n x n x n M B B B B B V V M B B C I Y ! ! ! Y 6                               ",
"                              e ! ' $.^ P S Z B b b x x x v h v x x x n n n Z D ! ' X.&.&.] N d d a a a a a a a a a a a a a a d s d N ' &.&.%.' ! D Z Z M Z n Z B B M c M B M B B B B A I T ! ! ~ f                               ",
"                            # v ! ]  .R P Z Z B x v h v v a x v n Z Y ! ~ ' { X.&.&.&.o.{ V z d a a a a a a a a a a a a a a a a a s d Z ' &.&.&.o.&.{ ' ( ! Y P A B B M M M B M M c M A A T E T ~ J =                             ",
"                            ; J ^  .$.I Z Z B c x x x h j h h c P %.&.&.&.=.&.&.&.&.X.! V z s a a a a a a a a a a a a a a a a a a a d z N ! [ &.&.&.&.&.&.&.&.%.Y Z M B x M M M M B M B A Y ! ! ! U >                             ",
"                            4 P ^ $.] P L Z N c c v a c v a a c V ! { X.&.&.{ { ! G n x d s a a t t t t t t t t a a t t t t t t a t a s d x V I ^ [ %.%.%.%.{ Q A M x M c c m c x c c V C U ! ! ! Y 8                             ",
"                            8 Y ^ O.( P Z B c v c c v a v v x v x n V Z Z Z V n x z z s s a a a a t t t t t t t t t t t t t t t t a a a a s d z c b Z D P D Z V M M M x m m c c x m c m Z U ! Q ! Y r                             ",
"                            r Y ` O.^ P Z B c x v a j j a v a a z z j j z z z f s s u u s t t t t t t t t t t t t t t t t t t t t t t t a s s s s h h h x j x j x x x x c x x x x c c m V L Q ( ! Y i                             ",
"                            g Y ` O.( P B b c c v v a j v a v x f f f z s s s s s s u u t a t t t t t t t t t u t t t t t t t t t t t t a a a s s s f s h h h j z z z M c m l c x x x V Z A Q ' ! Y l                             ",
"                            j U ) ..E P L B b v v h h j h j j h f f f s s d s s s s s t t t t t t t t t u s z x c x z s t a a a t t t t u a a u s s s f f h h j k z x l c l l m x l x m M A Q _ ! Y v                             ",
"                            H U ( +.( P B b v x v j j h j h f h j s f d s s s u s t u t t t t t t t a z U ~ } { %.{ } ~ B z a a t t t t t u t s s s s s s h f h g g z l c c x m x x c M M K Q _ ! ! j                             ",
"                            H L ( O.) P B c c x j j j h g h f f f f f s f s s s u u t t t t t t a d D _ &.&.&.&.o.*.*.&.o._ S d s t t t u t u u s s s h s h f h z z g x l l c x l l l m M A / _ Y Y l                             ",
"                            a P ^ +.) I H c v x j j j j j f j h f s s f s s s s u t s t t t t s z F X.@.&.&.&.&.&.*.*.*.o.....G h s t t t u t s t s s s f s f h g g z z x x x l x x c m J K / _ Y Y i                             ",
"                            r U E O. .I J b x x x j j j j g f f f f f s f s s u u u u t t t u u x ' *.*.&.&.X.X.X.X.X.X.&.&.&.' x s t t t a u u s s s s s h f f h j j j v j j g v j v H H L E ^ Y Y e                             ",
"                            7 P R ....R J b v x h j j h j j h f f f f f s s s s u u t u t t t u x E { { _ G Z n c n Z F ' X.X.~ x s t t t u t s u s s s f s f j f f h j v j j H h j v b H L ^ ! U P 4                             ",
"                            > L I  .+.E L B b v v j j j j a g j f s f s f u u u u u u t u t t t a a x x a a t r t t t t d x c d s t t t u u u t u s s s f f h f f h j j j j H a v j v v b L ! I U K :                             ",
"                            = m P ( O.) P H b v v j j a j f g a f z f s f s f u u u t u t t t t u t t u t t t r t t t t t t t t t t t u t u u s u s s s s s f f f g h j v j a H a v v H H P Y U U j $                             ",
"                            @ i U Y ....! V M m v j j j g g j g f s f s s u f s u u u t u t t t u t t t t t t t t t t t t t t t t t u t t u u u f u f s f f f h f j h l j j j a v v v H K P I U L q                               ",
"                              4 K U ( ..Q L M m v j j j j a g a f f f f f s u u u u u u t u t t t t t t t t t r t r t t t t t t t t u t u u s u u s u s s f f f h f f h j g j H v v v H K L P L M :                               ",
"                              $ j U G  .] F V m v v j j j j a g z s f s s s s s u u u u t t t u t t t t t t t t t t t t t t t t u t u t u u u s f s f f f s g f f g l h r g a H j j H H K L L L r +                               ",
"                                4 L D Q ] E L M v v j j j g j g g f f f s s s u s u u u u u u u t t t t t t t t t t t t t t t t t u t u u u u u u s u f f f f f h f j f H t H a H H b H K K L H :                                 ",
"                                * k L U ~ Q G M m m m g g g g g f f f s s s s s s u u u u u u u t t t t t t t t t t t t t t t t u t u u s u u f f t a f f f h f g f h g j g j l k H H m H K K q +                                 ",
"                                  : H K P Q G P H m l m m l g p f f f f f f f s s p u u u u u u u t u t t t t t t t t t t t u t t u u u t f u s a f f f f f f f f j f j j j l l k H H H H H p =                                   ",
"                                  + 4 H L P G L H n m g g l l l g f f s f u s s s u s u u u u u u t t t u t t u t t t t u t t u u u u s u s f u f f f f f f f g j g j g j l l v k H H H H H ;                                     ",
"                                    + 7 M L L P A m m m l l l p g g g f f g s f s s p u u u u u u u u t u u t u t t t t u u u u u u s s f u u f f a f f f h h f g h g j j l l v H k H H k > .                                     ",
"                                      # 2 l K K A H x x l l l l l p g g g s g u u u s s u s u u u u u u t u t u u u u t u u u u u s i s s s i f f f f f g f f f k k p k l l v H v H v p : X                                       ",
"                                        o : p H H H m m l l l l l l l g g g g g g s s p s p s u u u u u s p u u u u u t u u u u u t s s f s f f f f f f p p g g k p H p l l l l H v i =                                           ",
"                                            * 7 l H m m m l l l l l l g g g p g p g s p s g p s s p p u p s s p u s p s s t p u t f s i s f f f f f f f p H p k k H k H p H H k l 8 =                                             ",
"                                              + : e m m m m l l l l g l g g g g g g g g g p g p g s p p s s p s s p s p s p p p f f f f f f f f g g g f k p H p H p H p H k H p 2 @                                               ",
"                                                  + ; q l m m l v k k k k k k g g p g g g i g s p g p g g p p g u p g f p g p g p g f g g p g g g k k g k k k k v k H p H p 7 =                                                   ",
"                                                      + - 7 p l v v v v k k k g g g g g g p g g u g u g u g u g g g g p f g g g g g g g g g g g k g k v v k k v H k H k q : o                                                     ",
"                                                            & > 7 i g l v v k v k k g g g g g g g g g g p p p u y y y y y y y u p f g g g k x k v k k v k v v k p i 4 - @                                                         ",
"                                                                  # = < 4 e i p g g p p g i y y e 0 4 2 < : : = * & $ & $ & * - : : 2 4 7 7 y y p p i i y 7 4 < : $                                                               ",
"                                                                          @ $ = = = - = = = & # @                                           @ # & & & # @                                                                         ",
"                                                                                                                                                                                                                                  ",
"                                                                                                                                                                                                                                  ",
"                                                                                                                                                                                                                                  ",
"                                                                                                                                                                                                                                  ",
"                                                                                                                                                                                                                                  ",
"                                                                                                                                                                                                                                  ",
"                                                                                                                                                                                                                                  ",
"                                                                                                                                                                                                                                  "
};
