/* XPM */
static char *SlimeBasic_00016[] = {
/* columns rows colors chars-per-pixel */
"113 77 100 2 ",
"   c None",
".  c #060B04",
"X  c #091207",
"o  c #0C1509",
"O  c #0E1B0A",
"+  c #101E0C",
"@  c #13240E",
"#  c #15290F",
"$  c #152610",
"%  c #172A10",
"&  c #192E13",
"*  c #1B3414",
"=  c #1E3A16",
"-  c #213D18",
";  c #204016",
":  c #24431A",
">  c #264A1B",
",  c #294B1E",
"<  c #2A531E",
"1  c #2B4E20",
"2  c #2D5521",
"3  c #2F5B22",
"4  c #305724",
"5  c #315C24",
"6  c #336225",
"7  c #366328",
"8  c #38662A",
"9  c #376828",
"0  c #3A6C2B",
"q  c #3B722B",
"w  c #3F7D2A",
"e  c #40762F",
"r  c #407E2C",
"t  c #437C31",
"y  c #3F802B",
"u  c #42822D",
"i  c #448A2F",
"p  c #458432",
"a  c #498536",
"s  c #468B31",
"d  c #498C34",
"f  c #4B8738",
"g  c #4D8B39",
"h  c #479031",
"j  c #4B9334",
"k  c #4E9B36",
"l  c #4E923A",
"z  c #4F9A38",
"x  c #509E37",
"c  c #51943C",
"v  c #529D3B",
"b  c #4FA037",
"n  c #50A137",
"m  c #53A43A",
"M  c #55AB3C",
"N  c #58AD3E",
"B  c #57B13D",
"V  c #59B43E",
"C  c #5ABB3F",
"Z  c #5CC13F",
"A  c #57A240",
"S  c #58A641",
"D  c #5AAC41",
"F  c #5CB342",
"G  c #5DBC42",
"H  c #60B646",
"J  c #61BC45",
"K  c #64BE48",
"L  c #5EC241",
"P  c #5EC940",
"I  c #62C345",
"U  c #63CB45",
"Y  c #66C449",
"T  c #68C64B",
"R  c #66CB49",
"E  c #69CD4B",
"W  c #64D246",
"Q  c #65DA46",
"!  c #67D448",
"~  c #6BD44C",
"^  c #67DB48",
"/  c #6CDB4C",
"(  c #70DF4F",
")  c #6FDB50",
"_  c #70DC51",
"`  c #67E447",
"'  c #67E648",
"]  c #6DE34C",
"[  c #6CEC4C",
"{  c #70E44F",
"}  c #71EC4F",
"|  c #6DF34B",
" . c #70F34E",
".. c #72FB4E",
"X. c #72E451",
"o. c #75EC53",
"O. c #75F352",
"+. c #79F556",
"@. c #75FD51",
"#. c #79FD55",
/* pixels */
"                                                                                                                                                                                                                                  ",
"                                                                                                                                                                                                                                  ",
"                                                                                                                                                                                                                                  ",
"                                                                                                                                                                                                                                  ",
"                                                                                                                                                                                                                                  ",
"                                                                                                                                                                                                                                  ",
"                                                                                                                                                                                                                                  ",
"                                                                                                                                                                                                                                  ",
"                                                                                                                                                                                                                                  ",
"                                                                                                  # * * > > > > *                                                                                                                 ",
"                                                                                          # > q k V R ~ / { { / ! G m q 3 * #                                                                                                     ",
"                                                                                      * q G ] O.+.O.+.+.+.+.+.+.+.#.+.+.o./ L m e 6 > & O                                                                                         ",
"                                                                                  * p T o.O.o.o.o.o.o.o.{ { +.{ +.+.+.+.+.+.+.+.+.o.( W M u < %                                                                                   ",
"                                                                              @ q I o.O.o.o.o.o.X.] ] ] ] ^ ] { {  .@.@.+.+.+.+.#.#.+.+.+.o.{ Y k 2 +                                                                             ",
"                                                                            > N o.o.o.o.o.] ] / / / ^ ! ~ Q ~ ~ ] { { ..@.@.+.@.#.#.#.#.+.+.+.o.o.( D 5 O                                                                         ",
"                                                                        @ q ~ o.o.X.{ ] ] / / ^ Q R Q T W R R W ^ ^ [ {  .....@.@.#.#.#.#.#.#.+.+.o.o.( A -                                                                       ",
"                                                                      * v X.o.X.{ { ] ^ ^ ! W P L P L L Z Z Z Z Z Q Q Q ' ' | ......@.@.@.@.@.#.#.#.o.o.o.I 3 X                                                                   ",
"                                                                    > J X.X.X.X.{ ] / Q W P P Z C C C C Z Z Z V Z Z Z Z Q Q Q ` [ } | | ..@.@.@.@.@.#.O.o.X.R q o                                                                 ",
"                                                                . 6 Y X.X.X.] ] / ^ W P L G C C V V V V B V V V C V Z Z Z C Z Z P P W Q Q } } } | ..O.O.O.o.X.~ e O                                                               ",
"                                                              X 0 ~ X.X.X.] / Q Q P L C C C V C V V V V B V V V V V V V C C C C Z G G L P U W Q ] } o.O.O.o.o.o./ p +                                                             ",
"                                                            o e ) X._ X.~ / Q R L Z C C V V M M N V C M C M M C V V V V V V C V C C B B C C C C L W / ] }  . .} X.~ e o                                                           ",
"                                                          @ d ) _ _ / ~ ! Q L L G C V V M M M M M M M V C C C V V V V V V V V V B C C C C C C C G L U W Q } } } o.X.~ q                                                           ",
"                                                        @ d ) ( / / ~ Q P P C C V V N M M M M M M M V C M C C C B V C B V V C V C B B C C C C C C C G L U W ] } { o._ E <                                                         ",
"                                                      o s ( ) ) ~ R R I L C C V M M N b b M M M M V M M M M M M B B B B B V V V B B C B C N B C C B C C Z P W ] ] { X._ H *                                                       ",
"                                                    X q ) ) ) ~ W I I L V V V M N m m m N b M M B B B n B B n B B B B B B B B B C B C C B C B N C B N C C L L L ` ] { { ( k +                                                     ",
"                                                    5 ~ ( ) E Y I I L G V M M m m m b m b N M N n n n b b n n B B n B n n B B B M C B B B B B C B C N C N C L L R ^ ] { ( E 8                                                     ",
"                                                  - J ( ) E R I L L V V M m m m b b b N M M b b b b b b b b n n b n n B B n n B M M B N B C N N B N N N C N C G Z R ^ ^ ( ) F *                                                   ",
"                                                @ v _ / ~ Y I I C V V M M m x x b b b b b b k k k b k k k b n n b b n n b B n n n M M M n N B B B B B B N C C C C L R ~ / ( ~ p o                                                 ",
"                                                0 ~ / ~ E J L C V N N m m x x x b b b b b b k k k k k k n b b n b b b b b b n n n M M M B m B N B N N B N N C N B G L Y ~ ) ~ K <                                                 ",
"                                              : J / ~ E I J J V N N m m x x k j k b k k b b y b y b b y y k b y b b y b b b b n n n n n n B n N n M n M m B B B B G L J W ~ ) E c @                                               ",
"                                            O j ) ) E Y J G V M N b x k x x j x b b b b k y y b b y y b b b b y y b b k b b b b x x n n n m m m m M N B B B m B B G G L K W E T T 8                                               ",
"                                            2 T ~ ~ E J C V V M m k k c j j j x b h h y k k k y k k y k y b y b y b b y b y k k k x x x x x n m m M m n m m B B m B M L J Y E ) T m &                                             ",
"                                          @ c ~ ~ R L G G M D m k k l j j j k j x h j h h h h s h i h i h i h h h h h h h h h h k h k k k k k x n n m m m M m M M M F C F K T R ) Y 8                                             ",
"                                          1 Y ~ ~ P G G B M m b k j j j j k k j j h s s h s h i i i i i i i y h h y i h h h h h h h h k k h k k x x m m m m M m M M m C C F T R T T v $                                           ",
"                                          d E ) ~ I G B M m m b j j j j j j j j s h s s s s i i i i i i y h h y y i i h i i h h h h h h h h h k j x x x m m m m m m M m M F I T E E K 2                                           ",
"                                        - F ~ ) R G V B m m D y j j j j j j j s s s s s s i u u y u u u i y y h i y i y y i i i s s h s h h h k j j x x v m m m m m m m m m F I T T T s                                           ",
"                                        7 T ~ ` R F D D b b y A d j j j j j i s s s s s i i i u i y i y y y y y y y y i i i i y i i i h s s s h j j j k v x v x n m m n m m F L Y Y T D -                                         ",
"                                        y T ~ ~ G F M m b A A y j h d j j j j j k x m M L L b i y y y y y y y y y i y y y y y i i i n L L C N n k k k j k v x x c m n c x m m F J Y T Y 7                                         ",
"                                      % v E ` Q L M M m j j l l m V J I I Q ~ / ( ( { { W B h i y y y y y y y y y y y y y y y y u i s C E ( { { ( / / U U T Y I F n n x x n m F H Y T T t                                         ",
"                                      1 F E ` P G M m b A z y z x J R E E T I I L M m h s u y y y y y y y y y y y y y y y y y i u u u i s j n B G Y Y E / R U I S x j c x n n S G Y K T v &                                       ",
"                                      3 F T ] P G m m b y b j y d j d h s s s s u i u u u y y y y y w w w w w w y y y y y y y y u u u u u u u i s s d d j j x v x c k j j x x S F K T T H -                                       ",
"                                      9 K ) } P D m b k A y j z d d d s s s s u u u u u u y w w w w w w w w w w y y y y y y y y w w u y u u u i i s s d d j d j x c k c j c x n S K T L H 1                                       ",
"                                      q L ~ | L M m b j j z y y d d s s s e e s u u u u w y w w w w w w w w w w y y y y w w w w w u w u y u u u i i a s d j d j c x j j j x c v S L U T K e                                       ",
"                                      t K ~ } L D b A j j y z l s s d s s s s u u u u u u y w w w w w w w i j x n n h i y y w w w w u w y u u u i r i i s d d j j j j c j j c x S L E U K t                                       ",
"                                      t F ~ | P S b b j j j j j d s s s t s s u u u w r r w w w w w y i m T ( o.o.} ( Y n i y y w w w r r i r r r a i a a s s d j c j j f j c x m K W T I w                                       ",
"                                      w K ~ [ P S b j j j y g y s s s s s t e s u e u r r w w w w y h Z X.o.o.o.o.o.o.o.' Z h y w w w w r r r r i r r i i a s d j j c j c j c v m L / P K r                                       ",
"                                      w G ~ [ P S b z j l g j g s s s t s t s u u u u r r r w w w h P } o.o.o.o.o.o.o.o.o.o.P h u w w w r r r i r r a i s i a s j c j c j j c x S F / Y K t                                       ",
"                                      9 H R | R S v z j z y y g s s t s t s t u u u r w w w w w h C X.o.o.o.o.o.o.o.o.o.o.o.} C i r w r r r r r a i t i a a s s f j j j f j j v m H / Y K r                                       ",
"                                      5 F E | W N k k l g y g j h p p p p u p u u u r r r w w u j E o.o.o.o.o.o.o.o.o.o.o.o.+.E h u u w r u r u u u s s a i a s d l j l j l l v m G / J K q                                       ",
"                                      > S I | Q N k k j g d g y p h p p p p u u r r r r w r w u x ~ o.o.o.o.o.X.( X.X.o.o.o.o.( k i y w r w r u u u u t u a i a d j d d s f l c A G R J H 7                                       ",
"                                      - v K ] ` F m l l d d d d p h h p p u p r u r r r r r w r k E o.o.X.U M x n m V U ( o.o.E h u w w w r r r u t s s a i a s d j l j l f l v A G I J D 1                                       ",
"                                        s H / | G A k j d s a s p p p p p p u p r u r r r w w r i x I L n i i w w w u h m G L m u w r r r u u u u r s t i a a s d d f s h l l l A G I H S *                                       ",
"                                        8 H U [ P S v l d d d a p p p p p u u u u u r r r r r w w w r i w w w q w w w w w u u u w w r w r r u u s r r s s t a s d d d d f l l A S G K F f +                                       ",
"                                        - v L ] ` D v l g d s d j p p p p p p u u r r r r r w w w w w w w w w w w w w w w w w w r r r r r r u t s t s t s a a s d d d f f c v A S G F F 0                                         ",
"                                        + s H E ` G A v l g h d p h f p p u p r u r p r r r r r w w w w w w w w w w w w w w w w r r r r r u u u r t s s t u s a d d d d f c c A S F F A 1                                         ",
"                                          4 S K ^ P b v l g s d f p p p p p p u p p r r r r r r w w w w w w w w w w w w w w w w r r r r r r u t t s s t a a a s d d d f g c c A S F H t +                                         ",
"                                          * c H U U F v c j j f p p f p p p p p p r r r r r r r r w w w w w w r w w w w w w w w r r r r u r s r t s t s s f f f d d d f c v A A S D A 4                                           ",
"                                            4 D G U L N c c g f g h p p p p u p p r p r r r r r r w r w w w w r w w w w w w w w r r u r r u e r s t s f t s s f f s l f l c c v A S t $                                           ",
"                                            & t S G L N v c f g g f r r p p p r r p p r p r r r r r w r r r r r w w w w w w w q r r u e s u s s t s t s s s t f f f f g c c A c A c 1                                             ",
"                                              - c D H N m c c g g g g f p p p p p p r p r r p r r r r r r w r r w w w w w w w w r u u u r t e s s t s t s f f g f f c c g c c A A 5 o                                             ",
"                                                1 c D D A v c g g f g f f p p p r f r t f r r p r r r r r r r r r r r r w r r r r r u e s t t s t t s f f f g f g c g c c c c A 8 +                                               ",
"                                                o 4 c D A v c g g g g f g f f f f p f r r r f t r t t r r r r r r r r r w w r r r s u s t t s t s s s f f g g g g g c c c c g 5 +                                                 ",
"                                                  + 4 c A v c g g g f f f f f f t f f f f t f r f t r t r r r r r r r r r r r r u e t t s t s f f f f f g g g g g g g c c t 1 o                                                   ",
"                                                    + 1 g v v c c g g g f f f f f f p t f f r f t f t t f t t t r r r r r r r r t t s s t s t f f f f f g g g g g c g f 5 &                                                       ",
"                                                        : t c c c g g g g f f f f f a a p a a t p t t f t s t t t s t t t t s t t s t f f f f f f f g g g g g g g e 4 & o                                                         ",
"                                                          $ 4 f c c c g g g g g f f f a f f a a f f s p p t t f t t t s t s t f s t t s f f f f g g g g g f e 8 , $ .                                                             ",
"                                                              $ 1 q f g g f g f f f a a t t e t q t e t t f s t f s s p s s t f f f f f f f f f t t e 4 , - +                                                                     ",
"                                                                  o $ - 1 1 1 1 1 1 - = * % $ $ $ $ % & - - 1 4 5 0 0 e e t t t t t t e e 8 4 , - $ X                                                                             ",
"                                                                                                                  o + $ & & & & & & % @ o                                                                                         ",
"                                                                                                                                                                                                                                  ",
"                                                                                                                                                                                                                                  ",
"                                                                                                                                                                                                                                  ",
"                                                                                                                                                                                                                                  ",
"                                                                                                                                                                                                                                  ",
"                                                                                                                                                                                                                                  ",
"                                                                                                                                                                                                                                  ",
"                                                                                                                                                                                                                                  "
};
