/* XPM */
static char *SlimeBasic_00020[] = {
/* columns rows colors chars-per-pixel */
"113 77 103 2 ",
"   c None",
".  c #070D05",
"X  c #091207",
"o  c #0C1609",
"O  c #0D1A0A",
"+  c #101D0C",
"@  c #13240E",
"#  c #15290F",
"$  c #162710",
"%  c #172B11",
"&  c #192F13",
"*  c #173011",
"=  c #1C3414",
"-  c #1E3B16",
";  c #203E16",
":  c #223E19",
">  c #24431A",
",  c #264C1B",
"<  c #294B1E",
"1  c #2A531E",
"2  c #2C581F",
"3  c #2D5421",
"4  c #2E5A21",
"5  c #325C25",
"6  c #355E28",
"7  c #326424",
"8  c #366A26",
"9  c #356128",
"0  c #39672A",
"q  c #3B6C2B",
"w  c #3D732D",
"e  c #3F7D2A",
"r  c #40762F",
"t  c #407F2C",
"y  c #417630",
"u  c #437D31",
"i  c #3F802B",
"p  c #42822D",
"a  c #448A2E",
"s  c #458432",
"d  c #498636",
"f  c #468B31",
"g  c #498B35",
"h  c #4B8738",
"j  c #4D8B39",
"k  c #479031",
"l  c #4B9334",
"z  c #4E9B36",
"x  c #4E9239",
"c  c #4F9B38",
"v  c #509E37",
"b  c #51943C",
"n  c #529D3B",
"m  c #4FA037",
"M  c #50A137",
"N  c #53A33A",
"B  c #55AB3C",
"V  c #58AC3F",
"C  c #57B13D",
"Z  c #59B43E",
"A  c #5BBB3F",
"S  c #5CC13F",
"D  c #57A240",
"F  c #59A641",
"G  c #5BAC42",
"H  c #5CB442",
"J  c #5EBC42",
"K  c #60B746",
"L  c #61BC46",
"P  c #63BD48",
"I  c #5EC341",
"U  c #5FCA41",
"Y  c #62C345",
"T  c #63CB45",
"R  c #65C449",
"E  c #68C64B",
"W  c #66CA48",
"Q  c #69CC4B",
"!  c #65D246",
"~  c #66DA46",
"^  c #67D349",
"/  c #6BD44C",
"(  c #67DB48",
")  c #6CDB4C",
"_  c #70DF4F",
"`  c #6ED450",
"'  c #6FDA50",
"]  c #70DD51",
"[  c #66E147",
"{  c #67E148",
"}  c #6DE34C",
"|  c #6CEB4B",
" . c #70E44F",
".. c #71EC4F",
"X. c #6DF34B",
"o. c #71F54E",
"O. c #73FC4F",
"+. c #72E451",
"@. c #75EC53",
"#. c #76F353",
"$. c #79F456",
"%. c #76FD52",
"&. c #79FD55",
/* pixels */
"                                                                                                                                                                                                                                  ",
"                                                                                                                                                                                                                                  ",
"                                                                                                                                                                                                                                  ",
"                                                                                                                                                                                                                                  ",
"                                                                                                                                                                                                                                  ",
"                                                                                                                                                                                                                                  ",
"                                                                                                                                                                                                                                  ",
"                                                                                                                                                                                                                                  ",
"                                                                                                                                                                                                                                  ",
"                                                                                                  # = 1 8 p f f p 8 1 *                                                                                                           ",
"                                                                                            * 7 l J / +.#.$.$.$.#.#.} W N w , =                                                                                                   ",
"                                                                                      O , l W +.#.#.$.$.#.#.#.#.$.$.$.$.&.#.) J l 8 > +                                                                                           ",
"                                                                                  O 4 B ' #.#.@.@.@.@...|  .+...#.#.&.#.&.&.#.&.&.@._ K g 1 &                                                                                     ",
"                                                                              O 4 B ' #.#.@.@.@.@.} } ) ) ) ) ) } | #.&.&.&.&.&.&.&.&.&.$. .Y l 6 &                                                                               ",
"                                                                          . > m ) @.@.@.@.@.} } ) ~ ^ ^ ^ ^ ^ ^ ) } | X.O.&.&.&.&.&.&.$.$.$.$.$. .W j , o                                                                         ",
"                                                                        = f / @.@.+.@.+. .) ) ^ ^ ^ ^ W U W U W ^ ^ [ } | X.O.O.%.%.&.$.$.$.&.$.@.@.@.` n < o                                                                     ",
"                                                                    o 8 R @.@.+.@.+.} } ) ~ ^ U U U I S A S A S S S S ~ [ | X.X.O.O.O.O.O.%.%.%.&.&.@.@.@.' a &                                                                   ",
"                                                                  = l ] +.+.+. .} } ) ~ ^ U I S J A A A A A A A A S S S S S U ~ } } o.o.O.O.O.O.%.&.&.&.@.+.] H <                                                                 ",
"                                                              . 1 J +.+.+.+.} } ) ~ ^ U I S A A C A C C C A C A A A A A A A S S S ! ! ~ } ..o.o.o.%.$.$.#.#.+.+.W 8 X                                                             ",
"                                                            O w Q +.+.+.] } } ) ^ W U S A A A A C C C C C C A C C C C Z Z A A A A A S S ! ! ~ } ......#.#.#.#...+.Q w O                                                           ",
"                                                          % l ` ] ] +.] ) ~ ^ ~ S S S A C C C C C C C C A C C A C C C C Z Z Z Z A C S S S S S U ! ~ ~ ....o.#.@.@.+./ u O                                                         ",
"                                                        ; V ] ] ] ] ) / ^ ^ S S S S A C C C C N C C C C C A A C C S C S Z Z Z Z A C C A C A J J J S R ~ ~ +.....@.@.+./ p o                                                       ",
"                                                      ; H ] _ ` ) ^ ^ W U S S A A C B B B B B B C C C C C C C C C C C C C Z Z S C A S C C A A A S A S J U ~ ~ ......+.] / w                                                       ",
"                                                    = H ] ] _ / W ^ W S S A A C B B B B N B B B B C C B C B C C C C C C C C Z Z A C C A C C C A A A A A S R U ~ } } ..+.] R 3                                                     ",
"                                                  % N ] _ ` / W W U I I A Z C B B N N B N B B B C C C M M C M M C C C C C C C C C C A A C C C C Z Z Z Z A A S U ^ ~ }  . ._ V ;                                                   ",
"                                                O f ] ] ` Q W Y I S A Z Z V B N N N N N m B B B m M m m M M M m m m M C M C C C C C C C C A A C Z Z Z Z Z A J J I W ~ }  ._ ` s O                                                 ",
"                                                8 / ` ` Q W Y Y J A Z V B N N N N m m B B B m N m m m m m m m m m m m M M M m M B C B C C C C C Z Z V Z Z Z A A S I W ^ ~ _ _ W 5                                                 ",
"                                              > P ] ` / W Y A A A Z V B N N v v m m N m m m m z m z z z m m m m m m m M M M M C M B B B B B C C V Z Z V Z Z Z Z A A I W / _ ` ` V =                                               ",
"                                            @ z ' ` / W L J A A Z B N n N v v v m m m m m m z z z z i m z z i m m m m m M m m M M B M B N B B B B B C C C Z V Z Z J J L W ^ ` ` Q r                                               ",
"                                            8 Q ' / W L J A Z V B N N n z z z z m m m z m m i z k z z z m m m m z m i m m m m M M M N M B B B B B B B B B V B C Z Z Z L I W / / ` K >                                             ",
"                                          = H ' / Q Y J A Z V B N v v z v l z z z z z z z k i m z m i z z i z m i m m m z m m m M M M M N N N B B B B B B B B B V Z Z Z Z W W / / Q g +                                           ",
"                                          w / / / R J H Z Z B N v v z z l v l z z z k z k k z z i i z i m i i i m i i m i m i z z z z z z N N N N N B N B B B B B B Z Z Z Z W W Q Q L <                                           ",
"                                        = H / / U J J Z C G D x l b l l v l v z z l k k k k k k a k a a a a a a k a a a k k z k k l v v v v z N N N N N N N V V V V V A V A Z Y Q Q Q g O                                         ",
"                                        q Q ' / U J Z C m m m z z l l l l l l l k k k k k k k a a a a a a a a a a a a a a k a k k k k k l k z z z M N N N N N N V N V V B A L Y E Q Q K <                                         ",
"                                      % D / ) / J H G C m m m z l l l l l l l l k k k k s k a a a a p p a i a a a a a a a a a k k k k k k l l z z z z N N N N N N N N N N N H L W E Q E r                                         ",
"                                      < J ^ ' Q J G C F m m z x l g l l l l l l k k a s s a a p p p a p a i i i i i i a a a a a a a k k k k k l l l z z M N N N N N N N N N N H L E E E N %                                       ",
"                                      w E / ) I G G C m m i m x g l l l l l k a k k s k k z k a p i i i a i i i i i i i i a a a a a k v v k l l l l l l v M M M M M N M N M N H K Y W P L 5                                       ",
"                                    $ n Q } ~ J J N m m z D z i l g l l l l z v N V J W ~ ~ B a a i i i i i i i i i i i i i i i a k B ) / W J V B M v l M M M M n n n M M M M N V K W W E u                                       ",
"                                    - H W } ! G G N m m D i g z v Z L Y W Q / _ +.@.@. .^ V k p i i i i i i i i i i i i i i i a i a k V /  .@.@.@.] ) ) W R R S V M M n n n n M V K L E E n $                                     ",
"                                    5 P ^ | U J C m z z x i z x V Q _  . .+._ ) W W Z N k k p i i i i i i i i i i i i i i i i i i a i k k N Z L W ) ] +.] @.] Q H n l n l l n N V K Y Y E H <                                     ",
"                                    w R ^ | I G N m m z g g z i l l v N N v z l k k p p p i i i e i e e e e e e i i i i i i i i a e e e a a a k k v v M N N N N n n l l l n l n N K P P W P 5                                     ",
"                                    w P ) | I G F z z g z g g g g g f k s k p p p p p p i p i e i e e e e e e e i i i i e e e e i e i a t e t a s s s k g l g l l n n l l n n l N F Y E P P r                                     ",
"                                    g P } | I G m z z g i g g g f f f f s p p s p p p p i e e e e e e e e e e e i i i i e e e i i i e t t e a a s a s k k g g l l n l l l b l b n V Y T E W h                                     ",
"                                    j P } | I N D n z z z g i x f f f f k p s p p p p p i e e e e e e e e e a k k a i i i e e e e e e e t a e t a a s s g k g g l b l l l b l l n V Y T E P j                                     ",
"                                    j K } | J F z z g g g g g f f f f u f u p p p p p e e e e e e e e a v Z Q ' ] ' W A k i i i e e e e t a t t t a t s g g k g j l b l b l l b n n L ~ Y E b                                     ",
"                                    j P [ | I F n z z g g g f d f f f f f f s p p i t t t e e e e i a Z ] @.@.@.@.@.@.@.{ A k i e e e e t t t t t s s s s s s g l l l j l l l l N n Z ) Y E D                                     ",
"                                    j P { X.I F n z g g g g g f u f f u u t s s p t t t e e e e e k S ..@.@.@.@.@.@.@.@.@.@.S k t e e e e t t a t a a s s k k h j l l b b j l b n D H ~ Y L l                                     ",
"                                    i H [ X.U N m z z g g g g f h f u f s s p t p t t e t e e t k A +.@.@.@.@.@.@.@.@.@.@.@.+.A k t e e e t t t t t a s s s s s d l l l j l l l n D H ) Y E b                                     ",
"                                    r K ^ o.W B N l l g g g f f l a s s s p s p t t t e t t t t l ! @.@.@.@.#.@.#.@.#.@.@.@.@./ k a e e e t t p a a t a s k s k g l l l g x l x n n J ^ L P f                                     ",
"                                    5 G W X.~ H n z x l g g g d s s a a s s t p t t t t t t t t v ) @.@.@.+. .) / `  .@.#.@.#.` z p e e t t t p t t a u s s h s g g j j l f x x b n J ^ L K y                                     ",
"                                    : V L X.{ Z N z l g g g f f s s s s s p s t t t t e e e e t l Y @.+.) Z v a l l l Z /  .@.Y k p e e e t p t a u t s k s s h g g g l j f x x n D L Y K K 5                                     ",
"                                    % b K ~ X.S D n x g g f d d l s s s s p p s t p t t t t e e t l M v k p e e e e t p l v M l t t e t t t t p t t a s s s s s g g g j f x j x b F L L K G <                                     ",
"                                      r Z T | ! D n z j j f f d s s s s s p t t p t t t t e e e e e e e e e w e e w e w e e e e e e e e t t t t t u u s s s s k g g g g l j x b n F K K K j $                                     ",
"                                      3 G L { { H n x j x f f d d s s s s s s p p t t t t t e e e e e e e e e e e e e e e e e e e t e t t t t a a s a s s s s s g g f g g j j n D F H H K y                                       ",
"                                      $ j H T { I N z x g g g f a s s s s p p s p t p t t t t t e e e e e e e e e e e e e e e e t t t t t t u t t t s s s k s k f f f f g j b b D F H G F >                                       ",
"                                        5 G L / ^ G n b x g g d d d a s s p s t s p t t t t t t e e e e e e e e e e e e e e e e t t t t t u t t u a s s s s s s h h f j j j b D D G G G h +                                       ",
"                                        = b F P T J D b b b u b d s l u u s s t s t t t t t t t e t e e e e e e e e e e e e e e t t t t t t t a u f u f u f f f f h g j j b b n D D F D <                                         ",
"                                          3 D K Y P F D u b b u l a u l u s s s t s t s t t t t t e t e e e t t e w e e e e e e t t t t t u u t u u f u h u f h f h g j j b b D D D F y +                                         ",
"                                          @ y F H Y G D D b u b l u l u s s s t s t s t t t t t t t e t e t t t e e e e e e e e t t a t a t s a f f u f f f h h h h j j j b b b b D h :                                           ",
"                                            @ u V V G F b b b b u j u j s s s s t s t t t t s t t t t t t e t t e e e e t e e e t t t t t u a u s u f h u f h h f h j j b j b D D j :                                             ",
"                                              : t F F F D b u u u b u b d l u u t s t t t t t t t t t t t t t t t t t t t t t t t p p t u s u f s s s f h u h h j j j j b b b D u > X                                             ",
"                                                - u D F D b b b b u b u l u u l d d d s d t d t t t u t t t t t t t t t t t t t t p t s s s u u s s u f h h h j j j b b j b j y :                                                 ",
"                                                  = u n D b b b b u u b u b u j d u d u d u u d d u u u u s t t t t t t t t t t t u s t s u u f f f h h h j j j j j b j b u 6 +                                                   ",
"                                                    $ 0 b b b b b b b u b u b u d d d d d d s d u d u u t d u d u u u t t t t t p p u s s s f h u h h h h j j b j b b u y : O                                                     ",
"                                                      + < d b b b b h h h h h h h d d d d d u u d u u u u u u f u u f u u f u u u f u f u h h h h h h h j j j b b u y : O                                                         ",
"                                                          % 9 h b b b h h b h h h d d d d d d d d d f f h h f u u f u h u u f u h u h u h h f h h h h j j j h u 6 : O                                                             ",
"                                                            . = 6 u b b b b h b j j h h h h d d u w u w y y y y u u u f f f u h h h h h h h h h f h j u y 6 : $                                                                   ",
"                                                                  + = < 5 9 q w w w 9 6 3 > : = % % @ @ $ $ $ & : : < 3 6 0 y y y u u f u u u y r 6 < = +                                                                         ",
"                                                                            + + O o                                         + $ $ = = = = = = + O                                                                                 ",
"                                                                                                                                                                                                                                  ",
"                                                                                                                                                                                                                                  ",
"                                                                                                                                                                                                                                  ",
"                                                                                                                                                                                                                                  ",
"                                                                                                                                                                                                                                  ",
"                                                                                                                                                                                                                                  ",
"                                                                                                                                                                                                                                  ",
"                                                                                                                                                                                                                                  "
};
