/* XPM */
static char *SlimeBasic_00001[] = {
/* columns rows colors chars-per-pixel */
"113 77 108 2 ",
"   c None",
".  c #060C05",
"X  c #080E06",
"o  c #091207",
"O  c #0C1609",
"+  c #0E1A0A",
"@  c #101F0C",
"#  c #13240E",
"$  c #15290F",
"%  c #152610",
"&  c #172B10",
"*  c #192D12",
"=  c #1B3414",
"-  c #1E3B16",
";  c #203D17",
":  c #213C18",
">  c #214117",
",  c #24431A",
"<  c #28471D",
"1  c #264B1B",
"2  c #294C1E",
"3  c #2B541F",
"4  c #2B4E20",
"5  c #2D5321",
"6  c #2E5B21",
"7  c #305524",
"8  c #325C24",
"9  c #355E28",
"0  c #326324",
"q  c #366D26",
"w  c #366328",
"e  c #38652A",
"r  c #376928",
"t  c #3A6D2B",
"y  c #3D742D",
"u  c #3E7D2A",
"i  c #40772F",
"p  c #407F2C",
"a  c #417630",
"s  c #437C31",
"d  c #3F802B",
"f  c #42822D",
"g  c #448A2E",
"h  c #468432",
"j  c #498636",
"k  c #478B31",
"l  c #498C34",
"z  c #4B8738",
"x  c #4D8B39",
"c  c #479031",
"v  c #4B9334",
"b  c #4D9B36",
"n  c #4E913A",
"m  c #4F9B38",
"M  c #509E37",
"N  c #51943C",
"B  c #529C3B",
"V  c #4FA036",
"C  c #50A137",
"Z  c #53A43A",
"A  c #55AC3C",
"S  c #58AC3E",
"D  c #57B13D",
"F  c #59B43E",
"G  c #5ABB3F",
"H  c #5CC13F",
"J  c #559B40",
"K  c #57A540",
"L  c #59A641",
"P  c #5AAC42",
"I  c #5CB442",
"U  c #5DBC41",
"Y  c #60B646",
"T  c #61BC46",
"R  c #64BF48",
"E  c #5EC341",
"W  c #5FCA42",
"Q  c #62C445",
"!  c #63CB45",
"~  c #65C449",
"^  c #68C64B",
"/  c #66CB49",
"(  c #69CC4B",
")  c #65D446",
"_  c #65DA46",
"`  c #68DA47",
"'  c #66D348",
"]  c #6BD44C",
"[  c #67DB48",
"{  c #6CDB4C",
"}  c #70DE4F",
"|  c #6FD950",
" . c #71DD51",
".. c #6DE34C",
"X. c #67E948",
"o. c #6CEC4B",
"O. c #70E44F",
"+. c #71EB4F",
"@. c #6DF44B",
"#. c #6EF94C",
"$. c #71F34E",
"%. c #72FB4E",
"&. c #73E552",
"*. c #75EC54",
"=. c #75F352",
"-. c #78F556",
";. c #76FD51",
":. c #79FD55",
/* pixels */
"                                                                                                                                                                                                                                  ",
"                                                                                                                                                                                                                                  ",
"                                                                                                                                                                                                                                  ",
"                                                                                                                                                                                                                                  ",
"                                                                                                                                                                                                                                  ",
"                                                                                                                                                                                                                                  ",
"                                                                                                                                                                                                                                  ",
"                                                                                                                                                                                                                                  ",
"                                                                                                                                                                                                                                  ",
"                                                                                                            = 1 6 q q q q 6 3 - $                                                                                                 ",
"                                                                                                  = 2 q v D ! ..O.*.-.-.*.*.{ ' U Z f 6 :                                                                                         ",
"                                                                                      + * 3 q k A Q ..*.-.-.-.-.-.-.-.-.-.-.-.-.:.-.-.*./ M 0 $                                                                                   ",
"                                                                              # > 0 k I / O.*.-.-.-.-.-.*.*.*.*.$.;.-.-.-.-.-.-.:.:.:.:.-.-.*.Q s ;                                                                               ",
"                                                                      o = 0 v I ] *.*.-.-.*.*.-.*.*.*...O.O.....O.+.%.$.%.%.;.;.:.;.:.:.:.-.-.-.*.( l :                                                                           ",
"                                                                  @ 3 v / &.*.*.*.*.*.*.*.*.O.......{ { { { ) { { ..O...+.$.%.%.;.;.;.;.:.:.:.:.-.-.*.] l :                                                                       ",
"                                                              @ 0 I  .*.*.&.*.*.*.*...+.....{ { { { ' ) ) ( ) / ) ) ` ` X.X.o.$.@.%.;.;.;.;.-.:.:.:.-.*.*.~ s &                                                                   ",
"                                                          X 2 Z | *.O.*.O.O.o...O.O.....[ _ ) ) ) ' ! ! H H W H W H H H ) H ) ) ` ` X.X.%.%.%.;.;.:.:.:.*.*.&.I 8 +                                                               ",
"                                                        @ y ( &.&.&.&.O.O.O.O.....[ ' ) ) ) W W E E E E H G H G G H G G H H H H H H W ) ` ` +.$.%.;.;.;.:.:.*.*.{ M ;                                                             ",
"                                                      = M  .&.&.&.O.O.| | ....) ' ) W W E E H H G G D G G G G G G G G G H F H G G G G G E E ` ` ..+.$.;.;.=.=.*.&.&.T 0 o                                                         ",
"                                                    2 Y  . . .O.| | [ [ ' ) ) W W E E E U U H F G G D D D D D D D G D D F F F F D G G G G G G E W ` +.+.=.;.=.;.*.&.&.] l *                                                       ",
"                                                X 0 /  . .} } ] [ [ ' ! W W W H E E G G F F F F D D D D G D D G H D F F F F F F F F G F G G G G G E ! ` ..+.+.=.-.*.+.&.] I < .                                                   ",
"                                              . r (  .} } ] ) ) / W W E H E H F I A A A A F D D D D D D D G G G D F F F F F F F F G D G D D D G G G G E E ` +.+.$.-.+.*.*.] ^ i @                                                 ",
"                                              0 (  .] } ( / ! W E E E G F F F F A A A A A A A F D D D G D G D D D D F D F F F F G D G D G D D G F F G G G E W ` O.+.+.*.*.*. .( n %                                               ",
"                                            3 / } } ] / / ! Q Q G U G D U A A A A A A A A A A A D D D D D D D D D D F A A D F F D D D G D G F F F F F G G U E W ! X...+.*.*.*. .] B *                                             ",
"                                          > T  .] ] ( Q Q E U G G F D A A A A Z A V A A A A A F D A D D D D D D A A A A A A A A A D D D D F F F D D F F F F G G E ! ` X.O.+.O.O.} ] M &                                           ",
"                                        * Z  .| | ( Q Q E U G F F A A Z Z Z Z Z A V A C A A A A V A A A V A V V A V A A V A V A A A A A A D D F D U D F F F U U G E E / ) ....O.} } ] b *                                         ",
"                                      o h ]  .] ( Q E U U F F S A Z Z Z V Z b V V A V A C A A C A V V V V V V V V V V V A V V A C A C A A A D A D F F D F F F F G U E E ! ) { ..} } } ( s +                                       ",
"                                      8 (  .] ( Q U U U F S A Z Z M M m m m V Z V V A V C C C V V V V V V V V V V V V V V V V V A C C A A C A A D D D D D D D D F F G G E E ! { } } } ] ( a O                                     ",
"                                    = I  .{ ] Q Q U G F A A Z M m m m m b V V Z V V A V V V b V V V b c V V V V V V V V V V V V V V V C C Z Z D Z Z D D D D D D D F F F U U Q ! ` ] ] ] ] R 7                                     ",
"                                  + h | | ] ^ U U F F A Z Z M M b b b b b m m b V V V b b V c V c b c V c V c c c V c V c V V c b b V V C Z Z Z Z D F Z S D Z D D D F D G G G U ~ ` { ] ] ( P :                                   ",
"                                  6 ^ | ] / T U F F S A Z M m M m v v m b b b V V b V V b d V c c V c V V c c V c c c c V c c V b b b b V b M Z Z D Z Z C D D D D S D D F F G R T ~ ( ( ] ( ^ h @                                 ",
"                                * Z ] { ( ^ I F F S Z C b v v v v b m v b b b b V d b d b b c c c c c c c c c c c c V c d V c d g b b b b b b M M Z Z Z S C S C S S D D D F F G T T ^ ^ ( ] ] T 8                                 ",
"                                t ( | ] W U I G I A V V b v v v v v v b v b v v v v c c c c c c c c c c c c g c g c g c c g c c c c c V c c V V V V V V Z Z F Z I Z F Z F F F F S T T ~ ( ] ] ^ M *                               ",
"                              = P ] ] ] E U D D A V b b v v v v v v v v v v v c c c c c c c c c c g g g g g g g g g g g g g g g g c c c c c c c c V m V M Z M Z F Z Z F Z I F Z F F T T ~ ( ^ ^ ^ t                               ",
"                              r ( ] [ ( I I A A V b v v v v b x v v v v v v c c c c l v v v c c g g g g g g g d d g g g g g g g g k b b V c c c c c m m M M Z Z B Z F Z Z Z Z Z F F F T T ~ ! ] ^ K *                             ",
"                            * K ( [ ] E I I A A b b v x k v d v v v v v g g v g c c b M F / F c g g f f d g d g g d d d d d g d f k Z ! F C V b m m k m b M M M Z Z M Z Z F Z Z Z M S F T ~ ^ ^ ^ R 9                             ",
"                            8 ^ | [ ] U I A A V b v v v b x v v l v l v v v v v M Z T ) &.&.D g f f g d g d d d d d d d d g d g g g D +.O.] R Z V V b b b m m M M Z Z Z Z Z Z Z M L Z S F T ~ ~ ^ ^ l +                           ",
"                          + z / ] | W I A A V v b x v k d v v v v v b v b Z A G / } *.*.*.) b g g f f d d d d d d d d d d d d d f g V ! *.*.O.} Q U I Z M V M V Z Z B Z Z Z Z B M M Z S S F E ~ ^ ^ K :                           ",
"                          = L ( | [ E I A A b b b b v k b x d v b A U Q ( ] &.*.*.*.*.*.{ A g g f d d f d d d d d d d d d d d d d f g S { *.*.*.*.*.&.| ( Q T U L M M M M B B B M M M M S Y T ~ ^ ^ T 7                           ",
"                          7 U ( O.] U P P V b b x d v z d x b b F O.*.*.*.*.*.*.*.*.*.! A l g d d d d d d d d d d d d d d d d d d f f k Z ' *.*.*.*.*.*.*.*.*.&.T M B M M M B M M N M M L S U ~ T T ^ i                           ",
"                          y ~ ( o.' I A A V b x b x d d b x b x S } &.*.*.*.*.&.} ! F M g g u d d d u u u u u u d d u u u d u d d u d f g V F ! { *.*.*.*.*.*.{ F M M b B B M M N M M M B S Y ~ Q ^ T x %                         ",
"                        # z R [ o.W I A V b b b b d b x x d d v v Z U ^ ( Q T F Z v l g u g d u d u u u u u u u d d u u u u u u u u d d f f g V Z F R Q ' Q R Z M N b N v M v x M v v v M L S ~ ! Q ^ M =                         ",
"                        * J U [ $.~ I P V b x d x v z k x d x x k l v v v v l h g g g u u d u u u u u u u u u u d u u u u u u u u u u u d f f f k l b b b b b b b l v b M v x v x v x M N Z F E ] ! T K :                         ",
"                        - K R ..o.W I V K b b b x d v k d b v d h k g h g g g g u g u u u u u u u u u u u u u u u u u u u u u u u u u u d d d f f f f g f j l k v v l l N v M M M M x v M M S ~ ) / ^ P >                         ",
"                        , L R ..o.W P V V x b x z v k z z k k h h g h g p p g p p u g u u u u u u u u u u u p f g f f u u d d d u u u u u p p f p f f f f j c l h v v v x N v x v v v x M Z S T { / T P 4                         ",
"                        , L U ..o.W P A b b b d z k k k k k h k h h g s h p p p p p p u u u u u u u d g M I Q ' ' ' Q G c g d u u u u u u p p p p f f f f j f j h h h v v M M x v x v x N Z Z ~ [ ( R P 1                         ",
"                        , I U ..o.) P V V b b x v k k z k h h h g g g p g s g p p p p p u u u u u g C ` &.*.-.*.*.*.*.*.O.) V g f u u u p u p p f f f f k p j g v h v h v x M v x x v v N B J ~ [ ^ T P >                         ",
"                        > L I X.o.) P V b x b x z z k k j k k h h h s g p p p p p u u u u u u u g G +.*.-.*.*.*.*.*.*.*.*.$.X.H k p u u u p p p p f f f g f f j h h h v v v v x M v v x N Z L ~ [ Q T K =                         ",
"                        = J I [ #.) I Z m v l l l k x k z k h h h h f h f p f p p p p u u u u p b ` *.*.+.O.} ` ` ] } O.*.*.*.] b f u u p p p p p p f f g j f f k l l h v l x m x v k m N J Z Q ' U T N %                         ",
"                        % m I ' #._ I Z m m m l l k h k h k k h h g h f h h p p p p u u u u u p g D ' Q F b c g g k k b F ~ ~ F f p u u u u u p p f f f f f g j k h h l l v l v v l x x N M K Q ! I T s                           ",
"                          s Y ^ @.X.T Z M m v v k z z k k h k h h f h f f f s f p p p u u u u u u u p p u u u q u u u u u u f p u u u u p p p p p f f f f j g f h h l l l N x l x l x m N M K Q T Y Y 8                           ",
"                          w P U X.@.! K J m x l z k z k z h h h h h h f h p p p p p u p u u u u u u u u u u u u u u u u u u u u u u u u p u p p p p f f f f j j h h h l l l l m v l x m J J S T T Y K >                           ",
"                          : K I ) @._ F B B v l v k k k z k h h h h g g h p p p p p u p u u u u u u u u u u u u u u u u u u u u u u u u p p p p f f p j p j j f h k h h x l l l l l m x J J P T I Y z @                           ",
"                          % z I Q o.X.E Z B N n v z z k k h h j h f s p h p g p p p p u p u u u u u u u u u u u u u u u u u u u u p p p p p p p g p p g p g f j h l h l k l l l x l x m B K P Y P P 8                             ",
"                            8 P Y ) o.) I B N N x z k k h k h k h h h h h p s p p p p p p u u u u u u u u u u u u u u u u u u u p p p p p p p p p g p p p f g g h l l h x k z k z z x J J K P P Y J %                             ",
"                            % J S Q ) ` U L N N m z z z j h h h h h p g h p h p p p p p u p p u u u u u u q u u u u u u u u u u p p p p p p p k p s s j j j s j h h h l k z k x k x m J K J P P L 7                               ",
"                              8 L Y ~ ) ! F B N N x x x l h h h h h h g p g p p p p p p p p p p u u u u u u u u u u u u u u u u p p p p p p f p f s s s s s s k h l k h z k z z x x J N J K K P h %                               ",
"                              % s L Y R ! G I B N N x x z x z h h h h h s h s p p g p p p p p p p u u u u u u u u u u u u u u u p p p p p f p f f p k k k k k s h h z h n k k n x z N J M J J J 4                                 ",
"                                : N L Y U U S Z N N x x x z z z h h h h s h h g p s p p p p p p p i u p u u p u u u u u p u u u p p p p k s p s k p k s k s z k n s h h h k h n x J n N J J J 8 X                                 ",
"                                X : N L I I F Z M N x x x x x z x h z h h h s p s p g p p p p p u u p u p p p p u u u u u p p p p p p s p p k p s k s k s k h h k k n k z n z z n n J J J J e @                                   ",
"                                  O : z L P S L B N N N x x x z z z h z h h h h g p p p p p p p p p p p p p p p p p p p p p p p s p p p s p s s p k s k s h z k z z z s z z n n n J J J N e @                                     ",
"                                      * t N L J B N N x x x x z z z z z h z h h s p s h p h p p p p p p p p p p p p p p p p p s p p k p f p k k k s k s k k k h z z x x n z z n z J x z 8 @                                       ",
"                                        + < s N J B N N x x x z z z z z h z z s z z g z z p p s p p p p p p p p p p p p p p p p p p f s k s k s s k k s h z z z z z x x x x N N J n z 4 +                                         ",
"                                            % 4 p N N N J x x x x z z z z z z z s z s s z s z s s s s p s p k p s s p p s k s s k s j s k j s j z j z z z z z z n z x x N x z N x a : X                                           ",
"                                                + : w z x N n n n z z z z z z z h h h z s s h h s h h s h h s h s h h h s h h h s z h z s z h z z z z z n z z z z z z N z J z s 7 %                                               ",
"                                                    X * 4 w a z n n n n z z z h z z z s z h z s z h s h h s s h h s h s h z h s h z h z z z z z z z z z z z z n n n z N n z 9 = X                                                 ",
"                                                          X @ = 4 8 t s z z x x x z z h z h z h s h z s h h z h h h h s s s a a s a s s s h h z z z z n n n n z J s s a 7 * O                                                     ",
"                                                                    + * : 4 8 e i a s s h s s s s s a a a e 9 7 2 : : = * % % % % % % % = : : < 7 7 9 e 9 9 7 7 < : % O                                                           ",
"                                                                                + @ * * * * = * * * % # +                                                                                                                         ",
"                                                                                                                                                                                                                                  ",
"                                                                                                                                                                                                                                  ",
"                                                                                                                                                                                                                                  ",
"                                                                                                                                                                                                                                  ",
"                                                                                                                                                                                                                                  ",
"                                                                                                                                                                                                                                  ",
"                                                                                                                                                                                                                                  ",
"                                                                                                                                                                                                                                  "
};
