/* XPM */
static char *SlimeBasic_00025[] = {
/* columns rows colors chars-per-pixel */
"113 77 106 2 ",
"   c None",
".  c #060B04",
"X  c #091106",
"o  c #0B1408",
"O  c #0E1A0A",
"+  c #101E0C",
"@  c #13230E",
"#  c #15290F",
"$  c #152610",
"%  c #162A10",
"&  c #192D12",
"*  c #173011",
"=  c #1B3214",
"-  c #1E3A16",
";  c #203D17",
":  c #213D19",
">  c #204017",
",  c #24431A",
"<  c #2A4C1F",
"1  c #2A531E",
"2  c #2C4F21",
"3  c #2D5421",
"4  c #2E5C22",
"5  c #305724",
"6  c #325C25",
"7  c #346326",
"8  c #376D27",
"9  c #376628",
"0  c #38662A",
"q  c #376A28",
"w  c #3A6D2A",
"e  c #3C722C",
"r  c #3E7D2A",
"t  c #40752F",
"y  c #407F2C",
"u  c #407430",
"i  c #447C32",
"p  c #3F802B",
"a  c #42822D",
"s  c #448A2E",
"d  c #458432",
"f  c #498636",
"g  c #478B31",
"h  c #498B34",
"j  c #4B8738",
"k  c #4D8C39",
"l  c #479031",
"z  c #4B9435",
"x  c #4E9B36",
"c  c #4E923A",
"v  c #4F9B38",
"b  c #509E37",
"n  c #51943C",
"m  c #529C3B",
"M  c #4FA037",
"N  c #4FA038",
"B  c #50A137",
"V  c #53A33A",
"C  c #55AB3C",
"Z  c #58AE3F",
"A  c #57B13D",
"S  c #59B43E",
"D  c #5ABB3F",
"F  c #5CC03F",
"G  c #569F40",
"H  c #57A440",
"J  c #59A342",
"K  c #5AAC42",
"L  c #5DB443",
"P  c #5DBB42",
"I  c #60B646",
"U  c #61BC45",
"Y  c #63BC48",
"T  c #5EC341",
"R  c #5FC841",
"E  c #62C445",
"W  c #63CB45",
"Q  c #66C449",
"!  c #68C74B",
"~  c #66CB49",
"^  c #69CC4C",
"/  c #65D346",
"(  c #65DA47",
")  c #69DD47",
"_  c #67D448",
"`  c #6BD44C",
"'  c #67DA48",
"]  c #6CDB4C",
"[  c #70DE4F",
"{  c #6FDA50",
"}  c #71DD51",
"|  c #66E447",
" . c #67E149",
".. c #6DE34C",
"X. c #6CEB4B",
"o. c #70E34F",
"O. c #71EB4F",
"+. c #6DF44C",
"@. c #71F44E",
"#. c #73FC4F",
"$. c #72E551",
"%. c #75EC54",
"&. c #76F353",
"*. c #79F556",
"=. c #76FD51",
"-. c #79FD55",
/* pixels */
"                                                                                                                                                                                                                                  ",
"                                                                                                                                                                                                                                  ",
"                                                                                                                                                                                                                                  ",
"                                                                                                                                                                                                                                  ",
"                                                                                                                                                                                                                                  ",
"                                                                                                                                                                                                                                  ",
"                                                                                                                                                                                                                                  ",
"                                                                                                                                                                                                                                  ",
"                                                                                                                                                                                                                                  ",
"                                                                                                      - 1 e z V V N x g 7 , #                                                                                                     ",
"                                                                                              % 1 r C ~ %.&.&.*.*.*.*.*.%.] T z 7 ;                                                                                               ",
"                                                                                        * 4 z R [ &.*.*.&.&.&.&.%.*.*.*.*.*.*.&.%.` V w -                                                                                         ",
"                                                                                  @ 1 g R $.%.*.&.&.%.%.O.o.O.o.O.@.-.=.*.*.*.-.-.-.*.%.` m 4 $                                                                                   ",
"                                                                            o > r P [ &.*.%.%.O.%.$.......] ] ] o.X.O.@.*.#.*.-.-.-.-.-.&.&.o.U y , X                                                                             ",
"                                                                        @ 4 v ` %.%.%.%.%.&.O.[ ] ] ] _ ` / / ` ] ]  .O.+.@.#.#.=.=.-.-.-.-.*.*.%.{ V 5 X                                                                         ",
"                                                                    % 8 L $.%.%.$.%.%.$.[ [ ] ] ] _ _ ~ W W E R W / / ]  .X.+.#.#.=.-.-.-.-.-.-.&.%.%.[ Z 6 $                                                                     ",
"                                                                @ t Y o.%.%.%.o.o.o.o.o.) ] ( / W R T T F F F F F F F F F F | | X.+.#.#.#.#.=.-.-.-.&.%.%.[ L 6 +                                                                 ",
"                                                            X 1 Z } %.%.o.o.o.o.o.o.) ) / / R F F F T D S F S F F S F F F F F F R / ) X.+.#.=.=.=.-.-.-.%.%.$.] b ; X                                                             ",
"                                                          % d ^ o.o.o.o.o.o.) o.) ] / W T T F F S S S S S S S S A F A F S F F F D F F R ) ) +.+.+.=.&.=.=.&.%.o.} ! 8 +                                                           ",
"                                                        , C } $.o.} [ [ [ [ ) ( / R R F F D S S S S S S S S S S A S A A S S S F D D F D D R ) / O.O.&.&.&.=.&.&.$.} { m ;                                                         ",
"                                                    o 7 ! } [ [ } [ ) ` ( / / R F F D D A S A A S C S S S S S F A F A F S A S S D A D D D F F R R / ) o.O.&.@.&.&.%.$.} U 5 X                                                     ",
"                                                  o r ` } [ [ ] { ` / ` W R F F D D S A A A A A C S S S S S S S A A A A S F S S A D A D S S D S P T T ) ) o.O.O.%.@.%.$.} ~ 7 X                                                   ",
"                                                o t { [ { { ` ` / W T T T F D S A A A A C C C C S S S S S S S S A A A A A A A F F D S S S S S S D D F F R ) ) o.O.O.O.O.o.} ! u o                                                 ",
"                                              . 8 ^ { { ` ^ ~ W W T T T F S S A C C C C C C C A C C C C C C C C A A A A A A A A S S S S S S S S S D S F F F T / ] o.O.o.$.[ ` ! u o                                               ",
"                                              1 ^ } { ` ~ W E E T D D D Z C C C C C M C V C C A A A A A M A A A N A A M S A A A S S S S S S S S D C D D D D D U R /  .o.X.o.o.[ Y 2                                               ",
"                                            - L } ] ` ^ E E E D D D Z C C C C C V V V C C C C C M M M M M M M M N M M M M A A M V A S S S S S S C D C D D D D D T T R ` ) o.o.[ { J :                                             ",
"                                          @ c } [ ` ! Q T T D S D C C C b C b b M C M C M C M V M M M M M M M M N N N N M N N M V A C C V S S S P C D C C D D D D D T ! W ] ) o.] ` k O                                           ",
"                                          e ` } ` ^ E U U D S S C C C b b b b b M M M C C M M M M M l M M M M M M M N N M N A M V V B C V S V S D C C C D C D I D D D T T ~ ` [ ] ] ! u                                           ",
"                                        , E } ` ^ E U D D S Z C C b b b b b b b M M M M M M x M M M l M M p N N M M M M N M M M V B V C V C C C C C C C C C D C Z D D D T E ~ ` ` ` ` I <                                         ",
"                                      @ c ` ` ^ Q U U S S Z C V b b b b b v v b M M M M x M l M l x x l M l M p p M p M M M l M b b B V V V V C C C C C D C C C C Z Z D D D T ! ` ] ` ! n &                                       ",
"                                      7 ^ { ` ^ U S S S Z V V b v v v z v v v b x x x x x l l l l x l l N M M p M p p M p M M l x x b b b V V C C C C C C C C C C Z C D Z D D E ! ` ^ ^ Y 0                                       ",
"                                    % V ` ] ^ E P S S Z V V x x v v v z z z v v x x l l x l x l l l l l p M p M p M M p M M p M x l b b b b b V V C C C C C C C C C K Z D D D D Y ` ^ ^ ! V =                                     ",
"                                    9 ~ { ` ~ P P S K H N v x z h v z x x x x z z z l l l l l l l l l l s s s s s s s l s l l l l l l x x x x x V V V V C V C C C C V L C S S P U E ! ^ ^ ! 0                                     ",
"                                  $ N ^ ` ` P L S C C N v z z z h h z z z z z z z z l l l l l l l a l p s s s s s s p s s s s l l l l l x l x x x b b V V C V H V C S V V S C S S U ! ! ^ ! V &                                   ",
"                                  3 Q { ] ~ L S C C N v x z z z z h z z z z z z z a l z l l l a l p p p s s s p p p s s s s s s a l l z l l l x l b x b b V V V V K V K C C V C C U E E ^ ! E 5                                   ",
"                                O g ~ { _ Q S S C N v x z z h z z z z z z l h l z a l z z z l l p l p s p s p s p s p s p p s s l l l x x l x l l x l b b b V V V V b V b V V b C K U U ! ! ! z +                                 ",
"                                - K ^ [ _ P L C C v x z z h h z z z z z l z l z z z V C E / C l p s p s p p p p p p p p p s p s s l C ` Y D C b b b z z b b b C V V V b b V V b V C L U P ! Q K :                                 ",
"                                4 Y _ [ W P S C N x x z z z z h z z z z x x M C U ~ ) o.%.) M l p p s p p p p p p p p p p p p p p l M ) %.o.` ~ P C C V b b b b V V b b V b V b B C K U Q ! Q Q 6                                 ",
"                                i Q ] ..E K C C v x z z z h h z b C U E ! ` ) o.%.%.%.%.` C l s p p p p p p p p p p p p p p p p p a z C ` %.%.%.%.$.[ ] ` ! E P C V B B B n n n B b C L P ! Q Q f                                 ",
"                              % v Q  .] P S C N x c z g z p z z D o.%.%.%.*.%.*.%.o.` D x l a p p p p p p p p p p p p p p p p p a a a h b D ) X.%.%.%.%.%.%.%.$.U m n b b B B n n n V L P Q Q Q m &                               ",
"                              - H ~  .] P C C x x z z h h z h z b I ~ ` ) ` ` E D C x l a a p p r r r r r r r r r r r r r r r p p p p a a l z C D ! ~ ) ` ` ~ D C B b z z z m m z z J K P E E Q K :                               ",
"                              3 L ~ O.] P K N x x z h h z p h z k z z x x x z h h a a a a p p p r r r r r r r r r r r r r r r r r p p p a a a s h z b x b C b z z n b n z z z z z V z K U E ~ ! I 3                               ",
"                              6 L ~ +._ K C N v c z z g h h h h h h z d h a a a a a a a p p r r r r r r r r r r r r r r r r r r r r r a p p a a a a a h z h h z h z z b z z z z z z J J L E ` P Y 6                               ",
"                              w L ^ +._ P H N v z z h h h h p z a h d a a h a a a a p r r r r r r r r r r r r r r r r r r r r r r r r r p a p a a a a l d d l h h z n z n z n n z z m m S / ` E Y w                               ",
"                              w P ~ +./ K C v v z g h h g h h g h a a a h a a a a p a r r r r r r r r r a z B V S C B l p p r r r r r r y a y a a a d l h l a h h z z n z n z h z z m m K ^ ` E Y e                               ",
"                              w L R +.( P N v x z c h h h g f g d h h d a a a a a p r y p r r r r r p x E [ %.%.%.%.o.[ F B p p r r r r r y y a a a a a d a h h f f z n z z n z n m m V K ^ ` E Y e                               ",
"                              w I ! +.] P N v z z g h h h d h d h h a a a a a a y y r r r r r r p s D ) %.%.%.%.%.%.%.%.%.o.D s r r r r r y y y y a a d a h h a a a z z n n h n z n m m S ^ ` P Y w                               ",
"                              7 L Q +. .P H v v c h h h h h g d a d a d d a a a y y p y r r r a s D O.%.%.%.%.%.%.%.%.%.%.O.O.D l y r r r y y y a a d a h a d h z f z z z z z h h z n m C ^ / P Y 9                               ",
"                              3 K Y +.X.F V v c z z h g f g d g d d y s d d s y y y y r y r y y B ` %.%.%.%.%.%.%.%.%.%.%.%.%.` z a p r r p a y a a a a a h d h f h h z z c c c h c c G K _ Q Y L 3                               ",
"                              : V U ..+.W K m v z h h h h g h d d d d d y y y d y y y y y r r y z ` %.%.o./ T S C S T ^ $.%.%.^ z a r r r y r y y a a a d a h a f h h h h c h h c c m m K W U I K :                               ",
"                              % n I ] +./ C m c c c h g h d h d g d d d d s y y y y y r r r r r a B S S b s r r r r y s b S D b a r r r y r a y a a a a a h d h s f h z h h h h h c n G L E Y I n %                               ",
"                                t S E @.| L V m c h h h h h d d d d d d y y d y y y y r y r r r r r r r r r r r r r r r r y y y r r r y r y y a a a a a d a d a s h h h c h h h c c m G L T I I i                                 ",
"                                5 K I  .X.E G m c z h h h h d g d d d d s y y y y y y y y r r r r r r r r r r 8 r r r r r r r r r r y r y y y y y d d a d d d h f f h h h h h f c c m H L I I K 3                                 ",
"                                = k K ~ X./ Z b c c h h h d f g d g d d d y y d y y y y r y r r r r r r r r r r r r r r r r r r r r r y y y a y a y y d a d d d s f d h h h G j c c G H L K K n &                                 ",
"                                o u K D ( ( P C v n c h h g f d d d d d d d a y y y y y y y y y r r r r r e r r r r r r r r r r y y y y y y y a y y d a d d d d d h h h h h h h h G H H K I K 0                                   ",
"                                  : m D T ( W C m c c h h f d d d d d s y y s a a y y y y y y y r r r r r r r r r r r r r r r r y y y y y y y y d a d d d d d h d d f h j h h h G m G H J K n &                                   ",
"                                  + 0 K I ! W P V n n n k f i k d d d d d y s y y y y y y y y y r r r r r r r r r r r r r r r r y y y y y a y d t s d t d d d h h d h h f h k n n G G J J J 6 X                                   ",
"                                    & i J I E P K m n k k k k k d d d d d s y y s y y y y y y y y r y r r r r r r r r r r r r r y y y y a y a a s s d s d d d d d h f h h h k n n n n G J i $                                     ",
"                                      : n J I P Z H m k k k k i g d d d d d d y y y y y y y y y y r r y r r y y r r r w y r r r a y y y y y s a t d t h d h d f h h f f k k k n n G G G j =                                       ",
"                                        : n K L Z H m n k n n i k f f d d f y d f y y f i y y y y y y y r y y y r r r r y y y y a a t a a a t d s d s d d s f f d h h h k k k n n n G j :                                         ",
"                                          : i J K V m n k k k k k k k f d d y f y s y y y y y y y y y y y y y y y y y y y y y y y a y a s d d t s d d d i k f f k i G j k k m n n n i :                                           ",
"                                            : i V H V n n k k k k k i k f f f d f y i y s f i y y y y y y y y y y y y y y y y y a t s t t t s s t d d d i i f j k j i j n k k n n w &                                             ",
"                                              & 0 k G n n n k k k i k i k f f i f f f y i i y y y f i y y f y y y y y y y y y i t s t d d s d d d d h f i G j j G i i G k k G i 5 @                                               ",
"                                                o : u n n n n n k k f k f f k f f i f d f f f f i i i i i y f f i y f i i y y y s d d y d d d d f f f f j i G j i G G i G G u : o                                                 ",
"                                                    + 2 i G h G f j j i j j i G u j j i d d i i d f i d d j i d d i d i d i i d d f i f f f f f f j j j j k k k k k k k i 2 +                                                     ",
"                                                        $ 2 w j G G h G j j i G j i j j f d j d j i d f d i f d f d d f d f d f d f f f f f f f j j h k k k k k G k i 5 &                                                         ",
"                                                            + , 0 u i G G G i h j j f f j j f j d f d i i i u u t t t t i t i f f f f f f h f f j j k h k k j i u 2 %                                                             ",
"                                                                  + = 2 5 w u i d f i i u e w 9 5 2 , : - & $ $ $ @ @ $ & - ; , < 5 7 w t i i i j i u t 0 5 : % X                                                                 ",
"                                                                          O $ & % & = & $ + o                                           + $ & & & & + +                                                                           ",
"                                                                                                                                                                                                                                  ",
"                                                                                                                                                                                                                                  ",
"                                                                                                                                                                                                                                  ",
"                                                                                                                                                                                                                                  ",
"                                                                                                                                                                                                                                  ",
"                                                                                                                                                                                                                                  ",
"                                                                                                                                                                                                                                  ",
"                                                                                                                                                                                                                                  "
};
